M48
; DRILL file {KiCad (5.1.8)-1} date 01/12/21 15:50:30
; FORMAT={-:-/ absolute / metric / decimal}
; #@! TF.CreationDate,2021-01-12T15:50:30+01:00
; #@! TF.GenerationSoftware,Kicad,Pcbnew,(5.1.8)-1
FMAT,2
METRIC
T1C0.300
T2C0.400
T3C0.650
T4C1.000
%
G90
G05
T1
X-17.6Y10.0
X-17.6Y6.5
X-17.6Y3.9
X-17.395Y-20.813
X-17.368Y-21.759
X-17.258Y8.082
X-17.2Y9.5
X-16.606Y-15.404
X-16.6Y9.2
X-16.447Y-17.448
X-16.3Y10.3
X-15.956Y-20.356
X-15.884Y-18.712
X-15.8Y9.1
X-15.7Y10.3
X-15.301Y-16.709
X-15.195Y-20.387
X-14.9Y10.3
X-14.9Y9.1
X-14.403Y-15.607
X-14.2Y8.5
X-14.1Y10.0
X-14.03Y-18.14
X-14.019Y-17.438
X-13.996Y6.778
X-13.989Y-18.841
X-13.833Y-8.942
X-13.712Y-20.498
X-13.6Y4.3
X-13.596Y0.964
X-13.5Y9.5
X-13.5Y8.0
X-13.49Y3.56
X-13.35Y-9.87
X-13.344Y-6.27
X-13.34Y-4.99
X-13.317Y-21.581
X-13.3Y5.1
X-13.15Y10.25
X-13.15Y-1.38
X-13.055Y-20.185
X-12.9Y9.2
X-12.7Y7.7
X-12.66Y-13.09
X-12.6Y7.0
X-12.6Y6.3
X-12.6Y5.5
X-12.6Y0.96
X-12.56Y-14.1
X-12.3Y9.5
X-12.1Y10.25
X-12.097Y-17.877
X-12.02Y-1.39
X-11.777Y-7.785
X-11.7Y-18.604
X-11.552Y0.93
X-11.475Y-9.698
X-11.32Y-15.644
X-11.275Y-11.975
X-11.26Y-3.988
X-11.2Y8.35
X-11.11Y-1.32
X-11.02Y6.41
X-10.6Y1.03
X-10.598Y-3.716
X-10.51Y-19.68
X-10.387Y-2.653
X-10.2Y9.4
X-9.92Y6.01
X-9.9Y-10.427
X-9.9Y-11.9
X-9.897Y-13.251
X-9.897Y2.626
X-9.895Y7.319
X-9.81Y-0.674
X-9.796Y-17.459
X-9.794Y-16.8
X-9.646Y-1.357
X-9.604Y7.958
X-9.589Y-15.117
X-9.558Y1.204
X-9.431Y-0.144
X-9.32Y3.56
X-9.2Y10.2
X-9.056Y-17.086
X-8.926Y8.143
X-8.232Y-16.523
X-8.2Y10.2
X-8.044Y-17.667
X-8.03Y-19.72
X-7.94Y4.57
X-7.72Y8.82
X-7.71Y6.4
X-7.7Y-13.627
X-7.414Y-15.044
X-7.388Y-15.763
X-7.342Y-17.695
X-7.2Y10.2
X-7.032Y-5.295
X-6.972Y6.479
X-6.877Y-17.075
X-6.814Y-13.114
X-6.77Y-15.324
X-6.45Y8.85
X-6.265Y6.482
X-6.2Y10.2
X-5.993Y-18.397
X-5.831Y-3.587
X-5.796Y-6.335
X-5.606Y-17.363
X-5.508Y-10.824
X-5.45Y-11.75
X-5.205Y-19.047
X-5.194Y-21.997
X-5.13Y4.35
X-5.0Y10.2
X-4.89Y8.89
X-4.863Y-20.623
X-4.75Y-21.35
X-4.71Y-10.177
X-4.374Y-14.2
X-4.275Y-15.425
X-4.25Y6.4
X-4.21Y-21.928
X-4.19Y2.12
X-4.157Y-18.585
X-4.1Y8.9
X-4.06Y1.34
X-3.9Y10.2
X-3.75Y-4.17
X-3.613Y-5.654
X-3.6Y-20.05
X-3.559Y-4.954
X-3.5Y-7.4
X-3.432Y-0.342
X-3.42Y1.253
X-3.4Y-2.0
X-3.34Y1.99
X-3.29Y4.38
X-3.1Y10.2
X-3.1Y8.9
X-3.0Y-9.3
X-2.725Y1.775
X-2.35Y-9.397
X-2.295Y-10.339
X-2.044Y-12.952
X-2.005Y-14.798
X-2.0Y10.3
X-2.0Y8.8
X-1.85Y-19.0
X-1.8Y-16.4
X-1.7Y-3.65
X-1.48Y4.37
X-1.4Y-6.89
X-1.3Y8.6
X-1.1Y10.3
X-0.983Y-10.247
X-0.874Y-2.791
X-0.8Y-4.6
X-0.36Y-7.4
X-0.279Y-10.251
X-0.15Y10.3
X-0.1Y1.8
X-0.1Y-0.148
X-0.08Y0.9
X0.0Y-2.15
X0.0Y-13.0
X0.0Y-14.6
X0.0Y-16.4
X0.049Y-3.714
X0.1Y-5.4
X0.3Y8.8
X0.372Y-10.56
X0.387Y-7.379
X0.54Y5.96
X0.55Y-19.347
X0.677Y-9.507
X0.764Y-8.498
X0.8Y10.3
X0.85Y-3.0
X0.9Y-4.6
X1.12Y6.47
X1.25Y-19.4
X1.42Y-7.25
X1.5Y8.8
X1.605Y-8.019
X1.65Y-3.8
X1.7Y-14.6
X1.7Y-16.4
X1.9Y10.1
X1.92Y6.27
X1.924Y-6.705
X1.95Y-13.0
X1.96Y5.56
X1.96Y3.47
X1.97Y4.85
X1.97Y4.18
X1.97Y2.84
X1.98Y2.14
X2.165Y-19.21
X2.45Y-5.734
X2.49Y8.64
X2.6Y10.1
X2.917Y-7.6
X2.983Y-6.328
X3.26Y7.3
X3.313Y-18.559
X3.345Y-10.912
X3.5Y-21.025
X3.52Y6.6
X3.55Y8.65
X3.57Y5.88
X3.6Y10.1
X3.67Y5.17
X3.792Y-5.017
X3.901Y-18.175
X4.0Y-10.33
X4.1Y-22.35
X4.293Y-16.032
X4.324Y-8.001
X4.34Y7.32
X4.4Y-18.7
X4.42Y4.34
X4.55Y8.7
X4.6Y10.1
X4.61Y-12.56
X4.709Y-17.492
X4.8Y-20.7
X4.805Y-7.15
X4.85Y-21.75
X5.03Y2.32
X5.05Y-20.0
X5.11Y7.12
X5.215Y-22.548
X5.25Y-18.16
X5.25Y-21.2
X5.47Y-11.89
X5.5Y-3.32
X5.54Y8.73
X5.553Y-16.676
X5.6Y2.6
X5.62Y-15.54
X5.7Y10.1
X5.7Y4.6
X5.7Y3.6
X5.79Y6.52
X6.011Y-6.788
X6.09Y5.63
X6.12Y-8.68
X6.45Y-14.771
X6.51Y8.78
X6.535Y-22.548
X6.559Y-5.495
X6.61Y-1.37
X6.8Y10.1
X6.93Y0.09
X7.0Y-19.5
X7.15Y-7.05
X7.2Y3.0
X7.2Y2.4
X7.24Y-4.08
X7.27Y-0.68
X7.37Y7.976
X7.4Y8.82
X7.41Y-5.81
X7.54Y1.15
X7.655Y-10.145
X7.8Y10.1
X7.85Y-3.34
X7.94Y-0.09
X8.0Y-22.05
X8.2Y8.7
X8.2Y3.6
X8.21Y-8.38
X8.232Y5.417
X8.271Y6.37
X8.3Y4.55
X8.4Y2.6
X8.4Y0.6
X8.6Y2.0
X8.6Y1.2
X8.691Y-22.412
X8.7Y8.2
X8.8Y4.2
X8.8Y3.4
X8.86Y-2.57
X8.87Y-8.38
X9.0Y9.8
X9.227Y-12.307
X9.393Y-22.4
X9.4Y-2.01
X9.6Y9.2
X9.793Y-12.873
X9.95Y-0.15
X10.0Y8.3
X10.0Y7.4
X10.0Y6.6
X10.0Y5.8
X10.0Y5.0
X10.0Y4.2
X10.0Y3.5
X10.0Y-1.38
X10.0Y-15.6
X10.0Y-17.4
X10.06Y-19.56
X10.13Y2.62
X10.175Y-22.425
X10.31Y1.51
X10.795Y10.04
X10.8Y-0.05
X10.95Y0.84
X11.071Y5.713
X11.071Y4.508
X11.071Y3.304
X11.415Y-7.909
X11.447Y8.735
X11.447Y6.778
X11.58Y-6.5
X11.617Y-7.201
X11.64Y-9.53
X11.69Y-10.33
X11.824Y-22.161
X11.85Y-14.15
X12.05Y-5.95
X12.12Y-4.35
X12.317Y-12.665
X12.752Y10.04
X12.752Y8.082
X12.878Y1.496
X13.07Y-17.15
X13.404Y4.82
X13.404Y2.863
X13.404Y-1.051
X14.057Y9.387
X15.362Y10.04
X15.446Y-20.548
X16.666Y9.387
X17.095Y8.123
X17.095Y6.918
X17.095Y5.713
X17.095Y4.508
X17.095Y3.304
X17.095Y2.099
X17.095Y0.894
X17.095Y-0.311
X17.095Y-1.516
X17.095Y-2.72
X17.095Y-4.528
T2
X-5.75Y-8.15
X-3.012Y-8.262
X14.65Y-10.6
X16.98Y-17.59
X17.423Y-21.748
T3
X-15.4Y-10.33
X-15.4Y-11.6
T4
X15.5Y7.7
X15.5Y5.16
X15.5Y2.62
X15.5Y0.08
X15.5Y-2.46
X15.5Y-5.0
X15.5Y-7.54
X-15.5Y7.74
X-15.5Y5.2
X-15.5Y2.66
X-15.5Y0.12
X-15.5Y-2.42
X-15.5Y-4.96
X-15.5Y-7.5
T0
M30
