G04 #@! TF.GenerationSoftware,KiCad,Pcbnew,(5.1.8)-1*
G04 #@! TF.CreationDate,2021-01-12T15:50:27+01:00*
G04 #@! TF.ProjectId,pcb-LR1110,7063622d-4c52-4313-9131-302e6b696361,1.1*
G04 #@! TF.SameCoordinates,PX8f0d180PY5f5e100*
G04 #@! TF.FileFunction,Copper,L2,Inr*
G04 #@! TF.FilePolarity,Positive*
%FSLAX46Y46*%
G04 Gerber Fmt 4.6, Leading zero omitted, Abs format (unit mm)*
G04 Created by KiCad (PCBNEW (5.1.8)-1) date 2021-01-12 15:50:27*
%MOMM*%
%LPD*%
G01*
G04 APERTURE LIST*
G04 #@! TA.AperFunction,ComponentPad*
%ADD10O,1.700000X1.700000*%
G04 #@! TD*
G04 #@! TA.AperFunction,ComponentPad*
%ADD11R,1.700000X1.700000*%
G04 #@! TD*
G04 #@! TA.AperFunction,ComponentPad*
%ADD12R,1.000000X1.000000*%
G04 #@! TD*
G04 #@! TA.AperFunction,ComponentPad*
%ADD13O,1.000000X1.000000*%
G04 #@! TD*
G04 #@! TA.AperFunction,ViaPad*
%ADD14C,0.800000*%
G04 #@! TD*
G04 #@! TA.AperFunction,ViaPad*
%ADD15C,0.550000*%
G04 #@! TD*
G04 #@! TA.AperFunction,ViaPad*
%ADD16C,0.450000*%
G04 #@! TD*
G04 #@! TA.AperFunction,ViaPad*
%ADD17C,0.700000*%
G04 #@! TD*
G04 #@! TA.AperFunction,ViaPad*
%ADD18C,0.600000*%
G04 #@! TD*
G04 #@! TA.AperFunction,ViaPad*
%ADD19C,0.500000*%
G04 #@! TD*
G04 #@! TA.AperFunction,Conductor*
%ADD20C,0.254000*%
G04 #@! TD*
G04 #@! TA.AperFunction,Conductor*
%ADD21C,0.100000*%
G04 #@! TD*
G04 APERTURE END LIST*
D10*
X-15500000Y7740000D03*
X-15500000Y5200000D03*
X-15500000Y2660000D03*
X-15500000Y120000D03*
X-15500000Y-2420000D03*
X-15500000Y-4960000D03*
D11*
X-15500000Y-7500000D03*
X15500000Y-7540000D03*
D10*
X15500000Y-5000000D03*
X15500000Y-2460000D03*
X15500000Y80000D03*
X15500000Y2620000D03*
X15500000Y5160000D03*
X15500000Y7700000D03*
D12*
X-15400000Y-11600000D03*
D13*
X-15400000Y-10330000D03*
D14*
X14650000Y-10600000D03*
X16980000Y-17590000D03*
X17422600Y-21747599D03*
D15*
X10060000Y-19560000D03*
X-2725000Y1775000D03*
X-4190000Y2120000D03*
X-7940000Y4570000D03*
D16*
X-11020000Y6410000D03*
X-11200000Y8350000D03*
X-4890000Y8890000D03*
X-6450000Y8850000D03*
X6930000Y90000D03*
X7540000Y1150000D03*
X-13490000Y3560000D03*
X-9320000Y3560000D03*
D15*
X-5831124Y-3587013D03*
X4610000Y-12560000D03*
X4100000Y-22350000D03*
X1700000Y-16400000D03*
X0Y-16400000D03*
X-1800000Y-16400000D03*
X0Y-13000000D03*
X1700000Y-14600000D03*
X0Y-14600000D03*
X900000Y-4600000D03*
X1650000Y-3800000D03*
X850000Y-3000000D03*
X0Y-2150000D03*
X-800000Y-4600000D03*
X-1700000Y-3650000D03*
X7000000Y-19500006D03*
X4400000Y-18700000D03*
X-9900000Y-11900000D03*
D17*
X-5750000Y-8150000D03*
D18*
X10000000Y-17400000D03*
X10000000Y-15600000D03*
D15*
X10175000Y-22425000D03*
X3500000Y-21025000D03*
X8000000Y-22050000D03*
X6535000Y-22547600D03*
X5215000Y-22547600D03*
X-3600000Y-20050000D03*
X12317410Y-12664905D03*
X7655001Y-10145001D03*
X12120000Y-4350000D03*
X8210000Y-8380000D03*
X5552938Y-16676210D03*
X3312910Y-18559429D03*
X-9900000Y-10427410D03*
X-4710000Y-10177410D03*
X-13350350Y-9869525D03*
X-11275000Y-11975000D03*
X-16447000Y-17448000D03*
X-13317000Y-21581000D03*
X-17368000Y-21759000D03*
X-17395000Y-20813000D03*
X-11319697Y-15644391D03*
X-9897486Y-13250590D03*
X-15884370Y-18711607D03*
X-8231672Y-16522695D03*
X-2005242Y-14797590D03*
X15446000Y-20548000D03*
X11824000Y-22161000D03*
X2164996Y-19210310D03*
X8271000Y6370000D03*
D17*
X-3011634Y-8261634D03*
D15*
X-5507850Y-10824395D03*
X-2295068Y-10338841D03*
X49475Y-3713630D03*
X-873502Y-2790654D03*
D16*
X-9430523Y-143910D03*
X-9557682Y1203818D03*
X-9897477Y2626197D03*
D15*
X-7720000Y8820000D03*
X-4250000Y6400000D03*
X-10386698Y-2653302D03*
X-3420000Y1253222D03*
X6090000Y5630000D03*
X3670000Y5170000D03*
X4420000Y4340000D03*
X5030000Y2320000D03*
X1920000Y6270000D03*
X1960000Y5560000D03*
X1970000Y4850000D03*
X1970000Y4180000D03*
X1960000Y3470000D03*
X1970000Y2840000D03*
X1980000Y2140000D03*
X1120000Y6470000D03*
X3570000Y5880000D03*
X3520000Y6600000D03*
X5790000Y6520000D03*
X5110000Y7120000D03*
X4340000Y7320000D03*
X3260000Y7300000D03*
X4550000Y8700000D03*
X3550000Y8650000D03*
X2490000Y8640000D03*
X5540000Y8730000D03*
X6510000Y8780000D03*
X7400000Y8820000D03*
D16*
X-1480000Y4370000D03*
X-3290000Y4380000D03*
X-5130000Y4350000D03*
X-4060000Y1340000D03*
X-3340000Y1990000D03*
X5500000Y-3320000D03*
X7240000Y-4080000D03*
X7850000Y-3340000D03*
X6610000Y-1370000D03*
X7270000Y-680000D03*
X7940000Y-90000D03*
X8860000Y-2570000D03*
X9400000Y-2010000D03*
X10000000Y-1380000D03*
X10950000Y840000D03*
X10310000Y1510000D03*
X10130000Y2620000D03*
X10000000Y3500000D03*
X10000000Y4200000D03*
X10000000Y5000000D03*
X10000000Y5800000D03*
X10000000Y6600000D03*
X10000000Y7400000D03*
X10000000Y8300000D03*
X9600000Y9200000D03*
X9000000Y9800000D03*
X7800000Y10100000D03*
X6800000Y10100000D03*
X5700000Y10100000D03*
X4600000Y10100000D03*
X3600000Y10100000D03*
X2600000Y10100000D03*
X1900000Y10100000D03*
X800000Y10300000D03*
X-1100000Y10300000D03*
X-2000000Y10300000D03*
X-3100000Y10200000D03*
X-3900000Y10200000D03*
X-5000000Y10200000D03*
X-6200000Y10200000D03*
X-7200000Y10200000D03*
X-8200000Y10200000D03*
X-9200000Y10200000D03*
X-4100000Y8900000D03*
X-3100000Y8900000D03*
X-2000000Y8800000D03*
X-1300000Y8600000D03*
X300000Y8800000D03*
X1500000Y8800000D03*
X-10200000Y9400000D03*
X-12100000Y10250000D03*
X-12300000Y9500000D03*
X-12900000Y9200000D03*
X-13500000Y9500000D03*
X-14100000Y10000000D03*
X-14900000Y10300000D03*
X-15700000Y10300000D03*
X-16300000Y10300000D03*
X-17600000Y10000000D03*
X-17200000Y9500000D03*
X-16600000Y9200000D03*
X-15800000Y9100000D03*
X-14900000Y9100000D03*
X-14200000Y8500000D03*
X-13500000Y8000000D03*
X-12700000Y7700000D03*
X-12600000Y7000000D03*
X-12600000Y6300000D03*
X-12600000Y5500000D03*
X-13300000Y5100000D03*
X-13600000Y4300000D03*
X8800000Y4200000D03*
X8800000Y3400000D03*
X8400000Y2600000D03*
X8600000Y2000000D03*
X8600000Y1200000D03*
X8400000Y600000D03*
X7200000Y2400000D03*
X7200000Y3000000D03*
X8200000Y3600000D03*
X5700000Y4600000D03*
X5700000Y3600000D03*
X5600000Y2600000D03*
X8200000Y8700000D03*
X8700000Y8200000D03*
D19*
X-17258401Y8082401D03*
X-16606001Y-15403999D03*
X-15301201Y-16708799D03*
X-13996401Y6777601D03*
X-13344001Y-6270399D03*
X-4862801Y-20623199D03*
X-4210401Y-21927999D03*
X10794799Y10039601D03*
X11447199Y8734801D03*
X11447199Y6777601D03*
X12751999Y10039601D03*
X12751999Y8082401D03*
X13404399Y4820401D03*
X13404399Y2863201D03*
X13404399Y-1051199D03*
X14056799Y9387201D03*
X15361599Y10039601D03*
X16666399Y9387201D03*
D16*
X-5796001Y-6334799D03*
X-5193601Y-21997199D03*
X11071199Y5713201D03*
X11071199Y4508401D03*
X11071199Y3303601D03*
X12878399Y1496401D03*
X17095199Y8122801D03*
X17095199Y6918001D03*
X17095199Y5713201D03*
X17095199Y4508401D03*
X17095199Y3303601D03*
X17095199Y2098801D03*
X17095199Y894001D03*
X17095199Y-310799D03*
X17095199Y-1515599D03*
X17095199Y-2720399D03*
X17095199Y-4527599D03*
X9950000Y-150000D03*
D15*
X100000Y-5400008D03*
X-2043607Y-12952410D03*
X1950000Y-13000000D03*
D16*
X-150000Y10300000D03*
X-13150000Y10250000D03*
X-17600000Y6500000D03*
X-17600000Y3900000D03*
X-4750000Y-21350000D03*
X11850000Y-14150000D03*
X8870000Y-8380000D03*
X8300000Y4550000D03*
D15*
X-7414053Y-15044227D03*
X-14403270Y-15606521D03*
X-4374132Y-14200000D03*
X13070000Y-17150000D03*
X4850000Y-21750000D03*
X4800000Y-20700000D03*
X5250000Y-21200000D03*
X5050000Y-20000000D03*
X-7700000Y-13627454D03*
X-3000000Y-9300000D03*
D18*
X-5450000Y-11750000D03*
D15*
X-6813556Y-13113562D03*
X5470000Y-11890000D03*
X-13832876Y-8942124D03*
X-11475000Y-9697598D03*
X-9796000Y-17459000D03*
X-9794000Y-16800000D03*
X-9055800Y-17086440D03*
X-2350416Y-9397116D03*
X6119986Y-8680014D03*
X-1850000Y-19000000D03*
X8691191Y-22412180D03*
X-7710000Y6400000D03*
D16*
X-9920000Y6010000D03*
D15*
X7370000Y7976000D03*
X-9646344Y-1357398D03*
X-10597548Y-3716090D03*
X-11260121Y-3987697D03*
X-8926000Y8142766D03*
X-100000Y1800000D03*
X540000Y5960000D03*
X-100000Y-147811D03*
X-80000Y900000D03*
X-13712000Y-20498000D03*
X-13054846Y-20185403D03*
X-14029628Y-18140074D03*
X-11699830Y-18603723D03*
X-12097393Y-17876607D03*
X11640000Y-9530000D03*
X11690000Y-10330000D03*
X11580000Y-6500000D03*
X12050000Y-5950004D03*
X-13340000Y-4990000D03*
X-7032404Y-5294732D03*
X-360000Y-7400000D03*
X-1400000Y-6890000D03*
X-3432133Y-342133D03*
X-6971999Y6478598D03*
X-11552189Y930009D03*
X-6264581Y6481902D03*
X-10600000Y1030000D03*
X-12600000Y960002D03*
X-9603651Y7957912D03*
X-13596089Y964092D03*
X-9894592Y7318600D03*
X-4275000Y-15425000D03*
X-7388151Y-15762590D03*
X3345109Y-10912335D03*
X-6769971Y-15324479D03*
X6010906Y-6787504D03*
X4804954Y-7150222D03*
X-7341826Y-17695388D03*
X-8043742Y-17667130D03*
X-8030000Y-19720000D03*
X-12660003Y-13089997D03*
X-14018662Y-17437748D03*
X-5993483Y-18397371D03*
X10800000Y-50000D03*
X-279191Y-10250677D03*
X-10510000Y-19680000D03*
X-12560000Y-14100000D03*
X-13989376Y-18841332D03*
X371691Y-10559722D03*
X9393495Y-22399862D03*
X5620000Y-15540000D03*
X6449767Y-14770987D03*
X-9588885Y-15117116D03*
X3900619Y-18174747D03*
X7410000Y-5810000D03*
X-9810302Y-674390D03*
X1923610Y-6704568D03*
X-11110000Y-1320000D03*
X1420000Y-7250000D03*
X-3612658Y-5654095D03*
X-13150000Y-1380000D03*
X-3559388Y-4953706D03*
X-12020000Y-1390000D03*
X1250000Y-19400000D03*
X8232000Y5417000D03*
X4000000Y-10330000D03*
X6559258Y-5494997D03*
X-15194891Y-20386935D03*
X-6877107Y-17075103D03*
X-5605628Y-17362778D03*
X-15956000Y-20356000D03*
X-5204885Y-19047065D03*
X3791820Y-5016947D03*
X2916634Y-7600154D03*
X549573Y-19347236D03*
X-4157073Y-18585455D03*
X4323854Y-8001247D03*
X5250000Y-18160000D03*
X11617403Y-7201416D03*
X7150000Y-7050000D03*
X4708690Y-17492310D03*
X11415181Y-7908658D03*
X4293203Y-16032370D03*
X2449807Y-5733937D03*
X2983407Y-6327804D03*
X1604647Y-8018811D03*
X676528Y-9507449D03*
X-3750000Y-4170000D03*
X763728Y-8498184D03*
X387106Y-7378661D03*
X-3400000Y-2000000D03*
X-3500000Y-7400000D03*
X-11777410Y-7784745D03*
X-983046Y-10247459D03*
X9792843Y-12872843D03*
X9227157Y-12307157D03*
D20*
X17598000Y-22598000D02*
X10017143Y-22598000D01*
X10020439Y-22590043D01*
X10045495Y-22464078D01*
X10045495Y-22335646D01*
X10020439Y-22209681D01*
X9971290Y-22091024D01*
X9899937Y-21984236D01*
X9809121Y-21893420D01*
X9702333Y-21822067D01*
X9583676Y-21772918D01*
X9457711Y-21747862D01*
X9329279Y-21747862D01*
X9203314Y-21772918D01*
X9084657Y-21822067D01*
X9033125Y-21856499D01*
X9000029Y-21834385D01*
X8881372Y-21785236D01*
X8755407Y-21760180D01*
X8626975Y-21760180D01*
X8501010Y-21785236D01*
X8382353Y-21834385D01*
X8275565Y-21905738D01*
X8184749Y-21996554D01*
X8113396Y-22103342D01*
X8064247Y-22221999D01*
X8039191Y-22347964D01*
X8039191Y-22476396D01*
X8063380Y-22598000D01*
X-5598000Y-22598000D01*
X-5598000Y-20635784D01*
X4148000Y-20635784D01*
X4148000Y-20764216D01*
X4173056Y-20890181D01*
X4222205Y-21008838D01*
X4293558Y-21115626D01*
X4384374Y-21206442D01*
X4437148Y-21241704D01*
X4434374Y-21243558D01*
X4343558Y-21334374D01*
X4272205Y-21441162D01*
X4223056Y-21559819D01*
X4198000Y-21685784D01*
X4198000Y-21814216D01*
X4223056Y-21940181D01*
X4272205Y-22058838D01*
X4343558Y-22165626D01*
X4434374Y-22256442D01*
X4541162Y-22327795D01*
X4659819Y-22376944D01*
X4785784Y-22402000D01*
X4914216Y-22402000D01*
X5040181Y-22376944D01*
X5158838Y-22327795D01*
X5265626Y-22256442D01*
X5356442Y-22165626D01*
X5427795Y-22058838D01*
X5476944Y-21940181D01*
X5502000Y-21814216D01*
X5502000Y-21801338D01*
X5558838Y-21777795D01*
X5665626Y-21706442D01*
X5756442Y-21615626D01*
X5827795Y-21508838D01*
X5876944Y-21390181D01*
X5902000Y-21264216D01*
X5902000Y-21135784D01*
X5876944Y-21009819D01*
X5827795Y-20891162D01*
X5756442Y-20784374D01*
X5665626Y-20693558D01*
X5558838Y-20622205D01*
X5440181Y-20573056D01*
X5439496Y-20572920D01*
X5430889Y-20529652D01*
X5465626Y-20506442D01*
X5556442Y-20415626D01*
X5627795Y-20308838D01*
X5676944Y-20190181D01*
X5702000Y-20064216D01*
X5702000Y-19935784D01*
X5676944Y-19809819D01*
X5627795Y-19691162D01*
X5556442Y-19584374D01*
X5465626Y-19493558D01*
X5358838Y-19422205D01*
X5240181Y-19373056D01*
X5114216Y-19348000D01*
X4985784Y-19348000D01*
X4859819Y-19373056D01*
X4741162Y-19422205D01*
X4634374Y-19493558D01*
X4543558Y-19584374D01*
X4472205Y-19691162D01*
X4423056Y-19809819D01*
X4398000Y-19935784D01*
X4398000Y-20064216D01*
X4419111Y-20170348D01*
X4384374Y-20193558D01*
X4293558Y-20284374D01*
X4222205Y-20391162D01*
X4173056Y-20509819D01*
X4148000Y-20635784D01*
X-5598000Y-20635784D01*
X-5598000Y-19730253D01*
X-5599670Y-19713295D01*
X-5599660Y-19711821D01*
X-5600208Y-19706235D01*
X-5602715Y-19682378D01*
X-5603817Y-19671194D01*
X-5603930Y-19670821D01*
X-5605308Y-19657711D01*
X-5612636Y-19622012D01*
X-5619461Y-19586231D01*
X-5621084Y-19580858D01*
X-5633603Y-19540415D01*
X-5620511Y-19553507D01*
X-5513723Y-19624860D01*
X-5395066Y-19674009D01*
X-5269101Y-19699065D01*
X-5140669Y-19699065D01*
X-5014704Y-19674009D01*
X-4896047Y-19624860D01*
X-4789259Y-19553507D01*
X-4698443Y-19462691D01*
X-4627090Y-19355903D01*
X-4577941Y-19237246D01*
X-4552885Y-19111281D01*
X-4552885Y-19105136D01*
X-4465911Y-19163250D01*
X-4347254Y-19212399D01*
X-4221289Y-19237455D01*
X-4092857Y-19237455D01*
X-3966892Y-19212399D01*
X-3848235Y-19163250D01*
X-3741447Y-19091897D01*
X-3650631Y-19001081D01*
X-3607002Y-18935784D01*
X-2502000Y-18935784D01*
X-2502000Y-19064216D01*
X-2476944Y-19190181D01*
X-2427795Y-19308838D01*
X-2356442Y-19415626D01*
X-2265626Y-19506442D01*
X-2158838Y-19577795D01*
X-2040181Y-19626944D01*
X-1914216Y-19652000D01*
X-1785784Y-19652000D01*
X-1659819Y-19626944D01*
X-1541162Y-19577795D01*
X-1434374Y-19506442D01*
X-1343558Y-19415626D01*
X-1272205Y-19308838D01*
X-1261511Y-19283020D01*
X-102427Y-19283020D01*
X-102427Y-19411452D01*
X-77371Y-19537417D01*
X-28222Y-19656074D01*
X43131Y-19762862D01*
X133947Y-19853678D01*
X240735Y-19925031D01*
X359392Y-19974180D01*
X485357Y-19999236D01*
X613789Y-19999236D01*
X739754Y-19974180D01*
X858411Y-19925031D01*
X860303Y-19923767D01*
X941162Y-19977795D01*
X1059819Y-20026944D01*
X1185784Y-20052000D01*
X1314216Y-20052000D01*
X1440181Y-20026944D01*
X1558838Y-19977795D01*
X1665626Y-19906442D01*
X1756442Y-19815626D01*
X1827795Y-19708838D01*
X1876944Y-19590181D01*
X1902000Y-19464216D01*
X1902000Y-19335784D01*
X1876944Y-19209819D01*
X1827795Y-19091162D01*
X1756442Y-18984374D01*
X1665626Y-18893558D01*
X1558838Y-18822205D01*
X1440181Y-18773056D01*
X1314216Y-18748000D01*
X1185784Y-18748000D01*
X1059819Y-18773056D01*
X941162Y-18822205D01*
X939270Y-18823469D01*
X858411Y-18769441D01*
X739754Y-18720292D01*
X613789Y-18695236D01*
X485357Y-18695236D01*
X359392Y-18720292D01*
X240735Y-18769441D01*
X133947Y-18840794D01*
X43131Y-18931610D01*
X-28222Y-19038398D01*
X-77371Y-19157055D01*
X-102427Y-19283020D01*
X-1261511Y-19283020D01*
X-1223056Y-19190181D01*
X-1198000Y-19064216D01*
X-1198000Y-18935784D01*
X-1223056Y-18809819D01*
X-1272205Y-18691162D01*
X-1343558Y-18584374D01*
X-1434374Y-18493558D01*
X-1541162Y-18422205D01*
X-1659819Y-18373056D01*
X-1785784Y-18348000D01*
X-1914216Y-18348000D01*
X-2040181Y-18373056D01*
X-2158838Y-18422205D01*
X-2265626Y-18493558D01*
X-2356442Y-18584374D01*
X-2427795Y-18691162D01*
X-2476944Y-18809819D01*
X-2502000Y-18935784D01*
X-3607002Y-18935784D01*
X-3579278Y-18894293D01*
X-3530129Y-18775636D01*
X-3505073Y-18649671D01*
X-3505073Y-18521239D01*
X-3530129Y-18395274D01*
X-3579278Y-18276617D01*
X-3650631Y-18169829D01*
X-3709929Y-18110531D01*
X3248619Y-18110531D01*
X3248619Y-18238963D01*
X3273675Y-18364928D01*
X3322824Y-18483585D01*
X3394177Y-18590373D01*
X3484993Y-18681189D01*
X3591781Y-18752542D01*
X3710438Y-18801691D01*
X3836403Y-18826747D01*
X3964835Y-18826747D01*
X4090800Y-18801691D01*
X4209457Y-18752542D01*
X4316245Y-18681189D01*
X4407061Y-18590373D01*
X4478414Y-18483585D01*
X4527563Y-18364928D01*
X4552619Y-18238963D01*
X4552619Y-18126039D01*
X4598000Y-18135066D01*
X4598000Y-18224216D01*
X4623056Y-18350181D01*
X4672205Y-18468838D01*
X4743558Y-18575626D01*
X4834374Y-18666442D01*
X4941162Y-18737795D01*
X5059819Y-18786944D01*
X5185784Y-18812000D01*
X5314216Y-18812000D01*
X5440181Y-18786944D01*
X5558838Y-18737795D01*
X5665626Y-18666442D01*
X5756442Y-18575626D01*
X5827795Y-18468838D01*
X5876944Y-18350181D01*
X5902000Y-18224216D01*
X5902000Y-18095784D01*
X5876944Y-17969819D01*
X5827795Y-17851162D01*
X5756442Y-17744374D01*
X5665626Y-17653558D01*
X5558838Y-17582205D01*
X5440181Y-17533056D01*
X5360690Y-17517244D01*
X5360690Y-17428094D01*
X5335634Y-17302129D01*
X5286485Y-17183472D01*
X5221213Y-17085784D01*
X12418000Y-17085784D01*
X12418000Y-17214216D01*
X12443056Y-17340181D01*
X12492205Y-17458838D01*
X12563558Y-17565626D01*
X12654374Y-17656442D01*
X12761162Y-17727795D01*
X12879819Y-17776944D01*
X13005784Y-17802000D01*
X13134216Y-17802000D01*
X13260181Y-17776944D01*
X13378838Y-17727795D01*
X13485626Y-17656442D01*
X13576442Y-17565626D01*
X13647795Y-17458838D01*
X13696944Y-17340181D01*
X13722000Y-17214216D01*
X13722000Y-17085784D01*
X13696944Y-16959819D01*
X13647795Y-16841162D01*
X13576442Y-16734374D01*
X13485626Y-16643558D01*
X13378838Y-16572205D01*
X13260181Y-16523056D01*
X13134216Y-16498000D01*
X13005784Y-16498000D01*
X12879819Y-16523056D01*
X12761162Y-16572205D01*
X12654374Y-16643558D01*
X12563558Y-16734374D01*
X12492205Y-16841162D01*
X12443056Y-16959819D01*
X12418000Y-17085784D01*
X5221213Y-17085784D01*
X5215132Y-17076684D01*
X5124316Y-16985868D01*
X5017528Y-16914515D01*
X4898871Y-16865366D01*
X4772906Y-16840310D01*
X4644474Y-16840310D01*
X4518509Y-16865366D01*
X4399852Y-16914515D01*
X4293064Y-16985868D01*
X4202248Y-17076684D01*
X4130895Y-17183472D01*
X4081746Y-17302129D01*
X4056690Y-17428094D01*
X4056690Y-17541018D01*
X3964835Y-17522747D01*
X3836403Y-17522747D01*
X3710438Y-17547803D01*
X3591781Y-17596952D01*
X3484993Y-17668305D01*
X3394177Y-17759121D01*
X3322824Y-17865909D01*
X3273675Y-17984566D01*
X3248619Y-18110531D01*
X-3709929Y-18110531D01*
X-3741447Y-18079013D01*
X-3848235Y-18007660D01*
X-3966892Y-17958511D01*
X-4092857Y-17933455D01*
X-4221289Y-17933455D01*
X-4347254Y-17958511D01*
X-4465911Y-18007660D01*
X-4572699Y-18079013D01*
X-4663515Y-18169829D01*
X-4734868Y-18276617D01*
X-4784017Y-18395274D01*
X-4809073Y-18521239D01*
X-4809073Y-18527384D01*
X-4896047Y-18469270D01*
X-5014704Y-18420121D01*
X-5140669Y-18395065D01*
X-5269101Y-18395065D01*
X-5341483Y-18409463D01*
X-5341483Y-18333155D01*
X-5366539Y-18207190D01*
X-5415688Y-18088533D01*
X-5473937Y-18001356D01*
X-5415447Y-17989722D01*
X-5296790Y-17940573D01*
X-5190002Y-17869220D01*
X-5099186Y-17778404D01*
X-5027833Y-17671616D01*
X-4978684Y-17552959D01*
X-4953628Y-17426994D01*
X-4953628Y-17298562D01*
X-4978684Y-17172597D01*
X-5027833Y-17053940D01*
X-5099186Y-16947152D01*
X-5190002Y-16856336D01*
X-5296790Y-16784983D01*
X-5415447Y-16735834D01*
X-5541412Y-16710778D01*
X-5669844Y-16710778D01*
X-5795809Y-16735834D01*
X-5914466Y-16784983D01*
X-6021254Y-16856336D01*
X-6112070Y-16947152D01*
X-6183423Y-17053940D01*
X-6230945Y-17168669D01*
X-6225107Y-17139319D01*
X-6225107Y-17010887D01*
X-6250163Y-16884922D01*
X-6299312Y-16766265D01*
X-6370665Y-16659477D01*
X-6461481Y-16568661D01*
X-6568269Y-16497308D01*
X-6686926Y-16448159D01*
X-6812891Y-16423103D01*
X-6941323Y-16423103D01*
X-7067288Y-16448159D01*
X-7185945Y-16497308D01*
X-7292733Y-16568661D01*
X-7383549Y-16659477D01*
X-7454902Y-16766265D01*
X-7504051Y-16884922D01*
X-7529107Y-17010887D01*
X-7529107Y-17067867D01*
X-7532007Y-17068444D01*
X-7650664Y-17117593D01*
X-7671638Y-17131608D01*
X-7734904Y-17089335D01*
X-7853561Y-17040186D01*
X-7979526Y-17015130D01*
X-8107958Y-17015130D01*
X-8233923Y-17040186D01*
X-8352580Y-17089335D01*
X-8403800Y-17123559D01*
X-8403800Y-17022224D01*
X-8428856Y-16896259D01*
X-8478005Y-16777602D01*
X-8549358Y-16670814D01*
X-8640174Y-16579998D01*
X-8746962Y-16508645D01*
X-8865619Y-16459496D01*
X-8991584Y-16434440D01*
X-9120016Y-16434440D01*
X-9238374Y-16457983D01*
X-9287558Y-16384374D01*
X-9378374Y-16293558D01*
X-9485162Y-16222205D01*
X-9603819Y-16173056D01*
X-9729784Y-16148000D01*
X-9858216Y-16148000D01*
X-9984181Y-16173056D01*
X-10102838Y-16222205D01*
X-10209626Y-16293558D01*
X-10300442Y-16384374D01*
X-10371795Y-16491162D01*
X-10420944Y-16609819D01*
X-10446000Y-16735784D01*
X-10446000Y-16864216D01*
X-10420944Y-16990181D01*
X-10371795Y-17108838D01*
X-10358989Y-17128003D01*
X-10373795Y-17150162D01*
X-10422944Y-17268819D01*
X-10448000Y-17394784D01*
X-10448000Y-17523216D01*
X-10422944Y-17649181D01*
X-10373795Y-17767838D01*
X-10302442Y-17874626D01*
X-10211626Y-17965442D01*
X-10104838Y-18036795D01*
X-9986181Y-18085944D01*
X-9860216Y-18111000D01*
X-9731784Y-18111000D01*
X-9605819Y-18085944D01*
X-9487162Y-18036795D01*
X-9380374Y-17965442D01*
X-9289558Y-17874626D01*
X-9218205Y-17767838D01*
X-9199481Y-17722633D01*
X-9120016Y-17738440D01*
X-8991584Y-17738440D01*
X-8865619Y-17713384D01*
X-8746962Y-17664235D01*
X-8695742Y-17630011D01*
X-8695742Y-17731346D01*
X-8670686Y-17857311D01*
X-8621537Y-17975968D01*
X-8550184Y-18082756D01*
X-8459368Y-18173572D01*
X-8352580Y-18244925D01*
X-8233923Y-18294074D01*
X-8107958Y-18319130D01*
X-7979526Y-18319130D01*
X-7853561Y-18294074D01*
X-7734904Y-18244925D01*
X-7713930Y-18230910D01*
X-7650664Y-18273183D01*
X-7532007Y-18322332D01*
X-7406042Y-18347388D01*
X-7277610Y-18347388D01*
X-7151645Y-18322332D01*
X-7032988Y-18273183D01*
X-6926200Y-18201830D01*
X-6835384Y-18111014D01*
X-6764031Y-18004226D01*
X-6714882Y-17885569D01*
X-6689826Y-17759604D01*
X-6689826Y-17702624D01*
X-6686926Y-17702047D01*
X-6568269Y-17652898D01*
X-6461481Y-17581545D01*
X-6370665Y-17490729D01*
X-6299312Y-17383941D01*
X-6251790Y-17269212D01*
X-6257628Y-17298562D01*
X-6257628Y-17426994D01*
X-6232572Y-17552959D01*
X-6183423Y-17671616D01*
X-6125174Y-17758793D01*
X-6183664Y-17770427D01*
X-6302321Y-17819576D01*
X-6409109Y-17890929D01*
X-6499925Y-17981745D01*
X-6571278Y-18088533D01*
X-6620427Y-18207190D01*
X-6645483Y-18333155D01*
X-6645483Y-18461587D01*
X-6620427Y-18587552D01*
X-6571278Y-18706209D01*
X-6499925Y-18812997D01*
X-6409109Y-18903813D01*
X-6302321Y-18975166D01*
X-6183664Y-19024315D01*
X-6057699Y-19049371D01*
X-5929267Y-19049371D01*
X-5856885Y-19034973D01*
X-5856885Y-19111281D01*
X-5831829Y-19237246D01*
X-5823075Y-19258379D01*
X-5857581Y-19230239D01*
X-5887915Y-19210085D01*
X-5917980Y-19189498D01*
X-5922918Y-19186829D01*
X-5922920Y-19186828D01*
X-5922929Y-19186822D01*
X-5922939Y-19186818D01*
X-5965998Y-19163921D01*
X-5999692Y-19150033D01*
X-6033181Y-19135679D01*
X-6038544Y-19134020D01*
X-6085252Y-19119918D01*
X-6121011Y-19112838D01*
X-6156632Y-19105266D01*
X-6162215Y-19104679D01*
X-6210774Y-19099918D01*
X-6210780Y-19099918D01*
X-6230253Y-19098000D01*
X-7269747Y-19098000D01*
X-7286705Y-19099670D01*
X-7288179Y-19099660D01*
X-7293765Y-19100208D01*
X-7317622Y-19102715D01*
X-7328806Y-19103817D01*
X-7329179Y-19103930D01*
X-7342289Y-19105308D01*
X-7377988Y-19112636D01*
X-7413769Y-19119461D01*
X-7419140Y-19121083D01*
X-7419146Y-19121085D01*
X-7425332Y-19123000D01*
X-7767527Y-19123000D01*
X-7839819Y-19093056D01*
X-7965784Y-19068000D01*
X-8094216Y-19068000D01*
X-8220181Y-19093056D01*
X-8292473Y-19123000D01*
X-10170040Y-19123000D01*
X-10201162Y-19102205D01*
X-10319819Y-19053056D01*
X-10445784Y-19028000D01*
X-10574216Y-19028000D01*
X-10700181Y-19053056D01*
X-10818838Y-19102205D01*
X-10849960Y-19123000D01*
X-11075044Y-19123000D01*
X-11085252Y-19119918D01*
X-11121011Y-19112838D01*
X-11156632Y-19105266D01*
X-11162215Y-19104679D01*
X-11210774Y-19099918D01*
X-11210780Y-19099918D01*
X-11230253Y-19098000D01*
X-11272039Y-19098000D01*
X-11193388Y-19019349D01*
X-11122035Y-18912561D01*
X-11072886Y-18793904D01*
X-11047830Y-18667939D01*
X-11047830Y-18539507D01*
X-11072886Y-18413542D01*
X-11122035Y-18294885D01*
X-11193388Y-18188097D01*
X-11284204Y-18097281D01*
X-11390992Y-18025928D01*
X-11456892Y-17998632D01*
X-11445393Y-17940823D01*
X-11445393Y-17812391D01*
X-11470449Y-17686426D01*
X-11519598Y-17567769D01*
X-11590951Y-17460981D01*
X-11681767Y-17370165D01*
X-11788555Y-17298812D01*
X-11907212Y-17249663D01*
X-12033177Y-17224607D01*
X-12161609Y-17224607D01*
X-12287574Y-17249663D01*
X-12406231Y-17298812D01*
X-12513019Y-17370165D01*
X-12603835Y-17460981D01*
X-12675188Y-17567769D01*
X-12724337Y-17686426D01*
X-12749393Y-17812391D01*
X-12749393Y-17940823D01*
X-12724337Y-18066788D01*
X-12675188Y-18185445D01*
X-12603835Y-18292233D01*
X-12513019Y-18383049D01*
X-12406231Y-18454402D01*
X-12340331Y-18481698D01*
X-12351830Y-18539507D01*
X-12351830Y-18667939D01*
X-12326774Y-18793904D01*
X-12277625Y-18912561D01*
X-12206272Y-19019349D01*
X-12127621Y-19098000D01*
X-12269747Y-19098000D01*
X-12286705Y-19099670D01*
X-12288179Y-19099660D01*
X-12293765Y-19100208D01*
X-12317622Y-19102715D01*
X-12328806Y-19103817D01*
X-12329179Y-19103930D01*
X-12342289Y-19105308D01*
X-12377988Y-19112636D01*
X-12413769Y-19119461D01*
X-12419140Y-19121083D01*
X-12419146Y-19121085D01*
X-12465752Y-19135512D01*
X-12499360Y-19149639D01*
X-12533129Y-19163283D01*
X-12538076Y-19165913D01*
X-12538080Y-19165915D01*
X-12538085Y-19165918D01*
X-12581004Y-19189125D01*
X-12611214Y-19209502D01*
X-12641687Y-19229442D01*
X-12646036Y-19232990D01*
X-12646040Y-19232993D01*
X-12646047Y-19232998D01*
X-12646053Y-19233004D01*
X-12683631Y-19264089D01*
X-12709326Y-19289963D01*
X-12735347Y-19315445D01*
X-12738925Y-19319770D01*
X-12769761Y-19357581D01*
X-12789915Y-19387915D01*
X-12810502Y-19417980D01*
X-12813171Y-19422918D01*
X-12813178Y-19422929D01*
X-12813182Y-19422939D01*
X-12836079Y-19465998D01*
X-12849967Y-19499692D01*
X-12864321Y-19533181D01*
X-12865980Y-19538544D01*
X-12871578Y-19557084D01*
X-12990630Y-19533403D01*
X-13119062Y-19533403D01*
X-13245027Y-19558459D01*
X-13363684Y-19607608D01*
X-13470472Y-19678961D01*
X-13561288Y-19769777D01*
X-13616391Y-19852245D01*
X-13647784Y-19846000D01*
X-13776216Y-19846000D01*
X-13902181Y-19871056D01*
X-14020838Y-19920205D01*
X-14127626Y-19991558D01*
X-14218442Y-20082374D01*
X-14289795Y-20189162D01*
X-14338944Y-20307819D01*
X-14364000Y-20433784D01*
X-14364000Y-20562216D01*
X-14338944Y-20688181D01*
X-14289795Y-20806838D01*
X-14218442Y-20913626D01*
X-14127626Y-21004442D01*
X-14020838Y-21075795D01*
X-13902181Y-21124944D01*
X-13776216Y-21150000D01*
X-13647784Y-21150000D01*
X-13521819Y-21124944D01*
X-13403162Y-21075795D01*
X-13296374Y-21004442D01*
X-13205558Y-20913626D01*
X-13150455Y-20831158D01*
X-13119062Y-20837403D01*
X-12990630Y-20837403D01*
X-12901999Y-20819773D01*
X-12902000Y-22598000D01*
X-17598000Y-22598000D01*
X-17598000Y-20291784D01*
X-16608000Y-20291784D01*
X-16608000Y-20420216D01*
X-16582944Y-20546181D01*
X-16533795Y-20664838D01*
X-16462442Y-20771626D01*
X-16371626Y-20862442D01*
X-16264838Y-20933795D01*
X-16146181Y-20982944D01*
X-16020216Y-21008000D01*
X-15891784Y-21008000D01*
X-15765819Y-20982944D01*
X-15647162Y-20933795D01*
X-15598594Y-20901343D01*
X-15503729Y-20964730D01*
X-15385072Y-21013879D01*
X-15259107Y-21038935D01*
X-15130675Y-21038935D01*
X-15004710Y-21013879D01*
X-14886053Y-20964730D01*
X-14779265Y-20893377D01*
X-14688449Y-20802561D01*
X-14617096Y-20695773D01*
X-14567947Y-20577116D01*
X-14542891Y-20451151D01*
X-14542891Y-20322719D01*
X-14567947Y-20196754D01*
X-14617096Y-20078097D01*
X-14688449Y-19971309D01*
X-14779265Y-19880493D01*
X-14886053Y-19809140D01*
X-15004710Y-19759991D01*
X-15130675Y-19734935D01*
X-15259107Y-19734935D01*
X-15385072Y-19759991D01*
X-15503729Y-19809140D01*
X-15552297Y-19841592D01*
X-15647162Y-19778205D01*
X-15765819Y-19729056D01*
X-15891784Y-19704000D01*
X-16020216Y-19704000D01*
X-16146181Y-19729056D01*
X-16264838Y-19778205D01*
X-16371626Y-19849558D01*
X-16462442Y-19940374D01*
X-16533795Y-20047162D01*
X-16582944Y-20165819D01*
X-16608000Y-20291784D01*
X-17598000Y-20291784D01*
X-17598000Y-18075858D01*
X-14681628Y-18075858D01*
X-14681628Y-18204290D01*
X-14656572Y-18330255D01*
X-14607423Y-18448912D01*
X-14559373Y-18520824D01*
X-14567171Y-18532494D01*
X-14616320Y-18651151D01*
X-14641376Y-18777116D01*
X-14641376Y-18905548D01*
X-14616320Y-19031513D01*
X-14567171Y-19150170D01*
X-14495818Y-19256958D01*
X-14405002Y-19347774D01*
X-14298214Y-19419127D01*
X-14179557Y-19468276D01*
X-14053592Y-19493332D01*
X-13925160Y-19493332D01*
X-13799195Y-19468276D01*
X-13680538Y-19419127D01*
X-13573750Y-19347774D01*
X-13482934Y-19256958D01*
X-13411581Y-19150170D01*
X-13362432Y-19031513D01*
X-13337376Y-18905548D01*
X-13337376Y-18777116D01*
X-13362432Y-18651151D01*
X-13411581Y-18532494D01*
X-13459631Y-18460582D01*
X-13451833Y-18448912D01*
X-13402684Y-18330255D01*
X-13377628Y-18204290D01*
X-13377628Y-18075858D01*
X-13402684Y-17949893D01*
X-13451833Y-17831236D01*
X-13474630Y-17797117D01*
X-13440867Y-17746586D01*
X-13391718Y-17627929D01*
X-13366662Y-17501964D01*
X-13366662Y-17373532D01*
X-13391718Y-17247567D01*
X-13440867Y-17128910D01*
X-13512220Y-17022122D01*
X-13603036Y-16931306D01*
X-13709824Y-16859953D01*
X-13828481Y-16810804D01*
X-13954446Y-16785748D01*
X-14082878Y-16785748D01*
X-14208843Y-16810804D01*
X-14327500Y-16859953D01*
X-14434288Y-16931306D01*
X-14525104Y-17022122D01*
X-14596457Y-17128910D01*
X-14645606Y-17247567D01*
X-14670662Y-17373532D01*
X-14670662Y-17501964D01*
X-14645606Y-17627929D01*
X-14596457Y-17746586D01*
X-14573660Y-17780705D01*
X-14607423Y-17831236D01*
X-14656572Y-17949893D01*
X-14681628Y-18075858D01*
X-17598000Y-18075858D01*
X-17598000Y-15542305D01*
X-15055270Y-15542305D01*
X-15055270Y-15670737D01*
X-15030214Y-15796702D01*
X-14981065Y-15915359D01*
X-14909712Y-16022147D01*
X-14818896Y-16112963D01*
X-14712108Y-16184316D01*
X-14593451Y-16233465D01*
X-14467486Y-16258521D01*
X-14339054Y-16258521D01*
X-14213089Y-16233465D01*
X-14094432Y-16184316D01*
X-13987644Y-16112963D01*
X-13896828Y-16022147D01*
X-13825475Y-15915359D01*
X-13776326Y-15796702D01*
X-13751270Y-15670737D01*
X-13751270Y-15542305D01*
X-13776326Y-15416340D01*
X-13825475Y-15297683D01*
X-13896828Y-15190895D01*
X-13987644Y-15100079D01*
X-14058252Y-15052900D01*
X-10240885Y-15052900D01*
X-10240885Y-15181332D01*
X-10215829Y-15307297D01*
X-10166680Y-15425954D01*
X-10095327Y-15532742D01*
X-10004511Y-15623558D01*
X-9897723Y-15694911D01*
X-9779066Y-15744060D01*
X-9653101Y-15769116D01*
X-9524669Y-15769116D01*
X-9398704Y-15744060D01*
X-9288408Y-15698374D01*
X-8040151Y-15698374D01*
X-8040151Y-15826806D01*
X-8015095Y-15952771D01*
X-7965946Y-16071428D01*
X-7894593Y-16178216D01*
X-7803777Y-16269032D01*
X-7696989Y-16340385D01*
X-7578332Y-16389534D01*
X-7452367Y-16414590D01*
X-7323935Y-16414590D01*
X-7197970Y-16389534D01*
X-7079313Y-16340385D01*
X-6972525Y-16269032D01*
X-6881709Y-16178216D01*
X-6810356Y-16071428D01*
X-6771027Y-15976479D01*
X-6705755Y-15976479D01*
X-6579790Y-15951423D01*
X-6461133Y-15902274D01*
X-6354345Y-15830921D01*
X-6263529Y-15740105D01*
X-6192176Y-15633317D01*
X-6143027Y-15514660D01*
X-6117971Y-15388695D01*
X-6117971Y-15260263D01*
X-6143027Y-15134298D01*
X-6192176Y-15015641D01*
X-6263529Y-14908853D01*
X-6354345Y-14818037D01*
X-6461133Y-14746684D01*
X-6579790Y-14697535D01*
X-6705755Y-14672479D01*
X-6834187Y-14672479D01*
X-6960152Y-14697535D01*
X-7078809Y-14746684D01*
X-7185597Y-14818037D01*
X-7276413Y-14908853D01*
X-7347766Y-15015641D01*
X-7387095Y-15110590D01*
X-7452367Y-15110590D01*
X-7578332Y-15135646D01*
X-7696989Y-15184795D01*
X-7803777Y-15256148D01*
X-7894593Y-15346964D01*
X-7965946Y-15453752D01*
X-8015095Y-15572409D01*
X-8040151Y-15698374D01*
X-9288408Y-15698374D01*
X-9280047Y-15694911D01*
X-9173259Y-15623558D01*
X-9082443Y-15532742D01*
X-9011090Y-15425954D01*
X-8961941Y-15307297D01*
X-8936885Y-15181332D01*
X-8936885Y-15052900D01*
X-8961941Y-14926935D01*
X-9011090Y-14808278D01*
X-9082443Y-14701490D01*
X-9173259Y-14610674D01*
X-9280047Y-14539321D01*
X-9398704Y-14490172D01*
X-9524669Y-14465116D01*
X-9653101Y-14465116D01*
X-9779066Y-14490172D01*
X-9897723Y-14539321D01*
X-10004511Y-14610674D01*
X-10095327Y-14701490D01*
X-10166680Y-14808278D01*
X-10215829Y-14926935D01*
X-10240885Y-15052900D01*
X-14058252Y-15052900D01*
X-14094432Y-15028726D01*
X-14213089Y-14979577D01*
X-14339054Y-14954521D01*
X-14467486Y-14954521D01*
X-14593451Y-14979577D01*
X-14712108Y-15028726D01*
X-14818896Y-15100079D01*
X-14909712Y-15190895D01*
X-14981065Y-15297683D01*
X-15030214Y-15416340D01*
X-15055270Y-15542305D01*
X-17598000Y-15542305D01*
X-17598000Y-13025781D01*
X-13312003Y-13025781D01*
X-13312003Y-13154213D01*
X-13286947Y-13280178D01*
X-13237798Y-13398835D01*
X-13166445Y-13505623D01*
X-13075629Y-13596439D01*
X-13017408Y-13635340D01*
X-13066442Y-13684374D01*
X-13137795Y-13791162D01*
X-13186944Y-13909819D01*
X-13212000Y-14035784D01*
X-13212000Y-14164216D01*
X-13186944Y-14290181D01*
X-13137795Y-14408838D01*
X-13066442Y-14515626D01*
X-12975626Y-14606442D01*
X-12868838Y-14677795D01*
X-12750181Y-14726944D01*
X-12624216Y-14752000D01*
X-12495784Y-14752000D01*
X-12369819Y-14726944D01*
X-12251162Y-14677795D01*
X-12144374Y-14606442D01*
X-12053558Y-14515626D01*
X-11982205Y-14408838D01*
X-11933056Y-14290181D01*
X-11908000Y-14164216D01*
X-11908000Y-14035784D01*
X-11933056Y-13909819D01*
X-11982205Y-13791162D01*
X-12053558Y-13684374D01*
X-12144374Y-13593558D01*
X-12189752Y-13563238D01*
X-8352000Y-13563238D01*
X-8352000Y-13691670D01*
X-8326944Y-13817635D01*
X-8277795Y-13936292D01*
X-8206442Y-14043080D01*
X-8115626Y-14133896D01*
X-8008838Y-14205249D01*
X-7890181Y-14254398D01*
X-7764216Y-14279454D01*
X-7635784Y-14279454D01*
X-7509819Y-14254398D01*
X-7391162Y-14205249D01*
X-7287200Y-14135784D01*
X-5026132Y-14135784D01*
X-5026132Y-14264216D01*
X-5001076Y-14390181D01*
X-4951927Y-14508838D01*
X-4880574Y-14615626D01*
X-4789758Y-14706442D01*
X-4682970Y-14777795D01*
X-4564313Y-14826944D01*
X-4544458Y-14830893D01*
X-4583838Y-14847205D01*
X-4690626Y-14918558D01*
X-4781442Y-15009374D01*
X-4852795Y-15116162D01*
X-4901944Y-15234819D01*
X-4927000Y-15360784D01*
X-4927000Y-15489216D01*
X-4901944Y-15615181D01*
X-4852795Y-15733838D01*
X-4781442Y-15840626D01*
X-4690626Y-15931442D01*
X-4583838Y-16002795D01*
X-4465181Y-16051944D01*
X-4339216Y-16077000D01*
X-4210784Y-16077000D01*
X-4084819Y-16051944D01*
X-3966162Y-16002795D01*
X-3914318Y-15968154D01*
X3641203Y-15968154D01*
X3641203Y-16096586D01*
X3666259Y-16222551D01*
X3715408Y-16341208D01*
X3786761Y-16447996D01*
X3877577Y-16538812D01*
X3984365Y-16610165D01*
X4103022Y-16659314D01*
X4228987Y-16684370D01*
X4357419Y-16684370D01*
X4483384Y-16659314D01*
X4602041Y-16610165D01*
X4708829Y-16538812D01*
X4799645Y-16447996D01*
X4870998Y-16341208D01*
X4920147Y-16222551D01*
X4945203Y-16096586D01*
X4945203Y-15968154D01*
X4920147Y-15842189D01*
X4870998Y-15723532D01*
X4799645Y-15616744D01*
X4708829Y-15525928D01*
X4633783Y-15475784D01*
X4968000Y-15475784D01*
X4968000Y-15604216D01*
X4993056Y-15730181D01*
X5042205Y-15848838D01*
X5113558Y-15955626D01*
X5204374Y-16046442D01*
X5311162Y-16117795D01*
X5429819Y-16166944D01*
X5555784Y-16192000D01*
X5684216Y-16192000D01*
X5810181Y-16166944D01*
X5928838Y-16117795D01*
X6035626Y-16046442D01*
X6126442Y-15955626D01*
X6197795Y-15848838D01*
X6246944Y-15730181D01*
X6272000Y-15604216D01*
X6272000Y-15475784D01*
X6256238Y-15396544D01*
X6259586Y-15397931D01*
X6385551Y-15422987D01*
X6513983Y-15422987D01*
X6639948Y-15397931D01*
X6758605Y-15348782D01*
X6865393Y-15277429D01*
X6956209Y-15186613D01*
X7027562Y-15079825D01*
X7076711Y-14961168D01*
X7101767Y-14835203D01*
X7101767Y-14706771D01*
X7076711Y-14580806D01*
X7027562Y-14462149D01*
X6956209Y-14355361D01*
X6865393Y-14264545D01*
X6758605Y-14193192D01*
X6639948Y-14144043D01*
X6513983Y-14118987D01*
X6385551Y-14118987D01*
X6259586Y-14144043D01*
X6140929Y-14193192D01*
X6034141Y-14264545D01*
X5943325Y-14355361D01*
X5871972Y-14462149D01*
X5822823Y-14580806D01*
X5797767Y-14706771D01*
X5797767Y-14835203D01*
X5813529Y-14914443D01*
X5810181Y-14913056D01*
X5684216Y-14888000D01*
X5555784Y-14888000D01*
X5429819Y-14913056D01*
X5311162Y-14962205D01*
X5204374Y-15033558D01*
X5113558Y-15124374D01*
X5042205Y-15231162D01*
X4993056Y-15349819D01*
X4968000Y-15475784D01*
X4633783Y-15475784D01*
X4602041Y-15454575D01*
X4483384Y-15405426D01*
X4357419Y-15380370D01*
X4228987Y-15380370D01*
X4103022Y-15405426D01*
X3984365Y-15454575D01*
X3877577Y-15525928D01*
X3786761Y-15616744D01*
X3715408Y-15723532D01*
X3666259Y-15842189D01*
X3641203Y-15968154D01*
X-3914318Y-15968154D01*
X-3859374Y-15931442D01*
X-3768558Y-15840626D01*
X-3697205Y-15733838D01*
X-3648056Y-15615181D01*
X-3623000Y-15489216D01*
X-3623000Y-15360784D01*
X-3648056Y-15234819D01*
X-3697205Y-15116162D01*
X-3768558Y-15009374D01*
X-3859374Y-14918558D01*
X-3966162Y-14847205D01*
X-4084819Y-14798056D01*
X-4104674Y-14794107D01*
X-4065294Y-14777795D01*
X-3958506Y-14706442D01*
X-3867690Y-14615626D01*
X-3796337Y-14508838D01*
X-3747188Y-14390181D01*
X-3722132Y-14264216D01*
X-3722132Y-14135784D01*
X-3747188Y-14009819D01*
X-3796337Y-13891162D01*
X-3867690Y-13784374D01*
X-3958506Y-13693558D01*
X-4065294Y-13622205D01*
X-4183951Y-13573056D01*
X-4309916Y-13548000D01*
X-4438348Y-13548000D01*
X-4564313Y-13573056D01*
X-4682970Y-13622205D01*
X-4789758Y-13693558D01*
X-4880574Y-13784374D01*
X-4951927Y-13891162D01*
X-5001076Y-14009819D01*
X-5026132Y-14135784D01*
X-7287200Y-14135784D01*
X-7284374Y-14133896D01*
X-7193558Y-14043080D01*
X-7122205Y-13936292D01*
X-7073056Y-13817635D01*
X-7053605Y-13719850D01*
X-7003737Y-13740506D01*
X-6877772Y-13765562D01*
X-6749340Y-13765562D01*
X-6623375Y-13740506D01*
X-6504718Y-13691357D01*
X-6397930Y-13620004D01*
X-6307114Y-13529188D01*
X-6235761Y-13422400D01*
X-6186612Y-13303743D01*
X-6161556Y-13177778D01*
X-6161556Y-13049346D01*
X-6186612Y-12923381D01*
X-6235761Y-12804724D01*
X-6307114Y-12697936D01*
X-6397930Y-12607120D01*
X-6504718Y-12535767D01*
X-6623375Y-12486618D01*
X-6749340Y-12461562D01*
X-6877772Y-12461562D01*
X-7003737Y-12486618D01*
X-7122394Y-12535767D01*
X-7229182Y-12607120D01*
X-7319998Y-12697936D01*
X-7391351Y-12804724D01*
X-7440500Y-12923381D01*
X-7459951Y-13021166D01*
X-7509819Y-13000510D01*
X-7635784Y-12975454D01*
X-7764216Y-12975454D01*
X-7890181Y-13000510D01*
X-8008838Y-13049659D01*
X-8115626Y-13121012D01*
X-8206442Y-13211828D01*
X-8277795Y-13318616D01*
X-8326944Y-13437273D01*
X-8352000Y-13563238D01*
X-12189752Y-13563238D01*
X-12202595Y-13554657D01*
X-12153561Y-13505623D01*
X-12082208Y-13398835D01*
X-12033059Y-13280178D01*
X-12008003Y-13154213D01*
X-12008003Y-13025781D01*
X-12033059Y-12899816D01*
X-12082208Y-12781159D01*
X-12153561Y-12674371D01*
X-12244377Y-12583555D01*
X-12351165Y-12512202D01*
X-12469822Y-12463053D01*
X-12595787Y-12437997D01*
X-12724219Y-12437997D01*
X-12850184Y-12463053D01*
X-12968841Y-12512202D01*
X-13075629Y-12583555D01*
X-13166445Y-12674371D01*
X-13237798Y-12781159D01*
X-13286947Y-12899816D01*
X-13312003Y-13025781D01*
X-17598000Y-13025781D01*
X-17598000Y-11100000D01*
X-16278824Y-11100000D01*
X-16278824Y-12100000D01*
X-16271545Y-12173905D01*
X-16249988Y-12244970D01*
X-16214981Y-12310463D01*
X-16167869Y-12367869D01*
X-16110463Y-12414981D01*
X-16044970Y-12449988D01*
X-15973905Y-12471545D01*
X-15900000Y-12478824D01*
X-14900000Y-12478824D01*
X-14826095Y-12471545D01*
X-14755030Y-12449988D01*
X-14689537Y-12414981D01*
X-14632131Y-12367869D01*
X-14585019Y-12310463D01*
X-14550012Y-12244970D01*
X-14528455Y-12173905D01*
X-14521176Y-12100000D01*
X-14521176Y-11683321D01*
X-6127000Y-11683321D01*
X-6127000Y-11816679D01*
X-6100984Y-11947474D01*
X-6049950Y-12070680D01*
X-5975860Y-12181563D01*
X-5881563Y-12275860D01*
X-5770680Y-12349950D01*
X-5647474Y-12400984D01*
X-5516679Y-12427000D01*
X-5383321Y-12427000D01*
X-5252526Y-12400984D01*
X-5129320Y-12349950D01*
X-5018437Y-12275860D01*
X-4924140Y-12181563D01*
X-4850050Y-12070680D01*
X-4799016Y-11947474D01*
X-4774812Y-11825784D01*
X4818000Y-11825784D01*
X4818000Y-11954216D01*
X4843056Y-12080181D01*
X4892205Y-12198838D01*
X4963558Y-12305626D01*
X5054374Y-12396442D01*
X5161162Y-12467795D01*
X5279819Y-12516944D01*
X5405784Y-12542000D01*
X5534216Y-12542000D01*
X5660181Y-12516944D01*
X5778838Y-12467795D01*
X5885626Y-12396442D01*
X5976442Y-12305626D01*
X6018326Y-12242941D01*
X8575157Y-12242941D01*
X8575157Y-12371373D01*
X8600213Y-12497338D01*
X8649362Y-12615995D01*
X8720715Y-12722783D01*
X8811531Y-12813599D01*
X8918319Y-12884952D01*
X9036976Y-12934101D01*
X9144509Y-12955491D01*
X9165899Y-13063024D01*
X9215048Y-13181681D01*
X9286401Y-13288469D01*
X9377217Y-13379285D01*
X9484005Y-13450638D01*
X9602662Y-13499787D01*
X9728627Y-13524843D01*
X9857059Y-13524843D01*
X9983024Y-13499787D01*
X10101681Y-13450638D01*
X10208469Y-13379285D01*
X10299285Y-13288469D01*
X10370638Y-13181681D01*
X10419787Y-13063024D01*
X10444843Y-12937059D01*
X10444843Y-12808627D01*
X10419787Y-12682662D01*
X10370638Y-12564005D01*
X10299285Y-12457217D01*
X10208469Y-12366401D01*
X10101681Y-12295048D01*
X9983024Y-12245899D01*
X9875491Y-12224509D01*
X9854101Y-12116976D01*
X9804952Y-11998319D01*
X9733599Y-11891531D01*
X9642783Y-11800715D01*
X9535995Y-11729362D01*
X9417338Y-11680213D01*
X9291373Y-11655157D01*
X9162941Y-11655157D01*
X9036976Y-11680213D01*
X8918319Y-11729362D01*
X8811531Y-11800715D01*
X8720715Y-11891531D01*
X8649362Y-11998319D01*
X8600213Y-12116976D01*
X8575157Y-12242941D01*
X6018326Y-12242941D01*
X6047795Y-12198838D01*
X6096944Y-12080181D01*
X6122000Y-11954216D01*
X6122000Y-11825784D01*
X6096944Y-11699819D01*
X6047795Y-11581162D01*
X5976442Y-11474374D01*
X5885626Y-11383558D01*
X5778838Y-11312205D01*
X5660181Y-11263056D01*
X5534216Y-11238000D01*
X5405784Y-11238000D01*
X5279819Y-11263056D01*
X5161162Y-11312205D01*
X5054374Y-11383558D01*
X4963558Y-11474374D01*
X4892205Y-11581162D01*
X4843056Y-11699819D01*
X4818000Y-11825784D01*
X-4774812Y-11825784D01*
X-4773000Y-11816679D01*
X-4773000Y-11683321D01*
X-4799016Y-11552526D01*
X-4850050Y-11429320D01*
X-4924140Y-11318437D01*
X-5018437Y-11224140D01*
X-5129320Y-11150050D01*
X-5252526Y-11099016D01*
X-5383321Y-11073000D01*
X-5516679Y-11073000D01*
X-5647474Y-11099016D01*
X-5770680Y-11150050D01*
X-5881563Y-11224140D01*
X-5975860Y-11318437D01*
X-6049950Y-11429320D01*
X-6100984Y-11552526D01*
X-6127000Y-11683321D01*
X-14521176Y-11683321D01*
X-14521176Y-11100000D01*
X-14528455Y-11026095D01*
X-14550012Y-10955030D01*
X-14585019Y-10889537D01*
X-14632131Y-10832131D01*
X-14663534Y-10806359D01*
X-14622813Y-10745415D01*
X-14556703Y-10585811D01*
X-14523000Y-10416377D01*
X-14523000Y-10243623D01*
X-14556703Y-10074189D01*
X-14622813Y-9914585D01*
X-14718790Y-9770945D01*
X-14840945Y-9648790D01*
X-14864004Y-9633382D01*
X-12127000Y-9633382D01*
X-12127000Y-9761814D01*
X-12101944Y-9887779D01*
X-12052795Y-10006436D01*
X-11981442Y-10113224D01*
X-11890626Y-10204040D01*
X-11783838Y-10275393D01*
X-11665181Y-10324542D01*
X-11539216Y-10349598D01*
X-11410784Y-10349598D01*
X-11284819Y-10324542D01*
X-11166162Y-10275393D01*
X-11059374Y-10204040D01*
X-10968558Y-10113224D01*
X-10897205Y-10006436D01*
X-10848056Y-9887779D01*
X-10823000Y-9761814D01*
X-10823000Y-9633382D01*
X-10848056Y-9507417D01*
X-10897205Y-9388760D01*
X-10968558Y-9281972D01*
X-11014746Y-9235784D01*
X-3652000Y-9235784D01*
X-3652000Y-9364216D01*
X-3626944Y-9490181D01*
X-3577795Y-9608838D01*
X-3506442Y-9715626D01*
X-3415626Y-9806442D01*
X-3308838Y-9877795D01*
X-3190181Y-9926944D01*
X-3064216Y-9952000D01*
X-2935784Y-9952000D01*
X-2809819Y-9926944D01*
X-2761189Y-9906801D01*
X-2659254Y-9974911D01*
X-2540597Y-10024060D01*
X-2414632Y-10049116D01*
X-2286200Y-10049116D01*
X-2160235Y-10024060D01*
X-2041578Y-9974911D01*
X-1934790Y-9903558D01*
X-1843974Y-9812742D01*
X-1772621Y-9705954D01*
X-1723472Y-9587297D01*
X-1698416Y-9461332D01*
X-1698416Y-9332900D01*
X-1723472Y-9206935D01*
X-1772621Y-9088278D01*
X-1843974Y-8981490D01*
X-1934790Y-8890674D01*
X-2041578Y-8819321D01*
X-2160235Y-8770172D01*
X-2286200Y-8745116D01*
X-2414632Y-8745116D01*
X-2540597Y-8770172D01*
X-2589227Y-8790315D01*
X-2691162Y-8722205D01*
X-2809819Y-8673056D01*
X-2935784Y-8648000D01*
X-3064216Y-8648000D01*
X-3190181Y-8673056D01*
X-3308838Y-8722205D01*
X-3415626Y-8793558D01*
X-3506442Y-8884374D01*
X-3577795Y-8991162D01*
X-3626944Y-9109819D01*
X-3652000Y-9235784D01*
X-11014746Y-9235784D01*
X-11059374Y-9191156D01*
X-11166162Y-9119803D01*
X-11284819Y-9070654D01*
X-11410784Y-9045598D01*
X-11539216Y-9045598D01*
X-11665181Y-9070654D01*
X-11783838Y-9119803D01*
X-11890626Y-9191156D01*
X-11981442Y-9281972D01*
X-12052795Y-9388760D01*
X-12101944Y-9507417D01*
X-12127000Y-9633382D01*
X-14864004Y-9633382D01*
X-14984585Y-9552813D01*
X-15144189Y-9486703D01*
X-15313623Y-9453000D01*
X-15486377Y-9453000D01*
X-15655811Y-9486703D01*
X-15815415Y-9552813D01*
X-15959055Y-9648790D01*
X-16081210Y-9770945D01*
X-16177187Y-9914585D01*
X-16243297Y-10074189D01*
X-16277000Y-10243623D01*
X-16277000Y-10416377D01*
X-16243297Y-10585811D01*
X-16177187Y-10745415D01*
X-16136466Y-10806359D01*
X-16167869Y-10832131D01*
X-16214981Y-10889537D01*
X-16249988Y-10955030D01*
X-16271545Y-11026095D01*
X-16278824Y-11100000D01*
X-17598000Y-11100000D01*
X-17598000Y-5316890D01*
X-16941476Y-5316890D01*
X-16896825Y-5464099D01*
X-16771641Y-5726920D01*
X-16597588Y-5960269D01*
X-16381355Y-6155178D01*
X-16186620Y-6271176D01*
X-16350000Y-6271176D01*
X-16423905Y-6278455D01*
X-16494970Y-6300012D01*
X-16560463Y-6335019D01*
X-16617869Y-6382131D01*
X-16664981Y-6439537D01*
X-16699988Y-6505030D01*
X-16721545Y-6576095D01*
X-16728824Y-6650000D01*
X-16728824Y-8350000D01*
X-16721545Y-8423905D01*
X-16699988Y-8494970D01*
X-16664981Y-8560463D01*
X-16617869Y-8617869D01*
X-16560463Y-8664981D01*
X-16494970Y-8699988D01*
X-16423905Y-8721545D01*
X-16350000Y-8728824D01*
X-14650000Y-8728824D01*
X-14576095Y-8721545D01*
X-14505030Y-8699988D01*
X-14439537Y-8664981D01*
X-14415695Y-8645414D01*
X-14459820Y-8751943D01*
X-14484876Y-8877908D01*
X-14484876Y-9006340D01*
X-14459820Y-9132305D01*
X-14410671Y-9250962D01*
X-14339318Y-9357750D01*
X-14248502Y-9448566D01*
X-14141714Y-9519919D01*
X-14023057Y-9569068D01*
X-13897092Y-9594124D01*
X-13768660Y-9594124D01*
X-13642695Y-9569068D01*
X-13524038Y-9519919D01*
X-13417250Y-9448566D01*
X-13326434Y-9357750D01*
X-13255081Y-9250962D01*
X-13205932Y-9132305D01*
X-13180876Y-9006340D01*
X-13180876Y-8877908D01*
X-13205932Y-8751943D01*
X-13255081Y-8633286D01*
X-13326434Y-8526498D01*
X-13417250Y-8435682D01*
X-13524038Y-8364329D01*
X-13642695Y-8315180D01*
X-13768660Y-8290124D01*
X-13897092Y-8290124D01*
X-14023057Y-8315180D01*
X-14141714Y-8364329D01*
X-14248502Y-8435682D01*
X-14296625Y-8483805D01*
X-14278455Y-8423905D01*
X-14271176Y-8350000D01*
X-14271176Y-7720529D01*
X-12429410Y-7720529D01*
X-12429410Y-7848961D01*
X-12404354Y-7974926D01*
X-12355205Y-8093583D01*
X-12283852Y-8200371D01*
X-12193036Y-8291187D01*
X-12086248Y-8362540D01*
X-11967591Y-8411689D01*
X-11841626Y-8436745D01*
X-11713194Y-8436745D01*
X-11587229Y-8411689D01*
X-11468572Y-8362540D01*
X-11361784Y-8291187D01*
X-11270968Y-8200371D01*
X-11199615Y-8093583D01*
X-11150466Y-7974926D01*
X-11125410Y-7848961D01*
X-11125410Y-7720529D01*
X-11150466Y-7594564D01*
X-11199615Y-7475907D01*
X-11270968Y-7369119D01*
X-11304303Y-7335784D01*
X-4152000Y-7335784D01*
X-4152000Y-7464216D01*
X-4126944Y-7590181D01*
X-4077795Y-7708838D01*
X-4006442Y-7815626D01*
X-3915626Y-7906442D01*
X-3808838Y-7977795D01*
X-3690181Y-8026944D01*
X-3564216Y-8052000D01*
X-3435784Y-8052000D01*
X-3309819Y-8026944D01*
X-3191162Y-7977795D01*
X-3084374Y-7906442D01*
X-2993558Y-7815626D01*
X-2922205Y-7708838D01*
X-2873056Y-7590181D01*
X-2848000Y-7464216D01*
X-2848000Y-7335784D01*
X-2873056Y-7209819D01*
X-2922205Y-7091162D01*
X-2993558Y-6984374D01*
X-3084374Y-6893558D01*
X-3185805Y-6825784D01*
X-2052000Y-6825784D01*
X-2052000Y-6954216D01*
X-2026944Y-7080181D01*
X-1977795Y-7198838D01*
X-1906442Y-7305626D01*
X-1815626Y-7396442D01*
X-1708838Y-7467795D01*
X-1590181Y-7516944D01*
X-1464216Y-7542000D01*
X-1335784Y-7542000D01*
X-1209819Y-7516944D01*
X-1091162Y-7467795D01*
X-1012000Y-7414901D01*
X-1012000Y-7464216D01*
X-986944Y-7590181D01*
X-937795Y-7708838D01*
X-866442Y-7815626D01*
X-775626Y-7906442D01*
X-668838Y-7977795D01*
X-550181Y-8026944D01*
X-424216Y-8052000D01*
X-295784Y-8052000D01*
X-169819Y-8026944D01*
X-51162Y-7977795D01*
X29521Y-7923885D01*
X78268Y-7956456D01*
X196925Y-8005605D01*
X311457Y-8028387D01*
X257286Y-8082558D01*
X185933Y-8189346D01*
X136784Y-8308003D01*
X111728Y-8433968D01*
X111728Y-8562400D01*
X136784Y-8688365D01*
X185933Y-8807022D01*
X257286Y-8913810D01*
X311005Y-8967529D01*
X260902Y-9001007D01*
X170086Y-9091823D01*
X98733Y-9198611D01*
X49584Y-9317268D01*
X24528Y-9443233D01*
X24528Y-9571665D01*
X46963Y-9684452D01*
X29647Y-9672882D01*
X-89010Y-9623733D01*
X-214975Y-9598677D01*
X-343407Y-9598677D01*
X-469372Y-9623733D01*
X-588029Y-9672882D01*
X-628710Y-9700064D01*
X-674208Y-9669664D01*
X-792865Y-9620515D01*
X-918830Y-9595459D01*
X-1047262Y-9595459D01*
X-1173227Y-9620515D01*
X-1291884Y-9669664D01*
X-1398672Y-9741017D01*
X-1489488Y-9831833D01*
X-1560841Y-9938621D01*
X-1609990Y-10057278D01*
X-1635046Y-10183243D01*
X-1635046Y-10311675D01*
X-1609990Y-10437640D01*
X-1560841Y-10556297D01*
X-1489488Y-10663085D01*
X-1398672Y-10753901D01*
X-1291884Y-10825254D01*
X-1173227Y-10874403D01*
X-1047262Y-10899459D01*
X-918830Y-10899459D01*
X-792865Y-10874403D01*
X-674208Y-10825254D01*
X-633527Y-10798072D01*
X-588029Y-10828472D01*
X-469372Y-10877621D01*
X-343407Y-10902677D01*
X-214975Y-10902677D01*
X-187023Y-10897117D01*
X-134751Y-10975348D01*
X-43935Y-11066164D01*
X62853Y-11137517D01*
X181510Y-11186666D01*
X307475Y-11211722D01*
X435907Y-11211722D01*
X561872Y-11186666D01*
X680529Y-11137517D01*
X787317Y-11066164D01*
X878133Y-10975348D01*
X949486Y-10868560D01*
X957952Y-10848119D01*
X2693109Y-10848119D01*
X2693109Y-10976551D01*
X2718165Y-11102516D01*
X2767314Y-11221173D01*
X2838667Y-11327961D01*
X2929483Y-11418777D01*
X3036271Y-11490130D01*
X3154928Y-11539279D01*
X3280893Y-11564335D01*
X3409325Y-11564335D01*
X3535290Y-11539279D01*
X3653947Y-11490130D01*
X3760735Y-11418777D01*
X3851551Y-11327961D01*
X3922904Y-11221173D01*
X3972053Y-11102516D01*
X3996025Y-10982000D01*
X4064216Y-10982000D01*
X4190181Y-10956944D01*
X4308838Y-10907795D01*
X4415626Y-10836442D01*
X4506442Y-10745626D01*
X4577795Y-10638838D01*
X4626944Y-10520181D01*
X4652000Y-10394216D01*
X4652000Y-10265784D01*
X4626944Y-10139819D01*
X4577795Y-10021162D01*
X4506442Y-9914374D01*
X4415626Y-9823558D01*
X4308838Y-9752205D01*
X4190181Y-9703056D01*
X4064216Y-9678000D01*
X3935784Y-9678000D01*
X3809819Y-9703056D01*
X3691162Y-9752205D01*
X3584374Y-9823558D01*
X3493558Y-9914374D01*
X3422205Y-10021162D01*
X3373056Y-10139819D01*
X3349084Y-10260335D01*
X3280893Y-10260335D01*
X3154928Y-10285391D01*
X3036271Y-10334540D01*
X2929483Y-10405893D01*
X2838667Y-10496709D01*
X2767314Y-10603497D01*
X2718165Y-10722154D01*
X2693109Y-10848119D01*
X957952Y-10848119D01*
X998635Y-10749903D01*
X1023691Y-10623938D01*
X1023691Y-10495506D01*
X998635Y-10369541D01*
X949486Y-10250884D01*
X878133Y-10144096D01*
X867926Y-10133889D01*
X985366Y-10085244D01*
X1092154Y-10013891D01*
X1182970Y-9923075D01*
X1254323Y-9816287D01*
X1303472Y-9697630D01*
X1328528Y-9571665D01*
X1328528Y-9465784D01*
X10988000Y-9465784D01*
X10988000Y-9594216D01*
X11013056Y-9720181D01*
X11062205Y-9838838D01*
X11133558Y-9945626D01*
X11151013Y-9963081D01*
X11112205Y-10021162D01*
X11063056Y-10139819D01*
X11038000Y-10265784D01*
X11038000Y-10394216D01*
X11063056Y-10520181D01*
X11112205Y-10638838D01*
X11183558Y-10745626D01*
X11274374Y-10836442D01*
X11381162Y-10907795D01*
X11499819Y-10956944D01*
X11625784Y-10982000D01*
X11754216Y-10982000D01*
X11880181Y-10956944D01*
X11998838Y-10907795D01*
X12105626Y-10836442D01*
X12196442Y-10745626D01*
X12267795Y-10638838D01*
X12316944Y-10520181D01*
X12342000Y-10394216D01*
X12342000Y-10265784D01*
X12316944Y-10139819D01*
X12267795Y-10021162D01*
X12196442Y-9914374D01*
X12178987Y-9896919D01*
X12217795Y-9838838D01*
X12266944Y-9720181D01*
X12292000Y-9594216D01*
X12292000Y-9465784D01*
X12266944Y-9339819D01*
X12217795Y-9221162D01*
X12146442Y-9114374D01*
X12055626Y-9023558D01*
X11948838Y-8952205D01*
X11830181Y-8903056D01*
X11704216Y-8878000D01*
X11575784Y-8878000D01*
X11449819Y-8903056D01*
X11331162Y-8952205D01*
X11224374Y-9023558D01*
X11133558Y-9114374D01*
X11062205Y-9221162D01*
X11013056Y-9339819D01*
X10988000Y-9465784D01*
X1328528Y-9465784D01*
X1328528Y-9443233D01*
X1303472Y-9317268D01*
X1254323Y-9198611D01*
X1182970Y-9091823D01*
X1129251Y-9038104D01*
X1179354Y-9004626D01*
X1270170Y-8913810D01*
X1341523Y-8807022D01*
X1390672Y-8688365D01*
X1400314Y-8639893D01*
X1414466Y-8645755D01*
X1540431Y-8670811D01*
X1668863Y-8670811D01*
X1794828Y-8645755D01*
X1913485Y-8596606D01*
X2020273Y-8525253D01*
X2111089Y-8434437D01*
X2182442Y-8327649D01*
X2231591Y-8208992D01*
X2256647Y-8083027D01*
X2256647Y-7954595D01*
X2231591Y-7828630D01*
X2182442Y-7709973D01*
X2111089Y-7603185D01*
X2020273Y-7512369D01*
X2017743Y-7510679D01*
X2046944Y-7440181D01*
X2066696Y-7340880D01*
X2113791Y-7331512D01*
X2232448Y-7282363D01*
X2339236Y-7211010D01*
X2430052Y-7120194D01*
X2501405Y-7013406D01*
X2550554Y-6894749D01*
X2563450Y-6829915D01*
X2567781Y-6834246D01*
X2674569Y-6905599D01*
X2793226Y-6954748D01*
X2806247Y-6957338D01*
X2726453Y-6973210D01*
X2607796Y-7022359D01*
X2501008Y-7093712D01*
X2410192Y-7184528D01*
X2338839Y-7291316D01*
X2289690Y-7409973D01*
X2264634Y-7535938D01*
X2264634Y-7664370D01*
X2289690Y-7790335D01*
X2338839Y-7908992D01*
X2410192Y-8015780D01*
X2501008Y-8106596D01*
X2607796Y-8177949D01*
X2726453Y-8227098D01*
X2852418Y-8252154D01*
X2980850Y-8252154D01*
X3106815Y-8227098D01*
X3225472Y-8177949D01*
X3332260Y-8106596D01*
X3423076Y-8015780D01*
X3475694Y-7937031D01*
X3671854Y-7937031D01*
X3671854Y-8065463D01*
X3696910Y-8191428D01*
X3746059Y-8310085D01*
X3817412Y-8416873D01*
X3908228Y-8507689D01*
X4015016Y-8579042D01*
X4133673Y-8628191D01*
X4259638Y-8653247D01*
X4388070Y-8653247D01*
X4514035Y-8628191D01*
X4543954Y-8615798D01*
X5467986Y-8615798D01*
X5467986Y-8744230D01*
X5493042Y-8870195D01*
X5542191Y-8988852D01*
X5613544Y-9095640D01*
X5704360Y-9186456D01*
X5811148Y-9257809D01*
X5929805Y-9306958D01*
X6055770Y-9332014D01*
X6184202Y-9332014D01*
X6310167Y-9306958D01*
X6428824Y-9257809D01*
X6535612Y-9186456D01*
X6626428Y-9095640D01*
X6697781Y-8988852D01*
X6746930Y-8870195D01*
X6771986Y-8744230D01*
X6771986Y-8615798D01*
X6746930Y-8489833D01*
X6697781Y-8371176D01*
X6626428Y-8264388D01*
X6535612Y-8173572D01*
X6428824Y-8102219D01*
X6310167Y-8053070D01*
X6184202Y-8028014D01*
X6055770Y-8028014D01*
X5929805Y-8053070D01*
X5811148Y-8102219D01*
X5704360Y-8173572D01*
X5613544Y-8264388D01*
X5542191Y-8371176D01*
X5493042Y-8489833D01*
X5467986Y-8615798D01*
X4543954Y-8615798D01*
X4632692Y-8579042D01*
X4739480Y-8507689D01*
X4830296Y-8416873D01*
X4901649Y-8310085D01*
X4950798Y-8191428D01*
X4975854Y-8065463D01*
X4975854Y-7937031D01*
X4957437Y-7844442D01*
X10763181Y-7844442D01*
X10763181Y-7972874D01*
X10788237Y-8098839D01*
X10837386Y-8217496D01*
X10908739Y-8324284D01*
X10999555Y-8415100D01*
X11106343Y-8486453D01*
X11225000Y-8535602D01*
X11350965Y-8560658D01*
X11479397Y-8560658D01*
X11605362Y-8535602D01*
X11724019Y-8486453D01*
X11830807Y-8415100D01*
X11921623Y-8324284D01*
X11992976Y-8217496D01*
X12042125Y-8098839D01*
X12067181Y-7972874D01*
X12067181Y-7844442D01*
X12042125Y-7718477D01*
X12036351Y-7704536D01*
X12123845Y-7617042D01*
X12195198Y-7510254D01*
X12244347Y-7391597D01*
X12269403Y-7265632D01*
X12269403Y-7137200D01*
X12244347Y-7011235D01*
X12195198Y-6892578D01*
X12148520Y-6822719D01*
X12157795Y-6808838D01*
X12206944Y-6690181D01*
X12229026Y-6579167D01*
X12240181Y-6576948D01*
X12358838Y-6527799D01*
X12465626Y-6456446D01*
X12556442Y-6365630D01*
X12627795Y-6258842D01*
X12676944Y-6140185D01*
X12702000Y-6014220D01*
X12702000Y-5885788D01*
X12676944Y-5759823D01*
X12627795Y-5641166D01*
X12556442Y-5534378D01*
X12465626Y-5443562D01*
X12358838Y-5372209D01*
X12321855Y-5356890D01*
X14058524Y-5356890D01*
X14103175Y-5504099D01*
X14228359Y-5766920D01*
X14402412Y-6000269D01*
X14618645Y-6195178D01*
X14813380Y-6311176D01*
X14650000Y-6311176D01*
X14576095Y-6318455D01*
X14505030Y-6340012D01*
X14439537Y-6375019D01*
X14382131Y-6422131D01*
X14335019Y-6479537D01*
X14300012Y-6545030D01*
X14278455Y-6616095D01*
X14271176Y-6690000D01*
X14271176Y-8390000D01*
X14278455Y-8463905D01*
X14300012Y-8534970D01*
X14335019Y-8600463D01*
X14382131Y-8657869D01*
X14439537Y-8704981D01*
X14505030Y-8739988D01*
X14576095Y-8761545D01*
X14650000Y-8768824D01*
X16350000Y-8768824D01*
X16423905Y-8761545D01*
X16494970Y-8739988D01*
X16560463Y-8704981D01*
X16617869Y-8657869D01*
X16664981Y-8600463D01*
X16699988Y-8534970D01*
X16721545Y-8463905D01*
X16728824Y-8390000D01*
X16728824Y-6690000D01*
X16721545Y-6616095D01*
X16699988Y-6545030D01*
X16664981Y-6479537D01*
X16617869Y-6422131D01*
X16560463Y-6375019D01*
X16494970Y-6340012D01*
X16423905Y-6318455D01*
X16350000Y-6311176D01*
X16186620Y-6311176D01*
X16381355Y-6195178D01*
X16597588Y-6000269D01*
X16771641Y-5766920D01*
X16896825Y-5504099D01*
X16941476Y-5356890D01*
X16820155Y-5127000D01*
X15627000Y-5127000D01*
X15627000Y-5147000D01*
X15373000Y-5147000D01*
X15373000Y-5127000D01*
X14179845Y-5127000D01*
X14058524Y-5356890D01*
X12321855Y-5356890D01*
X12240181Y-5323060D01*
X12114216Y-5298004D01*
X11985784Y-5298004D01*
X11859819Y-5323060D01*
X11741162Y-5372209D01*
X11634374Y-5443562D01*
X11543558Y-5534378D01*
X11472205Y-5641166D01*
X11423056Y-5759823D01*
X11400974Y-5870837D01*
X11389819Y-5873056D01*
X11271162Y-5922205D01*
X11164374Y-5993558D01*
X11073558Y-6084374D01*
X11002205Y-6191162D01*
X10953056Y-6309819D01*
X10928000Y-6435784D01*
X10928000Y-6564216D01*
X10953056Y-6690181D01*
X11002205Y-6808838D01*
X11048883Y-6878697D01*
X11039608Y-6892578D01*
X10990459Y-7011235D01*
X10965403Y-7137200D01*
X10965403Y-7265632D01*
X10990459Y-7391597D01*
X10996233Y-7405538D01*
X10908739Y-7493032D01*
X10837386Y-7599820D01*
X10788237Y-7718477D01*
X10763181Y-7844442D01*
X4957437Y-7844442D01*
X4950798Y-7811066D01*
X4941200Y-7787894D01*
X4995135Y-7777166D01*
X5113792Y-7728017D01*
X5220580Y-7656664D01*
X5311396Y-7565848D01*
X5382749Y-7459060D01*
X5431898Y-7340403D01*
X5456954Y-7214438D01*
X5456954Y-7132026D01*
X5504464Y-7203130D01*
X5595280Y-7293946D01*
X5702068Y-7365299D01*
X5820725Y-7414448D01*
X5946690Y-7439504D01*
X6075122Y-7439504D01*
X6201087Y-7414448D01*
X6319744Y-7365299D01*
X6426532Y-7293946D01*
X6515962Y-7204516D01*
X6523056Y-7240181D01*
X6572205Y-7358838D01*
X6643558Y-7465626D01*
X6734374Y-7556442D01*
X6841162Y-7627795D01*
X6959819Y-7676944D01*
X7085784Y-7702000D01*
X7214216Y-7702000D01*
X7340181Y-7676944D01*
X7458838Y-7627795D01*
X7565626Y-7556442D01*
X7656442Y-7465626D01*
X7727795Y-7358838D01*
X7776944Y-7240181D01*
X7802000Y-7114216D01*
X7802000Y-6985784D01*
X7776944Y-6859819D01*
X7727795Y-6741162D01*
X7656442Y-6634374D01*
X7565626Y-6543558D01*
X7458838Y-6472205D01*
X7434201Y-6462000D01*
X7474216Y-6462000D01*
X7600181Y-6436944D01*
X7718838Y-6387795D01*
X7825626Y-6316442D01*
X7916442Y-6225626D01*
X7987795Y-6118838D01*
X8036944Y-6000181D01*
X8062000Y-5874216D01*
X8062000Y-5745784D01*
X8036944Y-5619819D01*
X7987795Y-5501162D01*
X7916442Y-5394374D01*
X7825626Y-5303558D01*
X7718838Y-5232205D01*
X7600181Y-5183056D01*
X7474216Y-5158000D01*
X7345784Y-5158000D01*
X7219819Y-5183056D01*
X7148077Y-5212772D01*
X7137053Y-5186159D01*
X7065700Y-5079371D01*
X6974884Y-4988555D01*
X6868096Y-4917202D01*
X6749439Y-4868053D01*
X6623474Y-4842997D01*
X6495042Y-4842997D01*
X6369077Y-4868053D01*
X6250420Y-4917202D01*
X6143632Y-4988555D01*
X6052816Y-5079371D01*
X5981463Y-5186159D01*
X5932314Y-5304816D01*
X5907258Y-5430781D01*
X5907258Y-5559213D01*
X5932314Y-5685178D01*
X5981463Y-5803835D01*
X6052816Y-5910623D01*
X6143632Y-6001439D01*
X6250420Y-6072792D01*
X6369077Y-6121941D01*
X6495042Y-6146997D01*
X6623474Y-6146997D01*
X6749439Y-6121941D01*
X6821181Y-6092225D01*
X6832205Y-6118838D01*
X6903558Y-6225626D01*
X6994374Y-6316442D01*
X7101162Y-6387795D01*
X7125799Y-6398000D01*
X7085784Y-6398000D01*
X6959819Y-6423056D01*
X6841162Y-6472205D01*
X6734374Y-6543558D01*
X6644944Y-6632988D01*
X6637850Y-6597323D01*
X6588701Y-6478666D01*
X6517348Y-6371878D01*
X6426532Y-6281062D01*
X6319744Y-6209709D01*
X6201087Y-6160560D01*
X6075122Y-6135504D01*
X5946690Y-6135504D01*
X5820725Y-6160560D01*
X5702068Y-6209709D01*
X5595280Y-6281062D01*
X5504464Y-6371878D01*
X5433111Y-6478666D01*
X5383962Y-6597323D01*
X5358906Y-6723288D01*
X5358906Y-6805700D01*
X5311396Y-6734596D01*
X5220580Y-6643780D01*
X5113792Y-6572427D01*
X4995135Y-6523278D01*
X4869170Y-6498222D01*
X4740738Y-6498222D01*
X4614773Y-6523278D01*
X4496116Y-6572427D01*
X4389328Y-6643780D01*
X4298512Y-6734596D01*
X4227159Y-6841384D01*
X4178010Y-6960041D01*
X4152954Y-7086006D01*
X4152954Y-7214438D01*
X4178010Y-7340403D01*
X4187608Y-7363575D01*
X4133673Y-7374303D01*
X4015016Y-7423452D01*
X3908228Y-7494805D01*
X3817412Y-7585621D01*
X3746059Y-7692409D01*
X3696910Y-7811066D01*
X3671854Y-7937031D01*
X3475694Y-7937031D01*
X3494429Y-7908992D01*
X3543578Y-7790335D01*
X3568634Y-7664370D01*
X3568634Y-7535938D01*
X3543578Y-7409973D01*
X3494429Y-7291316D01*
X3423076Y-7184528D01*
X3332260Y-7093712D01*
X3225472Y-7022359D01*
X3106815Y-6973210D01*
X3093794Y-6970620D01*
X3173588Y-6954748D01*
X3292245Y-6905599D01*
X3399033Y-6834246D01*
X3489849Y-6743430D01*
X3561202Y-6636642D01*
X3610351Y-6517985D01*
X3635407Y-6392020D01*
X3635407Y-6263588D01*
X3610351Y-6137623D01*
X3561202Y-6018966D01*
X3489849Y-5912178D01*
X3399033Y-5821362D01*
X3292245Y-5750009D01*
X3173588Y-5700860D01*
X3101807Y-5686582D01*
X3101807Y-5669721D01*
X3076751Y-5543756D01*
X3027602Y-5425099D01*
X2956249Y-5318311D01*
X2865433Y-5227495D01*
X2758645Y-5156142D01*
X2639988Y-5106993D01*
X2514023Y-5081937D01*
X2385591Y-5081937D01*
X2259626Y-5106993D01*
X2140969Y-5156142D01*
X2034181Y-5227495D01*
X1943365Y-5318311D01*
X1872012Y-5425099D01*
X1822863Y-5543756D01*
X1797807Y-5669721D01*
X1797807Y-5798153D01*
X1822863Y-5924118D01*
X1872012Y-6042775D01*
X1878555Y-6052568D01*
X1859394Y-6052568D01*
X1733429Y-6077624D01*
X1614772Y-6126773D01*
X1507984Y-6198126D01*
X1417168Y-6288942D01*
X1345815Y-6395730D01*
X1296666Y-6514387D01*
X1276914Y-6613688D01*
X1229819Y-6623056D01*
X1111162Y-6672205D01*
X1004374Y-6743558D01*
X913558Y-6834374D01*
X854009Y-6923496D01*
X802732Y-6872219D01*
X695944Y-6800866D01*
X577287Y-6751717D01*
X451322Y-6726661D01*
X322890Y-6726661D01*
X196925Y-6751717D01*
X78268Y-6800866D01*
X-2415Y-6854776D01*
X-51162Y-6822205D01*
X-169819Y-6773056D01*
X-295784Y-6748000D01*
X-424216Y-6748000D01*
X-550181Y-6773056D01*
X-668838Y-6822205D01*
X-748000Y-6875099D01*
X-748000Y-6825784D01*
X-773056Y-6699819D01*
X-822205Y-6581162D01*
X-893558Y-6474374D01*
X-984374Y-6383558D01*
X-1091162Y-6312205D01*
X-1209819Y-6263056D01*
X-1335784Y-6238000D01*
X-1464216Y-6238000D01*
X-1590181Y-6263056D01*
X-1708838Y-6312205D01*
X-1815626Y-6383558D01*
X-1906442Y-6474374D01*
X-1977795Y-6581162D01*
X-2026944Y-6699819D01*
X-2052000Y-6825784D01*
X-3185805Y-6825784D01*
X-3191162Y-6822205D01*
X-3309819Y-6773056D01*
X-3435784Y-6748000D01*
X-3564216Y-6748000D01*
X-3690181Y-6773056D01*
X-3808838Y-6822205D01*
X-3915626Y-6893558D01*
X-4006442Y-6984374D01*
X-4077795Y-7091162D01*
X-4126944Y-7209819D01*
X-4152000Y-7335784D01*
X-11304303Y-7335784D01*
X-11361784Y-7278303D01*
X-11468572Y-7206950D01*
X-11587229Y-7157801D01*
X-11713194Y-7132745D01*
X-11841626Y-7132745D01*
X-11967591Y-7157801D01*
X-12086248Y-7206950D01*
X-12193036Y-7278303D01*
X-12283852Y-7369119D01*
X-12355205Y-7475907D01*
X-12404354Y-7594564D01*
X-12429410Y-7720529D01*
X-14271176Y-7720529D01*
X-14271176Y-6650000D01*
X-14278455Y-6576095D01*
X-14300012Y-6505030D01*
X-14335019Y-6439537D01*
X-14382131Y-6382131D01*
X-14439537Y-6335019D01*
X-14505030Y-6300012D01*
X-14576095Y-6278455D01*
X-14650000Y-6271176D01*
X-14813380Y-6271176D01*
X-14618645Y-6155178D01*
X-14402412Y-5960269D01*
X-14228359Y-5726920D01*
X-14103175Y-5464099D01*
X-14058524Y-5316890D01*
X-14179845Y-5087000D01*
X-15373000Y-5087000D01*
X-15373000Y-5107000D01*
X-15627000Y-5107000D01*
X-15627000Y-5087000D01*
X-16820155Y-5087000D01*
X-16941476Y-5316890D01*
X-17598000Y-5316890D01*
X-17598000Y-4925784D01*
X-13992000Y-4925784D01*
X-13992000Y-5054216D01*
X-13966944Y-5180181D01*
X-13917795Y-5298838D01*
X-13846442Y-5405626D01*
X-13755626Y-5496442D01*
X-13648838Y-5567795D01*
X-13530181Y-5616944D01*
X-13404216Y-5642000D01*
X-13275784Y-5642000D01*
X-13149819Y-5616944D01*
X-13031162Y-5567795D01*
X-12924374Y-5496442D01*
X-12833558Y-5405626D01*
X-12762205Y-5298838D01*
X-12733906Y-5230516D01*
X-7684404Y-5230516D01*
X-7684404Y-5358948D01*
X-7659348Y-5484913D01*
X-7610199Y-5603570D01*
X-7538846Y-5710358D01*
X-7448030Y-5801174D01*
X-7341242Y-5872527D01*
X-7222585Y-5921676D01*
X-7096620Y-5946732D01*
X-6968188Y-5946732D01*
X-6842223Y-5921676D01*
X-6723566Y-5872527D01*
X-6616778Y-5801174D01*
X-6525962Y-5710358D01*
X-6454609Y-5603570D01*
X-6405460Y-5484913D01*
X-6380404Y-5358948D01*
X-6380404Y-5230516D01*
X-6405460Y-5104551D01*
X-6454609Y-4985894D01*
X-6525962Y-4879106D01*
X-6616778Y-4788290D01*
X-6723566Y-4716937D01*
X-6842223Y-4667788D01*
X-6968188Y-4642732D01*
X-7096620Y-4642732D01*
X-7222585Y-4667788D01*
X-7341242Y-4716937D01*
X-7448030Y-4788290D01*
X-7538846Y-4879106D01*
X-7610199Y-4985894D01*
X-7659348Y-5104551D01*
X-7684404Y-5230516D01*
X-12733906Y-5230516D01*
X-12713056Y-5180181D01*
X-12688000Y-5054216D01*
X-12688000Y-4925784D01*
X-12713056Y-4799819D01*
X-12762205Y-4681162D01*
X-12833558Y-4574374D01*
X-12924374Y-4483558D01*
X-13031162Y-4412205D01*
X-13149819Y-4363056D01*
X-13275784Y-4338000D01*
X-13404216Y-4338000D01*
X-13530181Y-4363056D01*
X-13648838Y-4412205D01*
X-13755626Y-4483558D01*
X-13846442Y-4574374D01*
X-13917795Y-4681162D01*
X-13966944Y-4799819D01*
X-13992000Y-4925784D01*
X-17598000Y-4925784D01*
X-17598000Y-4603110D01*
X-16941476Y-4603110D01*
X-16820155Y-4833000D01*
X-15627000Y-4833000D01*
X-15627000Y-4813000D01*
X-15373000Y-4813000D01*
X-15373000Y-4833000D01*
X-14179845Y-4833000D01*
X-14058524Y-4603110D01*
X-14103175Y-4455901D01*
X-14228359Y-4193080D01*
X-14402412Y-3959731D01*
X-14442627Y-3923481D01*
X-11912121Y-3923481D01*
X-11912121Y-4051913D01*
X-11887065Y-4177878D01*
X-11837916Y-4296535D01*
X-11766563Y-4403323D01*
X-11675747Y-4494139D01*
X-11568959Y-4565492D01*
X-11450302Y-4614641D01*
X-11324337Y-4639697D01*
X-11195905Y-4639697D01*
X-11069940Y-4614641D01*
X-10951283Y-4565492D01*
X-10844495Y-4494139D01*
X-10753679Y-4403323D01*
X-10722116Y-4356085D01*
X-10661764Y-4368090D01*
X-10533332Y-4368090D01*
X-10407367Y-4343034D01*
X-10288710Y-4293885D01*
X-10181922Y-4222532D01*
X-10091106Y-4131716D01*
X-10073779Y-4105784D01*
X-4402000Y-4105784D01*
X-4402000Y-4234216D01*
X-4376944Y-4360181D01*
X-4327795Y-4478838D01*
X-4256442Y-4585626D01*
X-4165626Y-4676442D01*
X-4153592Y-4684483D01*
X-4186332Y-4763525D01*
X-4211388Y-4889490D01*
X-4211388Y-5017922D01*
X-4186332Y-5143887D01*
X-4137183Y-5262544D01*
X-4136185Y-5264038D01*
X-4190453Y-5345257D01*
X-4239602Y-5463914D01*
X-4264658Y-5589879D01*
X-4264658Y-5718311D01*
X-4239602Y-5844276D01*
X-4190453Y-5962933D01*
X-4119100Y-6069721D01*
X-4028284Y-6160537D01*
X-3921496Y-6231890D01*
X-3802839Y-6281039D01*
X-3676874Y-6306095D01*
X-3548442Y-6306095D01*
X-3422477Y-6281039D01*
X-3303820Y-6231890D01*
X-3197032Y-6160537D01*
X-3106216Y-6069721D01*
X-3034863Y-5962933D01*
X-2985714Y-5844276D01*
X-2960658Y-5718311D01*
X-2960658Y-5589879D01*
X-2985714Y-5463914D01*
X-3034863Y-5345257D01*
X-3035861Y-5343763D01*
X-2981593Y-5262544D01*
X-2932444Y-5143887D01*
X-2907388Y-5017922D01*
X-2907388Y-4952731D01*
X3139820Y-4952731D01*
X3139820Y-5081163D01*
X3164876Y-5207128D01*
X3214025Y-5325785D01*
X3285378Y-5432573D01*
X3376194Y-5523389D01*
X3482982Y-5594742D01*
X3601639Y-5643891D01*
X3727604Y-5668947D01*
X3856036Y-5668947D01*
X3982001Y-5643891D01*
X4100658Y-5594742D01*
X4207446Y-5523389D01*
X4298262Y-5432573D01*
X4369615Y-5325785D01*
X4418764Y-5207128D01*
X4443820Y-5081163D01*
X4443820Y-4952731D01*
X4418764Y-4826766D01*
X4369615Y-4708109D01*
X4326185Y-4643110D01*
X14058524Y-4643110D01*
X14179845Y-4873000D01*
X15373000Y-4873000D01*
X15373000Y-4853000D01*
X15627000Y-4853000D01*
X15627000Y-4873000D01*
X16820155Y-4873000D01*
X16941476Y-4643110D01*
X16896825Y-4495901D01*
X16771641Y-4233080D01*
X16597588Y-3999731D01*
X16381355Y-3804822D01*
X16131252Y-3655843D01*
X15963202Y-3596231D01*
X16081202Y-3547353D01*
X16282167Y-3413073D01*
X16453073Y-3242167D01*
X16587353Y-3041202D01*
X16679847Y-2817903D01*
X16727000Y-2580849D01*
X16727000Y-2339151D01*
X16679847Y-2102097D01*
X16587353Y-1878798D01*
X16453073Y-1677833D01*
X16282167Y-1506927D01*
X16081202Y-1372647D01*
X15857903Y-1280153D01*
X15620849Y-1233000D01*
X15379151Y-1233000D01*
X15142097Y-1280153D01*
X14918798Y-1372647D01*
X14717833Y-1506927D01*
X14546927Y-1677833D01*
X14412647Y-1878798D01*
X14320153Y-2102097D01*
X14273000Y-2339151D01*
X14273000Y-2580849D01*
X14320153Y-2817903D01*
X14412647Y-3041202D01*
X14546927Y-3242167D01*
X14717833Y-3413073D01*
X14918798Y-3547353D01*
X15036798Y-3596231D01*
X14868748Y-3655843D01*
X14618645Y-3804822D01*
X14402412Y-3999731D01*
X14228359Y-4233080D01*
X14103175Y-4495901D01*
X14058524Y-4643110D01*
X4326185Y-4643110D01*
X4298262Y-4601321D01*
X4207446Y-4510505D01*
X4100658Y-4439152D01*
X3982001Y-4390003D01*
X3856036Y-4364947D01*
X3727604Y-4364947D01*
X3601639Y-4390003D01*
X3482982Y-4439152D01*
X3376194Y-4510505D01*
X3285378Y-4601321D01*
X3214025Y-4708109D01*
X3164876Y-4826766D01*
X3139820Y-4952731D01*
X-2907388Y-4952731D01*
X-2907388Y-4889490D01*
X-2932444Y-4763525D01*
X-2981593Y-4644868D01*
X-3052946Y-4538080D01*
X-3143762Y-4447264D01*
X-3155796Y-4439223D01*
X-3123056Y-4360181D01*
X-3098000Y-4234216D01*
X-3098000Y-4105784D01*
X-3123056Y-3979819D01*
X-3172205Y-3861162D01*
X-3243558Y-3754374D01*
X-3334374Y-3663558D01*
X-3441162Y-3592205D01*
X-3559819Y-3543056D01*
X-3685784Y-3518000D01*
X-3814216Y-3518000D01*
X-3940181Y-3543056D01*
X-4058838Y-3592205D01*
X-4165626Y-3663558D01*
X-4256442Y-3754374D01*
X-4327795Y-3861162D01*
X-4376944Y-3979819D01*
X-4402000Y-4105784D01*
X-10073779Y-4105784D01*
X-10019753Y-4024928D01*
X-9970604Y-3906271D01*
X-9945548Y-3780306D01*
X-9945548Y-3651874D01*
X-9970604Y-3525909D01*
X-10019753Y-3407252D01*
X-10091106Y-3300464D01*
X-10181922Y-3209648D01*
X-10288710Y-3138295D01*
X-10407367Y-3089146D01*
X-10533332Y-3064090D01*
X-10661764Y-3064090D01*
X-10787729Y-3089146D01*
X-10906386Y-3138295D01*
X-11013174Y-3209648D01*
X-11103990Y-3300464D01*
X-11135553Y-3347702D01*
X-11195905Y-3335697D01*
X-11324337Y-3335697D01*
X-11450302Y-3360753D01*
X-11568959Y-3409902D01*
X-11675747Y-3481255D01*
X-11766563Y-3572071D01*
X-11837916Y-3678859D01*
X-11887065Y-3797516D01*
X-11912121Y-3923481D01*
X-14442627Y-3923481D01*
X-14618645Y-3764822D01*
X-14868748Y-3615843D01*
X-15036798Y-3556231D01*
X-14918798Y-3507353D01*
X-14717833Y-3373073D01*
X-14546927Y-3202167D01*
X-14412647Y-3001202D01*
X-14320153Y-2777903D01*
X-14273000Y-2540849D01*
X-14273000Y-2299151D01*
X-14320153Y-2062097D01*
X-14412647Y-1838798D01*
X-14546927Y-1637833D01*
X-14717833Y-1466927D01*
X-14918798Y-1332647D01*
X-14959508Y-1315784D01*
X-13802000Y-1315784D01*
X-13802000Y-1444216D01*
X-13776944Y-1570181D01*
X-13727795Y-1688838D01*
X-13656442Y-1795626D01*
X-13565626Y-1886442D01*
X-13458838Y-1957795D01*
X-13340181Y-2006944D01*
X-13214216Y-2032000D01*
X-13085784Y-2032000D01*
X-12959819Y-2006944D01*
X-12841162Y-1957795D01*
X-12734374Y-1886442D01*
X-12643558Y-1795626D01*
X-12588341Y-1712987D01*
X-12526442Y-1805626D01*
X-12435626Y-1896442D01*
X-12328838Y-1967795D01*
X-12210181Y-2016944D01*
X-12084216Y-2042000D01*
X-11955784Y-2042000D01*
X-11829819Y-2016944D01*
X-11711162Y-1967795D01*
X-11604374Y-1896442D01*
X-11530000Y-1822068D01*
X-11525626Y-1826442D01*
X-11418838Y-1897795D01*
X-11300181Y-1946944D01*
X-11174216Y-1972000D01*
X-11045784Y-1972000D01*
X-10919819Y-1946944D01*
X-10801162Y-1897795D01*
X-10694374Y-1826442D01*
X-10603558Y-1735626D01*
X-10532205Y-1628838D01*
X-10483056Y-1510181D01*
X-10458000Y-1384216D01*
X-10458000Y-1255784D01*
X-10483056Y-1129819D01*
X-10532205Y-1011162D01*
X-10603558Y-904374D01*
X-10694374Y-813558D01*
X-10801162Y-742205D01*
X-10919819Y-693056D01*
X-11045784Y-668000D01*
X-11174216Y-668000D01*
X-11300181Y-693056D01*
X-11418838Y-742205D01*
X-11525626Y-813558D01*
X-11600000Y-887932D01*
X-11604374Y-883558D01*
X-11711162Y-812205D01*
X-11829819Y-763056D01*
X-11955784Y-738000D01*
X-12084216Y-738000D01*
X-12210181Y-763056D01*
X-12328838Y-812205D01*
X-12435626Y-883558D01*
X-12526442Y-974374D01*
X-12581659Y-1057013D01*
X-12643558Y-964374D01*
X-12734374Y-873558D01*
X-12841162Y-802205D01*
X-12959819Y-753056D01*
X-13085784Y-728000D01*
X-13214216Y-728000D01*
X-13340181Y-753056D01*
X-13458838Y-802205D01*
X-13565626Y-873558D01*
X-13656442Y-964374D01*
X-13727795Y-1071162D01*
X-13776944Y-1189819D01*
X-13802000Y-1315784D01*
X-14959508Y-1315784D01*
X-15142097Y-1240153D01*
X-15379151Y-1193000D01*
X-15620849Y-1193000D01*
X-15857903Y-1240153D01*
X-16081202Y-1332647D01*
X-16282167Y-1466927D01*
X-16453073Y-1637833D01*
X-16587353Y-1838798D01*
X-16679847Y-2062097D01*
X-16727000Y-2299151D01*
X-16727000Y-2540849D01*
X-16679847Y-2777903D01*
X-16587353Y-3001202D01*
X-16453073Y-3202167D01*
X-16282167Y-3373073D01*
X-16081202Y-3507353D01*
X-15963202Y-3556231D01*
X-16131252Y-3615843D01*
X-16381355Y-3764822D01*
X-16597588Y-3959731D01*
X-16771641Y-4193080D01*
X-16896825Y-4455901D01*
X-16941476Y-4603110D01*
X-17598000Y-4603110D01*
X-17598000Y240849D01*
X-16727000Y240849D01*
X-16727000Y-849D01*
X-16679847Y-237903D01*
X-16587353Y-461202D01*
X-16453073Y-662167D01*
X-16282167Y-833073D01*
X-16081202Y-967353D01*
X-15857903Y-1059847D01*
X-15620849Y-1107000D01*
X-15379151Y-1107000D01*
X-15142097Y-1059847D01*
X-14918798Y-967353D01*
X-14717833Y-833073D01*
X-14546927Y-662167D01*
X-14512187Y-610174D01*
X-10462302Y-610174D01*
X-10462302Y-738606D01*
X-10437246Y-864571D01*
X-10388097Y-983228D01*
X-10316744Y-1090016D01*
X-10263404Y-1143356D01*
X-10273288Y-1167217D01*
X-10298344Y-1293182D01*
X-10298344Y-1421614D01*
X-10273288Y-1547579D01*
X-10224139Y-1666236D01*
X-10152786Y-1773024D01*
X-10061970Y-1863840D01*
X-9955182Y-1935193D01*
X-9836525Y-1984342D01*
X-9710560Y-2009398D01*
X-9582128Y-2009398D01*
X-9456163Y-1984342D01*
X-9338933Y-1935784D01*
X-4052000Y-1935784D01*
X-4052000Y-2064216D01*
X-4026944Y-2190181D01*
X-3977795Y-2308838D01*
X-3906442Y-2415626D01*
X-3815626Y-2506442D01*
X-3708838Y-2577795D01*
X-3590181Y-2626944D01*
X-3464216Y-2652000D01*
X-3335784Y-2652000D01*
X-3209819Y-2626944D01*
X-3091162Y-2577795D01*
X-2984374Y-2506442D01*
X-2893558Y-2415626D01*
X-2822205Y-2308838D01*
X-2773056Y-2190181D01*
X-2748000Y-2064216D01*
X-2748000Y-1935784D01*
X-2773056Y-1809819D01*
X-2822205Y-1691162D01*
X-2893558Y-1584374D01*
X-2984374Y-1493558D01*
X-3091162Y-1422205D01*
X-3209819Y-1373056D01*
X-3335784Y-1348000D01*
X-3464216Y-1348000D01*
X-3590181Y-1373056D01*
X-3708838Y-1422205D01*
X-3815626Y-1493558D01*
X-3906442Y-1584374D01*
X-3977795Y-1691162D01*
X-4026944Y-1809819D01*
X-4052000Y-1935784D01*
X-9338933Y-1935784D01*
X-9337506Y-1935193D01*
X-9230718Y-1863840D01*
X-9139902Y-1773024D01*
X-9068549Y-1666236D01*
X-9019400Y-1547579D01*
X-8994344Y-1421614D01*
X-8994344Y-1327000D01*
X-6330000Y-1327000D01*
X-6305224Y-1324560D01*
X-6281399Y-1317333D01*
X-6259443Y-1305597D01*
X-6240197Y-1289803D01*
X-6140197Y-1189803D01*
X-6124403Y-1170557D01*
X-6112667Y-1148601D01*
X-6105440Y-1124776D01*
X-6103000Y-1100000D01*
X-6103000Y-277917D01*
X-4084133Y-277917D01*
X-4084133Y-406349D01*
X-4059077Y-532314D01*
X-4009928Y-650971D01*
X-3938575Y-757759D01*
X-3847759Y-848575D01*
X-3740971Y-919928D01*
X-3622314Y-969077D01*
X-3496349Y-994133D01*
X-3367917Y-994133D01*
X-3241952Y-969077D01*
X-3123295Y-919928D01*
X-3016507Y-848575D01*
X-2925691Y-757759D01*
X-2854338Y-650971D01*
X-2805189Y-532314D01*
X-2780133Y-406349D01*
X-2780133Y-277917D01*
X-2805189Y-151952D01*
X-2854338Y-33295D01*
X-2925691Y73493D01*
X-3016507Y164309D01*
X-3123295Y235662D01*
X-3241952Y284811D01*
X-3367917Y309867D01*
X-3496349Y309867D01*
X-3622314Y284811D01*
X-3740971Y235662D01*
X-3847759Y164309D01*
X-3938575Y73493D01*
X-4009928Y-33295D01*
X-4059077Y-151952D01*
X-4084133Y-277917D01*
X-6103000Y-277917D01*
X-6103000Y1864216D01*
X-752000Y1864216D01*
X-752000Y1735784D01*
X-726944Y1609819D01*
X-677795Y1491162D01*
X-606442Y1384374D01*
X-562068Y1340000D01*
X-586442Y1315626D01*
X-657795Y1208838D01*
X-706944Y1090181D01*
X-732000Y964216D01*
X-732000Y835784D01*
X-706944Y709819D01*
X-657795Y591162D01*
X-586442Y484374D01*
X-495626Y393558D01*
X-479490Y382776D01*
X-515626Y358631D01*
X-606442Y267815D01*
X-677795Y161027D01*
X-726944Y42370D01*
X-752000Y-83595D01*
X-752000Y-212027D01*
X-726944Y-337992D01*
X-677795Y-456649D01*
X-606442Y-563437D01*
X-515626Y-654253D01*
X-408838Y-725606D01*
X-290181Y-774755D01*
X-164216Y-799811D01*
X-35784Y-799811D01*
X90181Y-774755D01*
X208838Y-725606D01*
X315626Y-654253D01*
X406442Y-563437D01*
X477795Y-456649D01*
X526944Y-337992D01*
X552000Y-212027D01*
X552000Y-83595D01*
X532545Y14216D01*
X10148000Y14216D01*
X10148000Y-114216D01*
X10173056Y-240181D01*
X10222205Y-358838D01*
X10293558Y-465626D01*
X10384374Y-556442D01*
X10491162Y-627795D01*
X10609819Y-676944D01*
X10735784Y-702000D01*
X10864216Y-702000D01*
X10990181Y-676944D01*
X11108838Y-627795D01*
X11215626Y-556442D01*
X11306442Y-465626D01*
X11377795Y-358838D01*
X11426944Y-240181D01*
X11452000Y-114216D01*
X11452000Y14216D01*
X11426944Y140181D01*
X11401815Y200849D01*
X14273000Y200849D01*
X14273000Y-40849D01*
X14320153Y-277903D01*
X14412647Y-501202D01*
X14546927Y-702167D01*
X14717833Y-873073D01*
X14918798Y-1007353D01*
X15142097Y-1099847D01*
X15379151Y-1147000D01*
X15620849Y-1147000D01*
X15857903Y-1099847D01*
X16081202Y-1007353D01*
X16282167Y-873073D01*
X16453073Y-702167D01*
X16587353Y-501202D01*
X16679847Y-277903D01*
X16727000Y-40849D01*
X16727000Y200849D01*
X16679847Y437903D01*
X16587353Y661202D01*
X16453073Y862167D01*
X16282167Y1033073D01*
X16081202Y1167353D01*
X15857903Y1259847D01*
X15620849Y1307000D01*
X15379151Y1307000D01*
X15142097Y1259847D01*
X14918798Y1167353D01*
X14717833Y1033073D01*
X14546927Y862167D01*
X14412647Y661202D01*
X14320153Y437903D01*
X14273000Y200849D01*
X11401815Y200849D01*
X11377795Y258838D01*
X11306442Y365626D01*
X11215626Y456442D01*
X11108838Y527795D01*
X10990181Y576944D01*
X10864216Y602000D01*
X10735784Y602000D01*
X10609819Y576944D01*
X10491162Y527795D01*
X10384374Y456442D01*
X10293558Y365626D01*
X10222205Y258838D01*
X10173056Y140181D01*
X10148000Y14216D01*
X532545Y14216D01*
X526944Y42370D01*
X477795Y161027D01*
X406442Y267815D01*
X315626Y358631D01*
X299490Y369413D01*
X335626Y393558D01*
X426442Y484374D01*
X497795Y591162D01*
X546944Y709819D01*
X572000Y835784D01*
X572000Y964216D01*
X546944Y1090181D01*
X497795Y1208838D01*
X426442Y1315626D01*
X382068Y1360000D01*
X406442Y1384374D01*
X477795Y1491162D01*
X526944Y1609819D01*
X552000Y1735784D01*
X552000Y1864216D01*
X526944Y1990181D01*
X477795Y2108838D01*
X406442Y2215626D01*
X315626Y2306442D01*
X208838Y2377795D01*
X90181Y2426944D01*
X-35784Y2452000D01*
X-164216Y2452000D01*
X-290181Y2426944D01*
X-408838Y2377795D01*
X-515626Y2306442D01*
X-606442Y2215626D01*
X-677795Y2108838D01*
X-726944Y1990181D01*
X-752000Y1864216D01*
X-6103000Y1864216D01*
X-6103000Y2230000D01*
X-6105360Y2254371D01*
X-6112510Y2278219D01*
X-6124174Y2300213D01*
X-6139906Y2319510D01*
X-6239904Y2420161D01*
X-6258754Y2435786D01*
X-6280634Y2447665D01*
X-6304411Y2455047D01*
X-6329171Y2457648D01*
X-9199175Y2476346D01*
X-9224373Y2473989D01*
X-9248221Y2466839D01*
X-9270215Y2455175D01*
X-9289512Y2439443D01*
X-9389510Y2340094D01*
X-9405597Y2320557D01*
X-9417333Y2298601D01*
X-9424560Y2274776D01*
X-9427000Y2250000D01*
X-9427000Y-146350D01*
X-9501464Y-96595D01*
X-9620121Y-47446D01*
X-9746086Y-22390D01*
X-9874518Y-22390D01*
X-10000483Y-47446D01*
X-10119140Y-96595D01*
X-10225928Y-167948D01*
X-10316744Y-258764D01*
X-10388097Y-365552D01*
X-10437246Y-484209D01*
X-10462302Y-610174D01*
X-14512187Y-610174D01*
X-14412647Y-461202D01*
X-14320153Y-237903D01*
X-14273000Y-849D01*
X-14273000Y240849D01*
X-14320153Y477903D01*
X-14412647Y701202D01*
X-14546927Y902167D01*
X-14673068Y1028308D01*
X-14248089Y1028308D01*
X-14248089Y899876D01*
X-14223033Y773911D01*
X-14173884Y655254D01*
X-14102531Y548466D01*
X-14011715Y457650D01*
X-13904927Y386297D01*
X-13786270Y337148D01*
X-13660305Y312092D01*
X-13531873Y312092D01*
X-13405908Y337148D01*
X-13287251Y386297D01*
X-13180463Y457650D01*
X-13100089Y538023D01*
X-13015626Y453560D01*
X-12908838Y382207D01*
X-12790181Y333058D01*
X-12664216Y308002D01*
X-12535784Y308002D01*
X-12409819Y333058D01*
X-12291162Y382207D01*
X-12184374Y453560D01*
X-12093558Y544376D01*
X-12086115Y555516D01*
X-12058631Y514383D01*
X-11967815Y423567D01*
X-11861027Y352214D01*
X-11742370Y303065D01*
X-11616405Y278009D01*
X-11487973Y278009D01*
X-11362008Y303065D01*
X-11243351Y352214D01*
X-11136563Y423567D01*
X-11045747Y514383D01*
X-11030007Y537939D01*
X-11015626Y523558D01*
X-10908838Y452205D01*
X-10790181Y403056D01*
X-10664216Y378000D01*
X-10535784Y378000D01*
X-10409819Y403056D01*
X-10291162Y452205D01*
X-10184374Y523558D01*
X-10093558Y614374D01*
X-10022205Y721162D01*
X-9973056Y839819D01*
X-9948000Y965784D01*
X-9948000Y1094216D01*
X-9973056Y1220181D01*
X-10022205Y1338838D01*
X-10093558Y1445626D01*
X-10184374Y1536442D01*
X-10291162Y1607795D01*
X-10409819Y1656944D01*
X-10535784Y1682000D01*
X-10664216Y1682000D01*
X-10790181Y1656944D01*
X-10908838Y1607795D01*
X-11015626Y1536442D01*
X-11106442Y1445626D01*
X-11122182Y1422070D01*
X-11136563Y1436451D01*
X-11243351Y1507804D01*
X-11362008Y1556953D01*
X-11487973Y1582009D01*
X-11616405Y1582009D01*
X-11742370Y1556953D01*
X-11861027Y1507804D01*
X-11967815Y1436451D01*
X-12058631Y1345635D01*
X-12066074Y1334495D01*
X-12093558Y1375628D01*
X-12184374Y1466444D01*
X-12291162Y1537797D01*
X-12409819Y1586946D01*
X-12535784Y1612002D01*
X-12664216Y1612002D01*
X-12790181Y1586946D01*
X-12908838Y1537797D01*
X-13015626Y1466444D01*
X-13095999Y1386070D01*
X-13180463Y1470534D01*
X-13287251Y1541887D01*
X-13405908Y1591036D01*
X-13531873Y1616092D01*
X-13660305Y1616092D01*
X-13786270Y1591036D01*
X-13904927Y1541887D01*
X-14011715Y1470534D01*
X-14102531Y1379718D01*
X-14173884Y1272930D01*
X-14223033Y1154273D01*
X-14248089Y1028308D01*
X-14673068Y1028308D01*
X-14717833Y1073073D01*
X-14918798Y1207353D01*
X-15142097Y1299847D01*
X-15379151Y1347000D01*
X-15620849Y1347000D01*
X-15857903Y1299847D01*
X-16081202Y1207353D01*
X-16282167Y1073073D01*
X-16453073Y902167D01*
X-16587353Y701202D01*
X-16679847Y477903D01*
X-16727000Y240849D01*
X-17598000Y240849D01*
X-17598000Y2780849D01*
X-16727000Y2780849D01*
X-16727000Y2539151D01*
X-16679847Y2302097D01*
X-16587353Y2078798D01*
X-16453073Y1877833D01*
X-16282167Y1706927D01*
X-16081202Y1572647D01*
X-15857903Y1480153D01*
X-15620849Y1433000D01*
X-15379151Y1433000D01*
X-15142097Y1480153D01*
X-14918798Y1572647D01*
X-14717833Y1706927D01*
X-14546927Y1877833D01*
X-14412647Y2078798D01*
X-14320153Y2302097D01*
X-14273000Y2539151D01*
X-14273000Y2740849D01*
X14273000Y2740849D01*
X14273000Y2499151D01*
X14320153Y2262097D01*
X14412647Y2038798D01*
X14546927Y1837833D01*
X14717833Y1666927D01*
X14918798Y1532647D01*
X15142097Y1440153D01*
X15379151Y1393000D01*
X15620849Y1393000D01*
X15857903Y1440153D01*
X16081202Y1532647D01*
X16282167Y1666927D01*
X16453073Y1837833D01*
X16587353Y2038798D01*
X16679847Y2262097D01*
X16727000Y2499151D01*
X16727000Y2740849D01*
X16679847Y2977903D01*
X16587353Y3201202D01*
X16453073Y3402167D01*
X16282167Y3573073D01*
X16081202Y3707353D01*
X15857903Y3799847D01*
X15620849Y3847000D01*
X15379151Y3847000D01*
X15142097Y3799847D01*
X14918798Y3707353D01*
X14717833Y3573073D01*
X14546927Y3402167D01*
X14412647Y3201202D01*
X14320153Y2977903D01*
X14273000Y2740849D01*
X-14273000Y2740849D01*
X-14273000Y2780849D01*
X-14320153Y3017903D01*
X-14412647Y3241202D01*
X-14546927Y3442167D01*
X-14717833Y3613073D01*
X-14918798Y3747353D01*
X-15142097Y3839847D01*
X-15379151Y3887000D01*
X-15620849Y3887000D01*
X-15857903Y3839847D01*
X-16081202Y3747353D01*
X-16282167Y3613073D01*
X-16453073Y3442167D01*
X-16587353Y3241202D01*
X-16679847Y3017903D01*
X-16727000Y2780849D01*
X-17598000Y2780849D01*
X-17598000Y5320849D01*
X-16727000Y5320849D01*
X-16727000Y5079151D01*
X-16679847Y4842097D01*
X-16587353Y4618798D01*
X-16453073Y4417833D01*
X-16282167Y4246927D01*
X-16081202Y4112647D01*
X-15857903Y4020153D01*
X-15620849Y3973000D01*
X-15379151Y3973000D01*
X-15142097Y4020153D01*
X-14918798Y4112647D01*
X-14717833Y4246927D01*
X-14546927Y4417833D01*
X-14412647Y4618798D01*
X-14320153Y4842097D01*
X-14273000Y5079151D01*
X-14273000Y5320849D01*
X-14320153Y5557903D01*
X-14412647Y5781202D01*
X-14546927Y5982167D01*
X-14634052Y6069292D01*
X-10522000Y6069292D01*
X-10522000Y5950708D01*
X-10498866Y5834403D01*
X-10453486Y5724846D01*
X-10387604Y5626247D01*
X-10303753Y5542396D01*
X-10205154Y5476514D01*
X-10095597Y5431134D01*
X-9979292Y5408000D01*
X-9860708Y5408000D01*
X-9744403Y5431134D01*
X-9634846Y5476514D01*
X-9536247Y5542396D01*
X-9452396Y5626247D01*
X-9386514Y5724846D01*
X-9341134Y5834403D01*
X-9318000Y5950708D01*
X-9318000Y6069292D01*
X-9341134Y6185597D01*
X-9386514Y6295154D01*
X-9452396Y6393753D01*
X-9522859Y6464216D01*
X-8362000Y6464216D01*
X-8362000Y6335784D01*
X-8336944Y6209819D01*
X-8287795Y6091162D01*
X-8216442Y5984374D01*
X-8125626Y5893558D01*
X-8018838Y5822205D01*
X-7900181Y5773056D01*
X-7774216Y5748000D01*
X-7645784Y5748000D01*
X-7519819Y5773056D01*
X-7401162Y5822205D01*
X-7294374Y5893558D01*
X-7284609Y5903323D01*
X-7280837Y5900803D01*
X-7162180Y5851654D01*
X-7036215Y5826598D01*
X-6907783Y5826598D01*
X-6781818Y5851654D01*
X-6663161Y5900803D01*
X-6615818Y5932437D01*
X-6573419Y5904107D01*
X-6454762Y5854958D01*
X-6328797Y5829902D01*
X-6200365Y5829902D01*
X-6074400Y5854958D01*
X-5955743Y5904107D01*
X-5848955Y5975460D01*
X-5800199Y6024216D01*
X-112000Y6024216D01*
X-112000Y5895784D01*
X-86944Y5769819D01*
X-37795Y5651162D01*
X33558Y5544374D01*
X124374Y5453558D01*
X231162Y5382205D01*
X349819Y5333056D01*
X475784Y5308000D01*
X604216Y5308000D01*
X730181Y5333056D01*
X848838Y5382205D01*
X955626Y5453558D01*
X983284Y5481216D01*
X7580000Y5481216D01*
X7580000Y5352784D01*
X7605056Y5226819D01*
X7654205Y5108162D01*
X7725558Y5001374D01*
X7816374Y4910558D01*
X7923162Y4839205D01*
X8041819Y4790056D01*
X8167784Y4765000D01*
X8296216Y4765000D01*
X8422181Y4790056D01*
X8540838Y4839205D01*
X8647626Y4910558D01*
X8738442Y5001374D01*
X8809795Y5108162D01*
X8858944Y5226819D01*
X8869691Y5280849D01*
X14273000Y5280849D01*
X14273000Y5039151D01*
X14320153Y4802097D01*
X14412647Y4578798D01*
X14546927Y4377833D01*
X14717833Y4206927D01*
X14918798Y4072647D01*
X15142097Y3980153D01*
X15379151Y3933000D01*
X15620849Y3933000D01*
X15857903Y3980153D01*
X16081202Y4072647D01*
X16282167Y4206927D01*
X16453073Y4377833D01*
X16587353Y4578798D01*
X16679847Y4802097D01*
X16727000Y5039151D01*
X16727000Y5280849D01*
X16679847Y5517903D01*
X16587353Y5741202D01*
X16453073Y5942167D01*
X16282167Y6113073D01*
X16081202Y6247353D01*
X15857903Y6339847D01*
X15620849Y6387000D01*
X15379151Y6387000D01*
X15142097Y6339847D01*
X14918798Y6247353D01*
X14717833Y6113073D01*
X14546927Y5942167D01*
X14412647Y5741202D01*
X14320153Y5517903D01*
X14273000Y5280849D01*
X8869691Y5280849D01*
X8884000Y5352784D01*
X8884000Y5481216D01*
X8858944Y5607181D01*
X8809795Y5725838D01*
X8738442Y5832626D01*
X8647626Y5923442D01*
X8540838Y5994795D01*
X8422181Y6043944D01*
X8296216Y6069000D01*
X8167784Y6069000D01*
X8041819Y6043944D01*
X7923162Y5994795D01*
X7816374Y5923442D01*
X7725558Y5832626D01*
X7654205Y5725838D01*
X7605056Y5607181D01*
X7580000Y5481216D01*
X983284Y5481216D01*
X1046442Y5544374D01*
X1117795Y5651162D01*
X1166944Y5769819D01*
X1192000Y5895784D01*
X1192000Y6024216D01*
X1166944Y6150181D01*
X1117795Y6268838D01*
X1046442Y6375626D01*
X955626Y6466442D01*
X848838Y6537795D01*
X730181Y6586944D01*
X604216Y6612000D01*
X475784Y6612000D01*
X349819Y6586944D01*
X231162Y6537795D01*
X124374Y6466442D01*
X33558Y6375626D01*
X-37795Y6268838D01*
X-86944Y6150181D01*
X-112000Y6024216D01*
X-5800199Y6024216D01*
X-5758139Y6066276D01*
X-5686786Y6173064D01*
X-5637637Y6291721D01*
X-5612581Y6417686D01*
X-5612581Y6546118D01*
X-5637637Y6672083D01*
X-5686786Y6790740D01*
X-5758139Y6897528D01*
X-5848955Y6988344D01*
X-5955743Y7059697D01*
X-6074400Y7108846D01*
X-6200365Y7133902D01*
X-6328797Y7133902D01*
X-6454762Y7108846D01*
X-6573419Y7059697D01*
X-6620762Y7028063D01*
X-6663161Y7056393D01*
X-6781818Y7105542D01*
X-6907783Y7130598D01*
X-7036215Y7130598D01*
X-7162180Y7105542D01*
X-7280837Y7056393D01*
X-7387625Y6985040D01*
X-7397390Y6975275D01*
X-7401162Y6977795D01*
X-7519819Y7026944D01*
X-7645784Y7052000D01*
X-7774216Y7052000D01*
X-7900181Y7026944D01*
X-8018838Y6977795D01*
X-8125626Y6906442D01*
X-8216442Y6815626D01*
X-8287795Y6708838D01*
X-8336944Y6590181D01*
X-8362000Y6464216D01*
X-9522859Y6464216D01*
X-9536247Y6477604D01*
X-9634846Y6543486D01*
X-9744403Y6588866D01*
X-9860708Y6612000D01*
X-9979292Y6612000D01*
X-10095597Y6588866D01*
X-10205154Y6543486D01*
X-10303753Y6477604D01*
X-10387604Y6393753D01*
X-10453486Y6295154D01*
X-10498866Y6185597D01*
X-10522000Y6069292D01*
X-14634052Y6069292D01*
X-14717833Y6153073D01*
X-14918798Y6287353D01*
X-15142097Y6379847D01*
X-15379151Y6427000D01*
X-15620849Y6427000D01*
X-15857903Y6379847D01*
X-16081202Y6287353D01*
X-16282167Y6153073D01*
X-16453073Y5982167D01*
X-16587353Y5781202D01*
X-16679847Y5557903D01*
X-16727000Y5320849D01*
X-17598000Y5320849D01*
X-17598000Y7860849D01*
X-16727000Y7860849D01*
X-16727000Y7619151D01*
X-16679847Y7382097D01*
X-16587353Y7158798D01*
X-16453073Y6957833D01*
X-16282167Y6786927D01*
X-16081202Y6652647D01*
X-15857903Y6560153D01*
X-15620849Y6513000D01*
X-15379151Y6513000D01*
X-15142097Y6560153D01*
X-14918798Y6652647D01*
X-14717833Y6786927D01*
X-14546927Y6957833D01*
X-14412647Y7158798D01*
X-14320153Y7382097D01*
X-14320010Y7382816D01*
X-10546592Y7382816D01*
X-10546592Y7254384D01*
X-10521536Y7128419D01*
X-10472387Y7009762D01*
X-10401034Y6902974D01*
X-10310218Y6812158D01*
X-10203430Y6740805D01*
X-10084773Y6691656D01*
X-9958808Y6666600D01*
X-9830376Y6666600D01*
X-9704411Y6691656D01*
X-9585754Y6740805D01*
X-9478966Y6812158D01*
X-9388150Y6902974D01*
X-9316797Y7009762D01*
X-9267648Y7128419D01*
X-9242592Y7254384D01*
X-9242592Y7382816D01*
X-9248244Y7411233D01*
X-9188025Y7451470D01*
X-9121479Y7518016D01*
X-9116181Y7515822D01*
X-8990216Y7490766D01*
X-8861784Y7490766D01*
X-8735819Y7515822D01*
X-8617162Y7564971D01*
X-8510374Y7636324D01*
X-8419558Y7727140D01*
X-8348205Y7833928D01*
X-8299056Y7952585D01*
X-8281626Y8040216D01*
X6718000Y8040216D01*
X6718000Y7911784D01*
X6743056Y7785819D01*
X6792205Y7667162D01*
X6863558Y7560374D01*
X6954374Y7469558D01*
X7061162Y7398205D01*
X7179819Y7349056D01*
X7305784Y7324000D01*
X7434216Y7324000D01*
X7560181Y7349056D01*
X7678838Y7398205D01*
X7785626Y7469558D01*
X7876442Y7560374D01*
X7947795Y7667162D01*
X7996944Y7785819D01*
X8003911Y7820849D01*
X14273000Y7820849D01*
X14273000Y7579151D01*
X14320153Y7342097D01*
X14412647Y7118798D01*
X14546927Y6917833D01*
X14717833Y6746927D01*
X14918798Y6612647D01*
X15142097Y6520153D01*
X15379151Y6473000D01*
X15620849Y6473000D01*
X15857903Y6520153D01*
X16081202Y6612647D01*
X16282167Y6746927D01*
X16453073Y6917833D01*
X16587353Y7118798D01*
X16679847Y7342097D01*
X16727000Y7579151D01*
X16727000Y7820849D01*
X16679847Y8057903D01*
X16587353Y8281202D01*
X16453073Y8482167D01*
X16282167Y8653073D01*
X16081202Y8787353D01*
X15857903Y8879847D01*
X15620849Y8927000D01*
X15379151Y8927000D01*
X15142097Y8879847D01*
X14918798Y8787353D01*
X14717833Y8653073D01*
X14546927Y8482167D01*
X14412647Y8281202D01*
X14320153Y8057903D01*
X14273000Y7820849D01*
X8003911Y7820849D01*
X8022000Y7911784D01*
X8022000Y8040216D01*
X7996944Y8166181D01*
X7947795Y8284838D01*
X7876442Y8391626D01*
X7785626Y8482442D01*
X7678838Y8553795D01*
X7560181Y8602944D01*
X7434216Y8628000D01*
X7305784Y8628000D01*
X7179819Y8602944D01*
X7061162Y8553795D01*
X6954374Y8482442D01*
X6863558Y8391626D01*
X6792205Y8284838D01*
X6743056Y8166181D01*
X6718000Y8040216D01*
X-8281626Y8040216D01*
X-8274000Y8078550D01*
X-8274000Y8206982D01*
X-8299056Y8332947D01*
X-8348205Y8451604D01*
X-8419558Y8558392D01*
X-8510374Y8649208D01*
X-8617162Y8720561D01*
X-8735819Y8769710D01*
X-8861784Y8794766D01*
X-8990216Y8794766D01*
X-9116181Y8769710D01*
X-9234838Y8720561D01*
X-9341626Y8649208D01*
X-9408172Y8582662D01*
X-9413470Y8584856D01*
X-9539435Y8609912D01*
X-9667867Y8609912D01*
X-9793832Y8584856D01*
X-9912489Y8535707D01*
X-10019277Y8464354D01*
X-10110093Y8373538D01*
X-10181446Y8266750D01*
X-10230595Y8148093D01*
X-10255651Y8022128D01*
X-10255651Y7893696D01*
X-10249999Y7865279D01*
X-10310218Y7825042D01*
X-10401034Y7734226D01*
X-10472387Y7627438D01*
X-10521536Y7508781D01*
X-10546592Y7382816D01*
X-14320010Y7382816D01*
X-14273000Y7619151D01*
X-14273000Y7860849D01*
X-14320153Y8097903D01*
X-14412647Y8321202D01*
X-14546927Y8522167D01*
X-14717833Y8693073D01*
X-14918798Y8827353D01*
X-15142097Y8919847D01*
X-15379151Y8967000D01*
X-15620849Y8967000D01*
X-15857903Y8919847D01*
X-16081202Y8827353D01*
X-16282167Y8693073D01*
X-16453073Y8522167D01*
X-16587353Y8321202D01*
X-16679847Y8097903D01*
X-16727000Y7860849D01*
X-17598000Y7860849D01*
X-17598000Y10473000D01*
X17598001Y10473000D01*
X17598000Y-22598000D01*
G04 #@! TA.AperFunction,Conductor*
D21*
G36*
X17598000Y-22598000D02*
G01*
X10017143Y-22598000D01*
X10020439Y-22590043D01*
X10045495Y-22464078D01*
X10045495Y-22335646D01*
X10020439Y-22209681D01*
X9971290Y-22091024D01*
X9899937Y-21984236D01*
X9809121Y-21893420D01*
X9702333Y-21822067D01*
X9583676Y-21772918D01*
X9457711Y-21747862D01*
X9329279Y-21747862D01*
X9203314Y-21772918D01*
X9084657Y-21822067D01*
X9033125Y-21856499D01*
X9000029Y-21834385D01*
X8881372Y-21785236D01*
X8755407Y-21760180D01*
X8626975Y-21760180D01*
X8501010Y-21785236D01*
X8382353Y-21834385D01*
X8275565Y-21905738D01*
X8184749Y-21996554D01*
X8113396Y-22103342D01*
X8064247Y-22221999D01*
X8039191Y-22347964D01*
X8039191Y-22476396D01*
X8063380Y-22598000D01*
X-5598000Y-22598000D01*
X-5598000Y-20635784D01*
X4148000Y-20635784D01*
X4148000Y-20764216D01*
X4173056Y-20890181D01*
X4222205Y-21008838D01*
X4293558Y-21115626D01*
X4384374Y-21206442D01*
X4437148Y-21241704D01*
X4434374Y-21243558D01*
X4343558Y-21334374D01*
X4272205Y-21441162D01*
X4223056Y-21559819D01*
X4198000Y-21685784D01*
X4198000Y-21814216D01*
X4223056Y-21940181D01*
X4272205Y-22058838D01*
X4343558Y-22165626D01*
X4434374Y-22256442D01*
X4541162Y-22327795D01*
X4659819Y-22376944D01*
X4785784Y-22402000D01*
X4914216Y-22402000D01*
X5040181Y-22376944D01*
X5158838Y-22327795D01*
X5265626Y-22256442D01*
X5356442Y-22165626D01*
X5427795Y-22058838D01*
X5476944Y-21940181D01*
X5502000Y-21814216D01*
X5502000Y-21801338D01*
X5558838Y-21777795D01*
X5665626Y-21706442D01*
X5756442Y-21615626D01*
X5827795Y-21508838D01*
X5876944Y-21390181D01*
X5902000Y-21264216D01*
X5902000Y-21135784D01*
X5876944Y-21009819D01*
X5827795Y-20891162D01*
X5756442Y-20784374D01*
X5665626Y-20693558D01*
X5558838Y-20622205D01*
X5440181Y-20573056D01*
X5439496Y-20572920D01*
X5430889Y-20529652D01*
X5465626Y-20506442D01*
X5556442Y-20415626D01*
X5627795Y-20308838D01*
X5676944Y-20190181D01*
X5702000Y-20064216D01*
X5702000Y-19935784D01*
X5676944Y-19809819D01*
X5627795Y-19691162D01*
X5556442Y-19584374D01*
X5465626Y-19493558D01*
X5358838Y-19422205D01*
X5240181Y-19373056D01*
X5114216Y-19348000D01*
X4985784Y-19348000D01*
X4859819Y-19373056D01*
X4741162Y-19422205D01*
X4634374Y-19493558D01*
X4543558Y-19584374D01*
X4472205Y-19691162D01*
X4423056Y-19809819D01*
X4398000Y-19935784D01*
X4398000Y-20064216D01*
X4419111Y-20170348D01*
X4384374Y-20193558D01*
X4293558Y-20284374D01*
X4222205Y-20391162D01*
X4173056Y-20509819D01*
X4148000Y-20635784D01*
X-5598000Y-20635784D01*
X-5598000Y-19730253D01*
X-5599670Y-19713295D01*
X-5599660Y-19711821D01*
X-5600208Y-19706235D01*
X-5602715Y-19682378D01*
X-5603817Y-19671194D01*
X-5603930Y-19670821D01*
X-5605308Y-19657711D01*
X-5612636Y-19622012D01*
X-5619461Y-19586231D01*
X-5621084Y-19580858D01*
X-5633603Y-19540415D01*
X-5620511Y-19553507D01*
X-5513723Y-19624860D01*
X-5395066Y-19674009D01*
X-5269101Y-19699065D01*
X-5140669Y-19699065D01*
X-5014704Y-19674009D01*
X-4896047Y-19624860D01*
X-4789259Y-19553507D01*
X-4698443Y-19462691D01*
X-4627090Y-19355903D01*
X-4577941Y-19237246D01*
X-4552885Y-19111281D01*
X-4552885Y-19105136D01*
X-4465911Y-19163250D01*
X-4347254Y-19212399D01*
X-4221289Y-19237455D01*
X-4092857Y-19237455D01*
X-3966892Y-19212399D01*
X-3848235Y-19163250D01*
X-3741447Y-19091897D01*
X-3650631Y-19001081D01*
X-3607002Y-18935784D01*
X-2502000Y-18935784D01*
X-2502000Y-19064216D01*
X-2476944Y-19190181D01*
X-2427795Y-19308838D01*
X-2356442Y-19415626D01*
X-2265626Y-19506442D01*
X-2158838Y-19577795D01*
X-2040181Y-19626944D01*
X-1914216Y-19652000D01*
X-1785784Y-19652000D01*
X-1659819Y-19626944D01*
X-1541162Y-19577795D01*
X-1434374Y-19506442D01*
X-1343558Y-19415626D01*
X-1272205Y-19308838D01*
X-1261511Y-19283020D01*
X-102427Y-19283020D01*
X-102427Y-19411452D01*
X-77371Y-19537417D01*
X-28222Y-19656074D01*
X43131Y-19762862D01*
X133947Y-19853678D01*
X240735Y-19925031D01*
X359392Y-19974180D01*
X485357Y-19999236D01*
X613789Y-19999236D01*
X739754Y-19974180D01*
X858411Y-19925031D01*
X860303Y-19923767D01*
X941162Y-19977795D01*
X1059819Y-20026944D01*
X1185784Y-20052000D01*
X1314216Y-20052000D01*
X1440181Y-20026944D01*
X1558838Y-19977795D01*
X1665626Y-19906442D01*
X1756442Y-19815626D01*
X1827795Y-19708838D01*
X1876944Y-19590181D01*
X1902000Y-19464216D01*
X1902000Y-19335784D01*
X1876944Y-19209819D01*
X1827795Y-19091162D01*
X1756442Y-18984374D01*
X1665626Y-18893558D01*
X1558838Y-18822205D01*
X1440181Y-18773056D01*
X1314216Y-18748000D01*
X1185784Y-18748000D01*
X1059819Y-18773056D01*
X941162Y-18822205D01*
X939270Y-18823469D01*
X858411Y-18769441D01*
X739754Y-18720292D01*
X613789Y-18695236D01*
X485357Y-18695236D01*
X359392Y-18720292D01*
X240735Y-18769441D01*
X133947Y-18840794D01*
X43131Y-18931610D01*
X-28222Y-19038398D01*
X-77371Y-19157055D01*
X-102427Y-19283020D01*
X-1261511Y-19283020D01*
X-1223056Y-19190181D01*
X-1198000Y-19064216D01*
X-1198000Y-18935784D01*
X-1223056Y-18809819D01*
X-1272205Y-18691162D01*
X-1343558Y-18584374D01*
X-1434374Y-18493558D01*
X-1541162Y-18422205D01*
X-1659819Y-18373056D01*
X-1785784Y-18348000D01*
X-1914216Y-18348000D01*
X-2040181Y-18373056D01*
X-2158838Y-18422205D01*
X-2265626Y-18493558D01*
X-2356442Y-18584374D01*
X-2427795Y-18691162D01*
X-2476944Y-18809819D01*
X-2502000Y-18935784D01*
X-3607002Y-18935784D01*
X-3579278Y-18894293D01*
X-3530129Y-18775636D01*
X-3505073Y-18649671D01*
X-3505073Y-18521239D01*
X-3530129Y-18395274D01*
X-3579278Y-18276617D01*
X-3650631Y-18169829D01*
X-3709929Y-18110531D01*
X3248619Y-18110531D01*
X3248619Y-18238963D01*
X3273675Y-18364928D01*
X3322824Y-18483585D01*
X3394177Y-18590373D01*
X3484993Y-18681189D01*
X3591781Y-18752542D01*
X3710438Y-18801691D01*
X3836403Y-18826747D01*
X3964835Y-18826747D01*
X4090800Y-18801691D01*
X4209457Y-18752542D01*
X4316245Y-18681189D01*
X4407061Y-18590373D01*
X4478414Y-18483585D01*
X4527563Y-18364928D01*
X4552619Y-18238963D01*
X4552619Y-18126039D01*
X4598000Y-18135066D01*
X4598000Y-18224216D01*
X4623056Y-18350181D01*
X4672205Y-18468838D01*
X4743558Y-18575626D01*
X4834374Y-18666442D01*
X4941162Y-18737795D01*
X5059819Y-18786944D01*
X5185784Y-18812000D01*
X5314216Y-18812000D01*
X5440181Y-18786944D01*
X5558838Y-18737795D01*
X5665626Y-18666442D01*
X5756442Y-18575626D01*
X5827795Y-18468838D01*
X5876944Y-18350181D01*
X5902000Y-18224216D01*
X5902000Y-18095784D01*
X5876944Y-17969819D01*
X5827795Y-17851162D01*
X5756442Y-17744374D01*
X5665626Y-17653558D01*
X5558838Y-17582205D01*
X5440181Y-17533056D01*
X5360690Y-17517244D01*
X5360690Y-17428094D01*
X5335634Y-17302129D01*
X5286485Y-17183472D01*
X5221213Y-17085784D01*
X12418000Y-17085784D01*
X12418000Y-17214216D01*
X12443056Y-17340181D01*
X12492205Y-17458838D01*
X12563558Y-17565626D01*
X12654374Y-17656442D01*
X12761162Y-17727795D01*
X12879819Y-17776944D01*
X13005784Y-17802000D01*
X13134216Y-17802000D01*
X13260181Y-17776944D01*
X13378838Y-17727795D01*
X13485626Y-17656442D01*
X13576442Y-17565626D01*
X13647795Y-17458838D01*
X13696944Y-17340181D01*
X13722000Y-17214216D01*
X13722000Y-17085784D01*
X13696944Y-16959819D01*
X13647795Y-16841162D01*
X13576442Y-16734374D01*
X13485626Y-16643558D01*
X13378838Y-16572205D01*
X13260181Y-16523056D01*
X13134216Y-16498000D01*
X13005784Y-16498000D01*
X12879819Y-16523056D01*
X12761162Y-16572205D01*
X12654374Y-16643558D01*
X12563558Y-16734374D01*
X12492205Y-16841162D01*
X12443056Y-16959819D01*
X12418000Y-17085784D01*
X5221213Y-17085784D01*
X5215132Y-17076684D01*
X5124316Y-16985868D01*
X5017528Y-16914515D01*
X4898871Y-16865366D01*
X4772906Y-16840310D01*
X4644474Y-16840310D01*
X4518509Y-16865366D01*
X4399852Y-16914515D01*
X4293064Y-16985868D01*
X4202248Y-17076684D01*
X4130895Y-17183472D01*
X4081746Y-17302129D01*
X4056690Y-17428094D01*
X4056690Y-17541018D01*
X3964835Y-17522747D01*
X3836403Y-17522747D01*
X3710438Y-17547803D01*
X3591781Y-17596952D01*
X3484993Y-17668305D01*
X3394177Y-17759121D01*
X3322824Y-17865909D01*
X3273675Y-17984566D01*
X3248619Y-18110531D01*
X-3709929Y-18110531D01*
X-3741447Y-18079013D01*
X-3848235Y-18007660D01*
X-3966892Y-17958511D01*
X-4092857Y-17933455D01*
X-4221289Y-17933455D01*
X-4347254Y-17958511D01*
X-4465911Y-18007660D01*
X-4572699Y-18079013D01*
X-4663515Y-18169829D01*
X-4734868Y-18276617D01*
X-4784017Y-18395274D01*
X-4809073Y-18521239D01*
X-4809073Y-18527384D01*
X-4896047Y-18469270D01*
X-5014704Y-18420121D01*
X-5140669Y-18395065D01*
X-5269101Y-18395065D01*
X-5341483Y-18409463D01*
X-5341483Y-18333155D01*
X-5366539Y-18207190D01*
X-5415688Y-18088533D01*
X-5473937Y-18001356D01*
X-5415447Y-17989722D01*
X-5296790Y-17940573D01*
X-5190002Y-17869220D01*
X-5099186Y-17778404D01*
X-5027833Y-17671616D01*
X-4978684Y-17552959D01*
X-4953628Y-17426994D01*
X-4953628Y-17298562D01*
X-4978684Y-17172597D01*
X-5027833Y-17053940D01*
X-5099186Y-16947152D01*
X-5190002Y-16856336D01*
X-5296790Y-16784983D01*
X-5415447Y-16735834D01*
X-5541412Y-16710778D01*
X-5669844Y-16710778D01*
X-5795809Y-16735834D01*
X-5914466Y-16784983D01*
X-6021254Y-16856336D01*
X-6112070Y-16947152D01*
X-6183423Y-17053940D01*
X-6230945Y-17168669D01*
X-6225107Y-17139319D01*
X-6225107Y-17010887D01*
X-6250163Y-16884922D01*
X-6299312Y-16766265D01*
X-6370665Y-16659477D01*
X-6461481Y-16568661D01*
X-6568269Y-16497308D01*
X-6686926Y-16448159D01*
X-6812891Y-16423103D01*
X-6941323Y-16423103D01*
X-7067288Y-16448159D01*
X-7185945Y-16497308D01*
X-7292733Y-16568661D01*
X-7383549Y-16659477D01*
X-7454902Y-16766265D01*
X-7504051Y-16884922D01*
X-7529107Y-17010887D01*
X-7529107Y-17067867D01*
X-7532007Y-17068444D01*
X-7650664Y-17117593D01*
X-7671638Y-17131608D01*
X-7734904Y-17089335D01*
X-7853561Y-17040186D01*
X-7979526Y-17015130D01*
X-8107958Y-17015130D01*
X-8233923Y-17040186D01*
X-8352580Y-17089335D01*
X-8403800Y-17123559D01*
X-8403800Y-17022224D01*
X-8428856Y-16896259D01*
X-8478005Y-16777602D01*
X-8549358Y-16670814D01*
X-8640174Y-16579998D01*
X-8746962Y-16508645D01*
X-8865619Y-16459496D01*
X-8991584Y-16434440D01*
X-9120016Y-16434440D01*
X-9238374Y-16457983D01*
X-9287558Y-16384374D01*
X-9378374Y-16293558D01*
X-9485162Y-16222205D01*
X-9603819Y-16173056D01*
X-9729784Y-16148000D01*
X-9858216Y-16148000D01*
X-9984181Y-16173056D01*
X-10102838Y-16222205D01*
X-10209626Y-16293558D01*
X-10300442Y-16384374D01*
X-10371795Y-16491162D01*
X-10420944Y-16609819D01*
X-10446000Y-16735784D01*
X-10446000Y-16864216D01*
X-10420944Y-16990181D01*
X-10371795Y-17108838D01*
X-10358989Y-17128003D01*
X-10373795Y-17150162D01*
X-10422944Y-17268819D01*
X-10448000Y-17394784D01*
X-10448000Y-17523216D01*
X-10422944Y-17649181D01*
X-10373795Y-17767838D01*
X-10302442Y-17874626D01*
X-10211626Y-17965442D01*
X-10104838Y-18036795D01*
X-9986181Y-18085944D01*
X-9860216Y-18111000D01*
X-9731784Y-18111000D01*
X-9605819Y-18085944D01*
X-9487162Y-18036795D01*
X-9380374Y-17965442D01*
X-9289558Y-17874626D01*
X-9218205Y-17767838D01*
X-9199481Y-17722633D01*
X-9120016Y-17738440D01*
X-8991584Y-17738440D01*
X-8865619Y-17713384D01*
X-8746962Y-17664235D01*
X-8695742Y-17630011D01*
X-8695742Y-17731346D01*
X-8670686Y-17857311D01*
X-8621537Y-17975968D01*
X-8550184Y-18082756D01*
X-8459368Y-18173572D01*
X-8352580Y-18244925D01*
X-8233923Y-18294074D01*
X-8107958Y-18319130D01*
X-7979526Y-18319130D01*
X-7853561Y-18294074D01*
X-7734904Y-18244925D01*
X-7713930Y-18230910D01*
X-7650664Y-18273183D01*
X-7532007Y-18322332D01*
X-7406042Y-18347388D01*
X-7277610Y-18347388D01*
X-7151645Y-18322332D01*
X-7032988Y-18273183D01*
X-6926200Y-18201830D01*
X-6835384Y-18111014D01*
X-6764031Y-18004226D01*
X-6714882Y-17885569D01*
X-6689826Y-17759604D01*
X-6689826Y-17702624D01*
X-6686926Y-17702047D01*
X-6568269Y-17652898D01*
X-6461481Y-17581545D01*
X-6370665Y-17490729D01*
X-6299312Y-17383941D01*
X-6251790Y-17269212D01*
X-6257628Y-17298562D01*
X-6257628Y-17426994D01*
X-6232572Y-17552959D01*
X-6183423Y-17671616D01*
X-6125174Y-17758793D01*
X-6183664Y-17770427D01*
X-6302321Y-17819576D01*
X-6409109Y-17890929D01*
X-6499925Y-17981745D01*
X-6571278Y-18088533D01*
X-6620427Y-18207190D01*
X-6645483Y-18333155D01*
X-6645483Y-18461587D01*
X-6620427Y-18587552D01*
X-6571278Y-18706209D01*
X-6499925Y-18812997D01*
X-6409109Y-18903813D01*
X-6302321Y-18975166D01*
X-6183664Y-19024315D01*
X-6057699Y-19049371D01*
X-5929267Y-19049371D01*
X-5856885Y-19034973D01*
X-5856885Y-19111281D01*
X-5831829Y-19237246D01*
X-5823075Y-19258379D01*
X-5857581Y-19230239D01*
X-5887915Y-19210085D01*
X-5917980Y-19189498D01*
X-5922918Y-19186829D01*
X-5922920Y-19186828D01*
X-5922929Y-19186822D01*
X-5922939Y-19186818D01*
X-5965998Y-19163921D01*
X-5999692Y-19150033D01*
X-6033181Y-19135679D01*
X-6038544Y-19134020D01*
X-6085252Y-19119918D01*
X-6121011Y-19112838D01*
X-6156632Y-19105266D01*
X-6162215Y-19104679D01*
X-6210774Y-19099918D01*
X-6210780Y-19099918D01*
X-6230253Y-19098000D01*
X-7269747Y-19098000D01*
X-7286705Y-19099670D01*
X-7288179Y-19099660D01*
X-7293765Y-19100208D01*
X-7317622Y-19102715D01*
X-7328806Y-19103817D01*
X-7329179Y-19103930D01*
X-7342289Y-19105308D01*
X-7377988Y-19112636D01*
X-7413769Y-19119461D01*
X-7419140Y-19121083D01*
X-7419146Y-19121085D01*
X-7425332Y-19123000D01*
X-7767527Y-19123000D01*
X-7839819Y-19093056D01*
X-7965784Y-19068000D01*
X-8094216Y-19068000D01*
X-8220181Y-19093056D01*
X-8292473Y-19123000D01*
X-10170040Y-19123000D01*
X-10201162Y-19102205D01*
X-10319819Y-19053056D01*
X-10445784Y-19028000D01*
X-10574216Y-19028000D01*
X-10700181Y-19053056D01*
X-10818838Y-19102205D01*
X-10849960Y-19123000D01*
X-11075044Y-19123000D01*
X-11085252Y-19119918D01*
X-11121011Y-19112838D01*
X-11156632Y-19105266D01*
X-11162215Y-19104679D01*
X-11210774Y-19099918D01*
X-11210780Y-19099918D01*
X-11230253Y-19098000D01*
X-11272039Y-19098000D01*
X-11193388Y-19019349D01*
X-11122035Y-18912561D01*
X-11072886Y-18793904D01*
X-11047830Y-18667939D01*
X-11047830Y-18539507D01*
X-11072886Y-18413542D01*
X-11122035Y-18294885D01*
X-11193388Y-18188097D01*
X-11284204Y-18097281D01*
X-11390992Y-18025928D01*
X-11456892Y-17998632D01*
X-11445393Y-17940823D01*
X-11445393Y-17812391D01*
X-11470449Y-17686426D01*
X-11519598Y-17567769D01*
X-11590951Y-17460981D01*
X-11681767Y-17370165D01*
X-11788555Y-17298812D01*
X-11907212Y-17249663D01*
X-12033177Y-17224607D01*
X-12161609Y-17224607D01*
X-12287574Y-17249663D01*
X-12406231Y-17298812D01*
X-12513019Y-17370165D01*
X-12603835Y-17460981D01*
X-12675188Y-17567769D01*
X-12724337Y-17686426D01*
X-12749393Y-17812391D01*
X-12749393Y-17940823D01*
X-12724337Y-18066788D01*
X-12675188Y-18185445D01*
X-12603835Y-18292233D01*
X-12513019Y-18383049D01*
X-12406231Y-18454402D01*
X-12340331Y-18481698D01*
X-12351830Y-18539507D01*
X-12351830Y-18667939D01*
X-12326774Y-18793904D01*
X-12277625Y-18912561D01*
X-12206272Y-19019349D01*
X-12127621Y-19098000D01*
X-12269747Y-19098000D01*
X-12286705Y-19099670D01*
X-12288179Y-19099660D01*
X-12293765Y-19100208D01*
X-12317622Y-19102715D01*
X-12328806Y-19103817D01*
X-12329179Y-19103930D01*
X-12342289Y-19105308D01*
X-12377988Y-19112636D01*
X-12413769Y-19119461D01*
X-12419140Y-19121083D01*
X-12419146Y-19121085D01*
X-12465752Y-19135512D01*
X-12499360Y-19149639D01*
X-12533129Y-19163283D01*
X-12538076Y-19165913D01*
X-12538080Y-19165915D01*
X-12538085Y-19165918D01*
X-12581004Y-19189125D01*
X-12611214Y-19209502D01*
X-12641687Y-19229442D01*
X-12646036Y-19232990D01*
X-12646040Y-19232993D01*
X-12646047Y-19232998D01*
X-12646053Y-19233004D01*
X-12683631Y-19264089D01*
X-12709326Y-19289963D01*
X-12735347Y-19315445D01*
X-12738925Y-19319770D01*
X-12769761Y-19357581D01*
X-12789915Y-19387915D01*
X-12810502Y-19417980D01*
X-12813171Y-19422918D01*
X-12813178Y-19422929D01*
X-12813182Y-19422939D01*
X-12836079Y-19465998D01*
X-12849967Y-19499692D01*
X-12864321Y-19533181D01*
X-12865980Y-19538544D01*
X-12871578Y-19557084D01*
X-12990630Y-19533403D01*
X-13119062Y-19533403D01*
X-13245027Y-19558459D01*
X-13363684Y-19607608D01*
X-13470472Y-19678961D01*
X-13561288Y-19769777D01*
X-13616391Y-19852245D01*
X-13647784Y-19846000D01*
X-13776216Y-19846000D01*
X-13902181Y-19871056D01*
X-14020838Y-19920205D01*
X-14127626Y-19991558D01*
X-14218442Y-20082374D01*
X-14289795Y-20189162D01*
X-14338944Y-20307819D01*
X-14364000Y-20433784D01*
X-14364000Y-20562216D01*
X-14338944Y-20688181D01*
X-14289795Y-20806838D01*
X-14218442Y-20913626D01*
X-14127626Y-21004442D01*
X-14020838Y-21075795D01*
X-13902181Y-21124944D01*
X-13776216Y-21150000D01*
X-13647784Y-21150000D01*
X-13521819Y-21124944D01*
X-13403162Y-21075795D01*
X-13296374Y-21004442D01*
X-13205558Y-20913626D01*
X-13150455Y-20831158D01*
X-13119062Y-20837403D01*
X-12990630Y-20837403D01*
X-12901999Y-20819773D01*
X-12902000Y-22598000D01*
X-17598000Y-22598000D01*
X-17598000Y-20291784D01*
X-16608000Y-20291784D01*
X-16608000Y-20420216D01*
X-16582944Y-20546181D01*
X-16533795Y-20664838D01*
X-16462442Y-20771626D01*
X-16371626Y-20862442D01*
X-16264838Y-20933795D01*
X-16146181Y-20982944D01*
X-16020216Y-21008000D01*
X-15891784Y-21008000D01*
X-15765819Y-20982944D01*
X-15647162Y-20933795D01*
X-15598594Y-20901343D01*
X-15503729Y-20964730D01*
X-15385072Y-21013879D01*
X-15259107Y-21038935D01*
X-15130675Y-21038935D01*
X-15004710Y-21013879D01*
X-14886053Y-20964730D01*
X-14779265Y-20893377D01*
X-14688449Y-20802561D01*
X-14617096Y-20695773D01*
X-14567947Y-20577116D01*
X-14542891Y-20451151D01*
X-14542891Y-20322719D01*
X-14567947Y-20196754D01*
X-14617096Y-20078097D01*
X-14688449Y-19971309D01*
X-14779265Y-19880493D01*
X-14886053Y-19809140D01*
X-15004710Y-19759991D01*
X-15130675Y-19734935D01*
X-15259107Y-19734935D01*
X-15385072Y-19759991D01*
X-15503729Y-19809140D01*
X-15552297Y-19841592D01*
X-15647162Y-19778205D01*
X-15765819Y-19729056D01*
X-15891784Y-19704000D01*
X-16020216Y-19704000D01*
X-16146181Y-19729056D01*
X-16264838Y-19778205D01*
X-16371626Y-19849558D01*
X-16462442Y-19940374D01*
X-16533795Y-20047162D01*
X-16582944Y-20165819D01*
X-16608000Y-20291784D01*
X-17598000Y-20291784D01*
X-17598000Y-18075858D01*
X-14681628Y-18075858D01*
X-14681628Y-18204290D01*
X-14656572Y-18330255D01*
X-14607423Y-18448912D01*
X-14559373Y-18520824D01*
X-14567171Y-18532494D01*
X-14616320Y-18651151D01*
X-14641376Y-18777116D01*
X-14641376Y-18905548D01*
X-14616320Y-19031513D01*
X-14567171Y-19150170D01*
X-14495818Y-19256958D01*
X-14405002Y-19347774D01*
X-14298214Y-19419127D01*
X-14179557Y-19468276D01*
X-14053592Y-19493332D01*
X-13925160Y-19493332D01*
X-13799195Y-19468276D01*
X-13680538Y-19419127D01*
X-13573750Y-19347774D01*
X-13482934Y-19256958D01*
X-13411581Y-19150170D01*
X-13362432Y-19031513D01*
X-13337376Y-18905548D01*
X-13337376Y-18777116D01*
X-13362432Y-18651151D01*
X-13411581Y-18532494D01*
X-13459631Y-18460582D01*
X-13451833Y-18448912D01*
X-13402684Y-18330255D01*
X-13377628Y-18204290D01*
X-13377628Y-18075858D01*
X-13402684Y-17949893D01*
X-13451833Y-17831236D01*
X-13474630Y-17797117D01*
X-13440867Y-17746586D01*
X-13391718Y-17627929D01*
X-13366662Y-17501964D01*
X-13366662Y-17373532D01*
X-13391718Y-17247567D01*
X-13440867Y-17128910D01*
X-13512220Y-17022122D01*
X-13603036Y-16931306D01*
X-13709824Y-16859953D01*
X-13828481Y-16810804D01*
X-13954446Y-16785748D01*
X-14082878Y-16785748D01*
X-14208843Y-16810804D01*
X-14327500Y-16859953D01*
X-14434288Y-16931306D01*
X-14525104Y-17022122D01*
X-14596457Y-17128910D01*
X-14645606Y-17247567D01*
X-14670662Y-17373532D01*
X-14670662Y-17501964D01*
X-14645606Y-17627929D01*
X-14596457Y-17746586D01*
X-14573660Y-17780705D01*
X-14607423Y-17831236D01*
X-14656572Y-17949893D01*
X-14681628Y-18075858D01*
X-17598000Y-18075858D01*
X-17598000Y-15542305D01*
X-15055270Y-15542305D01*
X-15055270Y-15670737D01*
X-15030214Y-15796702D01*
X-14981065Y-15915359D01*
X-14909712Y-16022147D01*
X-14818896Y-16112963D01*
X-14712108Y-16184316D01*
X-14593451Y-16233465D01*
X-14467486Y-16258521D01*
X-14339054Y-16258521D01*
X-14213089Y-16233465D01*
X-14094432Y-16184316D01*
X-13987644Y-16112963D01*
X-13896828Y-16022147D01*
X-13825475Y-15915359D01*
X-13776326Y-15796702D01*
X-13751270Y-15670737D01*
X-13751270Y-15542305D01*
X-13776326Y-15416340D01*
X-13825475Y-15297683D01*
X-13896828Y-15190895D01*
X-13987644Y-15100079D01*
X-14058252Y-15052900D01*
X-10240885Y-15052900D01*
X-10240885Y-15181332D01*
X-10215829Y-15307297D01*
X-10166680Y-15425954D01*
X-10095327Y-15532742D01*
X-10004511Y-15623558D01*
X-9897723Y-15694911D01*
X-9779066Y-15744060D01*
X-9653101Y-15769116D01*
X-9524669Y-15769116D01*
X-9398704Y-15744060D01*
X-9288408Y-15698374D01*
X-8040151Y-15698374D01*
X-8040151Y-15826806D01*
X-8015095Y-15952771D01*
X-7965946Y-16071428D01*
X-7894593Y-16178216D01*
X-7803777Y-16269032D01*
X-7696989Y-16340385D01*
X-7578332Y-16389534D01*
X-7452367Y-16414590D01*
X-7323935Y-16414590D01*
X-7197970Y-16389534D01*
X-7079313Y-16340385D01*
X-6972525Y-16269032D01*
X-6881709Y-16178216D01*
X-6810356Y-16071428D01*
X-6771027Y-15976479D01*
X-6705755Y-15976479D01*
X-6579790Y-15951423D01*
X-6461133Y-15902274D01*
X-6354345Y-15830921D01*
X-6263529Y-15740105D01*
X-6192176Y-15633317D01*
X-6143027Y-15514660D01*
X-6117971Y-15388695D01*
X-6117971Y-15260263D01*
X-6143027Y-15134298D01*
X-6192176Y-15015641D01*
X-6263529Y-14908853D01*
X-6354345Y-14818037D01*
X-6461133Y-14746684D01*
X-6579790Y-14697535D01*
X-6705755Y-14672479D01*
X-6834187Y-14672479D01*
X-6960152Y-14697535D01*
X-7078809Y-14746684D01*
X-7185597Y-14818037D01*
X-7276413Y-14908853D01*
X-7347766Y-15015641D01*
X-7387095Y-15110590D01*
X-7452367Y-15110590D01*
X-7578332Y-15135646D01*
X-7696989Y-15184795D01*
X-7803777Y-15256148D01*
X-7894593Y-15346964D01*
X-7965946Y-15453752D01*
X-8015095Y-15572409D01*
X-8040151Y-15698374D01*
X-9288408Y-15698374D01*
X-9280047Y-15694911D01*
X-9173259Y-15623558D01*
X-9082443Y-15532742D01*
X-9011090Y-15425954D01*
X-8961941Y-15307297D01*
X-8936885Y-15181332D01*
X-8936885Y-15052900D01*
X-8961941Y-14926935D01*
X-9011090Y-14808278D01*
X-9082443Y-14701490D01*
X-9173259Y-14610674D01*
X-9280047Y-14539321D01*
X-9398704Y-14490172D01*
X-9524669Y-14465116D01*
X-9653101Y-14465116D01*
X-9779066Y-14490172D01*
X-9897723Y-14539321D01*
X-10004511Y-14610674D01*
X-10095327Y-14701490D01*
X-10166680Y-14808278D01*
X-10215829Y-14926935D01*
X-10240885Y-15052900D01*
X-14058252Y-15052900D01*
X-14094432Y-15028726D01*
X-14213089Y-14979577D01*
X-14339054Y-14954521D01*
X-14467486Y-14954521D01*
X-14593451Y-14979577D01*
X-14712108Y-15028726D01*
X-14818896Y-15100079D01*
X-14909712Y-15190895D01*
X-14981065Y-15297683D01*
X-15030214Y-15416340D01*
X-15055270Y-15542305D01*
X-17598000Y-15542305D01*
X-17598000Y-13025781D01*
X-13312003Y-13025781D01*
X-13312003Y-13154213D01*
X-13286947Y-13280178D01*
X-13237798Y-13398835D01*
X-13166445Y-13505623D01*
X-13075629Y-13596439D01*
X-13017408Y-13635340D01*
X-13066442Y-13684374D01*
X-13137795Y-13791162D01*
X-13186944Y-13909819D01*
X-13212000Y-14035784D01*
X-13212000Y-14164216D01*
X-13186944Y-14290181D01*
X-13137795Y-14408838D01*
X-13066442Y-14515626D01*
X-12975626Y-14606442D01*
X-12868838Y-14677795D01*
X-12750181Y-14726944D01*
X-12624216Y-14752000D01*
X-12495784Y-14752000D01*
X-12369819Y-14726944D01*
X-12251162Y-14677795D01*
X-12144374Y-14606442D01*
X-12053558Y-14515626D01*
X-11982205Y-14408838D01*
X-11933056Y-14290181D01*
X-11908000Y-14164216D01*
X-11908000Y-14035784D01*
X-11933056Y-13909819D01*
X-11982205Y-13791162D01*
X-12053558Y-13684374D01*
X-12144374Y-13593558D01*
X-12189752Y-13563238D01*
X-8352000Y-13563238D01*
X-8352000Y-13691670D01*
X-8326944Y-13817635D01*
X-8277795Y-13936292D01*
X-8206442Y-14043080D01*
X-8115626Y-14133896D01*
X-8008838Y-14205249D01*
X-7890181Y-14254398D01*
X-7764216Y-14279454D01*
X-7635784Y-14279454D01*
X-7509819Y-14254398D01*
X-7391162Y-14205249D01*
X-7287200Y-14135784D01*
X-5026132Y-14135784D01*
X-5026132Y-14264216D01*
X-5001076Y-14390181D01*
X-4951927Y-14508838D01*
X-4880574Y-14615626D01*
X-4789758Y-14706442D01*
X-4682970Y-14777795D01*
X-4564313Y-14826944D01*
X-4544458Y-14830893D01*
X-4583838Y-14847205D01*
X-4690626Y-14918558D01*
X-4781442Y-15009374D01*
X-4852795Y-15116162D01*
X-4901944Y-15234819D01*
X-4927000Y-15360784D01*
X-4927000Y-15489216D01*
X-4901944Y-15615181D01*
X-4852795Y-15733838D01*
X-4781442Y-15840626D01*
X-4690626Y-15931442D01*
X-4583838Y-16002795D01*
X-4465181Y-16051944D01*
X-4339216Y-16077000D01*
X-4210784Y-16077000D01*
X-4084819Y-16051944D01*
X-3966162Y-16002795D01*
X-3914318Y-15968154D01*
X3641203Y-15968154D01*
X3641203Y-16096586D01*
X3666259Y-16222551D01*
X3715408Y-16341208D01*
X3786761Y-16447996D01*
X3877577Y-16538812D01*
X3984365Y-16610165D01*
X4103022Y-16659314D01*
X4228987Y-16684370D01*
X4357419Y-16684370D01*
X4483384Y-16659314D01*
X4602041Y-16610165D01*
X4708829Y-16538812D01*
X4799645Y-16447996D01*
X4870998Y-16341208D01*
X4920147Y-16222551D01*
X4945203Y-16096586D01*
X4945203Y-15968154D01*
X4920147Y-15842189D01*
X4870998Y-15723532D01*
X4799645Y-15616744D01*
X4708829Y-15525928D01*
X4633783Y-15475784D01*
X4968000Y-15475784D01*
X4968000Y-15604216D01*
X4993056Y-15730181D01*
X5042205Y-15848838D01*
X5113558Y-15955626D01*
X5204374Y-16046442D01*
X5311162Y-16117795D01*
X5429819Y-16166944D01*
X5555784Y-16192000D01*
X5684216Y-16192000D01*
X5810181Y-16166944D01*
X5928838Y-16117795D01*
X6035626Y-16046442D01*
X6126442Y-15955626D01*
X6197795Y-15848838D01*
X6246944Y-15730181D01*
X6272000Y-15604216D01*
X6272000Y-15475784D01*
X6256238Y-15396544D01*
X6259586Y-15397931D01*
X6385551Y-15422987D01*
X6513983Y-15422987D01*
X6639948Y-15397931D01*
X6758605Y-15348782D01*
X6865393Y-15277429D01*
X6956209Y-15186613D01*
X7027562Y-15079825D01*
X7076711Y-14961168D01*
X7101767Y-14835203D01*
X7101767Y-14706771D01*
X7076711Y-14580806D01*
X7027562Y-14462149D01*
X6956209Y-14355361D01*
X6865393Y-14264545D01*
X6758605Y-14193192D01*
X6639948Y-14144043D01*
X6513983Y-14118987D01*
X6385551Y-14118987D01*
X6259586Y-14144043D01*
X6140929Y-14193192D01*
X6034141Y-14264545D01*
X5943325Y-14355361D01*
X5871972Y-14462149D01*
X5822823Y-14580806D01*
X5797767Y-14706771D01*
X5797767Y-14835203D01*
X5813529Y-14914443D01*
X5810181Y-14913056D01*
X5684216Y-14888000D01*
X5555784Y-14888000D01*
X5429819Y-14913056D01*
X5311162Y-14962205D01*
X5204374Y-15033558D01*
X5113558Y-15124374D01*
X5042205Y-15231162D01*
X4993056Y-15349819D01*
X4968000Y-15475784D01*
X4633783Y-15475784D01*
X4602041Y-15454575D01*
X4483384Y-15405426D01*
X4357419Y-15380370D01*
X4228987Y-15380370D01*
X4103022Y-15405426D01*
X3984365Y-15454575D01*
X3877577Y-15525928D01*
X3786761Y-15616744D01*
X3715408Y-15723532D01*
X3666259Y-15842189D01*
X3641203Y-15968154D01*
X-3914318Y-15968154D01*
X-3859374Y-15931442D01*
X-3768558Y-15840626D01*
X-3697205Y-15733838D01*
X-3648056Y-15615181D01*
X-3623000Y-15489216D01*
X-3623000Y-15360784D01*
X-3648056Y-15234819D01*
X-3697205Y-15116162D01*
X-3768558Y-15009374D01*
X-3859374Y-14918558D01*
X-3966162Y-14847205D01*
X-4084819Y-14798056D01*
X-4104674Y-14794107D01*
X-4065294Y-14777795D01*
X-3958506Y-14706442D01*
X-3867690Y-14615626D01*
X-3796337Y-14508838D01*
X-3747188Y-14390181D01*
X-3722132Y-14264216D01*
X-3722132Y-14135784D01*
X-3747188Y-14009819D01*
X-3796337Y-13891162D01*
X-3867690Y-13784374D01*
X-3958506Y-13693558D01*
X-4065294Y-13622205D01*
X-4183951Y-13573056D01*
X-4309916Y-13548000D01*
X-4438348Y-13548000D01*
X-4564313Y-13573056D01*
X-4682970Y-13622205D01*
X-4789758Y-13693558D01*
X-4880574Y-13784374D01*
X-4951927Y-13891162D01*
X-5001076Y-14009819D01*
X-5026132Y-14135784D01*
X-7287200Y-14135784D01*
X-7284374Y-14133896D01*
X-7193558Y-14043080D01*
X-7122205Y-13936292D01*
X-7073056Y-13817635D01*
X-7053605Y-13719850D01*
X-7003737Y-13740506D01*
X-6877772Y-13765562D01*
X-6749340Y-13765562D01*
X-6623375Y-13740506D01*
X-6504718Y-13691357D01*
X-6397930Y-13620004D01*
X-6307114Y-13529188D01*
X-6235761Y-13422400D01*
X-6186612Y-13303743D01*
X-6161556Y-13177778D01*
X-6161556Y-13049346D01*
X-6186612Y-12923381D01*
X-6235761Y-12804724D01*
X-6307114Y-12697936D01*
X-6397930Y-12607120D01*
X-6504718Y-12535767D01*
X-6623375Y-12486618D01*
X-6749340Y-12461562D01*
X-6877772Y-12461562D01*
X-7003737Y-12486618D01*
X-7122394Y-12535767D01*
X-7229182Y-12607120D01*
X-7319998Y-12697936D01*
X-7391351Y-12804724D01*
X-7440500Y-12923381D01*
X-7459951Y-13021166D01*
X-7509819Y-13000510D01*
X-7635784Y-12975454D01*
X-7764216Y-12975454D01*
X-7890181Y-13000510D01*
X-8008838Y-13049659D01*
X-8115626Y-13121012D01*
X-8206442Y-13211828D01*
X-8277795Y-13318616D01*
X-8326944Y-13437273D01*
X-8352000Y-13563238D01*
X-12189752Y-13563238D01*
X-12202595Y-13554657D01*
X-12153561Y-13505623D01*
X-12082208Y-13398835D01*
X-12033059Y-13280178D01*
X-12008003Y-13154213D01*
X-12008003Y-13025781D01*
X-12033059Y-12899816D01*
X-12082208Y-12781159D01*
X-12153561Y-12674371D01*
X-12244377Y-12583555D01*
X-12351165Y-12512202D01*
X-12469822Y-12463053D01*
X-12595787Y-12437997D01*
X-12724219Y-12437997D01*
X-12850184Y-12463053D01*
X-12968841Y-12512202D01*
X-13075629Y-12583555D01*
X-13166445Y-12674371D01*
X-13237798Y-12781159D01*
X-13286947Y-12899816D01*
X-13312003Y-13025781D01*
X-17598000Y-13025781D01*
X-17598000Y-11100000D01*
X-16278824Y-11100000D01*
X-16278824Y-12100000D01*
X-16271545Y-12173905D01*
X-16249988Y-12244970D01*
X-16214981Y-12310463D01*
X-16167869Y-12367869D01*
X-16110463Y-12414981D01*
X-16044970Y-12449988D01*
X-15973905Y-12471545D01*
X-15900000Y-12478824D01*
X-14900000Y-12478824D01*
X-14826095Y-12471545D01*
X-14755030Y-12449988D01*
X-14689537Y-12414981D01*
X-14632131Y-12367869D01*
X-14585019Y-12310463D01*
X-14550012Y-12244970D01*
X-14528455Y-12173905D01*
X-14521176Y-12100000D01*
X-14521176Y-11683321D01*
X-6127000Y-11683321D01*
X-6127000Y-11816679D01*
X-6100984Y-11947474D01*
X-6049950Y-12070680D01*
X-5975860Y-12181563D01*
X-5881563Y-12275860D01*
X-5770680Y-12349950D01*
X-5647474Y-12400984D01*
X-5516679Y-12427000D01*
X-5383321Y-12427000D01*
X-5252526Y-12400984D01*
X-5129320Y-12349950D01*
X-5018437Y-12275860D01*
X-4924140Y-12181563D01*
X-4850050Y-12070680D01*
X-4799016Y-11947474D01*
X-4774812Y-11825784D01*
X4818000Y-11825784D01*
X4818000Y-11954216D01*
X4843056Y-12080181D01*
X4892205Y-12198838D01*
X4963558Y-12305626D01*
X5054374Y-12396442D01*
X5161162Y-12467795D01*
X5279819Y-12516944D01*
X5405784Y-12542000D01*
X5534216Y-12542000D01*
X5660181Y-12516944D01*
X5778838Y-12467795D01*
X5885626Y-12396442D01*
X5976442Y-12305626D01*
X6018326Y-12242941D01*
X8575157Y-12242941D01*
X8575157Y-12371373D01*
X8600213Y-12497338D01*
X8649362Y-12615995D01*
X8720715Y-12722783D01*
X8811531Y-12813599D01*
X8918319Y-12884952D01*
X9036976Y-12934101D01*
X9144509Y-12955491D01*
X9165899Y-13063024D01*
X9215048Y-13181681D01*
X9286401Y-13288469D01*
X9377217Y-13379285D01*
X9484005Y-13450638D01*
X9602662Y-13499787D01*
X9728627Y-13524843D01*
X9857059Y-13524843D01*
X9983024Y-13499787D01*
X10101681Y-13450638D01*
X10208469Y-13379285D01*
X10299285Y-13288469D01*
X10370638Y-13181681D01*
X10419787Y-13063024D01*
X10444843Y-12937059D01*
X10444843Y-12808627D01*
X10419787Y-12682662D01*
X10370638Y-12564005D01*
X10299285Y-12457217D01*
X10208469Y-12366401D01*
X10101681Y-12295048D01*
X9983024Y-12245899D01*
X9875491Y-12224509D01*
X9854101Y-12116976D01*
X9804952Y-11998319D01*
X9733599Y-11891531D01*
X9642783Y-11800715D01*
X9535995Y-11729362D01*
X9417338Y-11680213D01*
X9291373Y-11655157D01*
X9162941Y-11655157D01*
X9036976Y-11680213D01*
X8918319Y-11729362D01*
X8811531Y-11800715D01*
X8720715Y-11891531D01*
X8649362Y-11998319D01*
X8600213Y-12116976D01*
X8575157Y-12242941D01*
X6018326Y-12242941D01*
X6047795Y-12198838D01*
X6096944Y-12080181D01*
X6122000Y-11954216D01*
X6122000Y-11825784D01*
X6096944Y-11699819D01*
X6047795Y-11581162D01*
X5976442Y-11474374D01*
X5885626Y-11383558D01*
X5778838Y-11312205D01*
X5660181Y-11263056D01*
X5534216Y-11238000D01*
X5405784Y-11238000D01*
X5279819Y-11263056D01*
X5161162Y-11312205D01*
X5054374Y-11383558D01*
X4963558Y-11474374D01*
X4892205Y-11581162D01*
X4843056Y-11699819D01*
X4818000Y-11825784D01*
X-4774812Y-11825784D01*
X-4773000Y-11816679D01*
X-4773000Y-11683321D01*
X-4799016Y-11552526D01*
X-4850050Y-11429320D01*
X-4924140Y-11318437D01*
X-5018437Y-11224140D01*
X-5129320Y-11150050D01*
X-5252526Y-11099016D01*
X-5383321Y-11073000D01*
X-5516679Y-11073000D01*
X-5647474Y-11099016D01*
X-5770680Y-11150050D01*
X-5881563Y-11224140D01*
X-5975860Y-11318437D01*
X-6049950Y-11429320D01*
X-6100984Y-11552526D01*
X-6127000Y-11683321D01*
X-14521176Y-11683321D01*
X-14521176Y-11100000D01*
X-14528455Y-11026095D01*
X-14550012Y-10955030D01*
X-14585019Y-10889537D01*
X-14632131Y-10832131D01*
X-14663534Y-10806359D01*
X-14622813Y-10745415D01*
X-14556703Y-10585811D01*
X-14523000Y-10416377D01*
X-14523000Y-10243623D01*
X-14556703Y-10074189D01*
X-14622813Y-9914585D01*
X-14718790Y-9770945D01*
X-14840945Y-9648790D01*
X-14864004Y-9633382D01*
X-12127000Y-9633382D01*
X-12127000Y-9761814D01*
X-12101944Y-9887779D01*
X-12052795Y-10006436D01*
X-11981442Y-10113224D01*
X-11890626Y-10204040D01*
X-11783838Y-10275393D01*
X-11665181Y-10324542D01*
X-11539216Y-10349598D01*
X-11410784Y-10349598D01*
X-11284819Y-10324542D01*
X-11166162Y-10275393D01*
X-11059374Y-10204040D01*
X-10968558Y-10113224D01*
X-10897205Y-10006436D01*
X-10848056Y-9887779D01*
X-10823000Y-9761814D01*
X-10823000Y-9633382D01*
X-10848056Y-9507417D01*
X-10897205Y-9388760D01*
X-10968558Y-9281972D01*
X-11014746Y-9235784D01*
X-3652000Y-9235784D01*
X-3652000Y-9364216D01*
X-3626944Y-9490181D01*
X-3577795Y-9608838D01*
X-3506442Y-9715626D01*
X-3415626Y-9806442D01*
X-3308838Y-9877795D01*
X-3190181Y-9926944D01*
X-3064216Y-9952000D01*
X-2935784Y-9952000D01*
X-2809819Y-9926944D01*
X-2761189Y-9906801D01*
X-2659254Y-9974911D01*
X-2540597Y-10024060D01*
X-2414632Y-10049116D01*
X-2286200Y-10049116D01*
X-2160235Y-10024060D01*
X-2041578Y-9974911D01*
X-1934790Y-9903558D01*
X-1843974Y-9812742D01*
X-1772621Y-9705954D01*
X-1723472Y-9587297D01*
X-1698416Y-9461332D01*
X-1698416Y-9332900D01*
X-1723472Y-9206935D01*
X-1772621Y-9088278D01*
X-1843974Y-8981490D01*
X-1934790Y-8890674D01*
X-2041578Y-8819321D01*
X-2160235Y-8770172D01*
X-2286200Y-8745116D01*
X-2414632Y-8745116D01*
X-2540597Y-8770172D01*
X-2589227Y-8790315D01*
X-2691162Y-8722205D01*
X-2809819Y-8673056D01*
X-2935784Y-8648000D01*
X-3064216Y-8648000D01*
X-3190181Y-8673056D01*
X-3308838Y-8722205D01*
X-3415626Y-8793558D01*
X-3506442Y-8884374D01*
X-3577795Y-8991162D01*
X-3626944Y-9109819D01*
X-3652000Y-9235784D01*
X-11014746Y-9235784D01*
X-11059374Y-9191156D01*
X-11166162Y-9119803D01*
X-11284819Y-9070654D01*
X-11410784Y-9045598D01*
X-11539216Y-9045598D01*
X-11665181Y-9070654D01*
X-11783838Y-9119803D01*
X-11890626Y-9191156D01*
X-11981442Y-9281972D01*
X-12052795Y-9388760D01*
X-12101944Y-9507417D01*
X-12127000Y-9633382D01*
X-14864004Y-9633382D01*
X-14984585Y-9552813D01*
X-15144189Y-9486703D01*
X-15313623Y-9453000D01*
X-15486377Y-9453000D01*
X-15655811Y-9486703D01*
X-15815415Y-9552813D01*
X-15959055Y-9648790D01*
X-16081210Y-9770945D01*
X-16177187Y-9914585D01*
X-16243297Y-10074189D01*
X-16277000Y-10243623D01*
X-16277000Y-10416377D01*
X-16243297Y-10585811D01*
X-16177187Y-10745415D01*
X-16136466Y-10806359D01*
X-16167869Y-10832131D01*
X-16214981Y-10889537D01*
X-16249988Y-10955030D01*
X-16271545Y-11026095D01*
X-16278824Y-11100000D01*
X-17598000Y-11100000D01*
X-17598000Y-5316890D01*
X-16941476Y-5316890D01*
X-16896825Y-5464099D01*
X-16771641Y-5726920D01*
X-16597588Y-5960269D01*
X-16381355Y-6155178D01*
X-16186620Y-6271176D01*
X-16350000Y-6271176D01*
X-16423905Y-6278455D01*
X-16494970Y-6300012D01*
X-16560463Y-6335019D01*
X-16617869Y-6382131D01*
X-16664981Y-6439537D01*
X-16699988Y-6505030D01*
X-16721545Y-6576095D01*
X-16728824Y-6650000D01*
X-16728824Y-8350000D01*
X-16721545Y-8423905D01*
X-16699988Y-8494970D01*
X-16664981Y-8560463D01*
X-16617869Y-8617869D01*
X-16560463Y-8664981D01*
X-16494970Y-8699988D01*
X-16423905Y-8721545D01*
X-16350000Y-8728824D01*
X-14650000Y-8728824D01*
X-14576095Y-8721545D01*
X-14505030Y-8699988D01*
X-14439537Y-8664981D01*
X-14415695Y-8645414D01*
X-14459820Y-8751943D01*
X-14484876Y-8877908D01*
X-14484876Y-9006340D01*
X-14459820Y-9132305D01*
X-14410671Y-9250962D01*
X-14339318Y-9357750D01*
X-14248502Y-9448566D01*
X-14141714Y-9519919D01*
X-14023057Y-9569068D01*
X-13897092Y-9594124D01*
X-13768660Y-9594124D01*
X-13642695Y-9569068D01*
X-13524038Y-9519919D01*
X-13417250Y-9448566D01*
X-13326434Y-9357750D01*
X-13255081Y-9250962D01*
X-13205932Y-9132305D01*
X-13180876Y-9006340D01*
X-13180876Y-8877908D01*
X-13205932Y-8751943D01*
X-13255081Y-8633286D01*
X-13326434Y-8526498D01*
X-13417250Y-8435682D01*
X-13524038Y-8364329D01*
X-13642695Y-8315180D01*
X-13768660Y-8290124D01*
X-13897092Y-8290124D01*
X-14023057Y-8315180D01*
X-14141714Y-8364329D01*
X-14248502Y-8435682D01*
X-14296625Y-8483805D01*
X-14278455Y-8423905D01*
X-14271176Y-8350000D01*
X-14271176Y-7720529D01*
X-12429410Y-7720529D01*
X-12429410Y-7848961D01*
X-12404354Y-7974926D01*
X-12355205Y-8093583D01*
X-12283852Y-8200371D01*
X-12193036Y-8291187D01*
X-12086248Y-8362540D01*
X-11967591Y-8411689D01*
X-11841626Y-8436745D01*
X-11713194Y-8436745D01*
X-11587229Y-8411689D01*
X-11468572Y-8362540D01*
X-11361784Y-8291187D01*
X-11270968Y-8200371D01*
X-11199615Y-8093583D01*
X-11150466Y-7974926D01*
X-11125410Y-7848961D01*
X-11125410Y-7720529D01*
X-11150466Y-7594564D01*
X-11199615Y-7475907D01*
X-11270968Y-7369119D01*
X-11304303Y-7335784D01*
X-4152000Y-7335784D01*
X-4152000Y-7464216D01*
X-4126944Y-7590181D01*
X-4077795Y-7708838D01*
X-4006442Y-7815626D01*
X-3915626Y-7906442D01*
X-3808838Y-7977795D01*
X-3690181Y-8026944D01*
X-3564216Y-8052000D01*
X-3435784Y-8052000D01*
X-3309819Y-8026944D01*
X-3191162Y-7977795D01*
X-3084374Y-7906442D01*
X-2993558Y-7815626D01*
X-2922205Y-7708838D01*
X-2873056Y-7590181D01*
X-2848000Y-7464216D01*
X-2848000Y-7335784D01*
X-2873056Y-7209819D01*
X-2922205Y-7091162D01*
X-2993558Y-6984374D01*
X-3084374Y-6893558D01*
X-3185805Y-6825784D01*
X-2052000Y-6825784D01*
X-2052000Y-6954216D01*
X-2026944Y-7080181D01*
X-1977795Y-7198838D01*
X-1906442Y-7305626D01*
X-1815626Y-7396442D01*
X-1708838Y-7467795D01*
X-1590181Y-7516944D01*
X-1464216Y-7542000D01*
X-1335784Y-7542000D01*
X-1209819Y-7516944D01*
X-1091162Y-7467795D01*
X-1012000Y-7414901D01*
X-1012000Y-7464216D01*
X-986944Y-7590181D01*
X-937795Y-7708838D01*
X-866442Y-7815626D01*
X-775626Y-7906442D01*
X-668838Y-7977795D01*
X-550181Y-8026944D01*
X-424216Y-8052000D01*
X-295784Y-8052000D01*
X-169819Y-8026944D01*
X-51162Y-7977795D01*
X29521Y-7923885D01*
X78268Y-7956456D01*
X196925Y-8005605D01*
X311457Y-8028387D01*
X257286Y-8082558D01*
X185933Y-8189346D01*
X136784Y-8308003D01*
X111728Y-8433968D01*
X111728Y-8562400D01*
X136784Y-8688365D01*
X185933Y-8807022D01*
X257286Y-8913810D01*
X311005Y-8967529D01*
X260902Y-9001007D01*
X170086Y-9091823D01*
X98733Y-9198611D01*
X49584Y-9317268D01*
X24528Y-9443233D01*
X24528Y-9571665D01*
X46963Y-9684452D01*
X29647Y-9672882D01*
X-89010Y-9623733D01*
X-214975Y-9598677D01*
X-343407Y-9598677D01*
X-469372Y-9623733D01*
X-588029Y-9672882D01*
X-628710Y-9700064D01*
X-674208Y-9669664D01*
X-792865Y-9620515D01*
X-918830Y-9595459D01*
X-1047262Y-9595459D01*
X-1173227Y-9620515D01*
X-1291884Y-9669664D01*
X-1398672Y-9741017D01*
X-1489488Y-9831833D01*
X-1560841Y-9938621D01*
X-1609990Y-10057278D01*
X-1635046Y-10183243D01*
X-1635046Y-10311675D01*
X-1609990Y-10437640D01*
X-1560841Y-10556297D01*
X-1489488Y-10663085D01*
X-1398672Y-10753901D01*
X-1291884Y-10825254D01*
X-1173227Y-10874403D01*
X-1047262Y-10899459D01*
X-918830Y-10899459D01*
X-792865Y-10874403D01*
X-674208Y-10825254D01*
X-633527Y-10798072D01*
X-588029Y-10828472D01*
X-469372Y-10877621D01*
X-343407Y-10902677D01*
X-214975Y-10902677D01*
X-187023Y-10897117D01*
X-134751Y-10975348D01*
X-43935Y-11066164D01*
X62853Y-11137517D01*
X181510Y-11186666D01*
X307475Y-11211722D01*
X435907Y-11211722D01*
X561872Y-11186666D01*
X680529Y-11137517D01*
X787317Y-11066164D01*
X878133Y-10975348D01*
X949486Y-10868560D01*
X957952Y-10848119D01*
X2693109Y-10848119D01*
X2693109Y-10976551D01*
X2718165Y-11102516D01*
X2767314Y-11221173D01*
X2838667Y-11327961D01*
X2929483Y-11418777D01*
X3036271Y-11490130D01*
X3154928Y-11539279D01*
X3280893Y-11564335D01*
X3409325Y-11564335D01*
X3535290Y-11539279D01*
X3653947Y-11490130D01*
X3760735Y-11418777D01*
X3851551Y-11327961D01*
X3922904Y-11221173D01*
X3972053Y-11102516D01*
X3996025Y-10982000D01*
X4064216Y-10982000D01*
X4190181Y-10956944D01*
X4308838Y-10907795D01*
X4415626Y-10836442D01*
X4506442Y-10745626D01*
X4577795Y-10638838D01*
X4626944Y-10520181D01*
X4652000Y-10394216D01*
X4652000Y-10265784D01*
X4626944Y-10139819D01*
X4577795Y-10021162D01*
X4506442Y-9914374D01*
X4415626Y-9823558D01*
X4308838Y-9752205D01*
X4190181Y-9703056D01*
X4064216Y-9678000D01*
X3935784Y-9678000D01*
X3809819Y-9703056D01*
X3691162Y-9752205D01*
X3584374Y-9823558D01*
X3493558Y-9914374D01*
X3422205Y-10021162D01*
X3373056Y-10139819D01*
X3349084Y-10260335D01*
X3280893Y-10260335D01*
X3154928Y-10285391D01*
X3036271Y-10334540D01*
X2929483Y-10405893D01*
X2838667Y-10496709D01*
X2767314Y-10603497D01*
X2718165Y-10722154D01*
X2693109Y-10848119D01*
X957952Y-10848119D01*
X998635Y-10749903D01*
X1023691Y-10623938D01*
X1023691Y-10495506D01*
X998635Y-10369541D01*
X949486Y-10250884D01*
X878133Y-10144096D01*
X867926Y-10133889D01*
X985366Y-10085244D01*
X1092154Y-10013891D01*
X1182970Y-9923075D01*
X1254323Y-9816287D01*
X1303472Y-9697630D01*
X1328528Y-9571665D01*
X1328528Y-9465784D01*
X10988000Y-9465784D01*
X10988000Y-9594216D01*
X11013056Y-9720181D01*
X11062205Y-9838838D01*
X11133558Y-9945626D01*
X11151013Y-9963081D01*
X11112205Y-10021162D01*
X11063056Y-10139819D01*
X11038000Y-10265784D01*
X11038000Y-10394216D01*
X11063056Y-10520181D01*
X11112205Y-10638838D01*
X11183558Y-10745626D01*
X11274374Y-10836442D01*
X11381162Y-10907795D01*
X11499819Y-10956944D01*
X11625784Y-10982000D01*
X11754216Y-10982000D01*
X11880181Y-10956944D01*
X11998838Y-10907795D01*
X12105626Y-10836442D01*
X12196442Y-10745626D01*
X12267795Y-10638838D01*
X12316944Y-10520181D01*
X12342000Y-10394216D01*
X12342000Y-10265784D01*
X12316944Y-10139819D01*
X12267795Y-10021162D01*
X12196442Y-9914374D01*
X12178987Y-9896919D01*
X12217795Y-9838838D01*
X12266944Y-9720181D01*
X12292000Y-9594216D01*
X12292000Y-9465784D01*
X12266944Y-9339819D01*
X12217795Y-9221162D01*
X12146442Y-9114374D01*
X12055626Y-9023558D01*
X11948838Y-8952205D01*
X11830181Y-8903056D01*
X11704216Y-8878000D01*
X11575784Y-8878000D01*
X11449819Y-8903056D01*
X11331162Y-8952205D01*
X11224374Y-9023558D01*
X11133558Y-9114374D01*
X11062205Y-9221162D01*
X11013056Y-9339819D01*
X10988000Y-9465784D01*
X1328528Y-9465784D01*
X1328528Y-9443233D01*
X1303472Y-9317268D01*
X1254323Y-9198611D01*
X1182970Y-9091823D01*
X1129251Y-9038104D01*
X1179354Y-9004626D01*
X1270170Y-8913810D01*
X1341523Y-8807022D01*
X1390672Y-8688365D01*
X1400314Y-8639893D01*
X1414466Y-8645755D01*
X1540431Y-8670811D01*
X1668863Y-8670811D01*
X1794828Y-8645755D01*
X1913485Y-8596606D01*
X2020273Y-8525253D01*
X2111089Y-8434437D01*
X2182442Y-8327649D01*
X2231591Y-8208992D01*
X2256647Y-8083027D01*
X2256647Y-7954595D01*
X2231591Y-7828630D01*
X2182442Y-7709973D01*
X2111089Y-7603185D01*
X2020273Y-7512369D01*
X2017743Y-7510679D01*
X2046944Y-7440181D01*
X2066696Y-7340880D01*
X2113791Y-7331512D01*
X2232448Y-7282363D01*
X2339236Y-7211010D01*
X2430052Y-7120194D01*
X2501405Y-7013406D01*
X2550554Y-6894749D01*
X2563450Y-6829915D01*
X2567781Y-6834246D01*
X2674569Y-6905599D01*
X2793226Y-6954748D01*
X2806247Y-6957338D01*
X2726453Y-6973210D01*
X2607796Y-7022359D01*
X2501008Y-7093712D01*
X2410192Y-7184528D01*
X2338839Y-7291316D01*
X2289690Y-7409973D01*
X2264634Y-7535938D01*
X2264634Y-7664370D01*
X2289690Y-7790335D01*
X2338839Y-7908992D01*
X2410192Y-8015780D01*
X2501008Y-8106596D01*
X2607796Y-8177949D01*
X2726453Y-8227098D01*
X2852418Y-8252154D01*
X2980850Y-8252154D01*
X3106815Y-8227098D01*
X3225472Y-8177949D01*
X3332260Y-8106596D01*
X3423076Y-8015780D01*
X3475694Y-7937031D01*
X3671854Y-7937031D01*
X3671854Y-8065463D01*
X3696910Y-8191428D01*
X3746059Y-8310085D01*
X3817412Y-8416873D01*
X3908228Y-8507689D01*
X4015016Y-8579042D01*
X4133673Y-8628191D01*
X4259638Y-8653247D01*
X4388070Y-8653247D01*
X4514035Y-8628191D01*
X4543954Y-8615798D01*
X5467986Y-8615798D01*
X5467986Y-8744230D01*
X5493042Y-8870195D01*
X5542191Y-8988852D01*
X5613544Y-9095640D01*
X5704360Y-9186456D01*
X5811148Y-9257809D01*
X5929805Y-9306958D01*
X6055770Y-9332014D01*
X6184202Y-9332014D01*
X6310167Y-9306958D01*
X6428824Y-9257809D01*
X6535612Y-9186456D01*
X6626428Y-9095640D01*
X6697781Y-8988852D01*
X6746930Y-8870195D01*
X6771986Y-8744230D01*
X6771986Y-8615798D01*
X6746930Y-8489833D01*
X6697781Y-8371176D01*
X6626428Y-8264388D01*
X6535612Y-8173572D01*
X6428824Y-8102219D01*
X6310167Y-8053070D01*
X6184202Y-8028014D01*
X6055770Y-8028014D01*
X5929805Y-8053070D01*
X5811148Y-8102219D01*
X5704360Y-8173572D01*
X5613544Y-8264388D01*
X5542191Y-8371176D01*
X5493042Y-8489833D01*
X5467986Y-8615798D01*
X4543954Y-8615798D01*
X4632692Y-8579042D01*
X4739480Y-8507689D01*
X4830296Y-8416873D01*
X4901649Y-8310085D01*
X4950798Y-8191428D01*
X4975854Y-8065463D01*
X4975854Y-7937031D01*
X4957437Y-7844442D01*
X10763181Y-7844442D01*
X10763181Y-7972874D01*
X10788237Y-8098839D01*
X10837386Y-8217496D01*
X10908739Y-8324284D01*
X10999555Y-8415100D01*
X11106343Y-8486453D01*
X11225000Y-8535602D01*
X11350965Y-8560658D01*
X11479397Y-8560658D01*
X11605362Y-8535602D01*
X11724019Y-8486453D01*
X11830807Y-8415100D01*
X11921623Y-8324284D01*
X11992976Y-8217496D01*
X12042125Y-8098839D01*
X12067181Y-7972874D01*
X12067181Y-7844442D01*
X12042125Y-7718477D01*
X12036351Y-7704536D01*
X12123845Y-7617042D01*
X12195198Y-7510254D01*
X12244347Y-7391597D01*
X12269403Y-7265632D01*
X12269403Y-7137200D01*
X12244347Y-7011235D01*
X12195198Y-6892578D01*
X12148520Y-6822719D01*
X12157795Y-6808838D01*
X12206944Y-6690181D01*
X12229026Y-6579167D01*
X12240181Y-6576948D01*
X12358838Y-6527799D01*
X12465626Y-6456446D01*
X12556442Y-6365630D01*
X12627795Y-6258842D01*
X12676944Y-6140185D01*
X12702000Y-6014220D01*
X12702000Y-5885788D01*
X12676944Y-5759823D01*
X12627795Y-5641166D01*
X12556442Y-5534378D01*
X12465626Y-5443562D01*
X12358838Y-5372209D01*
X12321855Y-5356890D01*
X14058524Y-5356890D01*
X14103175Y-5504099D01*
X14228359Y-5766920D01*
X14402412Y-6000269D01*
X14618645Y-6195178D01*
X14813380Y-6311176D01*
X14650000Y-6311176D01*
X14576095Y-6318455D01*
X14505030Y-6340012D01*
X14439537Y-6375019D01*
X14382131Y-6422131D01*
X14335019Y-6479537D01*
X14300012Y-6545030D01*
X14278455Y-6616095D01*
X14271176Y-6690000D01*
X14271176Y-8390000D01*
X14278455Y-8463905D01*
X14300012Y-8534970D01*
X14335019Y-8600463D01*
X14382131Y-8657869D01*
X14439537Y-8704981D01*
X14505030Y-8739988D01*
X14576095Y-8761545D01*
X14650000Y-8768824D01*
X16350000Y-8768824D01*
X16423905Y-8761545D01*
X16494970Y-8739988D01*
X16560463Y-8704981D01*
X16617869Y-8657869D01*
X16664981Y-8600463D01*
X16699988Y-8534970D01*
X16721545Y-8463905D01*
X16728824Y-8390000D01*
X16728824Y-6690000D01*
X16721545Y-6616095D01*
X16699988Y-6545030D01*
X16664981Y-6479537D01*
X16617869Y-6422131D01*
X16560463Y-6375019D01*
X16494970Y-6340012D01*
X16423905Y-6318455D01*
X16350000Y-6311176D01*
X16186620Y-6311176D01*
X16381355Y-6195178D01*
X16597588Y-6000269D01*
X16771641Y-5766920D01*
X16896825Y-5504099D01*
X16941476Y-5356890D01*
X16820155Y-5127000D01*
X15627000Y-5127000D01*
X15627000Y-5147000D01*
X15373000Y-5147000D01*
X15373000Y-5127000D01*
X14179845Y-5127000D01*
X14058524Y-5356890D01*
X12321855Y-5356890D01*
X12240181Y-5323060D01*
X12114216Y-5298004D01*
X11985784Y-5298004D01*
X11859819Y-5323060D01*
X11741162Y-5372209D01*
X11634374Y-5443562D01*
X11543558Y-5534378D01*
X11472205Y-5641166D01*
X11423056Y-5759823D01*
X11400974Y-5870837D01*
X11389819Y-5873056D01*
X11271162Y-5922205D01*
X11164374Y-5993558D01*
X11073558Y-6084374D01*
X11002205Y-6191162D01*
X10953056Y-6309819D01*
X10928000Y-6435784D01*
X10928000Y-6564216D01*
X10953056Y-6690181D01*
X11002205Y-6808838D01*
X11048883Y-6878697D01*
X11039608Y-6892578D01*
X10990459Y-7011235D01*
X10965403Y-7137200D01*
X10965403Y-7265632D01*
X10990459Y-7391597D01*
X10996233Y-7405538D01*
X10908739Y-7493032D01*
X10837386Y-7599820D01*
X10788237Y-7718477D01*
X10763181Y-7844442D01*
X4957437Y-7844442D01*
X4950798Y-7811066D01*
X4941200Y-7787894D01*
X4995135Y-7777166D01*
X5113792Y-7728017D01*
X5220580Y-7656664D01*
X5311396Y-7565848D01*
X5382749Y-7459060D01*
X5431898Y-7340403D01*
X5456954Y-7214438D01*
X5456954Y-7132026D01*
X5504464Y-7203130D01*
X5595280Y-7293946D01*
X5702068Y-7365299D01*
X5820725Y-7414448D01*
X5946690Y-7439504D01*
X6075122Y-7439504D01*
X6201087Y-7414448D01*
X6319744Y-7365299D01*
X6426532Y-7293946D01*
X6515962Y-7204516D01*
X6523056Y-7240181D01*
X6572205Y-7358838D01*
X6643558Y-7465626D01*
X6734374Y-7556442D01*
X6841162Y-7627795D01*
X6959819Y-7676944D01*
X7085784Y-7702000D01*
X7214216Y-7702000D01*
X7340181Y-7676944D01*
X7458838Y-7627795D01*
X7565626Y-7556442D01*
X7656442Y-7465626D01*
X7727795Y-7358838D01*
X7776944Y-7240181D01*
X7802000Y-7114216D01*
X7802000Y-6985784D01*
X7776944Y-6859819D01*
X7727795Y-6741162D01*
X7656442Y-6634374D01*
X7565626Y-6543558D01*
X7458838Y-6472205D01*
X7434201Y-6462000D01*
X7474216Y-6462000D01*
X7600181Y-6436944D01*
X7718838Y-6387795D01*
X7825626Y-6316442D01*
X7916442Y-6225626D01*
X7987795Y-6118838D01*
X8036944Y-6000181D01*
X8062000Y-5874216D01*
X8062000Y-5745784D01*
X8036944Y-5619819D01*
X7987795Y-5501162D01*
X7916442Y-5394374D01*
X7825626Y-5303558D01*
X7718838Y-5232205D01*
X7600181Y-5183056D01*
X7474216Y-5158000D01*
X7345784Y-5158000D01*
X7219819Y-5183056D01*
X7148077Y-5212772D01*
X7137053Y-5186159D01*
X7065700Y-5079371D01*
X6974884Y-4988555D01*
X6868096Y-4917202D01*
X6749439Y-4868053D01*
X6623474Y-4842997D01*
X6495042Y-4842997D01*
X6369077Y-4868053D01*
X6250420Y-4917202D01*
X6143632Y-4988555D01*
X6052816Y-5079371D01*
X5981463Y-5186159D01*
X5932314Y-5304816D01*
X5907258Y-5430781D01*
X5907258Y-5559213D01*
X5932314Y-5685178D01*
X5981463Y-5803835D01*
X6052816Y-5910623D01*
X6143632Y-6001439D01*
X6250420Y-6072792D01*
X6369077Y-6121941D01*
X6495042Y-6146997D01*
X6623474Y-6146997D01*
X6749439Y-6121941D01*
X6821181Y-6092225D01*
X6832205Y-6118838D01*
X6903558Y-6225626D01*
X6994374Y-6316442D01*
X7101162Y-6387795D01*
X7125799Y-6398000D01*
X7085784Y-6398000D01*
X6959819Y-6423056D01*
X6841162Y-6472205D01*
X6734374Y-6543558D01*
X6644944Y-6632988D01*
X6637850Y-6597323D01*
X6588701Y-6478666D01*
X6517348Y-6371878D01*
X6426532Y-6281062D01*
X6319744Y-6209709D01*
X6201087Y-6160560D01*
X6075122Y-6135504D01*
X5946690Y-6135504D01*
X5820725Y-6160560D01*
X5702068Y-6209709D01*
X5595280Y-6281062D01*
X5504464Y-6371878D01*
X5433111Y-6478666D01*
X5383962Y-6597323D01*
X5358906Y-6723288D01*
X5358906Y-6805700D01*
X5311396Y-6734596D01*
X5220580Y-6643780D01*
X5113792Y-6572427D01*
X4995135Y-6523278D01*
X4869170Y-6498222D01*
X4740738Y-6498222D01*
X4614773Y-6523278D01*
X4496116Y-6572427D01*
X4389328Y-6643780D01*
X4298512Y-6734596D01*
X4227159Y-6841384D01*
X4178010Y-6960041D01*
X4152954Y-7086006D01*
X4152954Y-7214438D01*
X4178010Y-7340403D01*
X4187608Y-7363575D01*
X4133673Y-7374303D01*
X4015016Y-7423452D01*
X3908228Y-7494805D01*
X3817412Y-7585621D01*
X3746059Y-7692409D01*
X3696910Y-7811066D01*
X3671854Y-7937031D01*
X3475694Y-7937031D01*
X3494429Y-7908992D01*
X3543578Y-7790335D01*
X3568634Y-7664370D01*
X3568634Y-7535938D01*
X3543578Y-7409973D01*
X3494429Y-7291316D01*
X3423076Y-7184528D01*
X3332260Y-7093712D01*
X3225472Y-7022359D01*
X3106815Y-6973210D01*
X3093794Y-6970620D01*
X3173588Y-6954748D01*
X3292245Y-6905599D01*
X3399033Y-6834246D01*
X3489849Y-6743430D01*
X3561202Y-6636642D01*
X3610351Y-6517985D01*
X3635407Y-6392020D01*
X3635407Y-6263588D01*
X3610351Y-6137623D01*
X3561202Y-6018966D01*
X3489849Y-5912178D01*
X3399033Y-5821362D01*
X3292245Y-5750009D01*
X3173588Y-5700860D01*
X3101807Y-5686582D01*
X3101807Y-5669721D01*
X3076751Y-5543756D01*
X3027602Y-5425099D01*
X2956249Y-5318311D01*
X2865433Y-5227495D01*
X2758645Y-5156142D01*
X2639988Y-5106993D01*
X2514023Y-5081937D01*
X2385591Y-5081937D01*
X2259626Y-5106993D01*
X2140969Y-5156142D01*
X2034181Y-5227495D01*
X1943365Y-5318311D01*
X1872012Y-5425099D01*
X1822863Y-5543756D01*
X1797807Y-5669721D01*
X1797807Y-5798153D01*
X1822863Y-5924118D01*
X1872012Y-6042775D01*
X1878555Y-6052568D01*
X1859394Y-6052568D01*
X1733429Y-6077624D01*
X1614772Y-6126773D01*
X1507984Y-6198126D01*
X1417168Y-6288942D01*
X1345815Y-6395730D01*
X1296666Y-6514387D01*
X1276914Y-6613688D01*
X1229819Y-6623056D01*
X1111162Y-6672205D01*
X1004374Y-6743558D01*
X913558Y-6834374D01*
X854009Y-6923496D01*
X802732Y-6872219D01*
X695944Y-6800866D01*
X577287Y-6751717D01*
X451322Y-6726661D01*
X322890Y-6726661D01*
X196925Y-6751717D01*
X78268Y-6800866D01*
X-2415Y-6854776D01*
X-51162Y-6822205D01*
X-169819Y-6773056D01*
X-295784Y-6748000D01*
X-424216Y-6748000D01*
X-550181Y-6773056D01*
X-668838Y-6822205D01*
X-748000Y-6875099D01*
X-748000Y-6825784D01*
X-773056Y-6699819D01*
X-822205Y-6581162D01*
X-893558Y-6474374D01*
X-984374Y-6383558D01*
X-1091162Y-6312205D01*
X-1209819Y-6263056D01*
X-1335784Y-6238000D01*
X-1464216Y-6238000D01*
X-1590181Y-6263056D01*
X-1708838Y-6312205D01*
X-1815626Y-6383558D01*
X-1906442Y-6474374D01*
X-1977795Y-6581162D01*
X-2026944Y-6699819D01*
X-2052000Y-6825784D01*
X-3185805Y-6825784D01*
X-3191162Y-6822205D01*
X-3309819Y-6773056D01*
X-3435784Y-6748000D01*
X-3564216Y-6748000D01*
X-3690181Y-6773056D01*
X-3808838Y-6822205D01*
X-3915626Y-6893558D01*
X-4006442Y-6984374D01*
X-4077795Y-7091162D01*
X-4126944Y-7209819D01*
X-4152000Y-7335784D01*
X-11304303Y-7335784D01*
X-11361784Y-7278303D01*
X-11468572Y-7206950D01*
X-11587229Y-7157801D01*
X-11713194Y-7132745D01*
X-11841626Y-7132745D01*
X-11967591Y-7157801D01*
X-12086248Y-7206950D01*
X-12193036Y-7278303D01*
X-12283852Y-7369119D01*
X-12355205Y-7475907D01*
X-12404354Y-7594564D01*
X-12429410Y-7720529D01*
X-14271176Y-7720529D01*
X-14271176Y-6650000D01*
X-14278455Y-6576095D01*
X-14300012Y-6505030D01*
X-14335019Y-6439537D01*
X-14382131Y-6382131D01*
X-14439537Y-6335019D01*
X-14505030Y-6300012D01*
X-14576095Y-6278455D01*
X-14650000Y-6271176D01*
X-14813380Y-6271176D01*
X-14618645Y-6155178D01*
X-14402412Y-5960269D01*
X-14228359Y-5726920D01*
X-14103175Y-5464099D01*
X-14058524Y-5316890D01*
X-14179845Y-5087000D01*
X-15373000Y-5087000D01*
X-15373000Y-5107000D01*
X-15627000Y-5107000D01*
X-15627000Y-5087000D01*
X-16820155Y-5087000D01*
X-16941476Y-5316890D01*
X-17598000Y-5316890D01*
X-17598000Y-4925784D01*
X-13992000Y-4925784D01*
X-13992000Y-5054216D01*
X-13966944Y-5180181D01*
X-13917795Y-5298838D01*
X-13846442Y-5405626D01*
X-13755626Y-5496442D01*
X-13648838Y-5567795D01*
X-13530181Y-5616944D01*
X-13404216Y-5642000D01*
X-13275784Y-5642000D01*
X-13149819Y-5616944D01*
X-13031162Y-5567795D01*
X-12924374Y-5496442D01*
X-12833558Y-5405626D01*
X-12762205Y-5298838D01*
X-12733906Y-5230516D01*
X-7684404Y-5230516D01*
X-7684404Y-5358948D01*
X-7659348Y-5484913D01*
X-7610199Y-5603570D01*
X-7538846Y-5710358D01*
X-7448030Y-5801174D01*
X-7341242Y-5872527D01*
X-7222585Y-5921676D01*
X-7096620Y-5946732D01*
X-6968188Y-5946732D01*
X-6842223Y-5921676D01*
X-6723566Y-5872527D01*
X-6616778Y-5801174D01*
X-6525962Y-5710358D01*
X-6454609Y-5603570D01*
X-6405460Y-5484913D01*
X-6380404Y-5358948D01*
X-6380404Y-5230516D01*
X-6405460Y-5104551D01*
X-6454609Y-4985894D01*
X-6525962Y-4879106D01*
X-6616778Y-4788290D01*
X-6723566Y-4716937D01*
X-6842223Y-4667788D01*
X-6968188Y-4642732D01*
X-7096620Y-4642732D01*
X-7222585Y-4667788D01*
X-7341242Y-4716937D01*
X-7448030Y-4788290D01*
X-7538846Y-4879106D01*
X-7610199Y-4985894D01*
X-7659348Y-5104551D01*
X-7684404Y-5230516D01*
X-12733906Y-5230516D01*
X-12713056Y-5180181D01*
X-12688000Y-5054216D01*
X-12688000Y-4925784D01*
X-12713056Y-4799819D01*
X-12762205Y-4681162D01*
X-12833558Y-4574374D01*
X-12924374Y-4483558D01*
X-13031162Y-4412205D01*
X-13149819Y-4363056D01*
X-13275784Y-4338000D01*
X-13404216Y-4338000D01*
X-13530181Y-4363056D01*
X-13648838Y-4412205D01*
X-13755626Y-4483558D01*
X-13846442Y-4574374D01*
X-13917795Y-4681162D01*
X-13966944Y-4799819D01*
X-13992000Y-4925784D01*
X-17598000Y-4925784D01*
X-17598000Y-4603110D01*
X-16941476Y-4603110D01*
X-16820155Y-4833000D01*
X-15627000Y-4833000D01*
X-15627000Y-4813000D01*
X-15373000Y-4813000D01*
X-15373000Y-4833000D01*
X-14179845Y-4833000D01*
X-14058524Y-4603110D01*
X-14103175Y-4455901D01*
X-14228359Y-4193080D01*
X-14402412Y-3959731D01*
X-14442627Y-3923481D01*
X-11912121Y-3923481D01*
X-11912121Y-4051913D01*
X-11887065Y-4177878D01*
X-11837916Y-4296535D01*
X-11766563Y-4403323D01*
X-11675747Y-4494139D01*
X-11568959Y-4565492D01*
X-11450302Y-4614641D01*
X-11324337Y-4639697D01*
X-11195905Y-4639697D01*
X-11069940Y-4614641D01*
X-10951283Y-4565492D01*
X-10844495Y-4494139D01*
X-10753679Y-4403323D01*
X-10722116Y-4356085D01*
X-10661764Y-4368090D01*
X-10533332Y-4368090D01*
X-10407367Y-4343034D01*
X-10288710Y-4293885D01*
X-10181922Y-4222532D01*
X-10091106Y-4131716D01*
X-10073779Y-4105784D01*
X-4402000Y-4105784D01*
X-4402000Y-4234216D01*
X-4376944Y-4360181D01*
X-4327795Y-4478838D01*
X-4256442Y-4585626D01*
X-4165626Y-4676442D01*
X-4153592Y-4684483D01*
X-4186332Y-4763525D01*
X-4211388Y-4889490D01*
X-4211388Y-5017922D01*
X-4186332Y-5143887D01*
X-4137183Y-5262544D01*
X-4136185Y-5264038D01*
X-4190453Y-5345257D01*
X-4239602Y-5463914D01*
X-4264658Y-5589879D01*
X-4264658Y-5718311D01*
X-4239602Y-5844276D01*
X-4190453Y-5962933D01*
X-4119100Y-6069721D01*
X-4028284Y-6160537D01*
X-3921496Y-6231890D01*
X-3802839Y-6281039D01*
X-3676874Y-6306095D01*
X-3548442Y-6306095D01*
X-3422477Y-6281039D01*
X-3303820Y-6231890D01*
X-3197032Y-6160537D01*
X-3106216Y-6069721D01*
X-3034863Y-5962933D01*
X-2985714Y-5844276D01*
X-2960658Y-5718311D01*
X-2960658Y-5589879D01*
X-2985714Y-5463914D01*
X-3034863Y-5345257D01*
X-3035861Y-5343763D01*
X-2981593Y-5262544D01*
X-2932444Y-5143887D01*
X-2907388Y-5017922D01*
X-2907388Y-4952731D01*
X3139820Y-4952731D01*
X3139820Y-5081163D01*
X3164876Y-5207128D01*
X3214025Y-5325785D01*
X3285378Y-5432573D01*
X3376194Y-5523389D01*
X3482982Y-5594742D01*
X3601639Y-5643891D01*
X3727604Y-5668947D01*
X3856036Y-5668947D01*
X3982001Y-5643891D01*
X4100658Y-5594742D01*
X4207446Y-5523389D01*
X4298262Y-5432573D01*
X4369615Y-5325785D01*
X4418764Y-5207128D01*
X4443820Y-5081163D01*
X4443820Y-4952731D01*
X4418764Y-4826766D01*
X4369615Y-4708109D01*
X4326185Y-4643110D01*
X14058524Y-4643110D01*
X14179845Y-4873000D01*
X15373000Y-4873000D01*
X15373000Y-4853000D01*
X15627000Y-4853000D01*
X15627000Y-4873000D01*
X16820155Y-4873000D01*
X16941476Y-4643110D01*
X16896825Y-4495901D01*
X16771641Y-4233080D01*
X16597588Y-3999731D01*
X16381355Y-3804822D01*
X16131252Y-3655843D01*
X15963202Y-3596231D01*
X16081202Y-3547353D01*
X16282167Y-3413073D01*
X16453073Y-3242167D01*
X16587353Y-3041202D01*
X16679847Y-2817903D01*
X16727000Y-2580849D01*
X16727000Y-2339151D01*
X16679847Y-2102097D01*
X16587353Y-1878798D01*
X16453073Y-1677833D01*
X16282167Y-1506927D01*
X16081202Y-1372647D01*
X15857903Y-1280153D01*
X15620849Y-1233000D01*
X15379151Y-1233000D01*
X15142097Y-1280153D01*
X14918798Y-1372647D01*
X14717833Y-1506927D01*
X14546927Y-1677833D01*
X14412647Y-1878798D01*
X14320153Y-2102097D01*
X14273000Y-2339151D01*
X14273000Y-2580849D01*
X14320153Y-2817903D01*
X14412647Y-3041202D01*
X14546927Y-3242167D01*
X14717833Y-3413073D01*
X14918798Y-3547353D01*
X15036798Y-3596231D01*
X14868748Y-3655843D01*
X14618645Y-3804822D01*
X14402412Y-3999731D01*
X14228359Y-4233080D01*
X14103175Y-4495901D01*
X14058524Y-4643110D01*
X4326185Y-4643110D01*
X4298262Y-4601321D01*
X4207446Y-4510505D01*
X4100658Y-4439152D01*
X3982001Y-4390003D01*
X3856036Y-4364947D01*
X3727604Y-4364947D01*
X3601639Y-4390003D01*
X3482982Y-4439152D01*
X3376194Y-4510505D01*
X3285378Y-4601321D01*
X3214025Y-4708109D01*
X3164876Y-4826766D01*
X3139820Y-4952731D01*
X-2907388Y-4952731D01*
X-2907388Y-4889490D01*
X-2932444Y-4763525D01*
X-2981593Y-4644868D01*
X-3052946Y-4538080D01*
X-3143762Y-4447264D01*
X-3155796Y-4439223D01*
X-3123056Y-4360181D01*
X-3098000Y-4234216D01*
X-3098000Y-4105784D01*
X-3123056Y-3979819D01*
X-3172205Y-3861162D01*
X-3243558Y-3754374D01*
X-3334374Y-3663558D01*
X-3441162Y-3592205D01*
X-3559819Y-3543056D01*
X-3685784Y-3518000D01*
X-3814216Y-3518000D01*
X-3940181Y-3543056D01*
X-4058838Y-3592205D01*
X-4165626Y-3663558D01*
X-4256442Y-3754374D01*
X-4327795Y-3861162D01*
X-4376944Y-3979819D01*
X-4402000Y-4105784D01*
X-10073779Y-4105784D01*
X-10019753Y-4024928D01*
X-9970604Y-3906271D01*
X-9945548Y-3780306D01*
X-9945548Y-3651874D01*
X-9970604Y-3525909D01*
X-10019753Y-3407252D01*
X-10091106Y-3300464D01*
X-10181922Y-3209648D01*
X-10288710Y-3138295D01*
X-10407367Y-3089146D01*
X-10533332Y-3064090D01*
X-10661764Y-3064090D01*
X-10787729Y-3089146D01*
X-10906386Y-3138295D01*
X-11013174Y-3209648D01*
X-11103990Y-3300464D01*
X-11135553Y-3347702D01*
X-11195905Y-3335697D01*
X-11324337Y-3335697D01*
X-11450302Y-3360753D01*
X-11568959Y-3409902D01*
X-11675747Y-3481255D01*
X-11766563Y-3572071D01*
X-11837916Y-3678859D01*
X-11887065Y-3797516D01*
X-11912121Y-3923481D01*
X-14442627Y-3923481D01*
X-14618645Y-3764822D01*
X-14868748Y-3615843D01*
X-15036798Y-3556231D01*
X-14918798Y-3507353D01*
X-14717833Y-3373073D01*
X-14546927Y-3202167D01*
X-14412647Y-3001202D01*
X-14320153Y-2777903D01*
X-14273000Y-2540849D01*
X-14273000Y-2299151D01*
X-14320153Y-2062097D01*
X-14412647Y-1838798D01*
X-14546927Y-1637833D01*
X-14717833Y-1466927D01*
X-14918798Y-1332647D01*
X-14959508Y-1315784D01*
X-13802000Y-1315784D01*
X-13802000Y-1444216D01*
X-13776944Y-1570181D01*
X-13727795Y-1688838D01*
X-13656442Y-1795626D01*
X-13565626Y-1886442D01*
X-13458838Y-1957795D01*
X-13340181Y-2006944D01*
X-13214216Y-2032000D01*
X-13085784Y-2032000D01*
X-12959819Y-2006944D01*
X-12841162Y-1957795D01*
X-12734374Y-1886442D01*
X-12643558Y-1795626D01*
X-12588341Y-1712987D01*
X-12526442Y-1805626D01*
X-12435626Y-1896442D01*
X-12328838Y-1967795D01*
X-12210181Y-2016944D01*
X-12084216Y-2042000D01*
X-11955784Y-2042000D01*
X-11829819Y-2016944D01*
X-11711162Y-1967795D01*
X-11604374Y-1896442D01*
X-11530000Y-1822068D01*
X-11525626Y-1826442D01*
X-11418838Y-1897795D01*
X-11300181Y-1946944D01*
X-11174216Y-1972000D01*
X-11045784Y-1972000D01*
X-10919819Y-1946944D01*
X-10801162Y-1897795D01*
X-10694374Y-1826442D01*
X-10603558Y-1735626D01*
X-10532205Y-1628838D01*
X-10483056Y-1510181D01*
X-10458000Y-1384216D01*
X-10458000Y-1255784D01*
X-10483056Y-1129819D01*
X-10532205Y-1011162D01*
X-10603558Y-904374D01*
X-10694374Y-813558D01*
X-10801162Y-742205D01*
X-10919819Y-693056D01*
X-11045784Y-668000D01*
X-11174216Y-668000D01*
X-11300181Y-693056D01*
X-11418838Y-742205D01*
X-11525626Y-813558D01*
X-11600000Y-887932D01*
X-11604374Y-883558D01*
X-11711162Y-812205D01*
X-11829819Y-763056D01*
X-11955784Y-738000D01*
X-12084216Y-738000D01*
X-12210181Y-763056D01*
X-12328838Y-812205D01*
X-12435626Y-883558D01*
X-12526442Y-974374D01*
X-12581659Y-1057013D01*
X-12643558Y-964374D01*
X-12734374Y-873558D01*
X-12841162Y-802205D01*
X-12959819Y-753056D01*
X-13085784Y-728000D01*
X-13214216Y-728000D01*
X-13340181Y-753056D01*
X-13458838Y-802205D01*
X-13565626Y-873558D01*
X-13656442Y-964374D01*
X-13727795Y-1071162D01*
X-13776944Y-1189819D01*
X-13802000Y-1315784D01*
X-14959508Y-1315784D01*
X-15142097Y-1240153D01*
X-15379151Y-1193000D01*
X-15620849Y-1193000D01*
X-15857903Y-1240153D01*
X-16081202Y-1332647D01*
X-16282167Y-1466927D01*
X-16453073Y-1637833D01*
X-16587353Y-1838798D01*
X-16679847Y-2062097D01*
X-16727000Y-2299151D01*
X-16727000Y-2540849D01*
X-16679847Y-2777903D01*
X-16587353Y-3001202D01*
X-16453073Y-3202167D01*
X-16282167Y-3373073D01*
X-16081202Y-3507353D01*
X-15963202Y-3556231D01*
X-16131252Y-3615843D01*
X-16381355Y-3764822D01*
X-16597588Y-3959731D01*
X-16771641Y-4193080D01*
X-16896825Y-4455901D01*
X-16941476Y-4603110D01*
X-17598000Y-4603110D01*
X-17598000Y240849D01*
X-16727000Y240849D01*
X-16727000Y-849D01*
X-16679847Y-237903D01*
X-16587353Y-461202D01*
X-16453073Y-662167D01*
X-16282167Y-833073D01*
X-16081202Y-967353D01*
X-15857903Y-1059847D01*
X-15620849Y-1107000D01*
X-15379151Y-1107000D01*
X-15142097Y-1059847D01*
X-14918798Y-967353D01*
X-14717833Y-833073D01*
X-14546927Y-662167D01*
X-14512187Y-610174D01*
X-10462302Y-610174D01*
X-10462302Y-738606D01*
X-10437246Y-864571D01*
X-10388097Y-983228D01*
X-10316744Y-1090016D01*
X-10263404Y-1143356D01*
X-10273288Y-1167217D01*
X-10298344Y-1293182D01*
X-10298344Y-1421614D01*
X-10273288Y-1547579D01*
X-10224139Y-1666236D01*
X-10152786Y-1773024D01*
X-10061970Y-1863840D01*
X-9955182Y-1935193D01*
X-9836525Y-1984342D01*
X-9710560Y-2009398D01*
X-9582128Y-2009398D01*
X-9456163Y-1984342D01*
X-9338933Y-1935784D01*
X-4052000Y-1935784D01*
X-4052000Y-2064216D01*
X-4026944Y-2190181D01*
X-3977795Y-2308838D01*
X-3906442Y-2415626D01*
X-3815626Y-2506442D01*
X-3708838Y-2577795D01*
X-3590181Y-2626944D01*
X-3464216Y-2652000D01*
X-3335784Y-2652000D01*
X-3209819Y-2626944D01*
X-3091162Y-2577795D01*
X-2984374Y-2506442D01*
X-2893558Y-2415626D01*
X-2822205Y-2308838D01*
X-2773056Y-2190181D01*
X-2748000Y-2064216D01*
X-2748000Y-1935784D01*
X-2773056Y-1809819D01*
X-2822205Y-1691162D01*
X-2893558Y-1584374D01*
X-2984374Y-1493558D01*
X-3091162Y-1422205D01*
X-3209819Y-1373056D01*
X-3335784Y-1348000D01*
X-3464216Y-1348000D01*
X-3590181Y-1373056D01*
X-3708838Y-1422205D01*
X-3815626Y-1493558D01*
X-3906442Y-1584374D01*
X-3977795Y-1691162D01*
X-4026944Y-1809819D01*
X-4052000Y-1935784D01*
X-9338933Y-1935784D01*
X-9337506Y-1935193D01*
X-9230718Y-1863840D01*
X-9139902Y-1773024D01*
X-9068549Y-1666236D01*
X-9019400Y-1547579D01*
X-8994344Y-1421614D01*
X-8994344Y-1327000D01*
X-6330000Y-1327000D01*
X-6305224Y-1324560D01*
X-6281399Y-1317333D01*
X-6259443Y-1305597D01*
X-6240197Y-1289803D01*
X-6140197Y-1189803D01*
X-6124403Y-1170557D01*
X-6112667Y-1148601D01*
X-6105440Y-1124776D01*
X-6103000Y-1100000D01*
X-6103000Y-277917D01*
X-4084133Y-277917D01*
X-4084133Y-406349D01*
X-4059077Y-532314D01*
X-4009928Y-650971D01*
X-3938575Y-757759D01*
X-3847759Y-848575D01*
X-3740971Y-919928D01*
X-3622314Y-969077D01*
X-3496349Y-994133D01*
X-3367917Y-994133D01*
X-3241952Y-969077D01*
X-3123295Y-919928D01*
X-3016507Y-848575D01*
X-2925691Y-757759D01*
X-2854338Y-650971D01*
X-2805189Y-532314D01*
X-2780133Y-406349D01*
X-2780133Y-277917D01*
X-2805189Y-151952D01*
X-2854338Y-33295D01*
X-2925691Y73493D01*
X-3016507Y164309D01*
X-3123295Y235662D01*
X-3241952Y284811D01*
X-3367917Y309867D01*
X-3496349Y309867D01*
X-3622314Y284811D01*
X-3740971Y235662D01*
X-3847759Y164309D01*
X-3938575Y73493D01*
X-4009928Y-33295D01*
X-4059077Y-151952D01*
X-4084133Y-277917D01*
X-6103000Y-277917D01*
X-6103000Y1864216D01*
X-752000Y1864216D01*
X-752000Y1735784D01*
X-726944Y1609819D01*
X-677795Y1491162D01*
X-606442Y1384374D01*
X-562068Y1340000D01*
X-586442Y1315626D01*
X-657795Y1208838D01*
X-706944Y1090181D01*
X-732000Y964216D01*
X-732000Y835784D01*
X-706944Y709819D01*
X-657795Y591162D01*
X-586442Y484374D01*
X-495626Y393558D01*
X-479490Y382776D01*
X-515626Y358631D01*
X-606442Y267815D01*
X-677795Y161027D01*
X-726944Y42370D01*
X-752000Y-83595D01*
X-752000Y-212027D01*
X-726944Y-337992D01*
X-677795Y-456649D01*
X-606442Y-563437D01*
X-515626Y-654253D01*
X-408838Y-725606D01*
X-290181Y-774755D01*
X-164216Y-799811D01*
X-35784Y-799811D01*
X90181Y-774755D01*
X208838Y-725606D01*
X315626Y-654253D01*
X406442Y-563437D01*
X477795Y-456649D01*
X526944Y-337992D01*
X552000Y-212027D01*
X552000Y-83595D01*
X532545Y14216D01*
X10148000Y14216D01*
X10148000Y-114216D01*
X10173056Y-240181D01*
X10222205Y-358838D01*
X10293558Y-465626D01*
X10384374Y-556442D01*
X10491162Y-627795D01*
X10609819Y-676944D01*
X10735784Y-702000D01*
X10864216Y-702000D01*
X10990181Y-676944D01*
X11108838Y-627795D01*
X11215626Y-556442D01*
X11306442Y-465626D01*
X11377795Y-358838D01*
X11426944Y-240181D01*
X11452000Y-114216D01*
X11452000Y14216D01*
X11426944Y140181D01*
X11401815Y200849D01*
X14273000Y200849D01*
X14273000Y-40849D01*
X14320153Y-277903D01*
X14412647Y-501202D01*
X14546927Y-702167D01*
X14717833Y-873073D01*
X14918798Y-1007353D01*
X15142097Y-1099847D01*
X15379151Y-1147000D01*
X15620849Y-1147000D01*
X15857903Y-1099847D01*
X16081202Y-1007353D01*
X16282167Y-873073D01*
X16453073Y-702167D01*
X16587353Y-501202D01*
X16679847Y-277903D01*
X16727000Y-40849D01*
X16727000Y200849D01*
X16679847Y437903D01*
X16587353Y661202D01*
X16453073Y862167D01*
X16282167Y1033073D01*
X16081202Y1167353D01*
X15857903Y1259847D01*
X15620849Y1307000D01*
X15379151Y1307000D01*
X15142097Y1259847D01*
X14918798Y1167353D01*
X14717833Y1033073D01*
X14546927Y862167D01*
X14412647Y661202D01*
X14320153Y437903D01*
X14273000Y200849D01*
X11401815Y200849D01*
X11377795Y258838D01*
X11306442Y365626D01*
X11215626Y456442D01*
X11108838Y527795D01*
X10990181Y576944D01*
X10864216Y602000D01*
X10735784Y602000D01*
X10609819Y576944D01*
X10491162Y527795D01*
X10384374Y456442D01*
X10293558Y365626D01*
X10222205Y258838D01*
X10173056Y140181D01*
X10148000Y14216D01*
X532545Y14216D01*
X526944Y42370D01*
X477795Y161027D01*
X406442Y267815D01*
X315626Y358631D01*
X299490Y369413D01*
X335626Y393558D01*
X426442Y484374D01*
X497795Y591162D01*
X546944Y709819D01*
X572000Y835784D01*
X572000Y964216D01*
X546944Y1090181D01*
X497795Y1208838D01*
X426442Y1315626D01*
X382068Y1360000D01*
X406442Y1384374D01*
X477795Y1491162D01*
X526944Y1609819D01*
X552000Y1735784D01*
X552000Y1864216D01*
X526944Y1990181D01*
X477795Y2108838D01*
X406442Y2215626D01*
X315626Y2306442D01*
X208838Y2377795D01*
X90181Y2426944D01*
X-35784Y2452000D01*
X-164216Y2452000D01*
X-290181Y2426944D01*
X-408838Y2377795D01*
X-515626Y2306442D01*
X-606442Y2215626D01*
X-677795Y2108838D01*
X-726944Y1990181D01*
X-752000Y1864216D01*
X-6103000Y1864216D01*
X-6103000Y2230000D01*
X-6105360Y2254371D01*
X-6112510Y2278219D01*
X-6124174Y2300213D01*
X-6139906Y2319510D01*
X-6239904Y2420161D01*
X-6258754Y2435786D01*
X-6280634Y2447665D01*
X-6304411Y2455047D01*
X-6329171Y2457648D01*
X-9199175Y2476346D01*
X-9224373Y2473989D01*
X-9248221Y2466839D01*
X-9270215Y2455175D01*
X-9289512Y2439443D01*
X-9389510Y2340094D01*
X-9405597Y2320557D01*
X-9417333Y2298601D01*
X-9424560Y2274776D01*
X-9427000Y2250000D01*
X-9427000Y-146350D01*
X-9501464Y-96595D01*
X-9620121Y-47446D01*
X-9746086Y-22390D01*
X-9874518Y-22390D01*
X-10000483Y-47446D01*
X-10119140Y-96595D01*
X-10225928Y-167948D01*
X-10316744Y-258764D01*
X-10388097Y-365552D01*
X-10437246Y-484209D01*
X-10462302Y-610174D01*
X-14512187Y-610174D01*
X-14412647Y-461202D01*
X-14320153Y-237903D01*
X-14273000Y-849D01*
X-14273000Y240849D01*
X-14320153Y477903D01*
X-14412647Y701202D01*
X-14546927Y902167D01*
X-14673068Y1028308D01*
X-14248089Y1028308D01*
X-14248089Y899876D01*
X-14223033Y773911D01*
X-14173884Y655254D01*
X-14102531Y548466D01*
X-14011715Y457650D01*
X-13904927Y386297D01*
X-13786270Y337148D01*
X-13660305Y312092D01*
X-13531873Y312092D01*
X-13405908Y337148D01*
X-13287251Y386297D01*
X-13180463Y457650D01*
X-13100089Y538023D01*
X-13015626Y453560D01*
X-12908838Y382207D01*
X-12790181Y333058D01*
X-12664216Y308002D01*
X-12535784Y308002D01*
X-12409819Y333058D01*
X-12291162Y382207D01*
X-12184374Y453560D01*
X-12093558Y544376D01*
X-12086115Y555516D01*
X-12058631Y514383D01*
X-11967815Y423567D01*
X-11861027Y352214D01*
X-11742370Y303065D01*
X-11616405Y278009D01*
X-11487973Y278009D01*
X-11362008Y303065D01*
X-11243351Y352214D01*
X-11136563Y423567D01*
X-11045747Y514383D01*
X-11030007Y537939D01*
X-11015626Y523558D01*
X-10908838Y452205D01*
X-10790181Y403056D01*
X-10664216Y378000D01*
X-10535784Y378000D01*
X-10409819Y403056D01*
X-10291162Y452205D01*
X-10184374Y523558D01*
X-10093558Y614374D01*
X-10022205Y721162D01*
X-9973056Y839819D01*
X-9948000Y965784D01*
X-9948000Y1094216D01*
X-9973056Y1220181D01*
X-10022205Y1338838D01*
X-10093558Y1445626D01*
X-10184374Y1536442D01*
X-10291162Y1607795D01*
X-10409819Y1656944D01*
X-10535784Y1682000D01*
X-10664216Y1682000D01*
X-10790181Y1656944D01*
X-10908838Y1607795D01*
X-11015626Y1536442D01*
X-11106442Y1445626D01*
X-11122182Y1422070D01*
X-11136563Y1436451D01*
X-11243351Y1507804D01*
X-11362008Y1556953D01*
X-11487973Y1582009D01*
X-11616405Y1582009D01*
X-11742370Y1556953D01*
X-11861027Y1507804D01*
X-11967815Y1436451D01*
X-12058631Y1345635D01*
X-12066074Y1334495D01*
X-12093558Y1375628D01*
X-12184374Y1466444D01*
X-12291162Y1537797D01*
X-12409819Y1586946D01*
X-12535784Y1612002D01*
X-12664216Y1612002D01*
X-12790181Y1586946D01*
X-12908838Y1537797D01*
X-13015626Y1466444D01*
X-13095999Y1386070D01*
X-13180463Y1470534D01*
X-13287251Y1541887D01*
X-13405908Y1591036D01*
X-13531873Y1616092D01*
X-13660305Y1616092D01*
X-13786270Y1591036D01*
X-13904927Y1541887D01*
X-14011715Y1470534D01*
X-14102531Y1379718D01*
X-14173884Y1272930D01*
X-14223033Y1154273D01*
X-14248089Y1028308D01*
X-14673068Y1028308D01*
X-14717833Y1073073D01*
X-14918798Y1207353D01*
X-15142097Y1299847D01*
X-15379151Y1347000D01*
X-15620849Y1347000D01*
X-15857903Y1299847D01*
X-16081202Y1207353D01*
X-16282167Y1073073D01*
X-16453073Y902167D01*
X-16587353Y701202D01*
X-16679847Y477903D01*
X-16727000Y240849D01*
X-17598000Y240849D01*
X-17598000Y2780849D01*
X-16727000Y2780849D01*
X-16727000Y2539151D01*
X-16679847Y2302097D01*
X-16587353Y2078798D01*
X-16453073Y1877833D01*
X-16282167Y1706927D01*
X-16081202Y1572647D01*
X-15857903Y1480153D01*
X-15620849Y1433000D01*
X-15379151Y1433000D01*
X-15142097Y1480153D01*
X-14918798Y1572647D01*
X-14717833Y1706927D01*
X-14546927Y1877833D01*
X-14412647Y2078798D01*
X-14320153Y2302097D01*
X-14273000Y2539151D01*
X-14273000Y2740849D01*
X14273000Y2740849D01*
X14273000Y2499151D01*
X14320153Y2262097D01*
X14412647Y2038798D01*
X14546927Y1837833D01*
X14717833Y1666927D01*
X14918798Y1532647D01*
X15142097Y1440153D01*
X15379151Y1393000D01*
X15620849Y1393000D01*
X15857903Y1440153D01*
X16081202Y1532647D01*
X16282167Y1666927D01*
X16453073Y1837833D01*
X16587353Y2038798D01*
X16679847Y2262097D01*
X16727000Y2499151D01*
X16727000Y2740849D01*
X16679847Y2977903D01*
X16587353Y3201202D01*
X16453073Y3402167D01*
X16282167Y3573073D01*
X16081202Y3707353D01*
X15857903Y3799847D01*
X15620849Y3847000D01*
X15379151Y3847000D01*
X15142097Y3799847D01*
X14918798Y3707353D01*
X14717833Y3573073D01*
X14546927Y3402167D01*
X14412647Y3201202D01*
X14320153Y2977903D01*
X14273000Y2740849D01*
X-14273000Y2740849D01*
X-14273000Y2780849D01*
X-14320153Y3017903D01*
X-14412647Y3241202D01*
X-14546927Y3442167D01*
X-14717833Y3613073D01*
X-14918798Y3747353D01*
X-15142097Y3839847D01*
X-15379151Y3887000D01*
X-15620849Y3887000D01*
X-15857903Y3839847D01*
X-16081202Y3747353D01*
X-16282167Y3613073D01*
X-16453073Y3442167D01*
X-16587353Y3241202D01*
X-16679847Y3017903D01*
X-16727000Y2780849D01*
X-17598000Y2780849D01*
X-17598000Y5320849D01*
X-16727000Y5320849D01*
X-16727000Y5079151D01*
X-16679847Y4842097D01*
X-16587353Y4618798D01*
X-16453073Y4417833D01*
X-16282167Y4246927D01*
X-16081202Y4112647D01*
X-15857903Y4020153D01*
X-15620849Y3973000D01*
X-15379151Y3973000D01*
X-15142097Y4020153D01*
X-14918798Y4112647D01*
X-14717833Y4246927D01*
X-14546927Y4417833D01*
X-14412647Y4618798D01*
X-14320153Y4842097D01*
X-14273000Y5079151D01*
X-14273000Y5320849D01*
X-14320153Y5557903D01*
X-14412647Y5781202D01*
X-14546927Y5982167D01*
X-14634052Y6069292D01*
X-10522000Y6069292D01*
X-10522000Y5950708D01*
X-10498866Y5834403D01*
X-10453486Y5724846D01*
X-10387604Y5626247D01*
X-10303753Y5542396D01*
X-10205154Y5476514D01*
X-10095597Y5431134D01*
X-9979292Y5408000D01*
X-9860708Y5408000D01*
X-9744403Y5431134D01*
X-9634846Y5476514D01*
X-9536247Y5542396D01*
X-9452396Y5626247D01*
X-9386514Y5724846D01*
X-9341134Y5834403D01*
X-9318000Y5950708D01*
X-9318000Y6069292D01*
X-9341134Y6185597D01*
X-9386514Y6295154D01*
X-9452396Y6393753D01*
X-9522859Y6464216D01*
X-8362000Y6464216D01*
X-8362000Y6335784D01*
X-8336944Y6209819D01*
X-8287795Y6091162D01*
X-8216442Y5984374D01*
X-8125626Y5893558D01*
X-8018838Y5822205D01*
X-7900181Y5773056D01*
X-7774216Y5748000D01*
X-7645784Y5748000D01*
X-7519819Y5773056D01*
X-7401162Y5822205D01*
X-7294374Y5893558D01*
X-7284609Y5903323D01*
X-7280837Y5900803D01*
X-7162180Y5851654D01*
X-7036215Y5826598D01*
X-6907783Y5826598D01*
X-6781818Y5851654D01*
X-6663161Y5900803D01*
X-6615818Y5932437D01*
X-6573419Y5904107D01*
X-6454762Y5854958D01*
X-6328797Y5829902D01*
X-6200365Y5829902D01*
X-6074400Y5854958D01*
X-5955743Y5904107D01*
X-5848955Y5975460D01*
X-5800199Y6024216D01*
X-112000Y6024216D01*
X-112000Y5895784D01*
X-86944Y5769819D01*
X-37795Y5651162D01*
X33558Y5544374D01*
X124374Y5453558D01*
X231162Y5382205D01*
X349819Y5333056D01*
X475784Y5308000D01*
X604216Y5308000D01*
X730181Y5333056D01*
X848838Y5382205D01*
X955626Y5453558D01*
X983284Y5481216D01*
X7580000Y5481216D01*
X7580000Y5352784D01*
X7605056Y5226819D01*
X7654205Y5108162D01*
X7725558Y5001374D01*
X7816374Y4910558D01*
X7923162Y4839205D01*
X8041819Y4790056D01*
X8167784Y4765000D01*
X8296216Y4765000D01*
X8422181Y4790056D01*
X8540838Y4839205D01*
X8647626Y4910558D01*
X8738442Y5001374D01*
X8809795Y5108162D01*
X8858944Y5226819D01*
X8869691Y5280849D01*
X14273000Y5280849D01*
X14273000Y5039151D01*
X14320153Y4802097D01*
X14412647Y4578798D01*
X14546927Y4377833D01*
X14717833Y4206927D01*
X14918798Y4072647D01*
X15142097Y3980153D01*
X15379151Y3933000D01*
X15620849Y3933000D01*
X15857903Y3980153D01*
X16081202Y4072647D01*
X16282167Y4206927D01*
X16453073Y4377833D01*
X16587353Y4578798D01*
X16679847Y4802097D01*
X16727000Y5039151D01*
X16727000Y5280849D01*
X16679847Y5517903D01*
X16587353Y5741202D01*
X16453073Y5942167D01*
X16282167Y6113073D01*
X16081202Y6247353D01*
X15857903Y6339847D01*
X15620849Y6387000D01*
X15379151Y6387000D01*
X15142097Y6339847D01*
X14918798Y6247353D01*
X14717833Y6113073D01*
X14546927Y5942167D01*
X14412647Y5741202D01*
X14320153Y5517903D01*
X14273000Y5280849D01*
X8869691Y5280849D01*
X8884000Y5352784D01*
X8884000Y5481216D01*
X8858944Y5607181D01*
X8809795Y5725838D01*
X8738442Y5832626D01*
X8647626Y5923442D01*
X8540838Y5994795D01*
X8422181Y6043944D01*
X8296216Y6069000D01*
X8167784Y6069000D01*
X8041819Y6043944D01*
X7923162Y5994795D01*
X7816374Y5923442D01*
X7725558Y5832626D01*
X7654205Y5725838D01*
X7605056Y5607181D01*
X7580000Y5481216D01*
X983284Y5481216D01*
X1046442Y5544374D01*
X1117795Y5651162D01*
X1166944Y5769819D01*
X1192000Y5895784D01*
X1192000Y6024216D01*
X1166944Y6150181D01*
X1117795Y6268838D01*
X1046442Y6375626D01*
X955626Y6466442D01*
X848838Y6537795D01*
X730181Y6586944D01*
X604216Y6612000D01*
X475784Y6612000D01*
X349819Y6586944D01*
X231162Y6537795D01*
X124374Y6466442D01*
X33558Y6375626D01*
X-37795Y6268838D01*
X-86944Y6150181D01*
X-112000Y6024216D01*
X-5800199Y6024216D01*
X-5758139Y6066276D01*
X-5686786Y6173064D01*
X-5637637Y6291721D01*
X-5612581Y6417686D01*
X-5612581Y6546118D01*
X-5637637Y6672083D01*
X-5686786Y6790740D01*
X-5758139Y6897528D01*
X-5848955Y6988344D01*
X-5955743Y7059697D01*
X-6074400Y7108846D01*
X-6200365Y7133902D01*
X-6328797Y7133902D01*
X-6454762Y7108846D01*
X-6573419Y7059697D01*
X-6620762Y7028063D01*
X-6663161Y7056393D01*
X-6781818Y7105542D01*
X-6907783Y7130598D01*
X-7036215Y7130598D01*
X-7162180Y7105542D01*
X-7280837Y7056393D01*
X-7387625Y6985040D01*
X-7397390Y6975275D01*
X-7401162Y6977795D01*
X-7519819Y7026944D01*
X-7645784Y7052000D01*
X-7774216Y7052000D01*
X-7900181Y7026944D01*
X-8018838Y6977795D01*
X-8125626Y6906442D01*
X-8216442Y6815626D01*
X-8287795Y6708838D01*
X-8336944Y6590181D01*
X-8362000Y6464216D01*
X-9522859Y6464216D01*
X-9536247Y6477604D01*
X-9634846Y6543486D01*
X-9744403Y6588866D01*
X-9860708Y6612000D01*
X-9979292Y6612000D01*
X-10095597Y6588866D01*
X-10205154Y6543486D01*
X-10303753Y6477604D01*
X-10387604Y6393753D01*
X-10453486Y6295154D01*
X-10498866Y6185597D01*
X-10522000Y6069292D01*
X-14634052Y6069292D01*
X-14717833Y6153073D01*
X-14918798Y6287353D01*
X-15142097Y6379847D01*
X-15379151Y6427000D01*
X-15620849Y6427000D01*
X-15857903Y6379847D01*
X-16081202Y6287353D01*
X-16282167Y6153073D01*
X-16453073Y5982167D01*
X-16587353Y5781202D01*
X-16679847Y5557903D01*
X-16727000Y5320849D01*
X-17598000Y5320849D01*
X-17598000Y7860849D01*
X-16727000Y7860849D01*
X-16727000Y7619151D01*
X-16679847Y7382097D01*
X-16587353Y7158798D01*
X-16453073Y6957833D01*
X-16282167Y6786927D01*
X-16081202Y6652647D01*
X-15857903Y6560153D01*
X-15620849Y6513000D01*
X-15379151Y6513000D01*
X-15142097Y6560153D01*
X-14918798Y6652647D01*
X-14717833Y6786927D01*
X-14546927Y6957833D01*
X-14412647Y7158798D01*
X-14320153Y7382097D01*
X-14320010Y7382816D01*
X-10546592Y7382816D01*
X-10546592Y7254384D01*
X-10521536Y7128419D01*
X-10472387Y7009762D01*
X-10401034Y6902974D01*
X-10310218Y6812158D01*
X-10203430Y6740805D01*
X-10084773Y6691656D01*
X-9958808Y6666600D01*
X-9830376Y6666600D01*
X-9704411Y6691656D01*
X-9585754Y6740805D01*
X-9478966Y6812158D01*
X-9388150Y6902974D01*
X-9316797Y7009762D01*
X-9267648Y7128419D01*
X-9242592Y7254384D01*
X-9242592Y7382816D01*
X-9248244Y7411233D01*
X-9188025Y7451470D01*
X-9121479Y7518016D01*
X-9116181Y7515822D01*
X-8990216Y7490766D01*
X-8861784Y7490766D01*
X-8735819Y7515822D01*
X-8617162Y7564971D01*
X-8510374Y7636324D01*
X-8419558Y7727140D01*
X-8348205Y7833928D01*
X-8299056Y7952585D01*
X-8281626Y8040216D01*
X6718000Y8040216D01*
X6718000Y7911784D01*
X6743056Y7785819D01*
X6792205Y7667162D01*
X6863558Y7560374D01*
X6954374Y7469558D01*
X7061162Y7398205D01*
X7179819Y7349056D01*
X7305784Y7324000D01*
X7434216Y7324000D01*
X7560181Y7349056D01*
X7678838Y7398205D01*
X7785626Y7469558D01*
X7876442Y7560374D01*
X7947795Y7667162D01*
X7996944Y7785819D01*
X8003911Y7820849D01*
X14273000Y7820849D01*
X14273000Y7579151D01*
X14320153Y7342097D01*
X14412647Y7118798D01*
X14546927Y6917833D01*
X14717833Y6746927D01*
X14918798Y6612647D01*
X15142097Y6520153D01*
X15379151Y6473000D01*
X15620849Y6473000D01*
X15857903Y6520153D01*
X16081202Y6612647D01*
X16282167Y6746927D01*
X16453073Y6917833D01*
X16587353Y7118798D01*
X16679847Y7342097D01*
X16727000Y7579151D01*
X16727000Y7820849D01*
X16679847Y8057903D01*
X16587353Y8281202D01*
X16453073Y8482167D01*
X16282167Y8653073D01*
X16081202Y8787353D01*
X15857903Y8879847D01*
X15620849Y8927000D01*
X15379151Y8927000D01*
X15142097Y8879847D01*
X14918798Y8787353D01*
X14717833Y8653073D01*
X14546927Y8482167D01*
X14412647Y8281202D01*
X14320153Y8057903D01*
X14273000Y7820849D01*
X8003911Y7820849D01*
X8022000Y7911784D01*
X8022000Y8040216D01*
X7996944Y8166181D01*
X7947795Y8284838D01*
X7876442Y8391626D01*
X7785626Y8482442D01*
X7678838Y8553795D01*
X7560181Y8602944D01*
X7434216Y8628000D01*
X7305784Y8628000D01*
X7179819Y8602944D01*
X7061162Y8553795D01*
X6954374Y8482442D01*
X6863558Y8391626D01*
X6792205Y8284838D01*
X6743056Y8166181D01*
X6718000Y8040216D01*
X-8281626Y8040216D01*
X-8274000Y8078550D01*
X-8274000Y8206982D01*
X-8299056Y8332947D01*
X-8348205Y8451604D01*
X-8419558Y8558392D01*
X-8510374Y8649208D01*
X-8617162Y8720561D01*
X-8735819Y8769710D01*
X-8861784Y8794766D01*
X-8990216Y8794766D01*
X-9116181Y8769710D01*
X-9234838Y8720561D01*
X-9341626Y8649208D01*
X-9408172Y8582662D01*
X-9413470Y8584856D01*
X-9539435Y8609912D01*
X-9667867Y8609912D01*
X-9793832Y8584856D01*
X-9912489Y8535707D01*
X-10019277Y8464354D01*
X-10110093Y8373538D01*
X-10181446Y8266750D01*
X-10230595Y8148093D01*
X-10255651Y8022128D01*
X-10255651Y7893696D01*
X-10249999Y7865279D01*
X-10310218Y7825042D01*
X-10401034Y7734226D01*
X-10472387Y7627438D01*
X-10521536Y7508781D01*
X-10546592Y7382816D01*
X-14320010Y7382816D01*
X-14273000Y7619151D01*
X-14273000Y7860849D01*
X-14320153Y8097903D01*
X-14412647Y8321202D01*
X-14546927Y8522167D01*
X-14717833Y8693073D01*
X-14918798Y8827353D01*
X-15142097Y8919847D01*
X-15379151Y8967000D01*
X-15620849Y8967000D01*
X-15857903Y8919847D01*
X-16081202Y8827353D01*
X-16282167Y8693073D01*
X-16453073Y8522167D01*
X-16587353Y8321202D01*
X-16679847Y8097903D01*
X-16727000Y7860849D01*
X-17598000Y7860849D01*
X-17598000Y10473000D01*
X17598001Y10473000D01*
X17598000Y-22598000D01*
G37*
G04 #@! TD.AperFunction*
M02*
