G04 #@! TF.GenerationSoftware,KiCad,Pcbnew,(5.1.8)-1*
G04 #@! TF.CreationDate,2021-01-12T15:50:27+01:00*
G04 #@! TF.ProjectId,pcb-LR1110,7063622d-4c52-4313-9131-302e6b696361,1.1*
G04 #@! TF.SameCoordinates,PX8f0d180PY5f5e100*
G04 #@! TF.FileFunction,Legend,Top*
G04 #@! TF.FilePolarity,Positive*
%FSLAX46Y46*%
G04 Gerber Fmt 4.6, Leading zero omitted, Abs format (unit mm)*
G04 Created by KiCad (PCBNEW (5.1.8)-1) date 2021-01-12 15:50:27*
%MOMM*%
%LPD*%
G01*
G04 APERTURE LIST*
%ADD10C,0.180000*%
%ADD11C,0.160000*%
%ADD12C,0.150000*%
%ADD13C,0.200000*%
%ADD14C,0.175000*%
%ADD15C,0.120000*%
%ADD16C,0.010000*%
%ADD17C,0.127000*%
%ADD18C,0.100000*%
G04 APERTURE END LIST*
D10*
X17461904Y11276191D02*
X16661904Y11276191D01*
X16661904Y11466667D01*
X16700000Y11580953D01*
X16776190Y11657143D01*
X16852380Y11695239D01*
X17004761Y11733334D01*
X17119047Y11733334D01*
X17271428Y11695239D01*
X17347619Y11657143D01*
X17423809Y11580953D01*
X17461904Y11466667D01*
X17461904Y11276191D01*
X17423809Y12380953D02*
X17461904Y12304762D01*
X17461904Y12152381D01*
X17423809Y12076191D01*
X17347619Y12038096D01*
X17042857Y12038096D01*
X16966666Y12076191D01*
X16928571Y12152381D01*
X16928571Y12304762D01*
X16966666Y12380953D01*
X17042857Y12419048D01*
X17119047Y12419048D01*
X17195238Y12038096D01*
X17423809Y12723810D02*
X17461904Y12800000D01*
X17461904Y12952381D01*
X17423809Y13028572D01*
X17347619Y13066667D01*
X17309523Y13066667D01*
X17233333Y13028572D01*
X17195238Y12952381D01*
X17195238Y12838096D01*
X17157142Y12761905D01*
X17080952Y12723810D01*
X17042857Y12723810D01*
X16966666Y12761905D01*
X16928571Y12838096D01*
X16928571Y12952381D01*
X16966666Y13028572D01*
X17461904Y13409524D02*
X16928571Y13409524D01*
X16661904Y13409524D02*
X16700000Y13371429D01*
X16738095Y13409524D01*
X16700000Y13447620D01*
X16661904Y13409524D01*
X16738095Y13409524D01*
X16928571Y14133334D02*
X17576190Y14133334D01*
X17652380Y14095239D01*
X17690476Y14057143D01*
X17728571Y13980953D01*
X17728571Y13866667D01*
X17690476Y13790477D01*
X17423809Y14133334D02*
X17461904Y14057143D01*
X17461904Y13904762D01*
X17423809Y13828572D01*
X17385714Y13790477D01*
X17309523Y13752381D01*
X17080952Y13752381D01*
X17004761Y13790477D01*
X16966666Y13828572D01*
X16928571Y13904762D01*
X16928571Y14057143D01*
X16966666Y14133334D01*
X16928571Y14514286D02*
X17461904Y14514286D01*
X17004761Y14514286D02*
X16966666Y14552381D01*
X16928571Y14628572D01*
X16928571Y14742858D01*
X16966666Y14819048D01*
X17042857Y14857143D01*
X17461904Y14857143D01*
X17461904Y15847620D02*
X16661904Y15847620D01*
X16966666Y15847620D02*
X16928571Y15923810D01*
X16928571Y16076191D01*
X16966666Y16152381D01*
X17004761Y16190477D01*
X17080952Y16228572D01*
X17309523Y16228572D01*
X17385714Y16190477D01*
X17423809Y16152381D01*
X17461904Y16076191D01*
X17461904Y15923810D01*
X17423809Y15847620D01*
X16928571Y16495239D02*
X17461904Y16685715D01*
X16928571Y16876191D02*
X17461904Y16685715D01*
X17652380Y16609524D01*
X17690476Y16571429D01*
X17728571Y16495239D01*
X16661904Y17676191D02*
X16661904Y18133334D01*
X17461904Y17904762D02*
X16661904Y17904762D01*
X16661904Y18285715D02*
X16661904Y18742858D01*
X17461904Y18514286D02*
X16661904Y18514286D01*
X17461904Y19009524D02*
X16661904Y19009524D01*
X17423809Y19428572D02*
X17461904Y19428572D01*
X17538095Y19390477D01*
X17576190Y19352381D01*
X16928571Y20304762D02*
X17461904Y20495239D01*
X16928571Y20685715D01*
X16661904Y21142858D02*
X16661904Y21219048D01*
X16700000Y21295239D01*
X16738095Y21333334D01*
X16814285Y21371429D01*
X16966666Y21409524D01*
X17157142Y21409524D01*
X17309523Y21371429D01*
X17385714Y21333334D01*
X17423809Y21295239D01*
X17461904Y21219048D01*
X17461904Y21142858D01*
X17423809Y21066667D01*
X17385714Y21028572D01*
X17309523Y20990477D01*
X17157142Y20952381D01*
X16966666Y20952381D01*
X16814285Y20990477D01*
X16738095Y21028572D01*
X16700000Y21066667D01*
X16661904Y21142858D01*
X17385714Y21752381D02*
X17423809Y21790477D01*
X17461904Y21752381D01*
X17423809Y21714286D01*
X17385714Y21752381D01*
X17461904Y21752381D01*
X17461904Y22552381D02*
X17461904Y22095239D01*
X17461904Y22323810D02*
X16661904Y22323810D01*
X16776190Y22247620D01*
X16852380Y22171429D01*
X16890476Y22095239D01*
D11*
X-17861905Y8083334D02*
X-17480953Y8316667D01*
X-17861905Y8483334D02*
X-17061905Y8483334D01*
X-17061905Y8216667D01*
X-17100000Y8150000D01*
X-17138096Y8116667D01*
X-17214286Y8083334D01*
X-17328572Y8083334D01*
X-17404762Y8116667D01*
X-17442858Y8150000D01*
X-17480953Y8216667D01*
X-17480953Y8483334D01*
X-17823810Y7816667D02*
X-17861905Y7716667D01*
X-17861905Y7550000D01*
X-17823810Y7483334D01*
X-17785715Y7450000D01*
X-17709524Y7416667D01*
X-17633334Y7416667D01*
X-17557143Y7450000D01*
X-17519048Y7483334D01*
X-17480953Y7550000D01*
X-17442858Y7683334D01*
X-17404762Y7750000D01*
X-17366667Y7783334D01*
X-17290477Y7816667D01*
X-17214286Y7816667D01*
X-17138096Y7783334D01*
X-17100000Y7750000D01*
X-17061905Y7683334D01*
X-17061905Y7516667D01*
X-17100000Y7416667D01*
X-17061905Y7216667D02*
X-17061905Y6816667D01*
X-17861905Y7016667D02*
X-17061905Y7016667D01*
X-17861905Y5816667D02*
X-17061905Y5816667D01*
X-17061905Y5650000D01*
X-17100000Y5550000D01*
X-17176191Y5483334D01*
X-17252381Y5450000D01*
X-17404762Y5416667D01*
X-17519048Y5416667D01*
X-17671429Y5450000D01*
X-17747620Y5483334D01*
X-17823810Y5550000D01*
X-17861905Y5650000D01*
X-17861905Y5816667D01*
X-17861905Y5116667D02*
X-17061905Y5116667D01*
X-17061905Y4650000D02*
X-17061905Y4516667D01*
X-17100000Y4450000D01*
X-17176191Y4383334D01*
X-17328572Y4350000D01*
X-17595239Y4350000D01*
X-17747620Y4383334D01*
X-17823810Y4450000D01*
X-17861905Y4516667D01*
X-17861905Y4650000D01*
X-17823810Y4716667D01*
X-17747620Y4783334D01*
X-17595239Y4816667D01*
X-17328572Y4816667D01*
X-17176191Y4783334D01*
X-17100000Y4716667D01*
X-17061905Y4650000D01*
X-17785715Y3016667D02*
X-17823810Y3050000D01*
X-17861905Y3150000D01*
X-17861905Y3216667D01*
X-17823810Y3316667D01*
X-17747620Y3383334D01*
X-17671429Y3416667D01*
X-17519048Y3450000D01*
X-17404762Y3450000D01*
X-17252381Y3416667D01*
X-17176191Y3383334D01*
X-17100000Y3316667D01*
X-17061905Y3216667D01*
X-17061905Y3150000D01*
X-17100000Y3050000D01*
X-17138096Y3016667D01*
X-17861905Y2383334D02*
X-17861905Y2716667D01*
X-17061905Y2716667D01*
X-17861905Y2150000D02*
X-17061905Y2150000D01*
X-17861905Y1750000D02*
X-17404762Y2050000D01*
X-17061905Y1750000D02*
X-17519048Y2150000D01*
X-17061905Y633334D02*
X-17061905Y233334D01*
X-17861905Y433334D02*
X-17061905Y433334D01*
X-17061905Y66667D02*
X-17861905Y-400000D01*
X-17061905Y-400000D02*
X-17861905Y66667D01*
X-17861905Y-2383333D02*
X-17480953Y-2150000D01*
X-17861905Y-1983333D02*
X-17061905Y-1983333D01*
X-17061905Y-2250000D01*
X-17100000Y-2316666D01*
X-17138096Y-2350000D01*
X-17214286Y-2383333D01*
X-17328572Y-2383333D01*
X-17404762Y-2350000D01*
X-17442858Y-2316666D01*
X-17480953Y-2250000D01*
X-17480953Y-1983333D01*
X-17061905Y-2616666D02*
X-17861905Y-3083333D01*
X-17061905Y-3083333D02*
X-17861905Y-2616666D01*
X-17100000Y-4466666D02*
X-17061905Y-4400000D01*
X-17061905Y-4300000D01*
X-17100000Y-4200000D01*
X-17176191Y-4133333D01*
X-17252381Y-4100000D01*
X-17404762Y-4066666D01*
X-17519048Y-4066666D01*
X-17671429Y-4100000D01*
X-17747620Y-4133333D01*
X-17823810Y-4200000D01*
X-17861905Y-4300000D01*
X-17861905Y-4366666D01*
X-17823810Y-4466666D01*
X-17785715Y-4500000D01*
X-17519048Y-4500000D01*
X-17519048Y-4366666D01*
X-17861905Y-4800000D02*
X-17061905Y-4800000D01*
X-17861905Y-5200000D01*
X-17061905Y-5200000D01*
X-17861905Y-5533333D02*
X-17061905Y-5533333D01*
X-17061905Y-5700000D01*
X-17100000Y-5800000D01*
X-17176191Y-5866666D01*
X-17252381Y-5900000D01*
X-17404762Y-5933333D01*
X-17519048Y-5933333D01*
X-17671429Y-5900000D01*
X-17747620Y-5866666D01*
X-17823810Y-5800000D01*
X-17861905Y-5700000D01*
X-17861905Y-5533333D01*
X-17138096Y-6466666D02*
X-17100000Y-6500000D01*
X-17061905Y-6566666D01*
X-17061905Y-6733333D01*
X-17100000Y-6800000D01*
X-17138096Y-6833333D01*
X-17214286Y-6866666D01*
X-17290477Y-6866666D01*
X-17404762Y-6833333D01*
X-17861905Y-6433333D01*
X-17861905Y-6866666D01*
X-17061905Y-7066666D02*
X-17861905Y-7300000D01*
X-17061905Y-7533333D01*
X-17404762Y-7866666D02*
X-17366667Y-7800000D01*
X-17328572Y-7766666D01*
X-17252381Y-7733333D01*
X-17214286Y-7733333D01*
X-17138096Y-7766666D01*
X-17100000Y-7800000D01*
X-17061905Y-7866666D01*
X-17061905Y-8000000D01*
X-17100000Y-8066666D01*
X-17138096Y-8100000D01*
X-17214286Y-8133333D01*
X-17252381Y-8133333D01*
X-17328572Y-8100000D01*
X-17366667Y-8066666D01*
X-17404762Y-8000000D01*
X-17404762Y-7866666D01*
X-17442858Y-7800000D01*
X-17480953Y-7766666D01*
X-17557143Y-7733333D01*
X-17709524Y-7733333D01*
X-17785715Y-7766666D01*
X-17823810Y-7800000D01*
X-17861905Y-7866666D01*
X-17861905Y-8000000D01*
X-17823810Y-8066666D01*
X-17785715Y-8100000D01*
X-17709524Y-8133333D01*
X-17557143Y-8133333D01*
X-17480953Y-8100000D01*
X-17442858Y-8066666D01*
X-17404762Y-8000000D01*
D12*
X-14200000Y-8800000D02*
X-16200000Y-8800000D01*
X-14200000Y9000000D02*
X-14200000Y-8800000D01*
X-16800000Y9000000D02*
X-14200000Y9000000D01*
X-16800000Y-8200000D02*
X-16800000Y9000000D01*
X-16200000Y-8800000D02*
X-16800000Y-8200000D01*
X14200000Y-8800000D02*
X16200000Y-8800000D01*
X14200000Y9000000D02*
X14200000Y-8800000D01*
X16800000Y9000000D02*
X14200000Y9000000D01*
X16800000Y-8200000D02*
X16800000Y9000000D01*
X16200000Y-8800000D02*
X16800000Y-8200000D01*
D11*
X17061904Y-8366666D02*
X17861904Y-8133333D01*
X17061904Y-7900000D01*
X17861904Y-7666666D02*
X17061904Y-7666666D01*
X17861904Y-7333333D02*
X17061904Y-7333333D01*
X17861904Y-6933333D01*
X17061904Y-6933333D01*
X17011904Y6833334D02*
X17659523Y6833334D01*
X17735714Y6866667D01*
X17773809Y6900000D01*
X17811904Y6966667D01*
X17811904Y7100000D01*
X17773809Y7166667D01*
X17735714Y7200000D01*
X17659523Y7233334D01*
X17011904Y7233334D01*
X17773809Y7533334D02*
X17811904Y7633334D01*
X17811904Y7800000D01*
X17773809Y7866667D01*
X17735714Y7900000D01*
X17659523Y7933334D01*
X17583333Y7933334D01*
X17507142Y7900000D01*
X17469047Y7866667D01*
X17430952Y7800000D01*
X17392857Y7666667D01*
X17354761Y7600000D01*
X17316666Y7566667D01*
X17240476Y7533334D01*
X17164285Y7533334D01*
X17088095Y7566667D01*
X17050000Y7600000D01*
X17011904Y7666667D01*
X17011904Y7833334D01*
X17050000Y7933334D01*
X17392857Y8466667D02*
X17430952Y8566667D01*
X17469047Y8600000D01*
X17545238Y8633334D01*
X17659523Y8633334D01*
X17735714Y8600000D01*
X17773809Y8566667D01*
X17811904Y8500000D01*
X17811904Y8233334D01*
X17011904Y8233334D01*
X17011904Y8466667D01*
X17050000Y8533334D01*
X17088095Y8566667D01*
X17164285Y8600000D01*
X17240476Y8600000D01*
X17316666Y8566667D01*
X17354761Y8533334D01*
X17392857Y8466667D01*
X17392857Y8233334D01*
X17507142Y8933334D02*
X17507142Y9466667D01*
X17811904Y9200000D02*
X17202380Y9200000D01*
X17011904Y3883334D02*
X17659523Y3883334D01*
X17735714Y3916667D01*
X17773809Y3950000D01*
X17811904Y4016667D01*
X17811904Y4150000D01*
X17773809Y4216667D01*
X17735714Y4250000D01*
X17659523Y4283334D01*
X17011904Y4283334D01*
X17773809Y4583334D02*
X17811904Y4683334D01*
X17811904Y4850000D01*
X17773809Y4916667D01*
X17735714Y4950000D01*
X17659523Y4983334D01*
X17583333Y4983334D01*
X17507142Y4950000D01*
X17469047Y4916667D01*
X17430952Y4850000D01*
X17392857Y4716667D01*
X17354761Y4650000D01*
X17316666Y4616667D01*
X17240476Y4583334D01*
X17164285Y4583334D01*
X17088095Y4616667D01*
X17050000Y4650000D01*
X17011904Y4716667D01*
X17011904Y4883334D01*
X17050000Y4983334D01*
X17392857Y5516667D02*
X17430952Y5616667D01*
X17469047Y5650000D01*
X17545238Y5683334D01*
X17659523Y5683334D01*
X17735714Y5650000D01*
X17773809Y5616667D01*
X17811904Y5550000D01*
X17811904Y5283334D01*
X17011904Y5283334D01*
X17011904Y5516667D01*
X17050000Y5583334D01*
X17088095Y5616667D01*
X17164285Y5650000D01*
X17240476Y5650000D01*
X17316666Y5616667D01*
X17354761Y5583334D01*
X17392857Y5516667D01*
X17392857Y5283334D01*
X17507142Y5983334D02*
X17507142Y6516667D01*
X17823809Y1666667D02*
X17861904Y1766667D01*
X17861904Y1933334D01*
X17823809Y2000000D01*
X17785714Y2033334D01*
X17709523Y2066667D01*
X17633333Y2066667D01*
X17557142Y2033334D01*
X17519047Y2000000D01*
X17480952Y1933334D01*
X17442857Y1800000D01*
X17404761Y1733334D01*
X17366666Y1700000D01*
X17290476Y1666667D01*
X17214285Y1666667D01*
X17138095Y1700000D01*
X17100000Y1733334D01*
X17061904Y1800000D01*
X17061904Y1966667D01*
X17100000Y2066667D01*
X17785714Y2766667D02*
X17823809Y2733334D01*
X17861904Y2633334D01*
X17861904Y2566667D01*
X17823809Y2466667D01*
X17747619Y2400000D01*
X17671428Y2366667D01*
X17519047Y2333334D01*
X17404761Y2333334D01*
X17252380Y2366667D01*
X17176190Y2400000D01*
X17100000Y2466667D01*
X17061904Y2566667D01*
X17061904Y2633334D01*
X17100000Y2733334D01*
X17138095Y2766667D01*
X17861904Y3400000D02*
X17861904Y3066667D01*
X17061904Y3066667D01*
X17823809Y-850000D02*
X17861904Y-750000D01*
X17861904Y-583333D01*
X17823809Y-516666D01*
X17785714Y-483333D01*
X17709523Y-450000D01*
X17633333Y-450000D01*
X17557142Y-483333D01*
X17519047Y-516666D01*
X17480952Y-583333D01*
X17442857Y-716666D01*
X17404761Y-783333D01*
X17366666Y-816666D01*
X17290476Y-850000D01*
X17214285Y-850000D01*
X17138095Y-816666D01*
X17100000Y-783333D01*
X17061904Y-716666D01*
X17061904Y-550000D01*
X17100000Y-450000D01*
X17861904Y-150000D02*
X17061904Y-150000D01*
X17061904Y16667D01*
X17100000Y116667D01*
X17176190Y183334D01*
X17252380Y216667D01*
X17404761Y250000D01*
X17519047Y250000D01*
X17671428Y216667D01*
X17747619Y183334D01*
X17823809Y116667D01*
X17861904Y16667D01*
X17861904Y-150000D01*
X17633333Y516667D02*
X17633333Y850000D01*
X17861904Y450000D02*
X17061904Y683334D01*
X17861904Y916667D01*
X17138095Y-3333333D02*
X17100000Y-3300000D01*
X17061904Y-3233333D01*
X17061904Y-3066666D01*
X17100000Y-3000000D01*
X17138095Y-2966666D01*
X17214285Y-2933333D01*
X17290476Y-2933333D01*
X17404761Y-2966666D01*
X17861904Y-3366666D01*
X17861904Y-2933333D01*
X17061904Y-2733333D02*
X17861904Y-2500000D01*
X17061904Y-2266666D01*
X17404761Y-1933333D02*
X17366666Y-2000000D01*
X17328571Y-2033333D01*
X17252380Y-2066666D01*
X17214285Y-2066666D01*
X17138095Y-2033333D01*
X17100000Y-2000000D01*
X17061904Y-1933333D01*
X17061904Y-1800000D01*
X17100000Y-1733333D01*
X17138095Y-1700000D01*
X17214285Y-1666666D01*
X17252380Y-1666666D01*
X17328571Y-1700000D01*
X17366666Y-1733333D01*
X17404761Y-1800000D01*
X17404761Y-1933333D01*
X17442857Y-2000000D01*
X17480952Y-2033333D01*
X17557142Y-2066666D01*
X17709523Y-2066666D01*
X17785714Y-2033333D01*
X17823809Y-2000000D01*
X17861904Y-1933333D01*
X17861904Y-1800000D01*
X17823809Y-1733333D01*
X17785714Y-1700000D01*
X17709523Y-1666666D01*
X17557142Y-1666666D01*
X17480952Y-1700000D01*
X17442857Y-1733333D01*
X17404761Y-1800000D01*
X17100000Y-5533333D02*
X17061904Y-5600000D01*
X17061904Y-5700000D01*
X17100000Y-5800000D01*
X17176190Y-5866666D01*
X17252380Y-5900000D01*
X17404761Y-5933333D01*
X17519047Y-5933333D01*
X17671428Y-5900000D01*
X17747619Y-5866666D01*
X17823809Y-5800000D01*
X17861904Y-5700000D01*
X17861904Y-5633333D01*
X17823809Y-5533333D01*
X17785714Y-5500000D01*
X17519047Y-5500000D01*
X17519047Y-5633333D01*
X17861904Y-5200000D02*
X17061904Y-5200000D01*
X17861904Y-4800000D01*
X17061904Y-4800000D01*
X17861904Y-4466666D02*
X17061904Y-4466666D01*
X17061904Y-4300000D01*
X17100000Y-4200000D01*
X17176190Y-4133333D01*
X17252380Y-4100000D01*
X17404761Y-4066666D01*
X17519047Y-4066666D01*
X17671428Y-4100000D01*
X17747619Y-4133333D01*
X17823809Y-4200000D01*
X17861904Y-4300000D01*
X17861904Y-4466666D01*
D13*
X14264285Y9842858D02*
X14478571Y9242858D01*
X14692857Y9842858D01*
X15207142Y10142858D02*
X15292857Y10142858D01*
X15378571Y10100000D01*
X15421428Y10057143D01*
X15464285Y9971429D01*
X15507142Y9800000D01*
X15507142Y9585715D01*
X15464285Y9414286D01*
X15421428Y9328572D01*
X15378571Y9285715D01*
X15292857Y9242858D01*
X15207142Y9242858D01*
X15121428Y9285715D01*
X15078571Y9328572D01*
X15035714Y9414286D01*
X14992857Y9585715D01*
X14992857Y9800000D01*
X15035714Y9971429D01*
X15078571Y10057143D01*
X15121428Y10100000D01*
X15207142Y10142858D01*
X15892857Y9328572D02*
X15935714Y9285715D01*
X15892857Y9242858D01*
X15850000Y9285715D01*
X15892857Y9328572D01*
X15892857Y9242858D01*
X16792857Y9242858D02*
X16278571Y9242858D01*
X16535714Y9242858D02*
X16535714Y10142858D01*
X16450000Y10014286D01*
X16364285Y9928572D01*
X16278571Y9885715D01*
D14*
X-961987Y12383334D02*
X-504844Y12383334D01*
X-820916Y11683334D02*
X-733416Y12383334D01*
X131465Y11683334D02*
X-93535Y12016667D01*
X-325678Y11683334D02*
X-238178Y12383334D01*
X66584Y12383334D01*
X138608Y12350000D01*
X172537Y12316667D01*
X202299Y12250000D01*
X189799Y12150000D01*
X143370Y12083334D01*
X101108Y12050000D01*
X20751Y12016667D01*
X-284011Y12016667D01*
X461227Y11883334D02*
X842180Y11883334D01*
X360037Y11683334D02*
X714203Y12383334D01*
X893370Y11683334D01*
X1625513Y11750000D02*
X1583251Y11716667D01*
X1464799Y11683334D01*
X1388608Y11683334D01*
X1278489Y11716667D01*
X1210632Y11783334D01*
X1180870Y11850000D01*
X1159441Y11983334D01*
X1171941Y12083334D01*
X1226703Y12216667D01*
X1273132Y12283334D01*
X1357656Y12350000D01*
X1476108Y12383334D01*
X1552299Y12383334D01*
X1662418Y12350000D01*
X1696346Y12316667D01*
X1960037Y11683334D02*
X2047537Y12383334D01*
X2417180Y11683334D02*
X2124322Y12083334D01*
X2504680Y12383334D02*
X1997537Y11983334D01*
X2805870Y12050000D02*
X3072537Y12050000D01*
X3140989Y11683334D02*
X2760037Y11683334D01*
X2847537Y12383334D01*
X3228489Y12383334D01*
X3940989Y11683334D02*
X3715989Y12016667D01*
X3483846Y11683334D02*
X3571346Y12383334D01*
X3876108Y12383334D01*
X3948132Y12350000D01*
X3982061Y12316667D01*
X4011822Y12250000D01*
X3999322Y12150000D01*
X3952894Y12083334D01*
X3910632Y12050000D01*
X3830275Y12016667D01*
X3525513Y12016667D01*
X4939203Y12050000D02*
X5205870Y12050000D01*
X5274322Y11683334D02*
X4893370Y11683334D01*
X4980870Y12383334D01*
X5361822Y12383334D01*
X5617180Y11683334D02*
X5704680Y12383334D01*
X5895156Y12383334D01*
X6005275Y12350000D01*
X6073132Y12283334D01*
X6102894Y12216667D01*
X6124322Y12083334D01*
X6111822Y11983334D01*
X6057061Y11850000D01*
X6010632Y11783334D01*
X5926108Y11716667D01*
X5807656Y11683334D01*
X5617180Y11683334D01*
X6417180Y11683334D02*
X6504680Y12383334D01*
X6771346Y12383334D02*
X7228489Y12383334D01*
X6912418Y11683334D02*
X6999918Y12383334D01*
X7407656Y11683334D02*
X7495156Y12383334D01*
X8028489Y12383334D02*
X8180870Y12383334D01*
X8252894Y12350000D01*
X8320751Y12283334D01*
X8342180Y12150000D01*
X8313013Y11916667D01*
X8258251Y11783334D01*
X8173727Y11716667D01*
X8093370Y11683334D01*
X7940989Y11683334D01*
X7868965Y11716667D01*
X7801108Y11783334D01*
X7779680Y11916667D01*
X7808846Y12150000D01*
X7863608Y12283334D01*
X7948132Y12350000D01*
X8028489Y12383334D01*
X8626703Y11683334D02*
X8714203Y12383334D01*
X9083846Y11683334D01*
X9171346Y12383334D01*
D15*
X-3135000Y-11140000D02*
X-3610000Y-11140000D01*
X3610000Y-18360000D02*
X3610000Y-17885000D01*
X3135000Y-18360000D02*
X3610000Y-18360000D01*
X-3610000Y-18360000D02*
X-3610000Y-17885000D01*
X-3135000Y-18360000D02*
X-3610000Y-18360000D01*
X3610000Y-11140000D02*
X3610000Y-11615000D01*
X3135000Y-11140000D02*
X3610000Y-11140000D01*
D16*
G36*
X-7477452Y11992419D02*
G01*
X-7418640Y11965022D01*
X-7365359Y11913242D01*
X-7360435Y11906809D01*
X-7340290Y11861957D01*
X-7333234Y11806012D01*
X-7339268Y11749650D01*
X-7358392Y11703547D01*
X-7360435Y11700692D01*
X-7411777Y11649563D01*
X-7472153Y11618538D01*
X-7536680Y11609550D01*
X-7575550Y11615591D01*
X-7632894Y11643737D01*
X-7676838Y11690378D01*
X-7703888Y11750621D01*
X-7711017Y11805356D01*
X-7699871Y11872972D01*
X-7666614Y11928144D01*
X-7611516Y11970435D01*
X-7607010Y11972818D01*
X-7540630Y11995122D01*
X-7477452Y11992419D01*
G37*
X-7477452Y11992419D02*
X-7418640Y11965022D01*
X-7365359Y11913242D01*
X-7360435Y11906809D01*
X-7340290Y11861957D01*
X-7333234Y11806012D01*
X-7339268Y11749650D01*
X-7358392Y11703547D01*
X-7360435Y11700692D01*
X-7411777Y11649563D01*
X-7472153Y11618538D01*
X-7536680Y11609550D01*
X-7575550Y11615591D01*
X-7632894Y11643737D01*
X-7676838Y11690378D01*
X-7703888Y11750621D01*
X-7711017Y11805356D01*
X-7699871Y11872972D01*
X-7666614Y11928144D01*
X-7611516Y11970435D01*
X-7607010Y11972818D01*
X-7540630Y11995122D01*
X-7477452Y11992419D01*
G36*
X-6296885Y12530085D02*
G01*
X-6240867Y12513736D01*
X-6236019Y12511203D01*
X-6175046Y12464171D01*
X-6132808Y12403268D01*
X-6110833Y12333303D01*
X-6110647Y12259086D01*
X-6133072Y12186875D01*
X-6174852Y12127581D01*
X-6231921Y12084415D01*
X-6298734Y12059371D01*
X-6369745Y12054443D01*
X-6439409Y12071623D01*
X-6445776Y12074487D01*
X-6508997Y12117545D01*
X-6556359Y12177451D01*
X-6584587Y12248989D01*
X-6591230Y12306082D01*
X-6582448Y12349870D01*
X-6559436Y12400871D01*
X-6527438Y12449992D01*
X-6491698Y12488139D01*
X-6482061Y12495395D01*
X-6427415Y12520276D01*
X-6362379Y12532052D01*
X-6296885Y12530085D01*
G37*
X-6296885Y12530085D02*
X-6240867Y12513736D01*
X-6236019Y12511203D01*
X-6175046Y12464171D01*
X-6132808Y12403268D01*
X-6110833Y12333303D01*
X-6110647Y12259086D01*
X-6133072Y12186875D01*
X-6174852Y12127581D01*
X-6231921Y12084415D01*
X-6298734Y12059371D01*
X-6369745Y12054443D01*
X-6439409Y12071623D01*
X-6445776Y12074487D01*
X-6508997Y12117545D01*
X-6556359Y12177451D01*
X-6584587Y12248989D01*
X-6591230Y12306082D01*
X-6582448Y12349870D01*
X-6559436Y12400871D01*
X-6527438Y12449992D01*
X-6491698Y12488139D01*
X-6482061Y12495395D01*
X-6427415Y12520276D01*
X-6362379Y12532052D01*
X-6296885Y12530085D01*
G36*
X-8632167Y12432487D02*
G01*
X-8627412Y12430353D01*
X-8587587Y12399149D01*
X-8564370Y12355655D01*
X-8558740Y12306940D01*
X-8571676Y12260074D01*
X-8599132Y12226025D01*
X-8640675Y12206647D01*
X-8689791Y12204585D01*
X-8736039Y12219246D01*
X-8757228Y12234973D01*
X-8783713Y12275974D01*
X-8790138Y12320655D01*
X-8779668Y12364252D01*
X-8755469Y12401999D01*
X-8720709Y12429131D01*
X-8678553Y12440882D01*
X-8632167Y12432487D01*
G37*
X-8632167Y12432487D02*
X-8627412Y12430353D01*
X-8587587Y12399149D01*
X-8564370Y12355655D01*
X-8558740Y12306940D01*
X-8571676Y12260074D01*
X-8599132Y12226025D01*
X-8640675Y12206647D01*
X-8689791Y12204585D01*
X-8736039Y12219246D01*
X-8757228Y12234973D01*
X-8783713Y12275974D01*
X-8790138Y12320655D01*
X-8779668Y12364252D01*
X-8755469Y12401999D01*
X-8720709Y12429131D01*
X-8678553Y12440882D01*
X-8632167Y12432487D01*
G36*
X-7453552Y14403929D02*
G01*
X-7319057Y14383077D01*
X-7189079Y14342942D01*
X-7065911Y14284254D01*
X-6951846Y14207741D01*
X-6849179Y14114134D01*
X-6760202Y14004160D01*
X-6687210Y13878550D01*
X-6632494Y13738033D01*
X-6627457Y13720878D01*
X-6609244Y13632189D01*
X-6599573Y13530416D01*
X-6598559Y13424924D01*
X-6606318Y13325077D01*
X-6621588Y13245200D01*
X-6672137Y13104997D01*
X-6744569Y12972327D01*
X-6835703Y12852181D01*
X-6931404Y12758619D01*
X-7001153Y12708285D01*
X-7086966Y12659007D01*
X-7179736Y12615235D01*
X-7270353Y12581417D01*
X-7324058Y12566822D01*
X-7411337Y12553692D01*
X-7510371Y12548526D01*
X-7609991Y12551361D01*
X-7699031Y12562234D01*
X-7715250Y12565523D01*
X-7858124Y12609632D01*
X-7992245Y12675944D01*
X-8114408Y12762137D01*
X-8221405Y12865891D01*
X-8310030Y12984884D01*
X-8322000Y13004685D01*
X-8379483Y13125528D01*
X-8419778Y13259629D01*
X-8441891Y13400680D01*
X-8444829Y13542370D01*
X-8427890Y13677000D01*
X-8391223Y13798905D01*
X-8333909Y13920753D01*
X-8259881Y14036087D01*
X-8173070Y14138445D01*
X-8113516Y14193420D01*
X-7990836Y14279921D01*
X-7861207Y14343494D01*
X-7726921Y14384866D01*
X-7590271Y14404768D01*
X-7453552Y14403929D01*
G37*
X-7453552Y14403929D02*
X-7319057Y14383077D01*
X-7189079Y14342942D01*
X-7065911Y14284254D01*
X-6951846Y14207741D01*
X-6849179Y14114134D01*
X-6760202Y14004160D01*
X-6687210Y13878550D01*
X-6632494Y13738033D01*
X-6627457Y13720878D01*
X-6609244Y13632189D01*
X-6599573Y13530416D01*
X-6598559Y13424924D01*
X-6606318Y13325077D01*
X-6621588Y13245200D01*
X-6672137Y13104997D01*
X-6744569Y12972327D01*
X-6835703Y12852181D01*
X-6931404Y12758619D01*
X-7001153Y12708285D01*
X-7086966Y12659007D01*
X-7179736Y12615235D01*
X-7270353Y12581417D01*
X-7324058Y12566822D01*
X-7411337Y12553692D01*
X-7510371Y12548526D01*
X-7609991Y12551361D01*
X-7699031Y12562234D01*
X-7715250Y12565523D01*
X-7858124Y12609632D01*
X-7992245Y12675944D01*
X-8114408Y12762137D01*
X-8221405Y12865891D01*
X-8310030Y12984884D01*
X-8322000Y13004685D01*
X-8379483Y13125528D01*
X-8419778Y13259629D01*
X-8441891Y13400680D01*
X-8444829Y13542370D01*
X-8427890Y13677000D01*
X-8391223Y13798905D01*
X-8333909Y13920753D01*
X-8259881Y14036087D01*
X-8173070Y14138445D01*
X-8113516Y14193420D01*
X-7990836Y14279921D01*
X-7861207Y14343494D01*
X-7726921Y14384866D01*
X-7590271Y14404768D01*
X-7453552Y14403929D01*
G36*
X-3474984Y14234658D02*
G01*
X-3355009Y14204884D01*
X-3241919Y14156514D01*
X-3139314Y14091237D01*
X-3050792Y14010745D01*
X-2979952Y13916728D01*
X-2955560Y13872023D01*
X-2940029Y13837374D01*
X-2934310Y13812536D01*
X-2941174Y13795886D01*
X-2963393Y13785796D01*
X-3003738Y13780641D01*
X-3064980Y13778796D01*
X-3114808Y13778600D01*
X-3284012Y13778600D01*
X-3340631Y13837286D01*
X-3408757Y13895845D01*
X-3480238Y13931540D01*
X-3560660Y13946804D01*
X-3594100Y13947759D01*
X-3684505Y13936723D01*
X-3763443Y13904038D01*
X-3834251Y13848177D01*
X-3851415Y13830032D01*
X-3902452Y13761321D01*
X-3933764Y13688212D01*
X-3947303Y13604656D01*
X-3947071Y13533356D01*
X-3933376Y13435546D01*
X-3902787Y13353794D01*
X-3853291Y13283573D01*
X-3822285Y13252686D01*
X-3763666Y13207338D01*
X-3704538Y13179899D01*
X-3636049Y13167087D01*
X-3585856Y13165052D01*
X-3493725Y13174908D01*
X-3412381Y13203954D01*
X-3345610Y13250499D01*
X-3313776Y13286592D01*
X-3288843Y13322586D01*
X-3275817Y13348525D01*
X-3277021Y13366053D01*
X-3294777Y13376811D01*
X-3331410Y13382442D01*
X-3389243Y13384589D01*
X-3452845Y13384900D01*
X-3530428Y13385278D01*
X-3586208Y13387887D01*
X-3623782Y13394945D01*
X-3646746Y13408667D01*
X-3658697Y13431270D01*
X-3663233Y13464970D01*
X-3663950Y13511983D01*
X-3663950Y13514975D01*
X-3663818Y13553296D01*
X-3661665Y13583689D01*
X-3654854Y13607073D01*
X-3640749Y13624365D01*
X-3616714Y13636483D01*
X-3580113Y13644345D01*
X-3528310Y13648870D01*
X-3458669Y13650976D01*
X-3368553Y13651581D01*
X-3271669Y13651600D01*
X-3162188Y13651557D01*
X-3075458Y13650880D01*
X-3008831Y13648747D01*
X-2959659Y13644334D01*
X-2925294Y13636821D01*
X-2903088Y13625384D01*
X-2890392Y13609202D01*
X-2884559Y13587452D01*
X-2882940Y13559313D01*
X-2882900Y13530886D01*
X-2893904Y13428022D01*
X-2924856Y13321147D01*
X-2972669Y13216951D01*
X-3034254Y13122122D01*
X-3106523Y13043350D01*
X-3109006Y13041143D01*
X-3178702Y12989252D01*
X-3262758Y12941423D01*
X-3350208Y12903648D01*
X-3377109Y12894665D01*
X-3433917Y12882416D01*
X-3506236Y12874116D01*
X-3584414Y12870247D01*
X-3658797Y12871292D01*
X-3718794Y12877565D01*
X-3840393Y12911589D01*
X-3951863Y12966796D01*
X-4051079Y13040449D01*
X-4135916Y13129810D01*
X-4204248Y13232143D01*
X-4253950Y13344711D01*
X-4282898Y13464777D01*
X-4288967Y13589603D01*
X-4287642Y13610218D01*
X-4265183Y13740851D01*
X-4220685Y13860429D01*
X-4155746Y13967201D01*
X-4071963Y14059416D01*
X-3970931Y14135321D01*
X-3854249Y14193164D01*
X-3723512Y14231193D01*
X-3721199Y14231654D01*
X-3598247Y14244145D01*
X-3474984Y14234658D01*
G37*
X-3474984Y14234658D02*
X-3355009Y14204884D01*
X-3241919Y14156514D01*
X-3139314Y14091237D01*
X-3050792Y14010745D01*
X-2979952Y13916728D01*
X-2955560Y13872023D01*
X-2940029Y13837374D01*
X-2934310Y13812536D01*
X-2941174Y13795886D01*
X-2963393Y13785796D01*
X-3003738Y13780641D01*
X-3064980Y13778796D01*
X-3114808Y13778600D01*
X-3284012Y13778600D01*
X-3340631Y13837286D01*
X-3408757Y13895845D01*
X-3480238Y13931540D01*
X-3560660Y13946804D01*
X-3594100Y13947759D01*
X-3684505Y13936723D01*
X-3763443Y13904038D01*
X-3834251Y13848177D01*
X-3851415Y13830032D01*
X-3902452Y13761321D01*
X-3933764Y13688212D01*
X-3947303Y13604656D01*
X-3947071Y13533356D01*
X-3933376Y13435546D01*
X-3902787Y13353794D01*
X-3853291Y13283573D01*
X-3822285Y13252686D01*
X-3763666Y13207338D01*
X-3704538Y13179899D01*
X-3636049Y13167087D01*
X-3585856Y13165052D01*
X-3493725Y13174908D01*
X-3412381Y13203954D01*
X-3345610Y13250499D01*
X-3313776Y13286592D01*
X-3288843Y13322586D01*
X-3275817Y13348525D01*
X-3277021Y13366053D01*
X-3294777Y13376811D01*
X-3331410Y13382442D01*
X-3389243Y13384589D01*
X-3452845Y13384900D01*
X-3530428Y13385278D01*
X-3586208Y13387887D01*
X-3623782Y13394945D01*
X-3646746Y13408667D01*
X-3658697Y13431270D01*
X-3663233Y13464970D01*
X-3663950Y13511983D01*
X-3663950Y13514975D01*
X-3663818Y13553296D01*
X-3661665Y13583689D01*
X-3654854Y13607073D01*
X-3640749Y13624365D01*
X-3616714Y13636483D01*
X-3580113Y13644345D01*
X-3528310Y13648870D01*
X-3458669Y13650976D01*
X-3368553Y13651581D01*
X-3271669Y13651600D01*
X-3162188Y13651557D01*
X-3075458Y13650880D01*
X-3008831Y13648747D01*
X-2959659Y13644334D01*
X-2925294Y13636821D01*
X-2903088Y13625384D01*
X-2890392Y13609202D01*
X-2884559Y13587452D01*
X-2882940Y13559313D01*
X-2882900Y13530886D01*
X-2893904Y13428022D01*
X-2924856Y13321147D01*
X-2972669Y13216951D01*
X-3034254Y13122122D01*
X-3106523Y13043350D01*
X-3109006Y13041143D01*
X-3178702Y12989252D01*
X-3262758Y12941423D01*
X-3350208Y12903648D01*
X-3377109Y12894665D01*
X-3433917Y12882416D01*
X-3506236Y12874116D01*
X-3584414Y12870247D01*
X-3658797Y12871292D01*
X-3718794Y12877565D01*
X-3840393Y12911589D01*
X-3951863Y12966796D01*
X-4051079Y13040449D01*
X-4135916Y13129810D01*
X-4204248Y13232143D01*
X-4253950Y13344711D01*
X-4282898Y13464777D01*
X-4288967Y13589603D01*
X-4287642Y13610218D01*
X-4265183Y13740851D01*
X-4220685Y13860429D01*
X-4155746Y13967201D01*
X-4071963Y14059416D01*
X-3970931Y14135321D01*
X-3854249Y14193164D01*
X-3723512Y14231193D01*
X-3721199Y14231654D01*
X-3598247Y14244145D01*
X-3474984Y14234658D01*
G36*
X3011261Y14243207D02*
G01*
X3147654Y14221421D01*
X3270004Y14178613D01*
X3379289Y14114245D01*
X3476482Y14027780D01*
X3538625Y13952763D01*
X3573280Y13899779D01*
X3600836Y13846306D01*
X3619554Y13797232D01*
X3627694Y13757443D01*
X3623518Y13731827D01*
X3618906Y13727165D01*
X3599299Y13722457D01*
X3560247Y13718621D01*
X3507704Y13716092D01*
X3456614Y13715295D01*
X3394172Y13715468D01*
X3351897Y13716860D01*
X3324559Y13720482D01*
X3306924Y13727342D01*
X3293761Y13738452D01*
X3285164Y13748383D01*
X3222819Y13820278D01*
X3169515Y13873160D01*
X3121028Y13909675D01*
X3073136Y13932472D01*
X3021615Y13944200D01*
X2967657Y13947486D01*
X2877382Y13936367D01*
X2796241Y13903386D01*
X2726743Y13851200D01*
X2671398Y13782471D01*
X2632717Y13699855D01*
X2613209Y13606012D01*
X2611364Y13570076D01*
X2619576Y13468858D01*
X2647583Y13381214D01*
X2696776Y13303215D01*
X2712205Y13285143D01*
X2777201Y13225211D01*
X2846275Y13187993D01*
X2925211Y13170861D01*
X2967651Y13169000D01*
X3032119Y13173186D01*
X3087876Y13187571D01*
X3139467Y13214902D01*
X3191441Y13257922D01*
X3248342Y13319377D01*
X3279650Y13357362D01*
X3290673Y13368901D01*
X3305001Y13376680D01*
X3327419Y13381434D01*
X3362711Y13383897D01*
X3415661Y13384801D01*
X3459266Y13384900D01*
X3533044Y13384308D01*
X3583841Y13380802D01*
X3614074Y13371786D01*
X3626160Y13354666D01*
X3622516Y13326848D01*
X3605560Y13285736D01*
X3587078Y13247688D01*
X3519663Y13139249D01*
X3433348Y13046321D01*
X3330714Y12970863D01*
X3214342Y12914833D01*
X3107952Y12884233D01*
X3031259Y12870936D01*
X2965805Y12866565D01*
X2899165Y12870825D01*
X2849202Y12878104D01*
X2726355Y12910977D01*
X2612060Y12965720D01*
X2509460Y13039709D01*
X2421696Y13130321D01*
X2351909Y13234932D01*
X2310848Y13327750D01*
X2289850Y13409956D01*
X2278079Y13504473D01*
X2276010Y13601203D01*
X2284118Y13690052D01*
X2291990Y13727800D01*
X2335799Y13847808D01*
X2399917Y13955740D01*
X2481562Y14049604D01*
X2577955Y14127409D01*
X2686315Y14187162D01*
X2803862Y14226870D01*
X2927815Y14244542D01*
X3011261Y14243207D01*
G37*
X3011261Y14243207D02*
X3147654Y14221421D01*
X3270004Y14178613D01*
X3379289Y14114245D01*
X3476482Y14027780D01*
X3538625Y13952763D01*
X3573280Y13899779D01*
X3600836Y13846306D01*
X3619554Y13797232D01*
X3627694Y13757443D01*
X3623518Y13731827D01*
X3618906Y13727165D01*
X3599299Y13722457D01*
X3560247Y13718621D01*
X3507704Y13716092D01*
X3456614Y13715295D01*
X3394172Y13715468D01*
X3351897Y13716860D01*
X3324559Y13720482D01*
X3306924Y13727342D01*
X3293761Y13738452D01*
X3285164Y13748383D01*
X3222819Y13820278D01*
X3169515Y13873160D01*
X3121028Y13909675D01*
X3073136Y13932472D01*
X3021615Y13944200D01*
X2967657Y13947486D01*
X2877382Y13936367D01*
X2796241Y13903386D01*
X2726743Y13851200D01*
X2671398Y13782471D01*
X2632717Y13699855D01*
X2613209Y13606012D01*
X2611364Y13570076D01*
X2619576Y13468858D01*
X2647583Y13381214D01*
X2696776Y13303215D01*
X2712205Y13285143D01*
X2777201Y13225211D01*
X2846275Y13187993D01*
X2925211Y13170861D01*
X2967651Y13169000D01*
X3032119Y13173186D01*
X3087876Y13187571D01*
X3139467Y13214902D01*
X3191441Y13257922D01*
X3248342Y13319377D01*
X3279650Y13357362D01*
X3290673Y13368901D01*
X3305001Y13376680D01*
X3327419Y13381434D01*
X3362711Y13383897D01*
X3415661Y13384801D01*
X3459266Y13384900D01*
X3533044Y13384308D01*
X3583841Y13380802D01*
X3614074Y13371786D01*
X3626160Y13354666D01*
X3622516Y13326848D01*
X3605560Y13285736D01*
X3587078Y13247688D01*
X3519663Y13139249D01*
X3433348Y13046321D01*
X3330714Y12970863D01*
X3214342Y12914833D01*
X3107952Y12884233D01*
X3031259Y12870936D01*
X2965805Y12866565D01*
X2899165Y12870825D01*
X2849202Y12878104D01*
X2726355Y12910977D01*
X2612060Y12965720D01*
X2509460Y13039709D01*
X2421696Y13130321D01*
X2351909Y13234932D01*
X2310848Y13327750D01*
X2289850Y13409956D01*
X2278079Y13504473D01*
X2276010Y13601203D01*
X2284118Y13690052D01*
X2291990Y13727800D01*
X2335799Y13847808D01*
X2399917Y13955740D01*
X2481562Y14049604D01*
X2577955Y14127409D01*
X2686315Y14187162D01*
X2803862Y14226870D01*
X2927815Y14244542D01*
X3011261Y14243207D01*
G36*
X6514733Y14230907D02*
G01*
X6515100Y14230830D01*
X6643246Y14191984D01*
X6756987Y14133938D01*
X6855134Y14059102D01*
X6936502Y13969883D01*
X6999902Y13868688D01*
X7044148Y13757926D01*
X7068052Y13640005D01*
X7070428Y13517331D01*
X7050089Y13392314D01*
X7005847Y13267361D01*
X6998164Y13251012D01*
X6931845Y13142016D01*
X6847658Y13049102D01*
X6748548Y12973788D01*
X6637456Y12917594D01*
X6517325Y12882039D01*
X6391099Y12868641D01*
X6273424Y12876984D01*
X6141779Y12908939D01*
X6023037Y12960438D01*
X5918922Y13029572D01*
X5831158Y13114433D01*
X5761470Y13213115D01*
X5711580Y13323709D01*
X5683214Y13444308D01*
X5677087Y13536794D01*
X5678908Y13557403D01*
X6013805Y13557403D01*
X6013807Y13556618D01*
X6015893Y13495845D01*
X6023045Y13449495D01*
X6037360Y13406762D01*
X6047138Y13384900D01*
X6097063Y13303229D01*
X6160606Y13237858D01*
X6233812Y13192606D01*
X6254750Y13184324D01*
X6303075Y13174263D01*
X6365049Y13170540D01*
X6429726Y13173154D01*
X6486159Y13182102D01*
X6494576Y13184379D01*
X6546250Y13209496D01*
X6600323Y13252078D01*
X6650589Y13305689D01*
X6690842Y13363896D01*
X6711672Y13409465D01*
X6732635Y13506198D01*
X6732434Y13600593D01*
X6712976Y13689603D01*
X6676165Y13770177D01*
X6623907Y13839265D01*
X6558107Y13893819D01*
X6480671Y13930788D01*
X6393504Y13947123D01*
X6375400Y13947645D01*
X6280294Y13936954D01*
X6197852Y13904246D01*
X6128069Y13849518D01*
X6070939Y13772766D01*
X6055168Y13743226D01*
X6033181Y13695286D01*
X6020616Y13655817D01*
X6014986Y13613597D01*
X6013805Y13557403D01*
X5678908Y13557403D01*
X5688868Y13670110D01*
X5722267Y13793880D01*
X5775175Y13906359D01*
X5845484Y14005800D01*
X5931088Y14090459D01*
X6029877Y14158589D01*
X6139744Y14208445D01*
X6258581Y14238280D01*
X6384280Y14246350D01*
X6514733Y14230907D01*
G37*
X6514733Y14230907D02*
X6515100Y14230830D01*
X6643246Y14191984D01*
X6756987Y14133938D01*
X6855134Y14059102D01*
X6936502Y13969883D01*
X6999902Y13868688D01*
X7044148Y13757926D01*
X7068052Y13640005D01*
X7070428Y13517331D01*
X7050089Y13392314D01*
X7005847Y13267361D01*
X6998164Y13251012D01*
X6931845Y13142016D01*
X6847658Y13049102D01*
X6748548Y12973788D01*
X6637456Y12917594D01*
X6517325Y12882039D01*
X6391099Y12868641D01*
X6273424Y12876984D01*
X6141779Y12908939D01*
X6023037Y12960438D01*
X5918922Y13029572D01*
X5831158Y13114433D01*
X5761470Y13213115D01*
X5711580Y13323709D01*
X5683214Y13444308D01*
X5677087Y13536794D01*
X5678908Y13557403D01*
X6013805Y13557403D01*
X6013807Y13556618D01*
X6015893Y13495845D01*
X6023045Y13449495D01*
X6037360Y13406762D01*
X6047138Y13384900D01*
X6097063Y13303229D01*
X6160606Y13237858D01*
X6233812Y13192606D01*
X6254750Y13184324D01*
X6303075Y13174263D01*
X6365049Y13170540D01*
X6429726Y13173154D01*
X6486159Y13182102D01*
X6494576Y13184379D01*
X6546250Y13209496D01*
X6600323Y13252078D01*
X6650589Y13305689D01*
X6690842Y13363896D01*
X6711672Y13409465D01*
X6732635Y13506198D01*
X6732434Y13600593D01*
X6712976Y13689603D01*
X6676165Y13770177D01*
X6623907Y13839265D01*
X6558107Y13893819D01*
X6480671Y13930788D01*
X6393504Y13947123D01*
X6375400Y13947645D01*
X6280294Y13936954D01*
X6197852Y13904246D01*
X6128069Y13849518D01*
X6070939Y13772766D01*
X6055168Y13743226D01*
X6033181Y13695286D01*
X6020616Y13655817D01*
X6014986Y13613597D01*
X6013805Y13557403D01*
X5678908Y13557403D01*
X5688868Y13670110D01*
X5722267Y13793880D01*
X5775175Y13906359D01*
X5845484Y14005800D01*
X5931088Y14090459D01*
X6029877Y14158589D01*
X6139744Y14208445D01*
X6258581Y14238280D01*
X6384280Y14246350D01*
X6514733Y14230907D01*
G36*
X-2225920Y14222830D02*
G01*
X-2145700Y14221918D01*
X-2085209Y14220215D01*
X-2041616Y14217573D01*
X-2012086Y14213841D01*
X-1993787Y14208871D01*
X-1986803Y14205074D01*
X-1974446Y14192464D01*
X-1966991Y14172948D01*
X-1963282Y14140668D01*
X-1962166Y14089767D01*
X-1962150Y14080026D01*
X-1962442Y14026593D01*
X-1965644Y13987748D01*
X-1975245Y13961166D01*
X-1994736Y13944524D01*
X-2027608Y13935497D01*
X-2077348Y13931763D01*
X-2147449Y13930996D01*
X-2185956Y13931000D01*
X-2374900Y13931000D01*
X-2374900Y13715100D01*
X-2199528Y13715100D01*
X-2119125Y13714761D01*
X-2060635Y13712260D01*
X-2020573Y13705380D01*
X-1995451Y13691900D01*
X-1981783Y13669598D01*
X-1976083Y13636256D01*
X-1974864Y13589653D01*
X-1974850Y13572026D01*
X-1975185Y13517986D01*
X-1978548Y13478894D01*
X-1988476Y13452331D01*
X-2008506Y13435879D01*
X-2042177Y13427118D01*
X-2093025Y13423630D01*
X-2164589Y13422996D01*
X-2192782Y13423000D01*
X-2375854Y13423000D01*
X-2368550Y13188050D01*
X-2178396Y13181700D01*
X-2105242Y13179121D01*
X-2053363Y13176565D01*
X-2018645Y13173271D01*
X-1996976Y13168480D01*
X-1984243Y13161431D01*
X-1976331Y13151365D01*
X-1972209Y13143600D01*
X-1963560Y13113914D01*
X-1957663Y13069713D01*
X-1955988Y13031898D01*
X-1957417Y12984724D01*
X-1963586Y12954204D01*
X-1976901Y12931700D01*
X-1986973Y12920773D01*
X-2018146Y12889600D01*
X-2327047Y12889600D01*
X-2426639Y12889829D01*
X-2503936Y12890636D01*
X-2562045Y12892203D01*
X-2604067Y12894712D01*
X-2633108Y12898346D01*
X-2652270Y12903285D01*
X-2664175Y12909371D01*
X-2692400Y12929141D01*
X-2692400Y13555102D01*
X-2692357Y13697643D01*
X-2692176Y13816936D01*
X-2691779Y13915136D01*
X-2691090Y13994395D01*
X-2690031Y14056866D01*
X-2688525Y14104703D01*
X-2686494Y14140058D01*
X-2683861Y14165084D01*
X-2680550Y14181935D01*
X-2676482Y14192764D01*
X-2671580Y14199723D01*
X-2669175Y14202082D01*
X-2659261Y14208668D01*
X-2643828Y14213740D01*
X-2619792Y14217490D01*
X-2584068Y14220107D01*
X-2533570Y14221783D01*
X-2465215Y14222707D01*
X-2375917Y14223069D01*
X-2328703Y14223100D01*
X-2225920Y14222830D01*
G37*
X-2225920Y14222830D02*
X-2145700Y14221918D01*
X-2085209Y14220215D01*
X-2041616Y14217573D01*
X-2012086Y14213841D01*
X-1993787Y14208871D01*
X-1986803Y14205074D01*
X-1974446Y14192464D01*
X-1966991Y14172948D01*
X-1963282Y14140668D01*
X-1962166Y14089767D01*
X-1962150Y14080026D01*
X-1962442Y14026593D01*
X-1965644Y13987748D01*
X-1975245Y13961166D01*
X-1994736Y13944524D01*
X-2027608Y13935497D01*
X-2077348Y13931763D01*
X-2147449Y13930996D01*
X-2185956Y13931000D01*
X-2374900Y13931000D01*
X-2374900Y13715100D01*
X-2199528Y13715100D01*
X-2119125Y13714761D01*
X-2060635Y13712260D01*
X-2020573Y13705380D01*
X-1995451Y13691900D01*
X-1981783Y13669598D01*
X-1976083Y13636256D01*
X-1974864Y13589653D01*
X-1974850Y13572026D01*
X-1975185Y13517986D01*
X-1978548Y13478894D01*
X-1988476Y13452331D01*
X-2008506Y13435879D01*
X-2042177Y13427118D01*
X-2093025Y13423630D01*
X-2164589Y13422996D01*
X-2192782Y13423000D01*
X-2375854Y13423000D01*
X-2368550Y13188050D01*
X-2178396Y13181700D01*
X-2105242Y13179121D01*
X-2053363Y13176565D01*
X-2018645Y13173271D01*
X-1996976Y13168480D01*
X-1984243Y13161431D01*
X-1976331Y13151365D01*
X-1972209Y13143600D01*
X-1963560Y13113914D01*
X-1957663Y13069713D01*
X-1955988Y13031898D01*
X-1957417Y12984724D01*
X-1963586Y12954204D01*
X-1976901Y12931700D01*
X-1986973Y12920773D01*
X-2018146Y12889600D01*
X-2327047Y12889600D01*
X-2426639Y12889829D01*
X-2503936Y12890636D01*
X-2562045Y12892203D01*
X-2604067Y12894712D01*
X-2633108Y12898346D01*
X-2652270Y12903285D01*
X-2664175Y12909371D01*
X-2692400Y12929141D01*
X-2692400Y13555102D01*
X-2692357Y13697643D01*
X-2692176Y13816936D01*
X-2691779Y13915136D01*
X-2691090Y13994395D01*
X-2690031Y14056866D01*
X-2688525Y14104703D01*
X-2686494Y14140058D01*
X-2683861Y14165084D01*
X-2680550Y14181935D01*
X-2676482Y14192764D01*
X-2671580Y14199723D01*
X-2669175Y14202082D01*
X-2659261Y14208668D01*
X-2643828Y14213740D01*
X-2619792Y14217490D01*
X-2584068Y14220107D01*
X-2533570Y14221783D01*
X-2465215Y14222707D01*
X-2375917Y14223069D01*
X-2328703Y14223100D01*
X-2225920Y14222830D01*
G36*
X-825895Y14223371D02*
G01*
X-788148Y14222906D01*
X-736985Y14221782D01*
X-695119Y14218956D01*
X-669400Y14214960D01*
X-665477Y14213381D01*
X-655700Y14205637D01*
X-647517Y14195144D01*
X-640787Y14179738D01*
X-635368Y14157253D01*
X-631119Y14125525D01*
X-627900Y14082388D01*
X-625570Y14025679D01*
X-623987Y13953232D01*
X-623011Y13862882D01*
X-622501Y13752464D01*
X-622316Y13619814D01*
X-622300Y13550258D01*
X-622300Y12951946D01*
X-653473Y12920773D01*
X-671468Y12905254D01*
X-691715Y12895928D01*
X-720996Y12891256D01*
X-766095Y12889697D01*
X-790746Y12889600D01*
X-851225Y12891647D01*
X-895381Y12897397D01*
X-917609Y12905475D01*
X-929089Y12919709D01*
X-952244Y12952911D01*
X-985358Y13002461D01*
X-1026717Y13065745D01*
X-1074607Y13140142D01*
X-1127313Y13223037D01*
X-1169247Y13289650D01*
X-1224482Y13377649D01*
X-1276055Y13459598D01*
X-1322261Y13532802D01*
X-1361391Y13594564D01*
X-1391738Y13642187D01*
X-1411593Y13672974D01*
X-1418541Y13683350D01*
X-1423725Y13688132D01*
X-1427771Y13684960D01*
X-1430772Y13671479D01*
X-1432821Y13645337D01*
X-1434011Y13604179D01*
X-1434433Y13545652D01*
X-1434180Y13467402D01*
X-1433345Y13367076D01*
X-1432855Y13318975D01*
X-1431862Y13203745D01*
X-1431614Y13111556D01*
X-1432184Y13040059D01*
X-1433645Y12986904D01*
X-1436066Y12949741D01*
X-1439520Y12926220D01*
X-1444079Y12913993D01*
X-1445246Y12912575D01*
X-1467678Y12903073D01*
X-1511801Y12895869D01*
X-1572584Y12891618D01*
X-1628477Y12890230D01*
X-1665616Y12891988D01*
X-1690552Y12897862D01*
X-1709839Y12908826D01*
X-1714839Y12912713D01*
X-1746250Y12938141D01*
X-1750020Y13520296D01*
X-1750636Y13640943D01*
X-1750902Y13754917D01*
X-1750832Y13859464D01*
X-1750445Y13951835D01*
X-1749755Y14029277D01*
X-1748779Y14089039D01*
X-1747534Y14128369D01*
X-1746346Y14143317D01*
X-1737044Y14178226D01*
X-1721176Y14201330D01*
X-1694079Y14214957D01*
X-1651088Y14221437D01*
X-1587539Y14223100D01*
X-1586593Y14223100D01*
X-1528555Y14222110D01*
X-1490196Y14218514D01*
X-1465851Y14211371D01*
X-1450651Y14200551D01*
X-1438958Y14184757D01*
X-1415734Y14149869D01*
X-1382635Y14098500D01*
X-1341318Y14033265D01*
X-1293439Y13956777D01*
X-1240655Y13871650D01*
X-1189093Y13787801D01*
X-1134056Y13698226D01*
X-1083143Y13615893D01*
X-1037874Y13543224D01*
X-999774Y13482640D01*
X-970364Y13436562D01*
X-951167Y13407412D01*
X-943746Y13397600D01*
X-942317Y13409791D01*
X-941268Y13444330D01*
X-940615Y13498168D01*
X-940375Y13568256D01*
X-940564Y13651546D01*
X-941198Y13744988D01*
X-941663Y13792409D01*
X-943087Y13908595D01*
X-943997Y14001881D01*
X-943501Y14074763D01*
X-940710Y14129738D01*
X-934732Y14169303D01*
X-924679Y14195956D01*
X-909659Y14212192D01*
X-888782Y14220508D01*
X-861158Y14223402D01*
X-825895Y14223371D01*
G37*
X-825895Y14223371D02*
X-788148Y14222906D01*
X-736985Y14221782D01*
X-695119Y14218956D01*
X-669400Y14214960D01*
X-665477Y14213381D01*
X-655700Y14205637D01*
X-647517Y14195144D01*
X-640787Y14179738D01*
X-635368Y14157253D01*
X-631119Y14125525D01*
X-627900Y14082388D01*
X-625570Y14025679D01*
X-623987Y13953232D01*
X-623011Y13862882D01*
X-622501Y13752464D01*
X-622316Y13619814D01*
X-622300Y13550258D01*
X-622300Y12951946D01*
X-653473Y12920773D01*
X-671468Y12905254D01*
X-691715Y12895928D01*
X-720996Y12891256D01*
X-766095Y12889697D01*
X-790746Y12889600D01*
X-851225Y12891647D01*
X-895381Y12897397D01*
X-917609Y12905475D01*
X-929089Y12919709D01*
X-952244Y12952911D01*
X-985358Y13002461D01*
X-1026717Y13065745D01*
X-1074607Y13140142D01*
X-1127313Y13223037D01*
X-1169247Y13289650D01*
X-1224482Y13377649D01*
X-1276055Y13459598D01*
X-1322261Y13532802D01*
X-1361391Y13594564D01*
X-1391738Y13642187D01*
X-1411593Y13672974D01*
X-1418541Y13683350D01*
X-1423725Y13688132D01*
X-1427771Y13684960D01*
X-1430772Y13671479D01*
X-1432821Y13645337D01*
X-1434011Y13604179D01*
X-1434433Y13545652D01*
X-1434180Y13467402D01*
X-1433345Y13367076D01*
X-1432855Y13318975D01*
X-1431862Y13203745D01*
X-1431614Y13111556D01*
X-1432184Y13040059D01*
X-1433645Y12986904D01*
X-1436066Y12949741D01*
X-1439520Y12926220D01*
X-1444079Y12913993D01*
X-1445246Y12912575D01*
X-1467678Y12903073D01*
X-1511801Y12895869D01*
X-1572584Y12891618D01*
X-1628477Y12890230D01*
X-1665616Y12891988D01*
X-1690552Y12897862D01*
X-1709839Y12908826D01*
X-1714839Y12912713D01*
X-1746250Y12938141D01*
X-1750020Y13520296D01*
X-1750636Y13640943D01*
X-1750902Y13754917D01*
X-1750832Y13859464D01*
X-1750445Y13951835D01*
X-1749755Y14029277D01*
X-1748779Y14089039D01*
X-1747534Y14128369D01*
X-1746346Y14143317D01*
X-1737044Y14178226D01*
X-1721176Y14201330D01*
X-1694079Y14214957D01*
X-1651088Y14221437D01*
X-1587539Y14223100D01*
X-1586593Y14223100D01*
X-1528555Y14222110D01*
X-1490196Y14218514D01*
X-1465851Y14211371D01*
X-1450651Y14200551D01*
X-1438958Y14184757D01*
X-1415734Y14149869D01*
X-1382635Y14098500D01*
X-1341318Y14033265D01*
X-1293439Y13956777D01*
X-1240655Y13871650D01*
X-1189093Y13787801D01*
X-1134056Y13698226D01*
X-1083143Y13615893D01*
X-1037874Y13543224D01*
X-999774Y13482640D01*
X-970364Y13436562D01*
X-951167Y13407412D01*
X-943746Y13397600D01*
X-942317Y13409791D01*
X-941268Y13444330D01*
X-940615Y13498168D01*
X-940375Y13568256D01*
X-940564Y13651546D01*
X-941198Y13744988D01*
X-941663Y13792409D01*
X-943087Y13908595D01*
X-943997Y14001881D01*
X-943501Y14074763D01*
X-940710Y14129738D01*
X-934732Y14169303D01*
X-924679Y14195956D01*
X-909659Y14212192D01*
X-888782Y14220508D01*
X-861158Y14223402D01*
X-825895Y14223371D01*
G36*
X177243Y14222406D02*
G01*
X240904Y14219887D01*
X287312Y14214454D01*
X319181Y14205005D01*
X339224Y14190441D01*
X350156Y14169660D01*
X354692Y14141564D01*
X355545Y14105051D01*
X355405Y14073875D01*
X353825Y14024238D01*
X349828Y13983144D01*
X344223Y13958376D01*
X343200Y13956400D01*
X333229Y13948609D01*
X312151Y13942636D01*
X276497Y13938054D01*
X222797Y13934435D01*
X147580Y13931352D01*
X137020Y13931000D01*
X-57150Y13924650D01*
X-64528Y13715100D01*
X118168Y13715100D01*
X198582Y13714745D01*
X257082Y13712144D01*
X297154Y13705000D01*
X322285Y13691011D01*
X335960Y13667878D01*
X341665Y13633302D01*
X342886Y13584982D01*
X342900Y13566844D01*
X342297Y13515776D01*
X338155Y13478608D01*
X326974Y13453036D01*
X305254Y13436757D01*
X269495Y13427467D01*
X216197Y13422864D01*
X141861Y13420644D01*
X120064Y13420201D01*
X-57150Y13416650D01*
X-57150Y13188050D01*
X137020Y13181700D01*
X215032Y13178653D01*
X271113Y13175120D01*
X308736Y13170675D01*
X331368Y13164891D01*
X342481Y13157338D01*
X343200Y13156300D01*
X348994Y13134970D01*
X353311Y13096031D01*
X355345Y13047266D01*
X355405Y13038825D01*
X355514Y12995762D01*
X353842Y12961886D01*
X347675Y12936097D01*
X334298Y12917295D01*
X310997Y12904379D01*
X275057Y12896248D01*
X223765Y12891803D01*
X154405Y12889944D01*
X64264Y12889569D01*
X-12700Y12889600D01*
X-110953Y12889701D01*
X-186980Y12890158D01*
X-243955Y12891207D01*
X-285052Y12893083D01*
X-313446Y12896022D01*
X-332309Y12900258D01*
X-344816Y12906027D01*
X-354140Y12913563D01*
X-355600Y12915000D01*
X-361414Y12921535D01*
X-366266Y12929955D01*
X-370243Y12942453D01*
X-373432Y12961224D01*
X-375920Y12988461D01*
X-377793Y13026357D01*
X-379139Y13077108D01*
X-380045Y13142906D01*
X-380597Y13225946D01*
X-380882Y13328420D01*
X-380987Y13452524D01*
X-381000Y13556350D01*
X-380971Y13697361D01*
X-380824Y13815165D01*
X-380472Y13911957D01*
X-379830Y13989930D01*
X-378809Y14051279D01*
X-377324Y14098196D01*
X-375286Y14132876D01*
X-372610Y14157512D01*
X-369209Y14174299D01*
X-364995Y14185429D01*
X-359881Y14193098D01*
X-355600Y14197700D01*
X-346497Y14205553D01*
X-334737Y14211598D01*
X-317147Y14216072D01*
X-290554Y14219210D01*
X-251783Y14221246D01*
X-197661Y14222417D01*
X-125013Y14222956D01*
X-30665Y14223099D01*
X-12700Y14223101D01*
X93612Y14223110D01*
X177243Y14222406D01*
G37*
X177243Y14222406D02*
X240904Y14219887D01*
X287312Y14214454D01*
X319181Y14205005D01*
X339224Y14190441D01*
X350156Y14169660D01*
X354692Y14141564D01*
X355545Y14105051D01*
X355405Y14073875D01*
X353825Y14024238D01*
X349828Y13983144D01*
X344223Y13958376D01*
X343200Y13956400D01*
X333229Y13948609D01*
X312151Y13942636D01*
X276497Y13938054D01*
X222797Y13934435D01*
X147580Y13931352D01*
X137020Y13931000D01*
X-57150Y13924650D01*
X-64528Y13715100D01*
X118168Y13715100D01*
X198582Y13714745D01*
X257082Y13712144D01*
X297154Y13705000D01*
X322285Y13691011D01*
X335960Y13667878D01*
X341665Y13633302D01*
X342886Y13584982D01*
X342900Y13566844D01*
X342297Y13515776D01*
X338155Y13478608D01*
X326974Y13453036D01*
X305254Y13436757D01*
X269495Y13427467D01*
X216197Y13422864D01*
X141861Y13420644D01*
X120064Y13420201D01*
X-57150Y13416650D01*
X-57150Y13188050D01*
X137020Y13181700D01*
X215032Y13178653D01*
X271113Y13175120D01*
X308736Y13170675D01*
X331368Y13164891D01*
X342481Y13157338D01*
X343200Y13156300D01*
X348994Y13134970D01*
X353311Y13096031D01*
X355345Y13047266D01*
X355405Y13038825D01*
X355514Y12995762D01*
X353842Y12961886D01*
X347675Y12936097D01*
X334298Y12917295D01*
X310997Y12904379D01*
X275057Y12896248D01*
X223765Y12891803D01*
X154405Y12889944D01*
X64264Y12889569D01*
X-12700Y12889600D01*
X-110953Y12889701D01*
X-186980Y12890158D01*
X-243955Y12891207D01*
X-285052Y12893083D01*
X-313446Y12896022D01*
X-332309Y12900258D01*
X-344816Y12906027D01*
X-354140Y12913563D01*
X-355600Y12915000D01*
X-361414Y12921535D01*
X-366266Y12929955D01*
X-370243Y12942453D01*
X-373432Y12961224D01*
X-375920Y12988461D01*
X-377793Y13026357D01*
X-379139Y13077108D01*
X-380045Y13142906D01*
X-380597Y13225946D01*
X-380882Y13328420D01*
X-380987Y13452524D01*
X-381000Y13556350D01*
X-380971Y13697361D01*
X-380824Y13815165D01*
X-380472Y13911957D01*
X-379830Y13989930D01*
X-378809Y14051279D01*
X-377324Y14098196D01*
X-375286Y14132876D01*
X-372610Y14157512D01*
X-369209Y14174299D01*
X-364995Y14185429D01*
X-359881Y14193098D01*
X-355600Y14197700D01*
X-346497Y14205553D01*
X-334737Y14211598D01*
X-317147Y14216072D01*
X-290554Y14219210D01*
X-251783Y14221246D01*
X-197661Y14222417D01*
X-125013Y14222956D01*
X-30665Y14223099D01*
X-12700Y14223101D01*
X93612Y14223110D01*
X177243Y14222406D01*
G36*
X994902Y14220676D02*
G01*
X1104402Y14214709D01*
X1194801Y14203911D01*
X1269152Y14187439D01*
X1330508Y14164447D01*
X1381921Y14134090D01*
X1426444Y14095523D01*
X1459631Y14057586D01*
X1512292Y13974280D01*
X1543626Y13882818D01*
X1555118Y13778672D01*
X1555235Y13765900D01*
X1544757Y13657158D01*
X1513271Y13562659D01*
X1460701Y13482297D01*
X1386970Y13415963D01*
X1292002Y13363549D01*
X1260645Y13351000D01*
X1252044Y13346391D01*
X1248871Y13338826D01*
X1252766Y13325694D01*
X1265367Y13304389D01*
X1288311Y13272300D01*
X1323238Y13226820D01*
X1371784Y13165340D01*
X1397674Y13132809D01*
X1454568Y13060768D01*
X1496680Y13005764D01*
X1525601Y12965416D01*
X1542924Y12937340D01*
X1550240Y12919157D01*
X1549141Y12908485D01*
X1548348Y12907384D01*
X1534974Y12899385D01*
X1508109Y12894014D01*
X1464144Y12890897D01*
X1399470Y12889661D01*
X1376394Y12889600D01*
X1308374Y12890109D01*
X1261078Y12892023D01*
X1229842Y12895921D01*
X1210005Y12902383D01*
X1196975Y12911918D01*
X1182776Y12929068D01*
X1156701Y12963296D01*
X1121488Y13010901D01*
X1079873Y13068185D01*
X1035050Y13130803D01*
X895350Y13327371D01*
X892107Y13130711D01*
X890396Y13047010D01*
X886933Y12985341D01*
X879479Y12942337D01*
X865794Y12914635D01*
X843639Y12898870D01*
X810777Y12891677D01*
X764967Y12889692D01*
X731668Y12889600D01*
X667170Y12891795D01*
X623726Y12898779D01*
X599725Y12909371D01*
X571500Y12929141D01*
X571500Y13550000D01*
X888320Y13550000D01*
X972912Y13550000D01*
X1025697Y13552265D01*
X1075989Y13558137D01*
X1105970Y13564522D01*
X1164500Y13594218D01*
X1207018Y13640999D01*
X1231078Y13700477D01*
X1234231Y13768262D01*
X1230928Y13788646D01*
X1209120Y13843804D01*
X1169193Y13884014D01*
X1109997Y13909938D01*
X1030378Y13922240D01*
X996950Y13923457D01*
X895350Y13924650D01*
X888320Y13550000D01*
X571500Y13550000D01*
X571500Y14183560D01*
X599725Y14203330D01*
X614290Y14210558D01*
X636707Y14215828D01*
X670581Y14219405D01*
X719520Y14221554D01*
X787131Y14222540D01*
X863250Y14222657D01*
X994902Y14220676D01*
G37*
X994902Y14220676D02*
X1104402Y14214709D01*
X1194801Y14203911D01*
X1269152Y14187439D01*
X1330508Y14164447D01*
X1381921Y14134090D01*
X1426444Y14095523D01*
X1459631Y14057586D01*
X1512292Y13974280D01*
X1543626Y13882818D01*
X1555118Y13778672D01*
X1555235Y13765900D01*
X1544757Y13657158D01*
X1513271Y13562659D01*
X1460701Y13482297D01*
X1386970Y13415963D01*
X1292002Y13363549D01*
X1260645Y13351000D01*
X1252044Y13346391D01*
X1248871Y13338826D01*
X1252766Y13325694D01*
X1265367Y13304389D01*
X1288311Y13272300D01*
X1323238Y13226820D01*
X1371784Y13165340D01*
X1397674Y13132809D01*
X1454568Y13060768D01*
X1496680Y13005764D01*
X1525601Y12965416D01*
X1542924Y12937340D01*
X1550240Y12919157D01*
X1549141Y12908485D01*
X1548348Y12907384D01*
X1534974Y12899385D01*
X1508109Y12894014D01*
X1464144Y12890897D01*
X1399470Y12889661D01*
X1376394Y12889600D01*
X1308374Y12890109D01*
X1261078Y12892023D01*
X1229842Y12895921D01*
X1210005Y12902383D01*
X1196975Y12911918D01*
X1182776Y12929068D01*
X1156701Y12963296D01*
X1121488Y13010901D01*
X1079873Y13068185D01*
X1035050Y13130803D01*
X895350Y13327371D01*
X892107Y13130711D01*
X890396Y13047010D01*
X886933Y12985341D01*
X879479Y12942337D01*
X865794Y12914635D01*
X843639Y12898870D01*
X810777Y12891677D01*
X764967Y12889692D01*
X731668Y12889600D01*
X667170Y12891795D01*
X623726Y12898779D01*
X599725Y12909371D01*
X571500Y12929141D01*
X571500Y13550000D01*
X888320Y13550000D01*
X972912Y13550000D01*
X1025697Y13552265D01*
X1075989Y13558137D01*
X1105970Y13564522D01*
X1164500Y13594218D01*
X1207018Y13640999D01*
X1231078Y13700477D01*
X1234231Y13768262D01*
X1230928Y13788646D01*
X1209120Y13843804D01*
X1169193Y13884014D01*
X1109997Y13909938D01*
X1030378Y13922240D01*
X996950Y13923457D01*
X895350Y13924650D01*
X888320Y13550000D01*
X571500Y13550000D01*
X571500Y14183560D01*
X599725Y14203330D01*
X614290Y14210558D01*
X636707Y14215828D01*
X670581Y14219405D01*
X719520Y14221554D01*
X787131Y14222540D01*
X863250Y14222657D01*
X994902Y14220676D01*
G36*
X1887349Y14223521D02*
G01*
X1913777Y14223100D01*
X1951266Y14223803D01*
X1982804Y14224572D01*
X2008901Y14223403D01*
X2030068Y14218290D01*
X2046815Y14207228D01*
X2059652Y14188212D01*
X2069090Y14159235D01*
X2075638Y14118292D01*
X2079807Y14063378D01*
X2082108Y13992488D01*
X2083050Y13903615D01*
X2083143Y13794755D01*
X2082899Y13663901D01*
X2082800Y13558778D01*
X2082693Y13414159D01*
X2082337Y13292900D01*
X2081672Y13192962D01*
X2080642Y13112308D01*
X2079188Y13048897D01*
X2077253Y13000691D01*
X2074781Y12965651D01*
X2071712Y12941738D01*
X2067990Y12926914D01*
X2064787Y12920603D01*
X2052393Y12908666D01*
X2032568Y12900749D01*
X1999958Y12895734D01*
X1949212Y12892504D01*
X1925714Y12891571D01*
X1869011Y12889911D01*
X1831559Y12890629D01*
X1807239Y12894852D01*
X1789932Y12903710D01*
X1773521Y12918330D01*
X1771924Y12919921D01*
X1739194Y12952651D01*
X1742722Y13569856D01*
X1743357Y13715968D01*
X1743802Y13838708D01*
X1744587Y13940095D01*
X1746239Y14022146D01*
X1749288Y14086880D01*
X1754261Y14136316D01*
X1761686Y14172470D01*
X1772094Y14197362D01*
X1786011Y14213010D01*
X1803967Y14221431D01*
X1826489Y14224645D01*
X1854107Y14224668D01*
X1887349Y14223521D01*
G37*
X1887349Y14223521D02*
X1913777Y14223100D01*
X1951266Y14223803D01*
X1982804Y14224572D01*
X2008901Y14223403D01*
X2030068Y14218290D01*
X2046815Y14207228D01*
X2059652Y14188212D01*
X2069090Y14159235D01*
X2075638Y14118292D01*
X2079807Y14063378D01*
X2082108Y13992488D01*
X2083050Y13903615D01*
X2083143Y13794755D01*
X2082899Y13663901D01*
X2082800Y13558778D01*
X2082693Y13414159D01*
X2082337Y13292900D01*
X2081672Y13192962D01*
X2080642Y13112308D01*
X2079188Y13048897D01*
X2077253Y13000691D01*
X2074781Y12965651D01*
X2071712Y12941738D01*
X2067990Y12926914D01*
X2064787Y12920603D01*
X2052393Y12908666D01*
X2032568Y12900749D01*
X1999958Y12895734D01*
X1949212Y12892504D01*
X1925714Y12891571D01*
X1869011Y12889911D01*
X1831559Y12890629D01*
X1807239Y12894852D01*
X1789932Y12903710D01*
X1773521Y12918330D01*
X1771924Y12919921D01*
X1739194Y12952651D01*
X1742722Y13569856D01*
X1743357Y13715968D01*
X1743802Y13838708D01*
X1744587Y13940095D01*
X1746239Y14022146D01*
X1749288Y14086880D01*
X1754261Y14136316D01*
X1761686Y14172470D01*
X1772094Y14197362D01*
X1786011Y14213010D01*
X1803967Y14221431D01*
X1826489Y14224645D01*
X1854107Y14224668D01*
X1887349Y14223521D01*
G36*
X4497613Y14223553D02*
G01*
X4523968Y14223100D01*
X4582219Y14221873D01*
X4620993Y14217546D01*
X4646125Y14209152D01*
X4658118Y14200875D01*
X4670599Y14185046D01*
X4694512Y14150163D01*
X4728140Y14098904D01*
X4769762Y14033946D01*
X4817661Y13957965D01*
X4870116Y13873638D01*
X4912962Y13804000D01*
X4967459Y13715125D01*
X5018278Y13632483D01*
X5063766Y13558743D01*
X5102271Y13496575D01*
X5132140Y13448649D01*
X5151721Y13417634D01*
X5158811Y13406869D01*
X5163452Y13404244D01*
X5167053Y13412013D01*
X5169687Y13432369D01*
X5171427Y13467505D01*
X5172343Y13519615D01*
X5172509Y13590890D01*
X5171998Y13683525D01*
X5171097Y13779439D01*
X5169721Y13897450D01*
X5168896Y13992529D01*
X5169467Y14067141D01*
X5172281Y14123752D01*
X5178183Y14164827D01*
X5188018Y14192831D01*
X5202632Y14210232D01*
X5222872Y14219494D01*
X5249582Y14223082D01*
X5283608Y14223463D01*
X5323268Y14223100D01*
X5359443Y14223778D01*
X5389874Y14224474D01*
X5415055Y14223180D01*
X5435478Y14217891D01*
X5451636Y14206600D01*
X5464022Y14187301D01*
X5473128Y14157986D01*
X5479447Y14116649D01*
X5483472Y14061284D01*
X5485696Y13989884D01*
X5486610Y13900443D01*
X5486709Y13790953D01*
X5486485Y13659409D01*
X5486400Y13558778D01*
X5486292Y13414028D01*
X5485931Y13292646D01*
X5485260Y13192602D01*
X5484221Y13111863D01*
X5482758Y13048400D01*
X5480814Y13000181D01*
X5478330Y12965175D01*
X5475252Y12941350D01*
X5471521Y12926677D01*
X5468480Y12920748D01*
X5454308Y12907778D01*
X5430953Y12899425D01*
X5392611Y12894287D01*
X5347722Y12891571D01*
X5295219Y12890257D01*
X5249374Y12891006D01*
X5218674Y12893640D01*
X5215075Y12894383D01*
X5203305Y12902058D01*
X5185402Y12921568D01*
X5160300Y12954465D01*
X5126930Y13002300D01*
X5084226Y13066621D01*
X5031120Y13148982D01*
X4966545Y13250931D01*
X4934387Y13302132D01*
X4877585Y13392591D01*
X4825075Y13475897D01*
X4778362Y13549684D01*
X4738954Y13611586D01*
X4708357Y13659238D01*
X4688077Y13690274D01*
X4679621Y13702327D01*
X4679498Y13702400D01*
X4678727Y13690222D01*
X4678481Y13655761D01*
X4678732Y13602128D01*
X4679452Y13532434D01*
X4680615Y13449791D01*
X4682193Y13357309D01*
X4682835Y13323342D01*
X4684887Y13215355D01*
X4686290Y13129883D01*
X4686901Y13064048D01*
X4686579Y13014970D01*
X4685182Y12979769D01*
X4682568Y12955567D01*
X4678597Y12939483D01*
X4673125Y12928639D01*
X4666013Y12920155D01*
X4662841Y12916942D01*
X4645598Y12903097D01*
X4623657Y12894833D01*
X4590437Y12890791D01*
X4539357Y12889614D01*
X4530375Y12889600D01*
X4465832Y12891710D01*
X4422273Y12898443D01*
X4397025Y12909371D01*
X4368800Y12929141D01*
X4368800Y13555102D01*
X4368633Y13702909D01*
X4368442Y13827320D01*
X4368693Y13930335D01*
X4369848Y14013953D01*
X4372373Y14080173D01*
X4376732Y14130995D01*
X4383390Y14168418D01*
X4392810Y14194442D01*
X4405458Y14211066D01*
X4421798Y14220290D01*
X4442294Y14224113D01*
X4467411Y14224534D01*
X4497613Y14223553D01*
G37*
X4497613Y14223553D02*
X4523968Y14223100D01*
X4582219Y14221873D01*
X4620993Y14217546D01*
X4646125Y14209152D01*
X4658118Y14200875D01*
X4670599Y14185046D01*
X4694512Y14150163D01*
X4728140Y14098904D01*
X4769762Y14033946D01*
X4817661Y13957965D01*
X4870116Y13873638D01*
X4912962Y13804000D01*
X4967459Y13715125D01*
X5018278Y13632483D01*
X5063766Y13558743D01*
X5102271Y13496575D01*
X5132140Y13448649D01*
X5151721Y13417634D01*
X5158811Y13406869D01*
X5163452Y13404244D01*
X5167053Y13412013D01*
X5169687Y13432369D01*
X5171427Y13467505D01*
X5172343Y13519615D01*
X5172509Y13590890D01*
X5171998Y13683525D01*
X5171097Y13779439D01*
X5169721Y13897450D01*
X5168896Y13992529D01*
X5169467Y14067141D01*
X5172281Y14123752D01*
X5178183Y14164827D01*
X5188018Y14192831D01*
X5202632Y14210232D01*
X5222872Y14219494D01*
X5249582Y14223082D01*
X5283608Y14223463D01*
X5323268Y14223100D01*
X5359443Y14223778D01*
X5389874Y14224474D01*
X5415055Y14223180D01*
X5435478Y14217891D01*
X5451636Y14206600D01*
X5464022Y14187301D01*
X5473128Y14157986D01*
X5479447Y14116649D01*
X5483472Y14061284D01*
X5485696Y13989884D01*
X5486610Y13900443D01*
X5486709Y13790953D01*
X5486485Y13659409D01*
X5486400Y13558778D01*
X5486292Y13414028D01*
X5485931Y13292646D01*
X5485260Y13192602D01*
X5484221Y13111863D01*
X5482758Y13048400D01*
X5480814Y13000181D01*
X5478330Y12965175D01*
X5475252Y12941350D01*
X5471521Y12926677D01*
X5468480Y12920748D01*
X5454308Y12907778D01*
X5430953Y12899425D01*
X5392611Y12894287D01*
X5347722Y12891571D01*
X5295219Y12890257D01*
X5249374Y12891006D01*
X5218674Y12893640D01*
X5215075Y12894383D01*
X5203305Y12902058D01*
X5185402Y12921568D01*
X5160300Y12954465D01*
X5126930Y13002300D01*
X5084226Y13066621D01*
X5031120Y13148982D01*
X4966545Y13250931D01*
X4934387Y13302132D01*
X4877585Y13392591D01*
X4825075Y13475897D01*
X4778362Y13549684D01*
X4738954Y13611586D01*
X4708357Y13659238D01*
X4688077Y13690274D01*
X4679621Y13702327D01*
X4679498Y13702400D01*
X4678727Y13690222D01*
X4678481Y13655761D01*
X4678732Y13602128D01*
X4679452Y13532434D01*
X4680615Y13449791D01*
X4682193Y13357309D01*
X4682835Y13323342D01*
X4684887Y13215355D01*
X4686290Y13129883D01*
X4686901Y13064048D01*
X4686579Y13014970D01*
X4685182Y12979769D01*
X4682568Y12955567D01*
X4678597Y12939483D01*
X4673125Y12928639D01*
X4666013Y12920155D01*
X4662841Y12916942D01*
X4645598Y12903097D01*
X4623657Y12894833D01*
X4590437Y12890791D01*
X4539357Y12889614D01*
X4530375Y12889600D01*
X4465832Y12891710D01*
X4422273Y12898443D01*
X4397025Y12909371D01*
X4368800Y12929141D01*
X4368800Y13555102D01*
X4368633Y13702909D01*
X4368442Y13827320D01*
X4368693Y13930335D01*
X4369848Y14013953D01*
X4372373Y14080173D01*
X4376732Y14130995D01*
X4383390Y14168418D01*
X4392810Y14194442D01*
X4405458Y14211066D01*
X4421798Y14220290D01*
X4442294Y14224113D01*
X4467411Y14224534D01*
X4497613Y14223553D01*
G36*
X7662860Y14221193D02*
G01*
X7773603Y14216075D01*
X7866065Y14206777D01*
X7943730Y14192584D01*
X8010085Y14172781D01*
X8068612Y14146656D01*
X8122799Y14113493D01*
X8145896Y14096691D01*
X8230945Y14016521D01*
X8298999Y13919606D01*
X8349028Y13808954D01*
X8380007Y13687573D01*
X8390908Y13558471D01*
X8380703Y13424656D01*
X8379008Y13414213D01*
X8347107Y13286478D01*
X8297380Y13176794D01*
X8229562Y13084858D01*
X8143387Y13010369D01*
X8038589Y12953026D01*
X7943850Y12920035D01*
X7907020Y12911957D01*
X7858965Y12905518D01*
X7796344Y12900465D01*
X7715817Y12896543D01*
X7614044Y12893500D01*
X7585863Y12892868D01*
X7304076Y12886870D01*
X7271185Y12919760D01*
X7238294Y12952651D01*
X7241803Y13566548D01*
X7581900Y13566548D01*
X7582217Y13472228D01*
X7583113Y13386174D01*
X7584505Y13311658D01*
X7586311Y13251953D01*
X7588449Y13210332D01*
X7590836Y13190069D01*
X7591425Y13188760D01*
X7609357Y13184147D01*
X7645783Y13183409D01*
X7694197Y13185934D01*
X7748094Y13191110D01*
X7800967Y13198324D01*
X7846309Y13206964D01*
X7875378Y13215484D01*
X7929144Y13248534D01*
X7978403Y13299632D01*
X8017004Y13361479D01*
X8033036Y13402526D01*
X8046643Y13473379D01*
X8051034Y13555520D01*
X8046291Y13637598D01*
X8032492Y13708266D01*
X8030837Y13713591D01*
X7997276Y13785480D01*
X7948787Y13846356D01*
X7890658Y13890070D01*
X7871115Y13899335D01*
X7829714Y13911180D01*
X7771970Y13921074D01*
X7706934Y13927509D01*
X7699375Y13927961D01*
X7581900Y13934461D01*
X7581900Y13566548D01*
X7241803Y13566548D01*
X7241822Y13569856D01*
X7242663Y13711070D01*
X7243497Y13829048D01*
X7244417Y13925953D01*
X7245522Y14003950D01*
X7246906Y14065201D01*
X7248665Y14111870D01*
X7250896Y14146122D01*
X7253695Y14170119D01*
X7257157Y14186026D01*
X7261379Y14196006D01*
X7266457Y14202222D01*
X7270002Y14205081D01*
X7284919Y14211811D01*
X7310734Y14216727D01*
X7350690Y14220050D01*
X7408033Y14222001D01*
X7486005Y14222803D01*
X7530352Y14222845D01*
X7662860Y14221193D01*
G37*
X7662860Y14221193D02*
X7773603Y14216075D01*
X7866065Y14206777D01*
X7943730Y14192584D01*
X8010085Y14172781D01*
X8068612Y14146656D01*
X8122799Y14113493D01*
X8145896Y14096691D01*
X8230945Y14016521D01*
X8298999Y13919606D01*
X8349028Y13808954D01*
X8380007Y13687573D01*
X8390908Y13558471D01*
X8380703Y13424656D01*
X8379008Y13414213D01*
X8347107Y13286478D01*
X8297380Y13176794D01*
X8229562Y13084858D01*
X8143387Y13010369D01*
X8038589Y12953026D01*
X7943850Y12920035D01*
X7907020Y12911957D01*
X7858965Y12905518D01*
X7796344Y12900465D01*
X7715817Y12896543D01*
X7614044Y12893500D01*
X7585863Y12892868D01*
X7304076Y12886870D01*
X7271185Y12919760D01*
X7238294Y12952651D01*
X7241803Y13566548D01*
X7581900Y13566548D01*
X7582217Y13472228D01*
X7583113Y13386174D01*
X7584505Y13311658D01*
X7586311Y13251953D01*
X7588449Y13210332D01*
X7590836Y13190069D01*
X7591425Y13188760D01*
X7609357Y13184147D01*
X7645783Y13183409D01*
X7694197Y13185934D01*
X7748094Y13191110D01*
X7800967Y13198324D01*
X7846309Y13206964D01*
X7875378Y13215484D01*
X7929144Y13248534D01*
X7978403Y13299632D01*
X8017004Y13361479D01*
X8033036Y13402526D01*
X8046643Y13473379D01*
X8051034Y13555520D01*
X8046291Y13637598D01*
X8032492Y13708266D01*
X8030837Y13713591D01*
X7997276Y13785480D01*
X7948787Y13846356D01*
X7890658Y13890070D01*
X7871115Y13899335D01*
X7829714Y13911180D01*
X7771970Y13921074D01*
X7706934Y13927509D01*
X7699375Y13927961D01*
X7581900Y13934461D01*
X7581900Y13566548D01*
X7241803Y13566548D01*
X7241822Y13569856D01*
X7242663Y13711070D01*
X7243497Y13829048D01*
X7244417Y13925953D01*
X7245522Y14003950D01*
X7246906Y14065201D01*
X7248665Y14111870D01*
X7250896Y14146122D01*
X7253695Y14170119D01*
X7257157Y14186026D01*
X7261379Y14196006D01*
X7266457Y14202222D01*
X7270002Y14205081D01*
X7284919Y14211811D01*
X7310734Y14216727D01*
X7350690Y14220050D01*
X7408033Y14222001D01*
X7486005Y14222803D01*
X7530352Y14222845D01*
X7662860Y14221193D01*
G36*
X9158040Y14222393D02*
G01*
X9221270Y14219825D01*
X9267285Y14214285D01*
X9298811Y14204649D01*
X9318576Y14189795D01*
X9329308Y14168601D01*
X9333733Y14139944D01*
X9334578Y14102701D01*
X9334500Y14072669D01*
X9333922Y14022966D01*
X9329889Y13986607D01*
X9318949Y13961416D01*
X9297651Y13945217D01*
X9262544Y13935835D01*
X9210177Y13931094D01*
X9137099Y13928819D01*
X9105302Y13928190D01*
X8921750Y13924650D01*
X8914372Y13715100D01*
X9098316Y13715100D01*
X9178478Y13714630D01*
X9236736Y13711697D01*
X9276585Y13704016D01*
X9301520Y13689303D01*
X9315035Y13665275D01*
X9320627Y13629647D01*
X9321791Y13580135D01*
X9321800Y13569050D01*
X9321079Y13516660D01*
X9316589Y13478586D01*
X9304833Y13452544D01*
X9282316Y13436250D01*
X9245543Y13427418D01*
X9191017Y13423766D01*
X9115245Y13423006D01*
X9098353Y13423000D01*
X8914446Y13423000D01*
X8921750Y13188050D01*
X9115920Y13181700D01*
X9193932Y13178653D01*
X9250013Y13175120D01*
X9287636Y13170675D01*
X9310268Y13164891D01*
X9321381Y13157338D01*
X9322100Y13156300D01*
X9327962Y13134864D01*
X9332298Y13095962D01*
X9334267Y13047522D01*
X9334305Y13041253D01*
X9334587Y12998871D01*
X9333408Y12965640D01*
X9328023Y12940415D01*
X9315683Y12922053D01*
X9293642Y12909408D01*
X9259153Y12901337D01*
X9209468Y12896695D01*
X9141840Y12894338D01*
X9053523Y12893121D01*
X8976765Y12892323D01*
X8875887Y12891371D01*
X8797304Y12891162D01*
X8737918Y12891842D01*
X8694632Y12893560D01*
X8664348Y12896461D01*
X8643969Y12900692D01*
X8630395Y12906400D01*
X8626475Y12908918D01*
X8597900Y12929141D01*
X8597900Y14183560D01*
X8626125Y14203330D01*
X8638645Y14209628D01*
X8658029Y14214472D01*
X8687349Y14218041D01*
X8729678Y14220511D01*
X8788089Y14222059D01*
X8865653Y14222863D01*
X8965444Y14223100D01*
X8969025Y14223100D01*
X9074868Y14223111D01*
X9158040Y14222393D01*
G37*
X9158040Y14222393D02*
X9221270Y14219825D01*
X9267285Y14214285D01*
X9298811Y14204649D01*
X9318576Y14189795D01*
X9329308Y14168601D01*
X9333733Y14139944D01*
X9334578Y14102701D01*
X9334500Y14072669D01*
X9333922Y14022966D01*
X9329889Y13986607D01*
X9318949Y13961416D01*
X9297651Y13945217D01*
X9262544Y13935835D01*
X9210177Y13931094D01*
X9137099Y13928819D01*
X9105302Y13928190D01*
X8921750Y13924650D01*
X8914372Y13715100D01*
X9098316Y13715100D01*
X9178478Y13714630D01*
X9236736Y13711697D01*
X9276585Y13704016D01*
X9301520Y13689303D01*
X9315035Y13665275D01*
X9320627Y13629647D01*
X9321791Y13580135D01*
X9321800Y13569050D01*
X9321079Y13516660D01*
X9316589Y13478586D01*
X9304833Y13452544D01*
X9282316Y13436250D01*
X9245543Y13427418D01*
X9191017Y13423766D01*
X9115245Y13423006D01*
X9098353Y13423000D01*
X8914446Y13423000D01*
X8921750Y13188050D01*
X9115920Y13181700D01*
X9193932Y13178653D01*
X9250013Y13175120D01*
X9287636Y13170675D01*
X9310268Y13164891D01*
X9321381Y13157338D01*
X9322100Y13156300D01*
X9327962Y13134864D01*
X9332298Y13095962D01*
X9334267Y13047522D01*
X9334305Y13041253D01*
X9334587Y12998871D01*
X9333408Y12965640D01*
X9328023Y12940415D01*
X9315683Y12922053D01*
X9293642Y12909408D01*
X9259153Y12901337D01*
X9209468Y12896695D01*
X9141840Y12894338D01*
X9053523Y12893121D01*
X8976765Y12892323D01*
X8875887Y12891371D01*
X8797304Y12891162D01*
X8737918Y12891842D01*
X8694632Y12893560D01*
X8664348Y12896461D01*
X8643969Y12900692D01*
X8630395Y12906400D01*
X8626475Y12908918D01*
X8597900Y12929141D01*
X8597900Y14183560D01*
X8626125Y14203330D01*
X8638645Y14209628D01*
X8658029Y14214472D01*
X8687349Y14218041D01*
X8729678Y14220511D01*
X8788089Y14222059D01*
X8865653Y14222863D01*
X8965444Y14223100D01*
X8969025Y14223100D01*
X9074868Y14223111D01*
X9158040Y14222393D01*
G36*
X-5823016Y13853883D02*
G01*
X-5754989Y13831769D01*
X-5693667Y13791105D01*
X-5663612Y13763359D01*
X-5610951Y13694125D01*
X-5579458Y13616191D01*
X-5568424Y13533761D01*
X-5577138Y13451038D01*
X-5604892Y13372228D01*
X-5650976Y13301533D01*
X-5714681Y13243160D01*
X-5755548Y13218552D01*
X-5805856Y13200952D01*
X-5868902Y13189847D01*
X-5932904Y13186539D01*
X-5986080Y13192332D01*
X-5988050Y13192833D01*
X-6056552Y13219324D01*
X-6118305Y13262881D01*
X-6156346Y13300399D01*
X-6207725Y13373224D01*
X-6236843Y13452962D01*
X-6244444Y13535762D01*
X-6231274Y13617776D01*
X-6198078Y13695153D01*
X-6145602Y13764045D01*
X-6074590Y13820602D01*
X-6053258Y13832772D01*
X-6014415Y13849164D01*
X-5970345Y13857825D01*
X-5911527Y13860547D01*
X-5905500Y13860562D01*
X-5823016Y13853883D01*
G37*
X-5823016Y13853883D02*
X-5754989Y13831769D01*
X-5693667Y13791105D01*
X-5663612Y13763359D01*
X-5610951Y13694125D01*
X-5579458Y13616191D01*
X-5568424Y13533761D01*
X-5577138Y13451038D01*
X-5604892Y13372228D01*
X-5650976Y13301533D01*
X-5714681Y13243160D01*
X-5755548Y13218552D01*
X-5805856Y13200952D01*
X-5868902Y13189847D01*
X-5932904Y13186539D01*
X-5986080Y13192332D01*
X-5988050Y13192833D01*
X-6056552Y13219324D01*
X-6118305Y13262881D01*
X-6156346Y13300399D01*
X-6207725Y13373224D01*
X-6236843Y13452962D01*
X-6244444Y13535762D01*
X-6231274Y13617776D01*
X-6198078Y13695153D01*
X-6145602Y13764045D01*
X-6074590Y13820602D01*
X-6053258Y13832772D01*
X-6014415Y13849164D01*
X-5970345Y13857825D01*
X-5911527Y13860547D01*
X-5905500Y13860562D01*
X-5823016Y13853883D01*
G36*
X-9050177Y13645759D02*
G01*
X-8998842Y13608789D01*
X-8973733Y13575946D01*
X-8949851Y13513935D01*
X-8947986Y13453286D01*
X-8964884Y13397279D01*
X-8997290Y13349191D01*
X-9041949Y13312303D01*
X-9095606Y13289893D01*
X-9155006Y13285241D01*
X-9216895Y13301625D01*
X-9236180Y13311548D01*
X-9277342Y13346612D01*
X-9311019Y13395447D01*
X-9331256Y13448147D01*
X-9334500Y13475119D01*
X-9325379Y13519253D01*
X-9301955Y13568684D01*
X-9270134Y13613326D01*
X-9236265Y13642843D01*
X-9175384Y13664442D01*
X-9111190Y13664862D01*
X-9050177Y13645759D01*
G37*
X-9050177Y13645759D02*
X-8998842Y13608789D01*
X-8973733Y13575946D01*
X-8949851Y13513935D01*
X-8947986Y13453286D01*
X-8964884Y13397279D01*
X-8997290Y13349191D01*
X-9041949Y13312303D01*
X-9095606Y13289893D01*
X-9155006Y13285241D01*
X-9216895Y13301625D01*
X-9236180Y13311548D01*
X-9277342Y13346612D01*
X-9311019Y13395447D01*
X-9331256Y13448147D01*
X-9334500Y13475119D01*
X-9325379Y13519253D01*
X-9301955Y13568684D01*
X-9270134Y13613326D01*
X-9236265Y13642843D01*
X-9175384Y13664442D01*
X-9111190Y13664862D01*
X-9050177Y13645759D01*
G36*
X-6170466Y15131525D02*
G01*
X-6078648Y15098053D01*
X-5999581Y15042892D01*
X-5934499Y14966811D01*
X-5902754Y14911595D01*
X-5869394Y14817220D01*
X-5859511Y14721417D01*
X-5871872Y14627848D01*
X-5905241Y14540176D01*
X-5958386Y14462063D01*
X-6030073Y14397169D01*
X-6087562Y14363056D01*
X-6169760Y14332666D01*
X-6256283Y14317787D01*
X-6338001Y14319665D01*
X-6366073Y14325076D01*
X-6461664Y14361375D01*
X-6542938Y14417110D01*
X-6607640Y14489381D01*
X-6653512Y14575290D01*
X-6678298Y14671937D01*
X-6682124Y14731100D01*
X-6670373Y14834299D01*
X-6637184Y14926396D01*
X-6584818Y15005115D01*
X-6515532Y15068179D01*
X-6431588Y15113312D01*
X-6335245Y15138236D01*
X-6273800Y15142539D01*
X-6170466Y15131525D01*
G37*
X-6170466Y15131525D02*
X-6078648Y15098053D01*
X-5999581Y15042892D01*
X-5934499Y14966811D01*
X-5902754Y14911595D01*
X-5869394Y14817220D01*
X-5859511Y14721417D01*
X-5871872Y14627848D01*
X-5905241Y14540176D01*
X-5958386Y14462063D01*
X-6030073Y14397169D01*
X-6087562Y14363056D01*
X-6169760Y14332666D01*
X-6256283Y14317787D01*
X-6338001Y14319665D01*
X-6366073Y14325076D01*
X-6461664Y14361375D01*
X-6542938Y14417110D01*
X-6607640Y14489381D01*
X-6653512Y14575290D01*
X-6678298Y14671937D01*
X-6682124Y14731100D01*
X-6670373Y14834299D01*
X-6637184Y14926396D01*
X-6584818Y15005115D01*
X-6515532Y15068179D01*
X-6431588Y15113312D01*
X-6335245Y15138236D01*
X-6273800Y15142539D01*
X-6170466Y15131525D01*
G36*
X-8570539Y14833518D02*
G01*
X-8507718Y14806144D01*
X-8468210Y14773262D01*
X-8430383Y14713549D01*
X-8411638Y14643304D01*
X-8412994Y14569849D01*
X-8431404Y14508850D01*
X-8473673Y14443946D01*
X-8529776Y14397366D01*
X-8595433Y14370781D01*
X-8666366Y14365862D01*
X-8738296Y14384279D01*
X-8743950Y14386804D01*
X-8806457Y14428153D01*
X-8852183Y14483843D01*
X-8880057Y14549005D01*
X-8889002Y14618770D01*
X-8877947Y14688267D01*
X-8845815Y14752629D01*
X-8829191Y14773262D01*
X-8776511Y14813789D01*
X-8711479Y14837340D01*
X-8640641Y14843917D01*
X-8570539Y14833518D01*
G37*
X-8570539Y14833518D02*
X-8507718Y14806144D01*
X-8468210Y14773262D01*
X-8430383Y14713549D01*
X-8411638Y14643304D01*
X-8412994Y14569849D01*
X-8431404Y14508850D01*
X-8473673Y14443946D01*
X-8529776Y14397366D01*
X-8595433Y14370781D01*
X-8666366Y14365862D01*
X-8738296Y14384279D01*
X-8743950Y14386804D01*
X-8806457Y14428153D01*
X-8852183Y14483843D01*
X-8880057Y14549005D01*
X-8889002Y14618770D01*
X-8877947Y14688267D01*
X-8845815Y14752629D01*
X-8829191Y14773262D01*
X-8776511Y14813789D01*
X-8711479Y14837340D01*
X-8640641Y14843917D01*
X-8570539Y14833518D01*
G36*
X-7476749Y15474691D02*
G01*
X-7402085Y15441644D01*
X-7336931Y15392405D01*
X-7284867Y15329158D01*
X-7249476Y15254092D01*
X-7234338Y15169392D01*
X-7234039Y15156932D01*
X-7240699Y15073425D01*
X-7263478Y15003984D01*
X-7305154Y14941060D01*
X-7319485Y14924774D01*
X-7385320Y14866068D01*
X-7456682Y14829499D01*
X-7540280Y14811829D01*
X-7556500Y14810450D01*
X-7602943Y14808582D01*
X-7638363Y14812329D01*
X-7673561Y14824117D01*
X-7719338Y14846374D01*
X-7721600Y14847547D01*
X-7799324Y14900847D01*
X-7857698Y14968644D01*
X-7895103Y15048020D01*
X-7909916Y15136057D01*
X-7908234Y15183505D01*
X-7887013Y15270746D01*
X-7843973Y15349561D01*
X-7782442Y15415104D01*
X-7721976Y15454809D01*
X-7640275Y15483460D01*
X-7557339Y15489359D01*
X-7476749Y15474691D01*
G37*
X-7476749Y15474691D02*
X-7402085Y15441644D01*
X-7336931Y15392405D01*
X-7284867Y15329158D01*
X-7249476Y15254092D01*
X-7234338Y15169392D01*
X-7234039Y15156932D01*
X-7240699Y15073425D01*
X-7263478Y15003984D01*
X-7305154Y14941060D01*
X-7319485Y14924774D01*
X-7385320Y14866068D01*
X-7456682Y14829499D01*
X-7540280Y14811829D01*
X-7556500Y14810450D01*
X-7602943Y14808582D01*
X-7638363Y14812329D01*
X-7673561Y14824117D01*
X-7719338Y14846374D01*
X-7721600Y14847547D01*
X-7799324Y14900847D01*
X-7857698Y14968644D01*
X-7895103Y15048020D01*
X-7909916Y15136057D01*
X-7908234Y15183505D01*
X-7887013Y15270746D01*
X-7843973Y15349561D01*
X-7782442Y15415104D01*
X-7721976Y15454809D01*
X-7640275Y15483460D01*
X-7557339Y15489359D01*
X-7476749Y15474691D01*
D17*
X-11780000Y22650000D02*
X-3920000Y22650000D01*
X-1280000Y22650000D02*
X6580000Y22650000D01*
X-11780000Y19650000D02*
X-3920000Y19650000D01*
X-1280000Y19650000D02*
X6580000Y19650000D01*
D13*
X-17000000Y19050000D02*
G75*
G03*
X-17000000Y19050000I-100000J0D01*
G01*
D15*
X12025355Y-21418230D02*
X12025355Y-21633902D01*
X12745355Y-21418230D02*
X12745355Y-21633902D01*
X13695355Y-21418230D02*
X13695355Y-21633902D01*
X12975355Y-21418230D02*
X12975355Y-21633902D01*
X16211252Y-15540000D02*
X14788748Y-15540000D01*
X16211252Y-17360000D02*
X14788748Y-17360000D01*
X16211252Y-19610000D02*
X14788748Y-19610000D01*
X16211252Y-17790000D02*
X14788748Y-17790000D01*
X13560000Y-10761252D02*
X13560000Y-9338748D01*
X11740000Y-10761252D02*
X11740000Y-9338748D01*
X-5190000Y12164D02*
X-5190000Y227836D01*
X-4470000Y12164D02*
X-4470000Y227836D01*
X6310000Y-22187836D02*
X6310000Y-21972164D01*
X5590000Y-22187836D02*
X5590000Y-21972164D01*
X5590000Y-20357836D02*
X5590000Y-20142164D01*
X6310000Y-20357836D02*
X6310000Y-20142164D01*
X7710000Y-21640580D02*
X7710000Y-21359420D01*
X6690000Y-21640580D02*
X6690000Y-21359420D01*
X-2442164Y-19860000D02*
X-2657836Y-19860000D01*
X-2442164Y-19140000D02*
X-2657836Y-19140000D01*
X7360000Y-9112164D02*
X7360000Y-9327836D01*
X6640000Y-9112164D02*
X6640000Y-9327836D01*
X-8787836Y-16610000D02*
X-8572164Y-16610000D01*
X-8787836Y-15890000D02*
X-8572164Y-15890000D01*
X-5427836Y1200000D02*
X-5212164Y1200000D01*
X-5427836Y1920000D02*
X-5212164Y1920000D01*
X-1297164Y4060000D02*
X-1512836Y4060000D01*
X-1297164Y3340000D02*
X-1512836Y3340000D01*
X-10292164Y5090000D02*
X-10507836Y5090000D01*
X-10292164Y5810000D02*
X-10507836Y5810000D01*
X-4987164Y3340000D02*
X-5202836Y3340000D01*
X-4987164Y4060000D02*
X-5202836Y4060000D01*
X-8997836Y8440000D02*
X-8782164Y8440000D01*
X-8997836Y9160000D02*
X-8782164Y9160000D01*
X-3167164Y2365001D02*
X-3382836Y2365001D01*
X-3167164Y3085001D02*
X-3382836Y3085001D01*
X-6807836Y-2010000D02*
X-6592164Y-2010000D01*
X-6807836Y-1290000D02*
X-6592164Y-1290000D01*
X-5212836Y3110000D02*
X-4997164Y3110000D01*
X-5212836Y2390000D02*
X-4997164Y2390000D01*
X-6787836Y-2940000D02*
X-6572164Y-2940000D01*
X-6787836Y-2220000D02*
X-6572164Y-2220000D01*
X-5057836Y-5110000D02*
X-4842164Y-5110000D01*
X-5057836Y-5830000D02*
X-4842164Y-5830000D01*
X-10287164Y4860000D02*
X-10502836Y4860000D01*
X-10287164Y4140000D02*
X-10502836Y4140000D01*
X-12160000Y3942164D02*
X-12160000Y4157836D01*
X-11440000Y3942164D02*
X-11440000Y4157836D01*
X-1337164Y520000D02*
X-1552836Y520000D01*
X-1337164Y1240000D02*
X-1552836Y1240000D01*
X-1342164Y335000D02*
X-1557836Y335000D01*
X-1342164Y-385000D02*
X-1557836Y-385000D01*
X-1337164Y1440000D02*
X-1552836Y1440000D01*
X-1337164Y2160000D02*
X-1552836Y2160000D01*
X-1367164Y4665000D02*
X-1582836Y4665000D01*
X-1367164Y5385000D02*
X-1582836Y5385000D01*
X-3462836Y5640000D02*
X-3247164Y5640000D01*
X-3462836Y6360000D02*
X-3247164Y6360000D01*
X-8622164Y-13890000D02*
X-8837836Y-13890000D01*
X-8622164Y-14610000D02*
X-8837836Y-14610000D01*
X11660000Y-4742164D02*
X11660000Y-4957836D01*
X10940000Y-4742164D02*
X10940000Y-4957836D01*
X-16771000Y-21703836D02*
X-16771000Y-21488164D01*
X-16051000Y-21703836D02*
X-16051000Y-21488164D01*
X-14850000Y-21684836D02*
X-14850000Y-21469164D01*
X-14130000Y-21684836D02*
X-14130000Y-21469164D01*
X-15101000Y-21683836D02*
X-15101000Y-21468164D01*
X-15821000Y-21683836D02*
X-15821000Y-21468164D01*
X-9212164Y-20260000D02*
X-9427836Y-20260000D01*
X-9212164Y-19540000D02*
X-9427836Y-19540000D01*
X-5062164Y6360000D02*
X-5277836Y6360000D01*
X-5062164Y5640000D02*
X-5277836Y5640000D01*
X-5067164Y4665000D02*
X-5282836Y4665000D01*
X-5067164Y5385000D02*
X-5282836Y5385000D01*
X-1383601Y-7992718D02*
X-1536104Y-8145221D01*
X-1892718Y-7483601D02*
X-2045221Y-7636104D01*
X-2544289Y25032D02*
X-2544289Y240704D01*
X-3264289Y25032D02*
X-3264289Y240704D01*
X-3494289Y30031D02*
X-3494289Y245703D01*
X-4214289Y30031D02*
X-4214289Y245703D01*
X2388959Y2807570D02*
X2388959Y3023242D01*
X3108959Y2807570D02*
X3108959Y3023242D01*
X3100000Y5702164D02*
X3100000Y5917836D01*
X2380000Y5702164D02*
X2380000Y5917836D01*
X7773991Y6797917D02*
X7989663Y6797917D01*
X7773991Y7517917D02*
X7989663Y7517917D01*
X4358307Y1129190D02*
X4510810Y1281693D01*
X3849190Y1638307D02*
X4001693Y1790810D01*
X3136098Y4745355D02*
X3351770Y4745355D01*
X3136098Y4025355D02*
X3351770Y4025355D01*
X4428307Y827373D02*
X4580810Y979876D01*
X4937424Y318256D02*
X5089927Y470759D01*
X6245571Y1626404D02*
X6398074Y1778907D01*
X5736454Y2135521D02*
X5888957Y2288024D01*
X-6982164Y8150000D02*
X-7197836Y8150000D01*
X-6982164Y7430000D02*
X-7197836Y7430000D01*
X7120000Y4197836D02*
X7120000Y3982164D01*
X7840000Y4197836D02*
X7840000Y3982164D01*
X-4888896Y-6754779D02*
X-5041399Y-6907282D01*
X-4379779Y-7263896D02*
X-4532282Y-7416399D01*
X6284462Y-1071711D02*
X6436965Y-919208D01*
X5775345Y-562594D02*
X5927848Y-410091D01*
X6920858Y958188D02*
X7073361Y1110691D01*
X6411741Y1467305D02*
X6564244Y1619808D01*
X-11960000Y1992164D02*
X-11960000Y2207836D01*
X-11240000Y1992164D02*
X-11240000Y2207836D01*
X-10240000Y1992164D02*
X-10240000Y2207836D01*
X-10960000Y1992164D02*
X-10960000Y2207836D01*
X907836Y9160000D02*
X692164Y9160000D01*
X907836Y9880000D02*
X692164Y9880000D01*
X8769190Y-1071693D02*
X8921693Y-919190D01*
X9278307Y-1580810D02*
X9430810Y-1428307D01*
X9760000Y2092164D02*
X9760000Y2307836D01*
X9040000Y2092164D02*
X9040000Y2307836D01*
X6069190Y-3374754D02*
X6221693Y-3527257D01*
X6578307Y-2865637D02*
X6730810Y-3018140D01*
X8030810Y-2728307D02*
X7878307Y-2880810D01*
X7521693Y-2219190D02*
X7369190Y-2371693D01*
X9742164Y440000D02*
X9957836Y440000D01*
X9742164Y1160000D02*
X9957836Y1160000D01*
X-12960000Y1992164D02*
X-12960000Y2207836D01*
X-12240000Y1992164D02*
X-12240000Y2207836D01*
X-13240000Y1992164D02*
X-13240000Y2207836D01*
X-13960000Y1992164D02*
X-13960000Y2207836D01*
X3392164Y-19760000D02*
X3607836Y-19760000D01*
X3392164Y-19040000D02*
X3607836Y-19040000D01*
X-3392164Y-10410000D02*
X-3607836Y-10410000D01*
X-3392164Y-9690000D02*
X-3607836Y-9690000D01*
X-5060000Y-11507836D02*
X-5060000Y-11292164D01*
X-4340000Y-11507836D02*
X-4340000Y-11292164D01*
X-5362162Y-15940000D02*
X-5577834Y-15940000D01*
X-5362162Y-16660000D02*
X-5577834Y-16660000D01*
X-5362162Y-15040000D02*
X-5577834Y-15040000D01*
X-5362162Y-15760000D02*
X-5577834Y-15760000D01*
X-13660000Y-13187836D02*
X-13660000Y-12972164D01*
X-12940000Y-13187836D02*
X-12940000Y-12972164D01*
X-8840000Y-10792164D02*
X-8840000Y-11007836D01*
X-9560000Y-10792164D02*
X-9560000Y-11007836D01*
X-9560000Y-12907836D02*
X-9560000Y-12692164D01*
X-8840000Y-12907836D02*
X-8840000Y-12692164D01*
X11900000Y-7600000D02*
X11900000Y-5050000D01*
X13600000Y-7600000D02*
X13600000Y-5050000D01*
X11900000Y-7600000D02*
X13600000Y-7600000D01*
X-1450000Y-22700000D02*
X1450000Y-22700000D01*
X-1450000Y-20400000D02*
X1450000Y-20400000D01*
X-1450000Y-21000000D02*
X-1450000Y-20400000D01*
X14809545Y-15160000D02*
X15790455Y-15160000D01*
X14809545Y-12440000D02*
X15790455Y-12440000D01*
X-5874721Y-13690000D02*
X-6200279Y-13690000D01*
X-5874721Y-14710000D02*
X-6200279Y-14710000D01*
X-14290000Y-12360000D02*
X-15400000Y-12360000D01*
X-14290000Y-11600000D02*
X-14290000Y-12360000D01*
X-15963471Y-10840000D02*
X-16510000Y-10840000D01*
X-14290000Y-10840000D02*
X-14836529Y-10840000D01*
X-16510000Y-10840000D02*
X-16510000Y-9635000D01*
X-14290000Y-10840000D02*
X-14290000Y-9635000D01*
X-15707530Y-9635000D02*
X-16510000Y-9635000D01*
X-14290000Y-9635000D02*
X-15092470Y-9635000D01*
X9480000Y-19250000D02*
X10620000Y-19250000D01*
X9450000Y-14850000D02*
X10590000Y-14850000D01*
X-3261596Y-8303555D02*
X-2696445Y-7738404D01*
X-4053555Y-7511596D02*
X-3488404Y-6946445D01*
X17180000Y-9840000D02*
X17180000Y-11300000D01*
X14020000Y-9840000D02*
X14020000Y-12000000D01*
X14020000Y-9840000D02*
X14950000Y-9840000D01*
X17180000Y-9840000D02*
X16250000Y-9840000D01*
X-4686359Y-1250000D02*
X-4993641Y-1250000D01*
X-4686359Y-2010000D02*
X-4993641Y-2010000D01*
X4570000Y-16203641D02*
X4570000Y-15896359D01*
X5330000Y-16203641D02*
X5330000Y-15896359D01*
X6620000Y-10946359D02*
X6620000Y-11253641D01*
X7380000Y-10946359D02*
X7380000Y-11253641D01*
X-8546359Y-14870000D02*
X-8853641Y-14870000D01*
X-8546359Y-15630000D02*
X-8853641Y-15630000D01*
X-647659Y-8635060D02*
X-864940Y-8852341D01*
X-1185060Y-8097659D02*
X-1402341Y-8314940D01*
X-3555000Y-21131359D02*
X-3555000Y-21438641D01*
X-2795000Y-21131359D02*
X-2795000Y-21438641D01*
X-1820000Y-21131359D02*
X-1820000Y-21438641D01*
X-2580000Y-21131359D02*
X-2580000Y-21438641D01*
X2629999Y-20936360D02*
X2629999Y-21243642D01*
X1869999Y-20936360D02*
X1869999Y-21243642D01*
X10510000Y-4676359D02*
X10510000Y-4983641D01*
X9750000Y-4676359D02*
X9750000Y-4983641D01*
X9500000Y-4676359D02*
X9500000Y-4983641D01*
X8740000Y-4676359D02*
X8740000Y-4983641D01*
X8570000Y-4666359D02*
X8570000Y-4973641D01*
X7810000Y-4666359D02*
X7810000Y-4973641D01*
X-12803641Y-19180000D02*
X-12496359Y-19180000D01*
X-12803641Y-18420000D02*
X-12496359Y-18420000D01*
X-12446359Y-17470000D02*
X-12753641Y-17470000D01*
X-12446359Y-18230000D02*
X-12753641Y-18230000D01*
X-10246359Y-8720000D02*
X-10553641Y-8720000D01*
X-10246359Y-9480000D02*
X-10553641Y-9480000D01*
X-12446359Y-8720000D02*
X-12753641Y-8720000D01*
X-12446359Y-9480000D02*
X-12753641Y-9480000D01*
X-14196359Y19405000D02*
X-14503641Y19405000D01*
X-14196359Y18645000D02*
X-14503641Y18645000D01*
X9304641Y19351000D02*
X8997359Y19351000D01*
X9304641Y18591000D02*
X8997359Y18591000D01*
X-4373641Y8190000D02*
X-4066359Y8190000D01*
X-4373641Y7430000D02*
X-4066359Y7430000D01*
X-14196360Y17370000D02*
X-14503642Y17370000D01*
X-14196360Y18130000D02*
X-14503642Y18130000D01*
X9303641Y17360000D02*
X8996359Y17360000D01*
X9303641Y18120000D02*
X8996359Y18120000D01*
X-10220000Y43641D02*
X-10220000Y-263641D01*
X-10980000Y43641D02*
X-10980000Y-263641D01*
X-11980000Y43641D02*
X-11980000Y-263641D01*
X-11220000Y43641D02*
X-11220000Y-263641D01*
X-2143641Y9130000D02*
X-1836359Y9130000D01*
X-2143641Y9890000D02*
X-1836359Y9890000D01*
X-13220000Y53641D02*
X-13220000Y-253641D01*
X-13980000Y53641D02*
X-13980000Y-253641D01*
X-12980000Y43641D02*
X-12980000Y-263641D01*
X-12220000Y43641D02*
X-12220000Y-263641D01*
X-12920000Y-11036360D02*
X-12920000Y-11343642D01*
X-13680000Y-11036360D02*
X-13680000Y-11343642D01*
X-13850000Y-16950000D02*
X-13850000Y-13250000D01*
X-17150000Y-13300000D02*
X-17150000Y-17000000D01*
X-15850000Y-13200000D02*
X-15150000Y-13200000D01*
X-15850000Y-17000000D02*
X-15150000Y-17000000D01*
X-17150000Y-17000000D02*
X-17050000Y-17000000D01*
X-13950000Y-16950000D02*
X-13850000Y-16950000D01*
X-13850000Y-13250000D02*
X-13950000Y-13250000D01*
X-17150000Y-13300000D02*
X-17050000Y-13300000D01*
D18*
X11400000Y-20450000D02*
X11400000Y-20000000D01*
X11400000Y-20000000D02*
X10950000Y-20000000D01*
X11260000Y-21950000D02*
X8850000Y-21950000D01*
X11260000Y-21950000D02*
X11260000Y-20150000D01*
X11260000Y-20150000D02*
X8850000Y-20150000D01*
X8850000Y-21950000D02*
X8850000Y-20150000D01*
D15*
X14740000Y-19770000D02*
X14740000Y-20700000D01*
X14740000Y-22930000D02*
X14740000Y-22000000D01*
X14740000Y-22930000D02*
X16900000Y-22930000D01*
X14740000Y-19770000D02*
X16200000Y-19770000D01*
X10345001Y-8535001D02*
X7895001Y-8535001D01*
X8545001Y-11755001D02*
X10345001Y-11755001D01*
X-10750000Y-14240000D02*
X-12550000Y-14240000D01*
X-12550000Y-17460000D02*
X-10100000Y-17460000D01*
X-9150000Y3950000D02*
X-9150000Y3425000D01*
X-6740000Y5760000D02*
X-7150000Y5760000D01*
X-6740000Y5350000D02*
X-6740000Y5760000D01*
X-6740000Y3340000D02*
X-7150000Y3340000D01*
X-6740000Y3750000D02*
X-6740000Y3340000D01*
X-9160000Y5760000D02*
X-8750000Y5760000D01*
X-9160000Y5350000D02*
X-9160000Y5760000D01*
X-12410000Y9150000D02*
X-12410000Y9560000D01*
X-12410000Y9560000D02*
X-12000000Y9560000D01*
X-9990000Y7550000D02*
X-9990000Y7140000D01*
X-9990000Y7140000D02*
X-10400000Y7140000D01*
X-9990000Y9150000D02*
X-9990000Y9560000D01*
X-9990000Y9560000D02*
X-10400000Y9560000D01*
X-12400000Y7750000D02*
X-12400000Y7225000D01*
X6436828Y5532916D02*
X7636828Y5532916D01*
X6436828Y6332916D02*
X6436828Y5532916D01*
X7636828Y6332916D02*
X6436828Y6332916D01*
X335876Y-344778D02*
X0Y-8903D01*
X0Y-7391097D02*
X335876Y-7055222D01*
X-335876Y-7055222D02*
X0Y-7391097D01*
X-3691097Y-3700000D02*
X-3355222Y-3364124D01*
X-3355222Y-4035876D02*
X-3691097Y-3700000D01*
X3691097Y-3700000D02*
X3355222Y-4035876D01*
X3355222Y-3364124D02*
X3691097Y-3700000D01*
D12*
X7811803Y-5950000D02*
G75*
G03*
X7811803Y-5950000I-111803J0D01*
G01*
X7700000Y-5950000D02*
X7700000Y-8150000D01*
X7688197Y-5950000D02*
X11100000Y-5950000D01*
X7700000Y-8150000D02*
X11100000Y-8150000D01*
X11100000Y-5950000D02*
X11100000Y-8150000D01*
X-10175000Y-11950000D02*
X-10175000Y-13450000D01*
X-12425000Y-10450000D02*
X-12425000Y-13450000D01*
D15*
X-14500000Y-20050000D02*
X-14500000Y-20050000D01*
X-15000000Y-20050000D02*
X-14500000Y-20050000D01*
X-14500000Y-18350000D02*
X-14500000Y-18350000D01*
X-14500000Y-17850000D02*
X-14500000Y-18350000D01*
X-15000000Y-17850000D02*
X-14500000Y-17850000D01*
X-16200000Y-17850000D02*
X-16200000Y-17850000D01*
X-16700000Y-17850000D02*
X-16200000Y-17850000D01*
X-16700000Y-18350000D02*
X-16700000Y-17850000D01*
X-16700000Y-19550000D02*
X-16700000Y-19550000D01*
X-16700000Y-20050000D02*
X-16700000Y-19550000D01*
X-16200000Y-20050000D02*
X-16700000Y-20050000D01*
X-9300000Y-20540000D02*
X-8300000Y-20540000D01*
X-10300000Y-22760000D02*
X-8300000Y-22760000D01*
X-8270000Y2100000D02*
X-9060000Y2100000D01*
X-6660000Y670000D02*
X-6660000Y450000D01*
X-8880000Y670000D02*
X-8880000Y450000D01*
X-9060000Y1310000D02*
X-9060000Y2100000D01*
X-5530000Y-3690000D02*
X-5530000Y-3390000D01*
X-4130000Y-3690000D02*
X-4130000Y-3390000D01*
X-5480000Y-4890000D02*
X-4180000Y-4890000D01*
X-8550000Y-13300000D02*
X-7250000Y-13300000D01*
X-7200000Y-12100000D02*
X-7200000Y-11800000D01*
X-8600000Y-12100000D02*
X-8600000Y-11800000D01*
X5060000Y-11457836D02*
X5060000Y-11242164D01*
X4340000Y-11457836D02*
X4340000Y-11242164D01*
X-10562164Y-1870000D02*
X-10777836Y-1870000D01*
X-10562164Y-2590000D02*
X-10777836Y-2590000D01*
X-11780000Y-2610000D02*
X-11780000Y-1810000D01*
X-13080000Y-2610000D02*
X-11780000Y-2610000D01*
X-13080000Y-1810000D02*
X-11780000Y-1810000D01*
X-8496359Y-1830000D02*
X-8803641Y-1830000D01*
X-8496359Y-2590000D02*
X-8803641Y-2590000D01*
X-11870000Y-8070000D02*
X-11420000Y-8520000D01*
X-8470000Y-8070000D02*
X-8920000Y-8520000D01*
X-8470000Y-3470000D02*
X-8920000Y-3020000D01*
X-11870000Y-3470000D02*
X-11420000Y-3020000D01*
X-7420000Y-4770000D02*
X-7420000Y-6770000D01*
X-11420000Y-8520000D02*
X-8920000Y-8520000D01*
X-12920000Y-4770000D02*
X-12920000Y-6770000D01*
X-11420000Y-3020000D02*
X-8920000Y-3020000D01*
X5880000Y-5350000D02*
G75*
G03*
X5880000Y-5350000I-700000J0D01*
G01*
X2830000Y-9350000D02*
G75*
G03*
X2830000Y-9350000I-700000J0D01*
G01*
D12*
X4422857Y-3573428D02*
X4765714Y-3573428D01*
X4594285Y-4173428D02*
X4594285Y-3573428D01*
X4965714Y-4173428D02*
X4965714Y-3573428D01*
X5194285Y-3573428D01*
X5251428Y-3602000D01*
X5280000Y-3630571D01*
X5308571Y-3687714D01*
X5308571Y-3773428D01*
X5280000Y-3830571D01*
X5251428Y-3859142D01*
X5194285Y-3887714D01*
X4965714Y-3887714D01*
X5508571Y-3573428D02*
X5908571Y-3573428D01*
X5651428Y-4173428D01*
D10*
D12*
X1372857Y-7573428D02*
X1715714Y-7573428D01*
X1544285Y-8173428D02*
X1544285Y-7573428D01*
X1915714Y-8173428D02*
X1915714Y-7573428D01*
X2144285Y-7573428D01*
X2201428Y-7602000D01*
X2230000Y-7630571D01*
X2258571Y-7687714D01*
X2258571Y-7773428D01*
X2230000Y-7830571D01*
X2201428Y-7859142D01*
X2144285Y-7887714D01*
X1915714Y-7887714D01*
X2544285Y-8173428D02*
X2658571Y-8173428D01*
X2715714Y-8144857D01*
X2744285Y-8116285D01*
X2801428Y-8030571D01*
X2830000Y-7916285D01*
X2830000Y-7687714D01*
X2801428Y-7630571D01*
X2772857Y-7602000D01*
X2715714Y-7573428D01*
X2601428Y-7573428D01*
X2544285Y-7602000D01*
X2515714Y-7630571D01*
X2487142Y-7687714D01*
X2487142Y-7830571D01*
X2515714Y-7887714D01*
X2544285Y-7916285D01*
X2601428Y-7944857D01*
X2715714Y-7944857D01*
X2772857Y-7916285D01*
X2801428Y-7887714D01*
X2830000Y-7830571D01*
D10*
M02*
