G04 #@! TF.GenerationSoftware,KiCad,Pcbnew,(5.1.8)-1*
G04 #@! TF.CreationDate,2021-01-12T15:50:27+01:00*
G04 #@! TF.ProjectId,pcb-LR1110,7063622d-4c52-4313-9131-302e6b696361,1.1*
G04 #@! TF.SameCoordinates,PX8f0d180PY5f5e100*
G04 #@! TF.FileFunction,Copper,L4,Bot*
G04 #@! TF.FilePolarity,Positive*
%FSLAX46Y46*%
G04 Gerber Fmt 4.6, Leading zero omitted, Abs format (unit mm)*
G04 Created by KiCad (PCBNEW (5.1.8)-1) date 2021-01-12 15:50:27*
%MOMM*%
%LPD*%
G01*
G04 APERTURE LIST*
G04 #@! TA.AperFunction,EtchedComponent*
%ADD10C,0.100000*%
G04 #@! TD*
G04 #@! TA.AperFunction,ComponentPad*
%ADD11O,1.700000X1.700000*%
G04 #@! TD*
G04 #@! TA.AperFunction,ComponentPad*
%ADD12R,1.700000X1.700000*%
G04 #@! TD*
G04 #@! TA.AperFunction,ComponentPad*
%ADD13R,1.000000X1.000000*%
G04 #@! TD*
G04 #@! TA.AperFunction,ComponentPad*
%ADD14O,1.000000X1.000000*%
G04 #@! TD*
G04 #@! TA.AperFunction,SMDPad,CuDef*
%ADD15R,1.500000X1.000000*%
G04 #@! TD*
G04 #@! TA.AperFunction,SMDPad,CuDef*
%ADD16C,1.500000*%
G04 #@! TD*
G04 #@! TA.AperFunction,SMDPad,CuDef*
%ADD17C,1.000000*%
G04 #@! TD*
G04 #@! TA.AperFunction,ViaPad*
%ADD18C,0.800000*%
G04 #@! TD*
G04 #@! TA.AperFunction,ViaPad*
%ADD19C,0.550000*%
G04 #@! TD*
G04 #@! TA.AperFunction,ViaPad*
%ADD20C,0.450000*%
G04 #@! TD*
G04 #@! TA.AperFunction,ViaPad*
%ADD21C,0.700000*%
G04 #@! TD*
G04 #@! TA.AperFunction,ViaPad*
%ADD22C,0.600000*%
G04 #@! TD*
G04 #@! TA.AperFunction,ViaPad*
%ADD23C,0.500000*%
G04 #@! TD*
G04 #@! TA.AperFunction,Conductor*
%ADD24C,0.400000*%
G04 #@! TD*
G04 #@! TA.AperFunction,Conductor*
%ADD25C,0.700000*%
G04 #@! TD*
G04 #@! TA.AperFunction,Conductor*
%ADD26C,0.500000*%
G04 #@! TD*
G04 #@! TA.AperFunction,Conductor*
%ADD27C,0.197575*%
G04 #@! TD*
G04 #@! TA.AperFunction,Conductor*
%ADD28C,0.350000*%
G04 #@! TD*
G04 #@! TA.AperFunction,Conductor*
%ADD29C,0.177800*%
G04 #@! TD*
G04 #@! TA.AperFunction,Conductor*
%ADD30C,0.859502*%
G04 #@! TD*
G04 #@! TA.AperFunction,Conductor*
%ADD31C,0.550000*%
G04 #@! TD*
G04 #@! TA.AperFunction,Conductor*
%ADD32C,0.200000*%
G04 #@! TD*
G04 #@! TA.AperFunction,Conductor*
%ADD33C,0.193000*%
G04 #@! TD*
G04 #@! TA.AperFunction,Conductor*
%ADD34C,0.152400*%
G04 #@! TD*
G04 #@! TA.AperFunction,Conductor*
%ADD35C,0.250000*%
G04 #@! TD*
G04 #@! TA.AperFunction,Conductor*
%ADD36C,0.254000*%
G04 #@! TD*
G04 #@! TA.AperFunction,Conductor*
%ADD37C,0.100000*%
G04 #@! TD*
G04 APERTURE END LIST*
D10*
G36*
X-5200000Y-15899999D02*
G01*
X-5200000Y-15399999D01*
X-5600000Y-15399999D01*
X-5600000Y-15899999D01*
X-5200000Y-15899999D01*
G37*
G36*
X-6000000Y-15899999D02*
G01*
X-6000000Y-15399999D01*
X-6400000Y-15399999D01*
X-6400000Y-15899999D01*
X-6000000Y-15899999D01*
G37*
D11*
X-15500000Y7740000D03*
X-15500000Y5200000D03*
X-15500000Y2660000D03*
X-15500000Y120000D03*
X-15500000Y-2420000D03*
X-15500000Y-4960000D03*
D12*
X-15500000Y-7500000D03*
X15500000Y-7540000D03*
D11*
X15500000Y-5000000D03*
X15500000Y-2460000D03*
X15500000Y80000D03*
X15500000Y2620000D03*
X15500000Y5160000D03*
X15500000Y7700000D03*
D13*
X-15400000Y-11600000D03*
D14*
X-15400000Y-10330000D03*
D15*
X-5800000Y-16299999D03*
X-5800000Y-14999999D03*
D16*
X16120000Y-9980000D03*
X11450000Y-17150000D03*
X12300000Y-2550000D03*
X5500000Y-15500000D03*
X6550000Y-20850000D03*
D17*
X-4700000Y-2020000D03*
X4559000Y-5518000D03*
X-200000Y-9325000D03*
X968000Y-6248000D03*
X-1185000Y-8104000D03*
D18*
X14650000Y-10600000D03*
X16980000Y-17590000D03*
X17422600Y-21747599D03*
D19*
X10060000Y-19560000D03*
X-2725000Y1775000D03*
X-4190000Y2120000D03*
X-7940000Y4570000D03*
D20*
X-11020000Y6410000D03*
X-11200000Y8350000D03*
X-4890000Y8890000D03*
X-6450000Y8850000D03*
X6930000Y90000D03*
X7540000Y1150000D03*
X-13490000Y3560000D03*
X-9320000Y3560000D03*
D19*
X-5831124Y-3587013D03*
X4610000Y-12560000D03*
X4100000Y-22350000D03*
X1700000Y-16400000D03*
X0Y-16400000D03*
X-1800000Y-16400000D03*
X0Y-13000000D03*
X1700000Y-14600000D03*
X0Y-14600000D03*
X900000Y-4600000D03*
X1650000Y-3800000D03*
X850000Y-3000000D03*
X0Y-2150000D03*
X-800000Y-4600000D03*
X-1700000Y-3650000D03*
X7000000Y-19500006D03*
X4400000Y-18700000D03*
X-9900000Y-11900000D03*
D21*
X-5750000Y-8150000D03*
D22*
X10000000Y-17400000D03*
X10000000Y-15600000D03*
D19*
X10175000Y-22425000D03*
X3500000Y-21025000D03*
X8000000Y-22050000D03*
X6535000Y-22547600D03*
X5215000Y-22547600D03*
X-3600000Y-20050000D03*
X12317410Y-12664905D03*
X7655001Y-10145001D03*
X12120000Y-4350000D03*
X8210000Y-8380000D03*
X5552938Y-16676210D03*
X3312910Y-18559429D03*
X-9900000Y-10427410D03*
X-4710000Y-10177410D03*
X-13350350Y-9869525D03*
X-11275000Y-11975000D03*
X-16447000Y-17448000D03*
X-13317000Y-21581000D03*
X-17368000Y-21759000D03*
X-17395000Y-20813000D03*
X-11319697Y-15644391D03*
X-9897486Y-13250590D03*
X-15884370Y-18711607D03*
X-8231672Y-16522695D03*
X-2005242Y-14797590D03*
X15446000Y-20548000D03*
X11824000Y-22161000D03*
X2164996Y-19210310D03*
X8271000Y6370000D03*
D21*
X-3011634Y-8261634D03*
D19*
X-5507850Y-10824395D03*
X-2295068Y-10338841D03*
X49475Y-3713630D03*
X-873502Y-2790654D03*
D20*
X-9430523Y-143910D03*
X-9557682Y1203818D03*
X-9897477Y2626197D03*
D19*
X-7720000Y8820000D03*
X-4250000Y6400000D03*
X-10386698Y-2653302D03*
X-3420000Y1253222D03*
X6090000Y5630000D03*
X3670000Y5170000D03*
X4420000Y4340000D03*
X5030000Y2320000D03*
X1920000Y6270000D03*
X1960000Y5560000D03*
X1970000Y4850000D03*
X1970000Y4180000D03*
X1960000Y3470000D03*
X1970000Y2840000D03*
X1980000Y2140000D03*
X1120000Y6470000D03*
X3570000Y5880000D03*
X3520000Y6600000D03*
X5790000Y6520000D03*
X5110000Y7120000D03*
X4340000Y7320000D03*
X3260000Y7300000D03*
X4550000Y8700000D03*
X3550000Y8650000D03*
X2490000Y8640000D03*
X5540000Y8730000D03*
X6510000Y8780000D03*
X7400000Y8820000D03*
D20*
X-1480000Y4370000D03*
X-3290000Y4380000D03*
X-5130000Y4350000D03*
X-4060000Y1340000D03*
X-3340000Y1990000D03*
X5500000Y-3320000D03*
X7240000Y-4080000D03*
X7850000Y-3340000D03*
X6610000Y-1370000D03*
X7270000Y-680000D03*
X7940000Y-90000D03*
X8860000Y-2570000D03*
X9400000Y-2010000D03*
X10000000Y-1380000D03*
X10950000Y840000D03*
X10310000Y1510000D03*
X10130000Y2620000D03*
X10000000Y3500000D03*
X10000000Y4200000D03*
X10000000Y5000000D03*
X10000000Y5800000D03*
X10000000Y6600000D03*
X10000000Y7400000D03*
X10000000Y8300000D03*
X9600000Y9200000D03*
X9000000Y9800000D03*
X7800000Y10100000D03*
X6800000Y10100000D03*
X5700000Y10100000D03*
X4600000Y10100000D03*
X3600000Y10100000D03*
X2600000Y10100000D03*
X1900000Y10100000D03*
X800000Y10300000D03*
X-1100000Y10300000D03*
X-2000000Y10300000D03*
X-3100000Y10200000D03*
X-3900000Y10200000D03*
X-5000000Y10200000D03*
X-6200000Y10200000D03*
X-7200000Y10200000D03*
X-8200000Y10200000D03*
X-9200000Y10200000D03*
X-4100000Y8900000D03*
X-3100000Y8900000D03*
X-2000000Y8800000D03*
X-1300000Y8600000D03*
X300000Y8800000D03*
X1500000Y8800000D03*
X-10200000Y9400000D03*
X-12100000Y10250000D03*
X-12300000Y9500000D03*
X-12900000Y9200000D03*
X-13500000Y9500000D03*
X-14100000Y10000000D03*
X-14900000Y10300000D03*
X-15700000Y10300000D03*
X-16300000Y10300000D03*
X-17600000Y10000000D03*
X-17200000Y9500000D03*
X-16600000Y9200000D03*
X-15800000Y9100000D03*
X-14900000Y9100000D03*
X-14200000Y8500000D03*
X-13500000Y8000000D03*
X-12700000Y7700000D03*
X-12600000Y7000000D03*
X-12600000Y6300000D03*
X-12600000Y5500000D03*
X-13300000Y5100000D03*
X-13600000Y4300000D03*
X8800000Y4200000D03*
X8800000Y3400000D03*
X8400000Y2600000D03*
X8600000Y2000000D03*
X8600000Y1200000D03*
X8400000Y600000D03*
X7200000Y2400000D03*
X7200000Y3000000D03*
X8200000Y3600000D03*
X5700000Y4600000D03*
X5700000Y3600000D03*
X5600000Y2600000D03*
X8200000Y8700000D03*
X8700000Y8200000D03*
D23*
X-17258401Y8082401D03*
X-16606001Y-15403999D03*
X-15301201Y-16708799D03*
X-13996401Y6777601D03*
X-13344001Y-6270399D03*
X-4862801Y-20623199D03*
X-4210401Y-21927999D03*
X10794799Y10039601D03*
X11447199Y8734801D03*
X11447199Y6777601D03*
X12751999Y10039601D03*
X12751999Y8082401D03*
X13404399Y4820401D03*
X13404399Y2863201D03*
X13404399Y-1051199D03*
X14056799Y9387201D03*
X15361599Y10039601D03*
X16666399Y9387201D03*
D20*
X-5796001Y-6334799D03*
X-5193601Y-21997199D03*
X11071199Y5713201D03*
X11071199Y4508401D03*
X11071199Y3303601D03*
X12878399Y1496401D03*
X17095199Y8122801D03*
X17095199Y6918001D03*
X17095199Y5713201D03*
X17095199Y4508401D03*
X17095199Y3303601D03*
X17095199Y2098801D03*
X17095199Y894001D03*
X17095199Y-310799D03*
X17095199Y-1515599D03*
X17095199Y-2720399D03*
X17095199Y-4527599D03*
X9950000Y-150000D03*
D19*
X100000Y-5400008D03*
X-2043607Y-12952410D03*
X1950000Y-13000000D03*
D20*
X-150000Y10300000D03*
X-13150000Y10250000D03*
X-17600000Y6500000D03*
X-17600000Y3900000D03*
X-4750000Y-21350000D03*
X11850000Y-14150000D03*
X8870000Y-8380000D03*
X8300000Y4550000D03*
D19*
X-7414053Y-15044227D03*
X-14403270Y-15606521D03*
X-4374132Y-14200000D03*
X13070000Y-17150000D03*
X4850000Y-21750000D03*
X4800000Y-20700000D03*
X5250000Y-21200000D03*
X5050000Y-20000000D03*
X-7700000Y-13627454D03*
X-3000000Y-9300000D03*
D22*
X-5450000Y-11750000D03*
D19*
X-6813556Y-13113562D03*
X5470000Y-11890000D03*
X-13832876Y-8942124D03*
X-11475000Y-9697598D03*
X-9796000Y-17459000D03*
X-9794000Y-16800000D03*
X-9055800Y-17086440D03*
X-2350416Y-9397116D03*
X6119986Y-8680014D03*
X-1850000Y-19000000D03*
X8691191Y-22412180D03*
X-7710000Y6400000D03*
D20*
X-9920000Y6010000D03*
D19*
X7370000Y7976000D03*
X-9646344Y-1357398D03*
X-10597548Y-3716090D03*
X-11260121Y-3987697D03*
X-8926000Y8142766D03*
X-100000Y1800000D03*
X540000Y5960000D03*
X-100000Y-147811D03*
X-80000Y900000D03*
X-13712000Y-20498000D03*
X-13054846Y-20185403D03*
X-14029628Y-18140074D03*
X-11699830Y-18603723D03*
X-12097393Y-17876607D03*
X11640000Y-9530000D03*
X11690000Y-10330000D03*
X11580000Y-6500000D03*
X12050000Y-5950004D03*
X-13340000Y-4990000D03*
X-7032404Y-5294732D03*
X-360000Y-7400000D03*
X-1400000Y-6890000D03*
X-3432133Y-342133D03*
X-6971999Y6478598D03*
X-11552189Y930009D03*
X-6264581Y6481902D03*
X-10600000Y1030000D03*
X-12600000Y960002D03*
X-9603651Y7957912D03*
X-13596089Y964092D03*
X-9894592Y7318600D03*
X-4275000Y-15425000D03*
X-7388151Y-15762590D03*
X3345109Y-10912335D03*
X-6769971Y-15324479D03*
X6010906Y-6787504D03*
X4804954Y-7150222D03*
X-7341826Y-17695388D03*
X-8043742Y-17667130D03*
X-8030000Y-19720000D03*
X-12660003Y-13089997D03*
X-14018662Y-17437748D03*
X-5993483Y-18397371D03*
X10800000Y-50000D03*
X-279191Y-10250677D03*
X-10510000Y-19680000D03*
X-12560000Y-14100000D03*
X-13989376Y-18841332D03*
X371691Y-10559722D03*
X9393495Y-22399862D03*
X5620000Y-15540000D03*
X6449767Y-14770987D03*
X-9588885Y-15117116D03*
X3900619Y-18174747D03*
X7410000Y-5810000D03*
X-9810302Y-674390D03*
X1923610Y-6704568D03*
X-11110000Y-1320000D03*
X1420000Y-7250000D03*
X-3612658Y-5654095D03*
X-13150000Y-1380000D03*
X-3559388Y-4953706D03*
X-12020000Y-1390000D03*
X1250000Y-19400000D03*
X8232000Y5417000D03*
X4000000Y-10330000D03*
X6559258Y-5494997D03*
X-15194891Y-20386935D03*
X-6877107Y-17075103D03*
X-5605628Y-17362778D03*
X-15956000Y-20356000D03*
X-5204885Y-19047065D03*
X3791820Y-5016947D03*
X2916634Y-7600154D03*
X549573Y-19347236D03*
X-4157073Y-18585455D03*
X4323854Y-8001247D03*
X5250000Y-18160000D03*
X11617403Y-7201416D03*
X7150000Y-7050000D03*
X4708690Y-17492310D03*
X11415181Y-7908658D03*
X4293203Y-16032370D03*
X2449807Y-5733937D03*
X2983407Y-6327804D03*
X1604647Y-8018811D03*
X676528Y-9507449D03*
X-3750000Y-4170000D03*
X763728Y-8498184D03*
X387106Y-7378661D03*
X-3400000Y-2000000D03*
X-3500000Y-7400000D03*
X-11777410Y-7784745D03*
X-983046Y-10247459D03*
X9792843Y-12872843D03*
X9227157Y-12307157D03*
D24*
X-5800000Y-16299999D02*
X-7030557Y-16299999D01*
X-7253253Y-16522695D02*
X-8231672Y-16522695D01*
X-7030557Y-16299999D02*
X-7253253Y-16522695D01*
D25*
X16120000Y-9980000D02*
X16120000Y-9890000D01*
X16120000Y-9890000D02*
X15530000Y-9300000D01*
X15530000Y-9300000D02*
X15530000Y-7560000D01*
D26*
X11450000Y-17150000D02*
X13070000Y-17150000D01*
D25*
X12300000Y-2550000D02*
X15500000Y-2550000D01*
D27*
X8691191Y-22412180D02*
X8691191Y-21441191D01*
X8691191Y-21441191D02*
X8130000Y-20880000D01*
X8130000Y-20880000D02*
X6560000Y-20880000D01*
X6560000Y-20880000D02*
X6540000Y-20900000D01*
X6540000Y-19850000D02*
X6540000Y-20780000D01*
X3800000Y-19350000D02*
X6040000Y-19350000D01*
X2710000Y-20440000D02*
X3800000Y-19350000D01*
X6040000Y-19350000D02*
X6540000Y-19850000D01*
X-410000Y-20440000D02*
X2710000Y-20440000D01*
X-1850000Y-19000000D02*
X-410000Y-20440000D01*
D28*
X-8956500Y5153500D02*
X-8956500Y5046500D01*
X-7710000Y6400000D02*
X-8956500Y5153500D01*
X-8956500Y5046500D02*
X-9920000Y6010000D01*
X-8659000Y4749000D02*
X-8659000Y-758962D01*
X-8659000Y-758962D02*
X-9257436Y-1357398D01*
X-8956500Y5046500D02*
X-8659000Y4749000D01*
X-9257436Y-1357398D02*
X-9646344Y-1357398D01*
D29*
X-5560000Y5960000D02*
X-5560000Y6710000D01*
X-8150000Y3370000D02*
X-5560000Y5960000D01*
X-6992766Y8142766D02*
X-8926000Y8142766D01*
X-5560000Y6710000D02*
X-6992766Y8142766D01*
X-8150000Y-1030000D02*
X-8150000Y3370000D01*
X-9257001Y-2137001D02*
X-8150000Y-1030000D01*
X-10628421Y-2137001D02*
X-9257001Y-2137001D01*
X-11260121Y-2768701D02*
X-10628421Y-2137001D01*
X-11260121Y-3987697D02*
X-11260121Y-2768701D01*
D30*
X-100000Y1800000D02*
X-100000Y-147811D01*
D31*
X-739847Y-7176599D02*
X-516446Y-7400000D01*
X-1113401Y-7176599D02*
X-739847Y-7176599D01*
X-516446Y-7400000D02*
X-360000Y-7400000D01*
X-2600000Y-5690000D02*
X-1113401Y-7176599D01*
X-2600000Y-1174266D02*
X-2600000Y-5690000D01*
X-3432133Y-342133D02*
X-2600000Y-1174266D01*
D28*
X-4275000Y-15425000D02*
X-4700000Y-15000000D01*
X-4700000Y-15000000D02*
X-5875000Y-15000000D01*
D26*
X-6050000Y-15300000D02*
X-6745492Y-15300000D01*
X-6745492Y-15300000D02*
X-6769971Y-15324479D01*
D24*
X-7208082Y-15762590D02*
X-6769971Y-15324479D01*
X-7388151Y-15762590D02*
X-7208082Y-15762590D01*
D29*
X-13750000Y-17169086D02*
X-14018662Y-17437748D01*
X-13750000Y-14179994D02*
X-13750000Y-17169086D01*
X-12660003Y-13089997D02*
X-13750000Y-14179994D01*
D32*
X9431092Y-800000D02*
X5497589Y-4733503D01*
D33*
X-3445411Y-16444187D02*
X-3445411Y-12776927D01*
X-5993483Y-18397371D02*
X-5398595Y-18397371D01*
X-279191Y-10639585D02*
X-279191Y-10250677D01*
X-5398595Y-18397371D02*
X-3445411Y-16444187D01*
D32*
X-101101Y-10250677D02*
X-279191Y-10250677D01*
D33*
X-3445411Y-12776927D02*
X-2323073Y-11654589D01*
X-1294195Y-11654589D02*
X-279191Y-10639585D01*
D32*
X118676Y-10030900D02*
X-101101Y-10250677D01*
X5497589Y-4733503D02*
X5497589Y-5692965D01*
X419425Y-10030900D02*
X118676Y-10030900D01*
X423375Y-10034850D02*
X419425Y-10030900D01*
X1262494Y-10034850D02*
X423375Y-10034850D01*
X3444036Y-7853308D02*
X1262494Y-10034850D01*
D33*
X-2323073Y-11654589D02*
X-1294195Y-11654589D01*
D32*
X3444036Y-7085964D02*
X3444036Y-7853308D01*
X4259599Y-6270401D02*
X3444036Y-7085964D01*
X4920153Y-6270401D02*
X4259599Y-6270401D01*
X5497589Y-5692965D02*
X4920153Y-6270401D01*
X10800000Y-50000D02*
X10050000Y-800000D01*
X10050000Y-800000D02*
X9431092Y-800000D01*
D33*
X-10510000Y-19680000D02*
X-9641211Y-18811211D01*
X-4680983Y-18367983D02*
X-3080000Y-16767000D01*
X-6463909Y-19226091D02*
X-5839285Y-19226091D01*
X-6878789Y-18811211D02*
X-6463909Y-19226091D01*
X-4953411Y-19570967D02*
X-4680983Y-19298539D01*
X-4680983Y-19298539D02*
X-4680983Y-18367983D01*
X-9641211Y-18811211D02*
X-6878789Y-18811211D01*
X-2180000Y-12000000D02*
X-1068587Y-12000000D01*
X-5839285Y-19226091D02*
X-5494409Y-19570967D01*
X-5494409Y-19570967D02*
X-4953411Y-19570967D01*
X-3080000Y-12900000D02*
X-2180000Y-12000000D01*
X-3080000Y-16767000D02*
X-3080000Y-12900000D01*
X-1068587Y-12000000D02*
X371691Y-10559722D01*
D29*
X-13350000Y-18201956D02*
X-13989376Y-18841332D01*
X-12560000Y-14100000D02*
X-13350000Y-14890000D01*
X-13350000Y-14890000D02*
X-13350000Y-18201956D01*
D32*
X8190000Y-4750000D02*
X15510000Y2570000D01*
X6150000Y-4750000D02*
X8190000Y-4750000D01*
X5850000Y-5050000D02*
X6150000Y-4750000D01*
X5850000Y-5938384D02*
X5850000Y-5050000D01*
X5165572Y-6622812D02*
X5850000Y-5938384D01*
X4545572Y-6622812D02*
X5165572Y-6622812D01*
X3796447Y-7371937D02*
X4545572Y-6622812D01*
X3796447Y-8103553D02*
X3796447Y-7371937D01*
X1340278Y-10559722D02*
X3796447Y-8103553D01*
X371691Y-10559722D02*
X1340278Y-10559722D01*
D27*
X9393495Y-19313495D02*
X9393495Y-22399862D01*
X5620000Y-15540000D02*
X9393495Y-19313495D01*
D29*
X5139090Y-13425000D02*
X8653488Y-9910602D01*
X6575000Y-6645000D02*
X7410000Y-5810000D01*
X4150000Y-13425000D02*
X5139090Y-13425000D01*
X3050000Y-17324128D02*
X3050000Y-14525000D01*
X8653488Y-9910602D02*
X6575000Y-7832114D01*
X6575000Y-7832114D02*
X6575000Y-6645000D01*
X3050000Y-14525000D02*
X4150000Y-13425000D01*
X3900619Y-18174747D02*
X3050000Y-17324128D01*
D34*
X-9284988Y-18107000D02*
X-8253091Y-17075103D01*
X-13032489Y-17258461D02*
X-12567517Y-16793489D01*
X-10248000Y-18107000D02*
X-9284988Y-18107000D01*
X-15194891Y-20386935D02*
X-14789649Y-20386935D01*
X-8253091Y-17075103D02*
X-6877107Y-17075103D01*
X-12567517Y-16793489D02*
X-11561511Y-16793489D01*
X-13032489Y-18629775D02*
X-13032489Y-17258461D01*
X-14789649Y-20386935D02*
X-13032489Y-18629775D01*
X-11561511Y-16793489D02*
X-10248000Y-18107000D01*
X-5605628Y-17362778D02*
X-6293844Y-17362778D01*
X-10371066Y-18415000D02*
X-11579066Y-17207000D01*
X-14891884Y-20928000D02*
X-15384000Y-20928000D01*
X-12727678Y-18763794D02*
X-14891884Y-20928000D01*
X-12727678Y-17503678D02*
X-12727678Y-18763794D01*
X-12431000Y-17207000D02*
X-12727678Y-17503678D01*
X-7346066Y-18415000D02*
X-10371066Y-18415000D01*
X-6293844Y-17362778D02*
X-7346066Y-18415000D01*
X-15384000Y-20928000D02*
X-15956000Y-20356000D01*
X-11579066Y-17207000D02*
X-12431000Y-17207000D01*
D27*
X4292873Y-5518000D02*
X3791820Y-5016947D01*
X4559000Y-5518000D02*
X4292873Y-5518000D01*
D34*
X1512949Y-9003839D02*
X2916634Y-7600154D01*
X149729Y-8596399D02*
X557169Y-9003839D01*
X-1620729Y-8947601D02*
X-900931Y-8947601D01*
X-1999601Y-8568729D02*
X-1620729Y-8947601D01*
X-5204885Y-19047065D02*
X-5350969Y-18900981D01*
X-5350969Y-18900981D02*
X-6219019Y-18900981D01*
X-900931Y-8947601D02*
X-549729Y-8596399D01*
X-6219019Y-18900981D02*
X-6497085Y-18622915D01*
X-6497085Y-18155641D02*
X-6235213Y-17893769D01*
X557169Y-9003839D02*
X1512949Y-9003839D01*
X-3770522Y-16269520D02*
X-3770522Y-10279478D01*
X-6235213Y-17893769D02*
X-5394771Y-17893769D01*
X-1999601Y-7873399D02*
X-1999601Y-8568729D01*
X-5394771Y-17893769D02*
X-3770522Y-16269520D01*
X-549729Y-8596399D02*
X149729Y-8596399D01*
X-3073000Y-6800000D02*
X-1999601Y-7873399D01*
X-6497085Y-18622915D02*
X-6497085Y-18155641D01*
X-3770522Y-10279478D02*
X-4500000Y-9550000D01*
X-4500000Y-9550000D02*
X-4500000Y-7500000D01*
X-4500000Y-7500000D02*
X-3800000Y-6800000D01*
X-3800000Y-6800000D02*
X-3073000Y-6800000D01*
X4323854Y-8176146D02*
X4323854Y-8001247D01*
X1611667Y-10888333D02*
X4323854Y-8176146D01*
X811667Y-10888333D02*
X1611667Y-10888333D01*
X-2754889Y-14454889D02*
X811667Y-10888333D01*
X-2754889Y-17183271D02*
X-2754889Y-14454889D01*
X-4157073Y-18585455D02*
X-2754889Y-17183271D01*
D29*
X10800000Y-9025000D02*
X10800000Y-7629911D01*
X5725000Y-14100000D02*
X10800000Y-9025000D01*
X4650000Y-14100000D02*
X5725000Y-14100000D01*
X3734000Y-15016000D02*
X4650000Y-14100000D01*
X3734000Y-16626000D02*
X3734000Y-15016000D01*
X4084009Y-16976009D02*
X3734000Y-16626000D01*
X10800000Y-7629911D02*
X11228495Y-7201416D01*
X5045009Y-16976009D02*
X4084009Y-16976009D01*
X11228495Y-7201416D02*
X11617403Y-7201416D01*
X5250000Y-17181000D02*
X5045009Y-16976009D01*
X5250000Y-18160000D02*
X5250000Y-17181000D01*
X3798322Y-17492310D02*
X4708690Y-17492310D01*
X3380211Y-17074199D02*
X3798322Y-17492310D01*
X3380211Y-14736777D02*
X3380211Y-17074199D01*
X9650000Y-9641988D02*
X5536777Y-13755211D01*
X9650000Y-8000000D02*
X9650000Y-9641988D01*
X4361777Y-13755211D02*
X3380211Y-14736777D01*
X8700000Y-7050000D02*
X9650000Y-8000000D01*
X5536777Y-13755211D02*
X4361777Y-13755211D01*
X7150000Y-7050000D02*
X8700000Y-7050000D01*
D32*
X4293203Y-15056797D02*
X4293203Y-16032370D01*
X4852401Y-14497599D02*
X4293203Y-15056797D01*
X5910087Y-14497599D02*
X4852401Y-14497599D01*
X11415181Y-8992505D02*
X5910087Y-14497599D01*
X11415181Y-7908658D02*
X11415181Y-8992505D01*
D27*
X1524063Y-5733937D02*
X2449807Y-5733937D01*
X1015000Y-6243000D02*
X1524063Y-5733937D01*
X-17551Y-9507449D02*
X676528Y-9507449D01*
X-200000Y-9325000D02*
X-17551Y-9507449D01*
D35*
X-1060412Y-8161588D02*
X427132Y-8161588D01*
X427132Y-8161588D02*
X763728Y-8498184D01*
D33*
X-3420000Y-2020000D02*
X-3400000Y-2000000D01*
X-4700000Y-2020000D02*
X-3420000Y-2020000D01*
D29*
X-965690Y-10390690D02*
X-965690Y-10264815D01*
X-3500000Y-7400000D02*
X-3037028Y-7400000D01*
X-2317112Y-8700246D02*
X-983046Y-10034312D01*
X-983046Y-10034312D02*
X-983046Y-10247459D01*
X-2317112Y-8119916D02*
X-2317112Y-8700246D01*
X-3037028Y-7400000D02*
X-2317112Y-8119916D01*
X-965690Y-10264815D02*
X-983046Y-10247459D01*
D36*
X5504464Y-7203130D02*
X5595280Y-7293946D01*
X5702068Y-7365299D01*
X5820725Y-7414448D01*
X5946690Y-7439504D01*
X6075122Y-7439504D01*
X6109100Y-7432745D01*
X6109100Y-7809230D01*
X6106846Y-7832114D01*
X6109100Y-7854998D01*
X6109100Y-7854999D01*
X6115841Y-7923445D01*
X6142482Y-8011268D01*
X6151433Y-8028014D01*
X6055770Y-8028014D01*
X5929805Y-8053070D01*
X5811148Y-8102219D01*
X5704360Y-8173572D01*
X5613544Y-8264388D01*
X5542191Y-8371176D01*
X5493042Y-8489833D01*
X5467986Y-8615798D01*
X5467986Y-8744230D01*
X5493042Y-8870195D01*
X5542191Y-8988852D01*
X5613544Y-9095640D01*
X5704360Y-9186456D01*
X5811148Y-9257809D01*
X5929805Y-9306958D01*
X6055770Y-9332014D01*
X6184202Y-9332014D01*
X6310167Y-9306958D01*
X6428824Y-9257809D01*
X6535612Y-9186456D01*
X6626428Y-9095640D01*
X6697781Y-8988852D01*
X6746930Y-8870195D01*
X6771986Y-8744230D01*
X6771986Y-8687981D01*
X7994606Y-9910602D01*
X6114936Y-11790272D01*
X6096944Y-11699819D01*
X6047795Y-11581162D01*
X5976442Y-11474374D01*
X5885626Y-11383558D01*
X5778838Y-11312205D01*
X5660181Y-11263056D01*
X5534216Y-11238000D01*
X5405784Y-11238000D01*
X5279819Y-11263056D01*
X5161162Y-11312205D01*
X5054374Y-11383558D01*
X4963558Y-11474374D01*
X4892205Y-11581162D01*
X4843056Y-11699819D01*
X4818000Y-11825784D01*
X4818000Y-11954216D01*
X4843056Y-12080181D01*
X4892205Y-12198838D01*
X4963558Y-12305626D01*
X5054374Y-12396442D01*
X5161162Y-12467795D01*
X5279819Y-12516944D01*
X5370273Y-12534936D01*
X4946109Y-12959100D01*
X4172884Y-12959100D01*
X4150000Y-12956846D01*
X4127116Y-12959100D01*
X4127114Y-12959100D01*
X4058668Y-12965841D01*
X3970845Y-12992482D01*
X3889908Y-13035744D01*
X3818965Y-13093965D01*
X3804376Y-13111742D01*
X2736743Y-14179376D01*
X2718966Y-14193965D01*
X2704377Y-14211742D01*
X2660745Y-14264908D01*
X2617482Y-14345846D01*
X2590842Y-14433668D01*
X2581846Y-14525000D01*
X2584101Y-14547894D01*
X2584100Y-17301244D01*
X2581846Y-17324128D01*
X2584100Y-17347012D01*
X2584100Y-17347013D01*
X2590841Y-17415459D01*
X2617482Y-17503282D01*
X2660744Y-17584219D01*
X2718965Y-17655163D01*
X2736748Y-17669757D01*
X3248619Y-18181629D01*
X3248619Y-18238963D01*
X3273675Y-18364928D01*
X3322824Y-18483585D01*
X3394177Y-18590373D01*
X3484993Y-18681189D01*
X3591781Y-18752542D01*
X3710438Y-18801691D01*
X3836403Y-18826747D01*
X3964835Y-18826747D01*
X4090800Y-18801691D01*
X4209457Y-18752542D01*
X4316245Y-18681189D01*
X4407061Y-18590373D01*
X4478414Y-18483585D01*
X4527563Y-18364928D01*
X4552619Y-18238963D01*
X4552619Y-18126039D01*
X4598000Y-18135066D01*
X4598000Y-18224216D01*
X4623056Y-18350181D01*
X4672205Y-18468838D01*
X4743558Y-18575626D01*
X4834374Y-18666442D01*
X4941162Y-18737795D01*
X5059819Y-18786944D01*
X5185784Y-18812000D01*
X5314216Y-18812000D01*
X5440181Y-18786944D01*
X5558838Y-18737795D01*
X5665626Y-18666442D01*
X5756442Y-18575626D01*
X5827795Y-18468838D01*
X5876944Y-18350181D01*
X5902000Y-18224216D01*
X5902000Y-18095784D01*
X5876944Y-17969819D01*
X5827795Y-17851162D01*
X5756442Y-17744374D01*
X5715900Y-17703832D01*
X5715900Y-17203883D01*
X5718154Y-17180999D01*
X5714049Y-17139319D01*
X5709159Y-17089668D01*
X5682518Y-17001845D01*
X5639256Y-16920908D01*
X5581035Y-16849965D01*
X5563252Y-16835371D01*
X5390638Y-16662757D01*
X5376044Y-16644974D01*
X5342991Y-16617848D01*
X5389000Y-16627000D01*
X5611000Y-16627000D01*
X5828734Y-16583690D01*
X5943350Y-16536214D01*
X8917708Y-19510573D01*
X8917709Y-20994844D01*
X8482960Y-20560096D01*
X8468060Y-20541940D01*
X8422111Y-20504231D01*
X8395611Y-20482483D01*
X8350287Y-20458257D01*
X8312957Y-20438303D01*
X8223271Y-20411097D01*
X8153374Y-20404213D01*
X8153371Y-20404213D01*
X8130000Y-20401911D01*
X8106629Y-20404213D01*
X7585205Y-20404213D01*
X7548734Y-20316165D01*
X7425398Y-20131579D01*
X7268421Y-19974602D01*
X7083835Y-19851266D01*
X7015423Y-19822929D01*
X7008903Y-19756729D01*
X6981697Y-19667043D01*
X6980833Y-19665426D01*
X6937517Y-19584388D01*
X6892960Y-19530095D01*
X6892956Y-19530091D01*
X6878060Y-19511940D01*
X6859909Y-19497044D01*
X6392960Y-19030096D01*
X6378060Y-19011940D01*
X6305612Y-18952484D01*
X6305613Y-18952484D01*
X6305611Y-18952483D01*
X6259129Y-18927638D01*
X6222957Y-18908303D01*
X6133271Y-18881097D01*
X6063374Y-18874213D01*
X6063371Y-18874213D01*
X6040000Y-18871911D01*
X6016629Y-18874213D01*
X3823371Y-18874213D01*
X3800000Y-18871911D01*
X3776629Y-18874213D01*
X3776626Y-18874213D01*
X3706729Y-18881097D01*
X3619806Y-18907465D01*
X3617043Y-18908303D01*
X3534388Y-18952483D01*
X3480095Y-18997040D01*
X3480091Y-18997044D01*
X3461940Y-19011940D01*
X3447044Y-19030091D01*
X2512923Y-19964213D01*
X1579165Y-19964213D01*
X1665626Y-19906442D01*
X1756442Y-19815626D01*
X1827795Y-19708838D01*
X1876944Y-19590181D01*
X1902000Y-19464216D01*
X1902000Y-19335784D01*
X1876944Y-19209819D01*
X1827795Y-19091162D01*
X1756442Y-18984374D01*
X1665626Y-18893558D01*
X1558838Y-18822205D01*
X1440181Y-18773056D01*
X1314216Y-18748000D01*
X1185784Y-18748000D01*
X1059819Y-18773056D01*
X941162Y-18822205D01*
X939270Y-18823469D01*
X858411Y-18769441D01*
X739754Y-18720292D01*
X613789Y-18695236D01*
X485357Y-18695236D01*
X359392Y-18720292D01*
X240735Y-18769441D01*
X133947Y-18840794D01*
X43131Y-18931610D01*
X-28222Y-19038398D01*
X-77371Y-19157055D01*
X-102427Y-19283020D01*
X-102427Y-19411452D01*
X-77371Y-19537417D01*
X-28222Y-19656074D01*
X43131Y-19762862D01*
X133947Y-19853678D01*
X240735Y-19925031D01*
X335329Y-19964213D01*
X-212923Y-19964213D01*
X-1198000Y-18979136D01*
X-1198000Y-18935784D01*
X-1223056Y-18809819D01*
X-1272205Y-18691162D01*
X-1343558Y-18584374D01*
X-1434374Y-18493558D01*
X-1541162Y-18422205D01*
X-1659819Y-18373056D01*
X-1785784Y-18348000D01*
X-1914216Y-18348000D01*
X-2040181Y-18373056D01*
X-2158838Y-18422205D01*
X-2265626Y-18493558D01*
X-2356442Y-18584374D01*
X-2427795Y-18691162D01*
X-2476944Y-18809819D01*
X-2502000Y-18935784D01*
X-2502000Y-19064216D01*
X-2476944Y-19190181D01*
X-2427795Y-19308838D01*
X-2356442Y-19415626D01*
X-2265626Y-19506442D01*
X-2158838Y-19577795D01*
X-2040181Y-19626944D01*
X-1914216Y-19652000D01*
X-1870864Y-19652000D01*
X-762961Y-20759903D01*
X-748060Y-20778060D01*
X-729904Y-20792960D01*
X-675612Y-20837517D01*
X-608859Y-20873197D01*
X-592957Y-20881697D01*
X-503271Y-20908903D01*
X-433374Y-20915787D01*
X-433371Y-20915787D01*
X-410000Y-20918089D01*
X-386629Y-20915787D01*
X2686629Y-20915787D01*
X2710000Y-20918089D01*
X2733371Y-20915787D01*
X2733374Y-20915787D01*
X2803271Y-20908903D01*
X2892957Y-20881697D01*
X2946272Y-20853199D01*
X2975611Y-20837517D01*
X3015807Y-20804529D01*
X3048060Y-20778060D01*
X3062960Y-20759904D01*
X3997078Y-19825787D01*
X4419880Y-19825787D01*
X4398000Y-19935784D01*
X4398000Y-20064216D01*
X4419111Y-20170348D01*
X4384374Y-20193558D01*
X4293558Y-20284374D01*
X4222205Y-20391162D01*
X4173056Y-20509819D01*
X4148000Y-20635784D01*
X4148000Y-20764216D01*
X4173056Y-20890181D01*
X4222205Y-21008838D01*
X4293558Y-21115626D01*
X4384374Y-21206442D01*
X4437148Y-21241704D01*
X4434374Y-21243558D01*
X4343558Y-21334374D01*
X4272205Y-21441162D01*
X4223056Y-21559819D01*
X4198000Y-21685784D01*
X4198000Y-21814216D01*
X4223056Y-21940181D01*
X4272205Y-22058838D01*
X4343558Y-22165626D01*
X4434374Y-22256442D01*
X4541162Y-22327795D01*
X4659819Y-22376944D01*
X4785784Y-22402000D01*
X4914216Y-22402000D01*
X5040181Y-22376944D01*
X5158838Y-22327795D01*
X5265626Y-22256442D01*
X5356442Y-22165626D01*
X5427795Y-22058838D01*
X5476944Y-21940181D01*
X5502000Y-21814216D01*
X5502000Y-21801338D01*
X5558838Y-21777795D01*
X5665626Y-21706442D01*
X5739125Y-21632944D01*
X5831579Y-21725398D01*
X6016165Y-21848734D01*
X6221266Y-21933690D01*
X6439000Y-21977000D01*
X6661000Y-21977000D01*
X6878734Y-21933690D01*
X7083835Y-21848734D01*
X7268421Y-21725398D01*
X7425398Y-21568421D01*
X7548734Y-21383835D01*
X7560352Y-21355787D01*
X7932923Y-21355787D01*
X8215405Y-21638270D01*
X8215404Y-21965899D01*
X8184749Y-21996554D01*
X8113396Y-22103342D01*
X8064247Y-22221999D01*
X8039191Y-22347964D01*
X8039191Y-22476396D01*
X8063380Y-22598000D01*
X-5598000Y-22598000D01*
X-5598000Y-20034349D01*
X-5587231Y-20037616D01*
X-5517670Y-20044467D01*
X-5517661Y-20044467D01*
X-5494410Y-20046757D01*
X-5471159Y-20044467D01*
X-4976662Y-20044467D01*
X-4953411Y-20046757D01*
X-4930160Y-20044467D01*
X-4930150Y-20044467D01*
X-4860589Y-20037616D01*
X-4771334Y-20010541D01*
X-4689076Y-19966573D01*
X-4616976Y-19907402D01*
X-4602147Y-19889333D01*
X-4362621Y-19649806D01*
X-4344548Y-19634974D01*
X-4285377Y-19562874D01*
X-4241409Y-19480616D01*
X-4214334Y-19391361D01*
X-4207483Y-19321800D01*
X-4207483Y-19321791D01*
X-4205193Y-19298540D01*
X-4207483Y-19275289D01*
X-4207483Y-19237455D01*
X-4092857Y-19237455D01*
X-3966892Y-19212399D01*
X-3848235Y-19163250D01*
X-3741447Y-19091897D01*
X-3650631Y-19001081D01*
X-3579278Y-18894293D01*
X-3530129Y-18775636D01*
X-3505073Y-18649671D01*
X-3505073Y-18574376D01*
X-2450164Y-17519468D01*
X-2432878Y-17505282D01*
X-2376244Y-17436273D01*
X-2334162Y-17357542D01*
X-2308247Y-17272114D01*
X-2301689Y-17205527D01*
X-2301689Y-17205526D01*
X-2299497Y-17183271D01*
X-2301689Y-17161015D01*
X-2301689Y-14642610D01*
X999389Y-11341533D01*
X1589413Y-11341533D01*
X1611667Y-11343725D01*
X1633921Y-11341533D01*
X1633923Y-11341533D01*
X1700510Y-11334975D01*
X1785938Y-11309060D01*
X1864669Y-11266978D01*
X1933678Y-11210344D01*
X1947870Y-11193051D01*
X2292802Y-10848119D01*
X2693109Y-10848119D01*
X2693109Y-10976551D01*
X2718165Y-11102516D01*
X2767314Y-11221173D01*
X2838667Y-11327961D01*
X2929483Y-11418777D01*
X3036271Y-11490130D01*
X3154928Y-11539279D01*
X3280893Y-11564335D01*
X3409325Y-11564335D01*
X3535290Y-11539279D01*
X3653947Y-11490130D01*
X3760735Y-11418777D01*
X3851551Y-11327961D01*
X3922904Y-11221173D01*
X3972053Y-11102516D01*
X3996025Y-10982000D01*
X4064216Y-10982000D01*
X4190181Y-10956944D01*
X4308838Y-10907795D01*
X4415626Y-10836442D01*
X4506442Y-10745626D01*
X4577795Y-10638838D01*
X4626944Y-10520181D01*
X4652000Y-10394216D01*
X4652000Y-10265784D01*
X4626944Y-10139819D01*
X4577795Y-10021162D01*
X4506442Y-9914374D01*
X4415626Y-9823558D01*
X4308838Y-9752205D01*
X4190181Y-9703056D01*
X4064216Y-9678000D01*
X3935784Y-9678000D01*
X3809819Y-9703056D01*
X3691162Y-9752205D01*
X3584374Y-9823558D01*
X3493558Y-9914374D01*
X3422205Y-10021162D01*
X3373056Y-10139819D01*
X3349084Y-10260335D01*
X3280893Y-10260335D01*
X3154928Y-10285391D01*
X3036271Y-10334540D01*
X2929483Y-10405893D01*
X2838667Y-10496709D01*
X2767314Y-10603497D01*
X2718165Y-10722154D01*
X2693109Y-10848119D01*
X2292802Y-10848119D01*
X4512407Y-8628515D01*
X4514035Y-8628191D01*
X4632692Y-8579042D01*
X4739480Y-8507689D01*
X4830296Y-8416873D01*
X4901649Y-8310085D01*
X4950798Y-8191428D01*
X4975854Y-8065463D01*
X4975854Y-7937031D01*
X4950798Y-7811066D01*
X4941200Y-7787894D01*
X4995135Y-7777166D01*
X5113792Y-7728017D01*
X5220580Y-7656664D01*
X5311396Y-7565848D01*
X5382749Y-7459060D01*
X5431898Y-7340403D01*
X5456954Y-7214438D01*
X5456954Y-7132026D01*
X5504464Y-7203130D01*
G04 #@! TA.AperFunction,Conductor*
D37*
G36*
X5504464Y-7203130D02*
G01*
X5595280Y-7293946D01*
X5702068Y-7365299D01*
X5820725Y-7414448D01*
X5946690Y-7439504D01*
X6075122Y-7439504D01*
X6109100Y-7432745D01*
X6109100Y-7809230D01*
X6106846Y-7832114D01*
X6109100Y-7854998D01*
X6109100Y-7854999D01*
X6115841Y-7923445D01*
X6142482Y-8011268D01*
X6151433Y-8028014D01*
X6055770Y-8028014D01*
X5929805Y-8053070D01*
X5811148Y-8102219D01*
X5704360Y-8173572D01*
X5613544Y-8264388D01*
X5542191Y-8371176D01*
X5493042Y-8489833D01*
X5467986Y-8615798D01*
X5467986Y-8744230D01*
X5493042Y-8870195D01*
X5542191Y-8988852D01*
X5613544Y-9095640D01*
X5704360Y-9186456D01*
X5811148Y-9257809D01*
X5929805Y-9306958D01*
X6055770Y-9332014D01*
X6184202Y-9332014D01*
X6310167Y-9306958D01*
X6428824Y-9257809D01*
X6535612Y-9186456D01*
X6626428Y-9095640D01*
X6697781Y-8988852D01*
X6746930Y-8870195D01*
X6771986Y-8744230D01*
X6771986Y-8687981D01*
X7994606Y-9910602D01*
X6114936Y-11790272D01*
X6096944Y-11699819D01*
X6047795Y-11581162D01*
X5976442Y-11474374D01*
X5885626Y-11383558D01*
X5778838Y-11312205D01*
X5660181Y-11263056D01*
X5534216Y-11238000D01*
X5405784Y-11238000D01*
X5279819Y-11263056D01*
X5161162Y-11312205D01*
X5054374Y-11383558D01*
X4963558Y-11474374D01*
X4892205Y-11581162D01*
X4843056Y-11699819D01*
X4818000Y-11825784D01*
X4818000Y-11954216D01*
X4843056Y-12080181D01*
X4892205Y-12198838D01*
X4963558Y-12305626D01*
X5054374Y-12396442D01*
X5161162Y-12467795D01*
X5279819Y-12516944D01*
X5370273Y-12534936D01*
X4946109Y-12959100D01*
X4172884Y-12959100D01*
X4150000Y-12956846D01*
X4127116Y-12959100D01*
X4127114Y-12959100D01*
X4058668Y-12965841D01*
X3970845Y-12992482D01*
X3889908Y-13035744D01*
X3818965Y-13093965D01*
X3804376Y-13111742D01*
X2736743Y-14179376D01*
X2718966Y-14193965D01*
X2704377Y-14211742D01*
X2660745Y-14264908D01*
X2617482Y-14345846D01*
X2590842Y-14433668D01*
X2581846Y-14525000D01*
X2584101Y-14547894D01*
X2584100Y-17301244D01*
X2581846Y-17324128D01*
X2584100Y-17347012D01*
X2584100Y-17347013D01*
X2590841Y-17415459D01*
X2617482Y-17503282D01*
X2660744Y-17584219D01*
X2718965Y-17655163D01*
X2736748Y-17669757D01*
X3248619Y-18181629D01*
X3248619Y-18238963D01*
X3273675Y-18364928D01*
X3322824Y-18483585D01*
X3394177Y-18590373D01*
X3484993Y-18681189D01*
X3591781Y-18752542D01*
X3710438Y-18801691D01*
X3836403Y-18826747D01*
X3964835Y-18826747D01*
X4090800Y-18801691D01*
X4209457Y-18752542D01*
X4316245Y-18681189D01*
X4407061Y-18590373D01*
X4478414Y-18483585D01*
X4527563Y-18364928D01*
X4552619Y-18238963D01*
X4552619Y-18126039D01*
X4598000Y-18135066D01*
X4598000Y-18224216D01*
X4623056Y-18350181D01*
X4672205Y-18468838D01*
X4743558Y-18575626D01*
X4834374Y-18666442D01*
X4941162Y-18737795D01*
X5059819Y-18786944D01*
X5185784Y-18812000D01*
X5314216Y-18812000D01*
X5440181Y-18786944D01*
X5558838Y-18737795D01*
X5665626Y-18666442D01*
X5756442Y-18575626D01*
X5827795Y-18468838D01*
X5876944Y-18350181D01*
X5902000Y-18224216D01*
X5902000Y-18095784D01*
X5876944Y-17969819D01*
X5827795Y-17851162D01*
X5756442Y-17744374D01*
X5715900Y-17703832D01*
X5715900Y-17203883D01*
X5718154Y-17180999D01*
X5714049Y-17139319D01*
X5709159Y-17089668D01*
X5682518Y-17001845D01*
X5639256Y-16920908D01*
X5581035Y-16849965D01*
X5563252Y-16835371D01*
X5390638Y-16662757D01*
X5376044Y-16644974D01*
X5342991Y-16617848D01*
X5389000Y-16627000D01*
X5611000Y-16627000D01*
X5828734Y-16583690D01*
X5943350Y-16536214D01*
X8917708Y-19510573D01*
X8917709Y-20994844D01*
X8482960Y-20560096D01*
X8468060Y-20541940D01*
X8422111Y-20504231D01*
X8395611Y-20482483D01*
X8350287Y-20458257D01*
X8312957Y-20438303D01*
X8223271Y-20411097D01*
X8153374Y-20404213D01*
X8153371Y-20404213D01*
X8130000Y-20401911D01*
X8106629Y-20404213D01*
X7585205Y-20404213D01*
X7548734Y-20316165D01*
X7425398Y-20131579D01*
X7268421Y-19974602D01*
X7083835Y-19851266D01*
X7015423Y-19822929D01*
X7008903Y-19756729D01*
X6981697Y-19667043D01*
X6980833Y-19665426D01*
X6937517Y-19584388D01*
X6892960Y-19530095D01*
X6892956Y-19530091D01*
X6878060Y-19511940D01*
X6859909Y-19497044D01*
X6392960Y-19030096D01*
X6378060Y-19011940D01*
X6305612Y-18952484D01*
X6305613Y-18952484D01*
X6305611Y-18952483D01*
X6259129Y-18927638D01*
X6222957Y-18908303D01*
X6133271Y-18881097D01*
X6063374Y-18874213D01*
X6063371Y-18874213D01*
X6040000Y-18871911D01*
X6016629Y-18874213D01*
X3823371Y-18874213D01*
X3800000Y-18871911D01*
X3776629Y-18874213D01*
X3776626Y-18874213D01*
X3706729Y-18881097D01*
X3619806Y-18907465D01*
X3617043Y-18908303D01*
X3534388Y-18952483D01*
X3480095Y-18997040D01*
X3480091Y-18997044D01*
X3461940Y-19011940D01*
X3447044Y-19030091D01*
X2512923Y-19964213D01*
X1579165Y-19964213D01*
X1665626Y-19906442D01*
X1756442Y-19815626D01*
X1827795Y-19708838D01*
X1876944Y-19590181D01*
X1902000Y-19464216D01*
X1902000Y-19335784D01*
X1876944Y-19209819D01*
X1827795Y-19091162D01*
X1756442Y-18984374D01*
X1665626Y-18893558D01*
X1558838Y-18822205D01*
X1440181Y-18773056D01*
X1314216Y-18748000D01*
X1185784Y-18748000D01*
X1059819Y-18773056D01*
X941162Y-18822205D01*
X939270Y-18823469D01*
X858411Y-18769441D01*
X739754Y-18720292D01*
X613789Y-18695236D01*
X485357Y-18695236D01*
X359392Y-18720292D01*
X240735Y-18769441D01*
X133947Y-18840794D01*
X43131Y-18931610D01*
X-28222Y-19038398D01*
X-77371Y-19157055D01*
X-102427Y-19283020D01*
X-102427Y-19411452D01*
X-77371Y-19537417D01*
X-28222Y-19656074D01*
X43131Y-19762862D01*
X133947Y-19853678D01*
X240735Y-19925031D01*
X335329Y-19964213D01*
X-212923Y-19964213D01*
X-1198000Y-18979136D01*
X-1198000Y-18935784D01*
X-1223056Y-18809819D01*
X-1272205Y-18691162D01*
X-1343558Y-18584374D01*
X-1434374Y-18493558D01*
X-1541162Y-18422205D01*
X-1659819Y-18373056D01*
X-1785784Y-18348000D01*
X-1914216Y-18348000D01*
X-2040181Y-18373056D01*
X-2158838Y-18422205D01*
X-2265626Y-18493558D01*
X-2356442Y-18584374D01*
X-2427795Y-18691162D01*
X-2476944Y-18809819D01*
X-2502000Y-18935784D01*
X-2502000Y-19064216D01*
X-2476944Y-19190181D01*
X-2427795Y-19308838D01*
X-2356442Y-19415626D01*
X-2265626Y-19506442D01*
X-2158838Y-19577795D01*
X-2040181Y-19626944D01*
X-1914216Y-19652000D01*
X-1870864Y-19652000D01*
X-762961Y-20759903D01*
X-748060Y-20778060D01*
X-729904Y-20792960D01*
X-675612Y-20837517D01*
X-608859Y-20873197D01*
X-592957Y-20881697D01*
X-503271Y-20908903D01*
X-433374Y-20915787D01*
X-433371Y-20915787D01*
X-410000Y-20918089D01*
X-386629Y-20915787D01*
X2686629Y-20915787D01*
X2710000Y-20918089D01*
X2733371Y-20915787D01*
X2733374Y-20915787D01*
X2803271Y-20908903D01*
X2892957Y-20881697D01*
X2946272Y-20853199D01*
X2975611Y-20837517D01*
X3015807Y-20804529D01*
X3048060Y-20778060D01*
X3062960Y-20759904D01*
X3997078Y-19825787D01*
X4419880Y-19825787D01*
X4398000Y-19935784D01*
X4398000Y-20064216D01*
X4419111Y-20170348D01*
X4384374Y-20193558D01*
X4293558Y-20284374D01*
X4222205Y-20391162D01*
X4173056Y-20509819D01*
X4148000Y-20635784D01*
X4148000Y-20764216D01*
X4173056Y-20890181D01*
X4222205Y-21008838D01*
X4293558Y-21115626D01*
X4384374Y-21206442D01*
X4437148Y-21241704D01*
X4434374Y-21243558D01*
X4343558Y-21334374D01*
X4272205Y-21441162D01*
X4223056Y-21559819D01*
X4198000Y-21685784D01*
X4198000Y-21814216D01*
X4223056Y-21940181D01*
X4272205Y-22058838D01*
X4343558Y-22165626D01*
X4434374Y-22256442D01*
X4541162Y-22327795D01*
X4659819Y-22376944D01*
X4785784Y-22402000D01*
X4914216Y-22402000D01*
X5040181Y-22376944D01*
X5158838Y-22327795D01*
X5265626Y-22256442D01*
X5356442Y-22165626D01*
X5427795Y-22058838D01*
X5476944Y-21940181D01*
X5502000Y-21814216D01*
X5502000Y-21801338D01*
X5558838Y-21777795D01*
X5665626Y-21706442D01*
X5739125Y-21632944D01*
X5831579Y-21725398D01*
X6016165Y-21848734D01*
X6221266Y-21933690D01*
X6439000Y-21977000D01*
X6661000Y-21977000D01*
X6878734Y-21933690D01*
X7083835Y-21848734D01*
X7268421Y-21725398D01*
X7425398Y-21568421D01*
X7548734Y-21383835D01*
X7560352Y-21355787D01*
X7932923Y-21355787D01*
X8215405Y-21638270D01*
X8215404Y-21965899D01*
X8184749Y-21996554D01*
X8113396Y-22103342D01*
X8064247Y-22221999D01*
X8039191Y-22347964D01*
X8039191Y-22476396D01*
X8063380Y-22598000D01*
X-5598000Y-22598000D01*
X-5598000Y-20034349D01*
X-5587231Y-20037616D01*
X-5517670Y-20044467D01*
X-5517661Y-20044467D01*
X-5494410Y-20046757D01*
X-5471159Y-20044467D01*
X-4976662Y-20044467D01*
X-4953411Y-20046757D01*
X-4930160Y-20044467D01*
X-4930150Y-20044467D01*
X-4860589Y-20037616D01*
X-4771334Y-20010541D01*
X-4689076Y-19966573D01*
X-4616976Y-19907402D01*
X-4602147Y-19889333D01*
X-4362621Y-19649806D01*
X-4344548Y-19634974D01*
X-4285377Y-19562874D01*
X-4241409Y-19480616D01*
X-4214334Y-19391361D01*
X-4207483Y-19321800D01*
X-4207483Y-19321791D01*
X-4205193Y-19298540D01*
X-4207483Y-19275289D01*
X-4207483Y-19237455D01*
X-4092857Y-19237455D01*
X-3966892Y-19212399D01*
X-3848235Y-19163250D01*
X-3741447Y-19091897D01*
X-3650631Y-19001081D01*
X-3579278Y-18894293D01*
X-3530129Y-18775636D01*
X-3505073Y-18649671D01*
X-3505073Y-18574376D01*
X-2450164Y-17519468D01*
X-2432878Y-17505282D01*
X-2376244Y-17436273D01*
X-2334162Y-17357542D01*
X-2308247Y-17272114D01*
X-2301689Y-17205527D01*
X-2301689Y-17205526D01*
X-2299497Y-17183271D01*
X-2301689Y-17161015D01*
X-2301689Y-14642610D01*
X999389Y-11341533D01*
X1589413Y-11341533D01*
X1611667Y-11343725D01*
X1633921Y-11341533D01*
X1633923Y-11341533D01*
X1700510Y-11334975D01*
X1785938Y-11309060D01*
X1864669Y-11266978D01*
X1933678Y-11210344D01*
X1947870Y-11193051D01*
X2292802Y-10848119D01*
X2693109Y-10848119D01*
X2693109Y-10976551D01*
X2718165Y-11102516D01*
X2767314Y-11221173D01*
X2838667Y-11327961D01*
X2929483Y-11418777D01*
X3036271Y-11490130D01*
X3154928Y-11539279D01*
X3280893Y-11564335D01*
X3409325Y-11564335D01*
X3535290Y-11539279D01*
X3653947Y-11490130D01*
X3760735Y-11418777D01*
X3851551Y-11327961D01*
X3922904Y-11221173D01*
X3972053Y-11102516D01*
X3996025Y-10982000D01*
X4064216Y-10982000D01*
X4190181Y-10956944D01*
X4308838Y-10907795D01*
X4415626Y-10836442D01*
X4506442Y-10745626D01*
X4577795Y-10638838D01*
X4626944Y-10520181D01*
X4652000Y-10394216D01*
X4652000Y-10265784D01*
X4626944Y-10139819D01*
X4577795Y-10021162D01*
X4506442Y-9914374D01*
X4415626Y-9823558D01*
X4308838Y-9752205D01*
X4190181Y-9703056D01*
X4064216Y-9678000D01*
X3935784Y-9678000D01*
X3809819Y-9703056D01*
X3691162Y-9752205D01*
X3584374Y-9823558D01*
X3493558Y-9914374D01*
X3422205Y-10021162D01*
X3373056Y-10139819D01*
X3349084Y-10260335D01*
X3280893Y-10260335D01*
X3154928Y-10285391D01*
X3036271Y-10334540D01*
X2929483Y-10405893D01*
X2838667Y-10496709D01*
X2767314Y-10603497D01*
X2718165Y-10722154D01*
X2693109Y-10848119D01*
X2292802Y-10848119D01*
X4512407Y-8628515D01*
X4514035Y-8628191D01*
X4632692Y-8579042D01*
X4739480Y-8507689D01*
X4830296Y-8416873D01*
X4901649Y-8310085D01*
X4950798Y-8191428D01*
X4975854Y-8065463D01*
X4975854Y-7937031D01*
X4950798Y-7811066D01*
X4941200Y-7787894D01*
X4995135Y-7777166D01*
X5113792Y-7728017D01*
X5220580Y-7656664D01*
X5311396Y-7565848D01*
X5382749Y-7459060D01*
X5431898Y-7340403D01*
X5456954Y-7214438D01*
X5456954Y-7132026D01*
X5504464Y-7203130D01*
G37*
G04 #@! TD.AperFunction*
D36*
X17598000Y-22598000D02*
X10017143Y-22598000D01*
X10020439Y-22590043D01*
X10045495Y-22464078D01*
X10045495Y-22335646D01*
X10020439Y-22209681D01*
X9971290Y-22091024D01*
X9899937Y-21984236D01*
X9869282Y-21953581D01*
X9869282Y-19336866D01*
X9871584Y-19313495D01*
X9868749Y-19284711D01*
X9862398Y-19220224D01*
X9835192Y-19130538D01*
X9830139Y-19121084D01*
X9791012Y-19047883D01*
X9746455Y-18993590D01*
X9746451Y-18993586D01*
X9731555Y-18975435D01*
X9713404Y-18960539D01*
X7791865Y-17039000D01*
X10323000Y-17039000D01*
X10323000Y-17261000D01*
X10366310Y-17478734D01*
X10451266Y-17683835D01*
X10574602Y-17868421D01*
X10731579Y-18025398D01*
X10916165Y-18148734D01*
X11121266Y-18233690D01*
X11339000Y-18277000D01*
X11561000Y-18277000D01*
X11778734Y-18233690D01*
X11983835Y-18148734D01*
X12168421Y-18025398D01*
X12325398Y-17868421D01*
X12386483Y-17777000D01*
X12880101Y-17777000D01*
X13005784Y-17802000D01*
X13134216Y-17802000D01*
X13260181Y-17776944D01*
X13378838Y-17727795D01*
X13485626Y-17656442D01*
X13576442Y-17565626D01*
X13647795Y-17458838D01*
X13696944Y-17340181D01*
X13722000Y-17214216D01*
X13722000Y-17085784D01*
X13696944Y-16959819D01*
X13647795Y-16841162D01*
X13576442Y-16734374D01*
X13485626Y-16643558D01*
X13378838Y-16572205D01*
X13260181Y-16523056D01*
X13134216Y-16498000D01*
X13005784Y-16498000D01*
X12880101Y-16523000D01*
X12386483Y-16523000D01*
X12325398Y-16431579D01*
X12168421Y-16274602D01*
X11983835Y-16151266D01*
X11778734Y-16066310D01*
X11561000Y-16023000D01*
X11339000Y-16023000D01*
X11121266Y-16066310D01*
X10916165Y-16151266D01*
X10731579Y-16274602D01*
X10574602Y-16431579D01*
X10451266Y-16616165D01*
X10366310Y-16821266D01*
X10323000Y-17039000D01*
X7791865Y-17039000D01*
X6583077Y-15830213D01*
X6583690Y-15828734D01*
X6627000Y-15611000D01*
X6627000Y-15400507D01*
X6639948Y-15397931D01*
X6758605Y-15348782D01*
X6865393Y-15277429D01*
X6956209Y-15186613D01*
X7027562Y-15079825D01*
X7076711Y-14961168D01*
X7101767Y-14835203D01*
X7101767Y-14706771D01*
X7076711Y-14580806D01*
X7027562Y-14462149D01*
X6956209Y-14355361D01*
X6865393Y-14264545D01*
X6836815Y-14245450D01*
X8597677Y-12484588D01*
X8600213Y-12497338D01*
X8649362Y-12615995D01*
X8720715Y-12722783D01*
X8811531Y-12813599D01*
X8918319Y-12884952D01*
X9036976Y-12934101D01*
X9144509Y-12955491D01*
X9165899Y-13063024D01*
X9215048Y-13181681D01*
X9286401Y-13288469D01*
X9377217Y-13379285D01*
X9484005Y-13450638D01*
X9602662Y-13499787D01*
X9728627Y-13524843D01*
X9857059Y-13524843D01*
X9983024Y-13499787D01*
X10101681Y-13450638D01*
X10208469Y-13379285D01*
X10299285Y-13288469D01*
X10370638Y-13181681D01*
X10419787Y-13063024D01*
X10444843Y-12937059D01*
X10444843Y-12808627D01*
X10419787Y-12682662D01*
X10370638Y-12564005D01*
X10299285Y-12457217D01*
X10208469Y-12366401D01*
X10101681Y-12295048D01*
X9983024Y-12245899D01*
X9875491Y-12224509D01*
X9854101Y-12116976D01*
X9804952Y-11998319D01*
X9733599Y-11891531D01*
X9642783Y-11800715D01*
X9535995Y-11729362D01*
X9417338Y-11680213D01*
X9404589Y-11677677D01*
X11135099Y-9947167D01*
X11151013Y-9963081D01*
X11112205Y-10021162D01*
X11063056Y-10139819D01*
X11038000Y-10265784D01*
X11038000Y-10394216D01*
X11063056Y-10520181D01*
X11112205Y-10638838D01*
X11183558Y-10745626D01*
X11274374Y-10836442D01*
X11381162Y-10907795D01*
X11499819Y-10956944D01*
X11625784Y-10982000D01*
X11754216Y-10982000D01*
X11880181Y-10956944D01*
X11998838Y-10907795D01*
X12105626Y-10836442D01*
X12196442Y-10745626D01*
X12267795Y-10638838D01*
X12316944Y-10520181D01*
X12342000Y-10394216D01*
X12342000Y-10265784D01*
X12316944Y-10139819D01*
X12267795Y-10021162D01*
X12196442Y-9914374D01*
X12178987Y-9896919D01*
X12217795Y-9838838D01*
X12266944Y-9720181D01*
X12292000Y-9594216D01*
X12292000Y-9465784D01*
X12266944Y-9339819D01*
X12217795Y-9221162D01*
X12146442Y-9114374D01*
X12055626Y-9023558D01*
X11948838Y-8952205D01*
X11892181Y-8928737D01*
X11892181Y-8353726D01*
X11921623Y-8324284D01*
X11992976Y-8217496D01*
X12042125Y-8098839D01*
X12067181Y-7972874D01*
X12067181Y-7844442D01*
X12042125Y-7718477D01*
X12036351Y-7704536D01*
X12123845Y-7617042D01*
X12195198Y-7510254D01*
X12244347Y-7391597D01*
X12269403Y-7265632D01*
X12269403Y-7137200D01*
X12244347Y-7011235D01*
X12195198Y-6892578D01*
X12148520Y-6822719D01*
X12157795Y-6808838D01*
X12206944Y-6690181D01*
X12229026Y-6579167D01*
X12240181Y-6576948D01*
X12358838Y-6527799D01*
X12465626Y-6456446D01*
X12556442Y-6365630D01*
X12627795Y-6258842D01*
X12676944Y-6140185D01*
X12702000Y-6014220D01*
X12702000Y-5885788D01*
X12676944Y-5759823D01*
X12627795Y-5641166D01*
X12556442Y-5534378D01*
X12465626Y-5443562D01*
X12358838Y-5372209D01*
X12321855Y-5356890D01*
X14058524Y-5356890D01*
X14103175Y-5504099D01*
X14228359Y-5766920D01*
X14402412Y-6000269D01*
X14618645Y-6195178D01*
X14813380Y-6311176D01*
X14650000Y-6311176D01*
X14576095Y-6318455D01*
X14505030Y-6340012D01*
X14439537Y-6375019D01*
X14382131Y-6422131D01*
X14335019Y-6479537D01*
X14300012Y-6545030D01*
X14278455Y-6616095D01*
X14271176Y-6690000D01*
X14271176Y-8390000D01*
X14278455Y-8463905D01*
X14300012Y-8534970D01*
X14335019Y-8600463D01*
X14382131Y-8657869D01*
X14439537Y-8704981D01*
X14505030Y-8739988D01*
X14576095Y-8761545D01*
X14650000Y-8768824D01*
X14803000Y-8768824D01*
X14803000Y-9264292D01*
X14799483Y-9300000D01*
X14813520Y-9442517D01*
X14837433Y-9521347D01*
X14855090Y-9579556D01*
X14922597Y-9705852D01*
X15005386Y-9806732D01*
X14993000Y-9869000D01*
X14993000Y-10091000D01*
X15036310Y-10308734D01*
X15121266Y-10513835D01*
X15244602Y-10698421D01*
X15401579Y-10855398D01*
X15586165Y-10978734D01*
X15791266Y-11063690D01*
X16009000Y-11107000D01*
X16231000Y-11107000D01*
X16448734Y-11063690D01*
X16653835Y-10978734D01*
X16838421Y-10855398D01*
X16995398Y-10698421D01*
X17118734Y-10513835D01*
X17203690Y-10308734D01*
X17247000Y-10091000D01*
X17247000Y-9869000D01*
X17203690Y-9651266D01*
X17118734Y-9446165D01*
X16995398Y-9261579D01*
X16838421Y-9104602D01*
X16653835Y-8981266D01*
X16448734Y-8896310D01*
X16257000Y-8858172D01*
X16257000Y-8768824D01*
X16350000Y-8768824D01*
X16423905Y-8761545D01*
X16494970Y-8739988D01*
X16560463Y-8704981D01*
X16617869Y-8657869D01*
X16664981Y-8600463D01*
X16699988Y-8534970D01*
X16721545Y-8463905D01*
X16728824Y-8390000D01*
X16728824Y-6690000D01*
X16721545Y-6616095D01*
X16699988Y-6545030D01*
X16664981Y-6479537D01*
X16617869Y-6422131D01*
X16560463Y-6375019D01*
X16494970Y-6340012D01*
X16423905Y-6318455D01*
X16350000Y-6311176D01*
X16186620Y-6311176D01*
X16381355Y-6195178D01*
X16597588Y-6000269D01*
X16771641Y-5766920D01*
X16896825Y-5504099D01*
X16941476Y-5356890D01*
X16820155Y-5127000D01*
X15627000Y-5127000D01*
X15627000Y-5147000D01*
X15373000Y-5147000D01*
X15373000Y-5127000D01*
X14179845Y-5127000D01*
X14058524Y-5356890D01*
X12321855Y-5356890D01*
X12240181Y-5323060D01*
X12114216Y-5298004D01*
X11985784Y-5298004D01*
X11859819Y-5323060D01*
X11741162Y-5372209D01*
X11634374Y-5443562D01*
X11543558Y-5534378D01*
X11472205Y-5641166D01*
X11423056Y-5759823D01*
X11400974Y-5870837D01*
X11389819Y-5873056D01*
X11271162Y-5922205D01*
X11164374Y-5993558D01*
X11073558Y-6084374D01*
X11002205Y-6191162D01*
X10953056Y-6309819D01*
X10928000Y-6435784D01*
X10928000Y-6564216D01*
X10953056Y-6690181D01*
X10997204Y-6796765D01*
X10979490Y-6806234D01*
X10968401Y-6812161D01*
X10941491Y-6834246D01*
X10897460Y-6870381D01*
X10882870Y-6888159D01*
X10486743Y-7284287D01*
X10468966Y-7298876D01*
X10446928Y-7325730D01*
X10410745Y-7369819D01*
X10367482Y-7450757D01*
X10340842Y-7538579D01*
X10331846Y-7629911D01*
X10334101Y-7652805D01*
X10334100Y-8832017D01*
X10115900Y-9050217D01*
X10115900Y-8022884D01*
X10118154Y-8000000D01*
X10115744Y-7975534D01*
X10109159Y-7908668D01*
X10082518Y-7820845D01*
X10079728Y-7815626D01*
X10039256Y-7739907D01*
X10000275Y-7692409D01*
X9981035Y-7668965D01*
X9963258Y-7654376D01*
X9045629Y-6736748D01*
X9031035Y-6718965D01*
X8960092Y-6660744D01*
X8879155Y-6617482D01*
X8791332Y-6590841D01*
X8722886Y-6584100D01*
X8722884Y-6584100D01*
X8700000Y-6581846D01*
X8677116Y-6584100D01*
X7606168Y-6584100D01*
X7565626Y-6543558D01*
X7458838Y-6472205D01*
X7434201Y-6462000D01*
X7474216Y-6462000D01*
X7600181Y-6436944D01*
X7718838Y-6387795D01*
X7825626Y-6316442D01*
X7916442Y-6225626D01*
X7987795Y-6118838D01*
X8036944Y-6000181D01*
X8062000Y-5874216D01*
X8062000Y-5745784D01*
X8036944Y-5619819D01*
X7987795Y-5501162D01*
X7916442Y-5394374D01*
X7825626Y-5303558D01*
X7718838Y-5232205D01*
X7706272Y-5227000D01*
X8166585Y-5227000D01*
X8190000Y-5229306D01*
X8213415Y-5227000D01*
X8213423Y-5227000D01*
X8283508Y-5220097D01*
X8373423Y-5192822D01*
X8456289Y-5148529D01*
X8528921Y-5088921D01*
X8543855Y-5070724D01*
X11173000Y-2441579D01*
X11173000Y-2661000D01*
X11216310Y-2878734D01*
X11301266Y-3083835D01*
X11424602Y-3268421D01*
X11581579Y-3425398D01*
X11766165Y-3548734D01*
X11971266Y-3633690D01*
X12189000Y-3677000D01*
X12411000Y-3677000D01*
X12628734Y-3633690D01*
X12833835Y-3548734D01*
X13018421Y-3425398D01*
X13166819Y-3277000D01*
X14581760Y-3277000D01*
X14717833Y-3413073D01*
X14918798Y-3547353D01*
X15036798Y-3596231D01*
X14868748Y-3655843D01*
X14618645Y-3804822D01*
X14402412Y-3999731D01*
X14228359Y-4233080D01*
X14103175Y-4495901D01*
X14058524Y-4643110D01*
X14179845Y-4873000D01*
X15373000Y-4873000D01*
X15373000Y-4853000D01*
X15627000Y-4853000D01*
X15627000Y-4873000D01*
X16820155Y-4873000D01*
X16941476Y-4643110D01*
X16896825Y-4495901D01*
X16771641Y-4233080D01*
X16597588Y-3999731D01*
X16381355Y-3804822D01*
X16131252Y-3655843D01*
X15963202Y-3596231D01*
X16081202Y-3547353D01*
X16282167Y-3413073D01*
X16453073Y-3242167D01*
X16587353Y-3041202D01*
X16679847Y-2817903D01*
X16727000Y-2580849D01*
X16727000Y-2339151D01*
X16679847Y-2102097D01*
X16587353Y-1878798D01*
X16453073Y-1677833D01*
X16282167Y-1506927D01*
X16081202Y-1372647D01*
X15857903Y-1280153D01*
X15620849Y-1233000D01*
X15379151Y-1233000D01*
X15142097Y-1280153D01*
X14918798Y-1372647D01*
X14717833Y-1506927D01*
X14546927Y-1677833D01*
X14449930Y-1823000D01*
X13166819Y-1823000D01*
X13018421Y-1674602D01*
X12833835Y-1551266D01*
X12628734Y-1466310D01*
X12411000Y-1423000D01*
X12191580Y-1423000D01*
X13815429Y200849D01*
X14273000Y200849D01*
X14273000Y-40849D01*
X14320153Y-277903D01*
X14412647Y-501202D01*
X14546927Y-702167D01*
X14717833Y-873073D01*
X14918798Y-1007353D01*
X15142097Y-1099847D01*
X15379151Y-1147000D01*
X15620849Y-1147000D01*
X15857903Y-1099847D01*
X16081202Y-1007353D01*
X16282167Y-873073D01*
X16453073Y-702167D01*
X16587353Y-501202D01*
X16679847Y-277903D01*
X16727000Y-40849D01*
X16727000Y200849D01*
X16679847Y437903D01*
X16587353Y661202D01*
X16453073Y862167D01*
X16282167Y1033073D01*
X16081202Y1167353D01*
X15857903Y1259847D01*
X15620849Y1307000D01*
X15379151Y1307000D01*
X15142097Y1259847D01*
X14918798Y1167353D01*
X14717833Y1033073D01*
X14546927Y862167D01*
X14412647Y661202D01*
X14320153Y437903D01*
X14273000Y200849D01*
X13815429Y200849D01*
X15080321Y1465741D01*
X15142097Y1440153D01*
X15379151Y1393000D01*
X15620849Y1393000D01*
X15857903Y1440153D01*
X16081202Y1532647D01*
X16282167Y1666927D01*
X16453073Y1837833D01*
X16587353Y2038798D01*
X16679847Y2262097D01*
X16727000Y2499151D01*
X16727000Y2740849D01*
X16679847Y2977903D01*
X16587353Y3201202D01*
X16453073Y3402167D01*
X16282167Y3573073D01*
X16081202Y3707353D01*
X15857903Y3799847D01*
X15620849Y3847000D01*
X15379151Y3847000D01*
X15142097Y3799847D01*
X14918798Y3707353D01*
X14717833Y3573073D01*
X14546927Y3402167D01*
X14412647Y3201202D01*
X14320153Y2977903D01*
X14273000Y2740849D01*
X14273000Y2499151D01*
X14320153Y2262097D01*
X14380889Y2115469D01*
X7992421Y-4273000D01*
X6632671Y-4273000D01*
X9628672Y-1277000D01*
X10026585Y-1277000D01*
X10050000Y-1279306D01*
X10073415Y-1277000D01*
X10073423Y-1277000D01*
X10143508Y-1270097D01*
X10233423Y-1242822D01*
X10316289Y-1198529D01*
X10388921Y-1138921D01*
X10403855Y-1120724D01*
X10822580Y-702000D01*
X10864216Y-702000D01*
X10990181Y-676944D01*
X11108838Y-627795D01*
X11215626Y-556442D01*
X11306442Y-465626D01*
X11377795Y-358838D01*
X11426944Y-240181D01*
X11452000Y-114216D01*
X11452000Y14216D01*
X11426944Y140181D01*
X11377795Y258838D01*
X11306442Y365626D01*
X11215626Y456442D01*
X11108838Y527795D01*
X10990181Y576944D01*
X10864216Y602000D01*
X10735784Y602000D01*
X10609819Y576944D01*
X10491162Y527795D01*
X10384374Y456442D01*
X10293558Y365626D01*
X10222205Y258838D01*
X10173056Y140181D01*
X10148000Y14216D01*
X10148000Y-27420D01*
X9852421Y-323000D01*
X9454506Y-323000D01*
X9431091Y-320694D01*
X9407676Y-323000D01*
X9407669Y-323000D01*
X9346430Y-329032D01*
X9337583Y-329903D01*
X9316656Y-336251D01*
X9247669Y-357178D01*
X9164803Y-401471D01*
X9092171Y-461079D01*
X9077242Y-479271D01*
X5176865Y-4379648D01*
X5158668Y-4394582D01*
X5099060Y-4467214D01*
X5054767Y-4550081D01*
X5027492Y-4639996D01*
X5020589Y-4710081D01*
X5020589Y-4710088D01*
X5018283Y-4733503D01*
X5020589Y-4756918D01*
X5020589Y-4771665D01*
X4974415Y-4740813D01*
X4814811Y-4674703D01*
X4645377Y-4641000D01*
X4472623Y-4641000D01*
X4342120Y-4666959D01*
X4298262Y-4601321D01*
X4207446Y-4510505D01*
X4100658Y-4439152D01*
X3982001Y-4390003D01*
X3856036Y-4364947D01*
X3727604Y-4364947D01*
X3601639Y-4390003D01*
X3482982Y-4439152D01*
X3376194Y-4510505D01*
X3285378Y-4601321D01*
X3214025Y-4708109D01*
X3164876Y-4826766D01*
X3139820Y-4952731D01*
X3139820Y-5081163D01*
X3164876Y-5207128D01*
X3214025Y-5325785D01*
X3285378Y-5432573D01*
X3376194Y-5523389D01*
X3482982Y-5594742D01*
X3601639Y-5643891D01*
X3693494Y-5662162D01*
X3715703Y-5773811D01*
X3781813Y-5933415D01*
X3837966Y-6017454D01*
X3628178Y-6227243D01*
X3610351Y-6137623D01*
X3561202Y-6018966D01*
X3489849Y-5912178D01*
X3399033Y-5821362D01*
X3292245Y-5750009D01*
X3173588Y-5700860D01*
X3101807Y-5686582D01*
X3101807Y-5669721D01*
X3076751Y-5543756D01*
X3027602Y-5425099D01*
X2956249Y-5318311D01*
X2865433Y-5227495D01*
X2758645Y-5156142D01*
X2639988Y-5106993D01*
X2514023Y-5081937D01*
X2385591Y-5081937D01*
X2259626Y-5106993D01*
X2140969Y-5156142D01*
X2034181Y-5227495D01*
X2003526Y-5258150D01*
X1547434Y-5258150D01*
X1524063Y-5255848D01*
X1500692Y-5258150D01*
X1500689Y-5258150D01*
X1430792Y-5265034D01*
X1341106Y-5292240D01*
X1258451Y-5336420D01*
X1204158Y-5380977D01*
X1204154Y-5380981D01*
X1186003Y-5395877D01*
X1185082Y-5396999D01*
X1054377Y-5371000D01*
X881623Y-5371000D01*
X712189Y-5404703D01*
X552585Y-5470813D01*
X408945Y-5566790D01*
X286790Y-5688945D01*
X190813Y-5832585D01*
X124703Y-5992189D01*
X91000Y-6161623D01*
X91000Y-6334377D01*
X124703Y-6503811D01*
X190813Y-6663415D01*
X243610Y-6742431D01*
X196925Y-6751717D01*
X78268Y-6800866D01*
X28Y-6853144D01*
X-24393Y-6840091D01*
X-51162Y-6822205D01*
X-80906Y-6809885D01*
X-109283Y-6794717D01*
X-140074Y-6785377D01*
X-169819Y-6773056D01*
X-201396Y-6766775D01*
X-232186Y-6757435D01*
X-237465Y-6756915D01*
X-256162Y-6738218D01*
X-276583Y-6713335D01*
X-375863Y-6631858D01*
X-489130Y-6571316D01*
X-612033Y-6534034D01*
X-707825Y-6524599D01*
X-739847Y-6521445D01*
X-771869Y-6524599D01*
X-843334Y-6524599D01*
X-893556Y-6474378D01*
X-893558Y-6474374D01*
X-984374Y-6383558D01*
X-984378Y-6383556D01*
X-1948000Y-5419934D01*
X-1948000Y-1206288D01*
X-1944846Y-1174266D01*
X-1957435Y-1046451D01*
X-1976614Y-983228D01*
X-1994717Y-923549D01*
X-2055259Y-810282D01*
X-2136736Y-711002D01*
X-2161612Y-690587D01*
X-2925687Y73487D01*
X-2925691Y73493D01*
X-3016507Y164309D01*
X-3043288Y182203D01*
X-3068150Y202607D01*
X-3096517Y217770D01*
X-3123295Y235662D01*
X-3153045Y247985D01*
X-3181417Y263150D01*
X-3212205Y272489D01*
X-3241952Y284811D01*
X-3273530Y291092D01*
X-3304319Y300432D01*
X-3336340Y303586D01*
X-3367917Y309867D01*
X-3400111Y309867D01*
X-3432133Y313021D01*
X-3464155Y309867D01*
X-3496349Y309867D01*
X-3527926Y303586D01*
X-3559947Y300432D01*
X-3590736Y291092D01*
X-3622314Y284811D01*
X-3652061Y272489D01*
X-3682849Y263150D01*
X-3711221Y247985D01*
X-3740971Y235662D01*
X-3767749Y217770D01*
X-3796116Y202607D01*
X-3820977Y182204D01*
X-3847759Y164309D01*
X-3870536Y141532D01*
X-3895396Y121130D01*
X-3915798Y96270D01*
X-3938575Y73493D01*
X-3956470Y46711D01*
X-3976873Y21850D01*
X-3992036Y-6517D01*
X-4009928Y-33295D01*
X-4022251Y-63045D01*
X-4037416Y-91417D01*
X-4046755Y-122205D01*
X-4059077Y-151952D01*
X-4065358Y-183530D01*
X-4074698Y-214319D01*
X-4077852Y-246340D01*
X-4084133Y-277917D01*
X-4084133Y-310111D01*
X-4087287Y-342133D01*
X-4084133Y-374155D01*
X-4084133Y-406349D01*
X-4077852Y-437926D01*
X-4074698Y-469947D01*
X-4065358Y-500736D01*
X-4059077Y-532314D01*
X-4046755Y-562061D01*
X-4037416Y-592849D01*
X-4022251Y-621221D01*
X-4009928Y-650971D01*
X-3992036Y-677749D01*
X-3976873Y-706116D01*
X-3956469Y-730978D01*
X-3938575Y-757759D01*
X-3847759Y-848575D01*
X-3847753Y-848579D01*
X-3348333Y-1348000D01*
X-3464216Y-1348000D01*
X-3590181Y-1373056D01*
X-3708838Y-1422205D01*
X-3815626Y-1493558D01*
X-3868568Y-1546500D01*
X-3961624Y-1546500D01*
X-4018790Y-1460945D01*
X-4140945Y-1338790D01*
X-4284585Y-1242813D01*
X-4444189Y-1176703D01*
X-4613623Y-1143000D01*
X-4786377Y-1143000D01*
X-4955811Y-1176703D01*
X-5115415Y-1242813D01*
X-5259055Y-1338790D01*
X-5381210Y-1460945D01*
X-5477187Y-1604585D01*
X-5543297Y-1764189D01*
X-5577000Y-1933623D01*
X-5577000Y-2106377D01*
X-5543297Y-2275811D01*
X-5477187Y-2435415D01*
X-5381210Y-2579055D01*
X-5259055Y-2701210D01*
X-5115415Y-2797187D01*
X-4955811Y-2863297D01*
X-4786377Y-2897000D01*
X-4613623Y-2897000D01*
X-4444189Y-2863297D01*
X-4284585Y-2797187D01*
X-4140945Y-2701210D01*
X-4018790Y-2579055D01*
X-3961624Y-2493500D01*
X-3828568Y-2493500D01*
X-3815626Y-2506442D01*
X-3708838Y-2577795D01*
X-3590181Y-2626944D01*
X-3464216Y-2652000D01*
X-3335784Y-2652000D01*
X-3252000Y-2635334D01*
X-3251999Y-3745933D01*
X-3334374Y-3663558D01*
X-3441162Y-3592205D01*
X-3559819Y-3543056D01*
X-3685784Y-3518000D01*
X-3814216Y-3518000D01*
X-3940181Y-3543056D01*
X-4058838Y-3592205D01*
X-4165626Y-3663558D01*
X-4256442Y-3754374D01*
X-4327795Y-3861162D01*
X-4376944Y-3979819D01*
X-4402000Y-4105784D01*
X-4402000Y-4234216D01*
X-4376944Y-4360181D01*
X-4327795Y-4478838D01*
X-4256442Y-4585626D01*
X-4165626Y-4676442D01*
X-4153592Y-4684483D01*
X-4186332Y-4763525D01*
X-4211388Y-4889490D01*
X-4211388Y-5017922D01*
X-4186332Y-5143887D01*
X-4137183Y-5262544D01*
X-4136185Y-5264038D01*
X-4190453Y-5345257D01*
X-4239602Y-5463914D01*
X-4264658Y-5589879D01*
X-4264658Y-5718311D01*
X-4239602Y-5844276D01*
X-4190453Y-5962933D01*
X-4119100Y-6069721D01*
X-4028284Y-6160537D01*
X-3921496Y-6231890D01*
X-3802839Y-6281039D01*
X-3676874Y-6306095D01*
X-3548442Y-6306095D01*
X-3422477Y-6281039D01*
X-3303820Y-6231890D01*
X-3197032Y-6160537D01*
X-3120282Y-6083787D01*
X-3063263Y-6153264D01*
X-3038386Y-6173680D01*
X-1906444Y-7305622D01*
X-1906442Y-7305626D01*
X-1815626Y-7396442D01*
X-1815622Y-7396444D01*
X-1766666Y-7445401D01*
X-1776672Y-7455407D01*
X-2736797Y-6495282D01*
X-2750989Y-6477989D01*
X-2819998Y-6421355D01*
X-2898729Y-6379273D01*
X-2984157Y-6353358D01*
X-3050744Y-6346800D01*
X-3050746Y-6346800D01*
X-3073000Y-6344608D01*
X-3095254Y-6346800D01*
X-3777755Y-6346800D01*
X-3800001Y-6344609D01*
X-3822247Y-6346800D01*
X-3822256Y-6346800D01*
X-3888843Y-6353358D01*
X-3974271Y-6379273D01*
X-4053002Y-6421355D01*
X-4122011Y-6477989D01*
X-4136203Y-6495282D01*
X-4804723Y-7163802D01*
X-4822010Y-7177989D01*
X-4836197Y-7195276D01*
X-4836198Y-7195277D01*
X-4878645Y-7246998D01*
X-4920727Y-7325730D01*
X-4946641Y-7411157D01*
X-4955392Y-7500000D01*
X-4953199Y-7522264D01*
X-4953200Y-9527746D01*
X-4955392Y-9550000D01*
X-4953200Y-9572254D01*
X-4953200Y-9572255D01*
X-4946642Y-9638842D01*
X-4929324Y-9695929D01*
X-4920727Y-9724270D01*
X-4878645Y-9803002D01*
X-4854984Y-9831833D01*
X-4822011Y-9872011D01*
X-4804719Y-9886202D01*
X-4223721Y-10467201D01*
X-4223722Y-13565145D01*
X-4309916Y-13548000D01*
X-4438348Y-13548000D01*
X-4564313Y-13573056D01*
X-4682970Y-13622205D01*
X-4789758Y-13693558D01*
X-4880574Y-13784374D01*
X-4951927Y-13891162D01*
X-5001076Y-14009819D01*
X-5023741Y-14123761D01*
X-5050000Y-14121175D01*
X-6550000Y-14121175D01*
X-6623905Y-14128454D01*
X-6694970Y-14150011D01*
X-6760463Y-14185018D01*
X-6817869Y-14232130D01*
X-6864981Y-14289536D01*
X-6899988Y-14355029D01*
X-6921545Y-14426094D01*
X-6928824Y-14499999D01*
X-6928824Y-14691303D01*
X-6960152Y-14697535D01*
X-7078809Y-14746684D01*
X-7185597Y-14818037D01*
X-7276413Y-14908853D01*
X-7347766Y-15015641D01*
X-7387095Y-15110590D01*
X-7452367Y-15110590D01*
X-7578332Y-15135646D01*
X-7696989Y-15184795D01*
X-7803777Y-15256148D01*
X-7894593Y-15346964D01*
X-7965946Y-15453752D01*
X-8015095Y-15572409D01*
X-8040151Y-15698374D01*
X-8040151Y-15826806D01*
X-8015095Y-15952771D01*
X-7965946Y-16071428D01*
X-7894593Y-16178216D01*
X-7803777Y-16269032D01*
X-7696989Y-16340385D01*
X-7578332Y-16389534D01*
X-7452367Y-16414590D01*
X-7323935Y-16414590D01*
X-7197970Y-16389534D01*
X-7079313Y-16340385D01*
X-7041228Y-16314938D01*
X-6986206Y-16298247D01*
X-6885967Y-16244669D01*
X-6798108Y-16172564D01*
X-6780043Y-16150552D01*
X-6722484Y-16092993D01*
X-6715460Y-16106430D01*
X-6714632Y-16107459D01*
X-6714011Y-16108628D01*
X-6691572Y-16136141D01*
X-6669356Y-16163772D01*
X-6668343Y-16164622D01*
X-6667508Y-16165646D01*
X-6640194Y-16188242D01*
X-6612993Y-16211067D01*
X-6611833Y-16211705D01*
X-6610816Y-16212546D01*
X-6579660Y-16229392D01*
X-6548516Y-16246513D01*
X-6547254Y-16246913D01*
X-6546093Y-16247541D01*
X-6512262Y-16258014D01*
X-6478383Y-16268761D01*
X-6477067Y-16268909D01*
X-6475806Y-16269299D01*
X-6440512Y-16273009D01*
X-6405264Y-16276962D01*
X-6402729Y-16276980D01*
X-6402632Y-16276990D01*
X-6402535Y-16276981D01*
X-6400000Y-16276999D01*
X-6000000Y-16276999D01*
X-5964692Y-16273537D01*
X-5929357Y-16270321D01*
X-5928090Y-16269948D01*
X-5926774Y-16269819D01*
X-5892775Y-16259554D01*
X-5858773Y-16249547D01*
X-5857604Y-16248936D01*
X-5856336Y-16248553D01*
X-5824966Y-16231873D01*
X-5799599Y-16218611D01*
X-5779660Y-16229392D01*
X-5748516Y-16246513D01*
X-5747254Y-16246913D01*
X-5746093Y-16247541D01*
X-5712262Y-16258014D01*
X-5678383Y-16268761D01*
X-5677067Y-16268909D01*
X-5675806Y-16269299D01*
X-5640512Y-16273009D01*
X-5605264Y-16276962D01*
X-5602729Y-16276980D01*
X-5602632Y-16276990D01*
X-5602535Y-16276981D01*
X-5600000Y-16276999D01*
X-5200000Y-16276999D01*
X-5164692Y-16273537D01*
X-5129357Y-16270321D01*
X-5128090Y-16269948D01*
X-5126774Y-16269819D01*
X-5092775Y-16259554D01*
X-5058773Y-16249547D01*
X-5057604Y-16248936D01*
X-5056336Y-16248553D01*
X-5024966Y-16231873D01*
X-4993569Y-16215459D01*
X-4992540Y-16214631D01*
X-4991371Y-16214010D01*
X-4963858Y-16191571D01*
X-4936227Y-16169355D01*
X-4935377Y-16168342D01*
X-4934353Y-16167507D01*
X-4911757Y-16140193D01*
X-4888932Y-16112992D01*
X-4888294Y-16111832D01*
X-4887453Y-16110815D01*
X-4870607Y-16079659D01*
X-4853486Y-16048515D01*
X-4853086Y-16047253D01*
X-4852458Y-16046092D01*
X-4841985Y-16012261D01*
X-4831238Y-15978382D01*
X-4831090Y-15977066D01*
X-4830700Y-15975805D01*
X-4826990Y-15940511D01*
X-4823037Y-15905263D01*
X-4823019Y-15902728D01*
X-4823009Y-15902631D01*
X-4823018Y-15902534D01*
X-4823000Y-15899999D01*
X-4823000Y-15801408D01*
X-4813084Y-15793270D01*
X-4781442Y-15840626D01*
X-4690626Y-15931442D01*
X-4583838Y-16002795D01*
X-4465181Y-16051944D01*
X-4339216Y-16077000D01*
X-4223722Y-16077000D01*
X-4223722Y-16081798D01*
X-5095136Y-16953213D01*
X-5099186Y-16947152D01*
X-5190002Y-16856336D01*
X-5296790Y-16784983D01*
X-5415447Y-16735834D01*
X-5541412Y-16710778D01*
X-5669844Y-16710778D01*
X-5795809Y-16735834D01*
X-5914466Y-16784983D01*
X-6021254Y-16856336D01*
X-6074496Y-16909578D01*
X-6245259Y-16909578D01*
X-6250163Y-16884922D01*
X-6299312Y-16766265D01*
X-6370665Y-16659477D01*
X-6461481Y-16568661D01*
X-6568269Y-16497308D01*
X-6686926Y-16448159D01*
X-6812891Y-16423103D01*
X-6941323Y-16423103D01*
X-7067288Y-16448159D01*
X-7185945Y-16497308D01*
X-7292733Y-16568661D01*
X-7345975Y-16621903D01*
X-8230835Y-16621903D01*
X-8253091Y-16619711D01*
X-8319627Y-16626264D01*
X-8341934Y-16628461D01*
X-8427362Y-16654376D01*
X-8506093Y-16696458D01*
X-8522969Y-16710308D01*
X-8549358Y-16670814D01*
X-8640174Y-16579998D01*
X-8746962Y-16508645D01*
X-8865619Y-16459496D01*
X-8991584Y-16434440D01*
X-9120016Y-16434440D01*
X-9238374Y-16457983D01*
X-9287558Y-16384374D01*
X-9378374Y-16293558D01*
X-9485162Y-16222205D01*
X-9603819Y-16173056D01*
X-9729784Y-16148000D01*
X-9858216Y-16148000D01*
X-9984181Y-16173056D01*
X-10102838Y-16222205D01*
X-10209626Y-16293558D01*
X-10300442Y-16384374D01*
X-10371795Y-16491162D01*
X-10420944Y-16609819D01*
X-10446000Y-16735784D01*
X-10446000Y-16864216D01*
X-10420944Y-16990181D01*
X-10371795Y-17108838D01*
X-10358989Y-17128003D01*
X-10373795Y-17150162D01*
X-10422944Y-17268819D01*
X-10426646Y-17287432D01*
X-11225308Y-16488771D01*
X-11239500Y-16471478D01*
X-11308509Y-16414844D01*
X-11387240Y-16372762D01*
X-11472668Y-16346847D01*
X-11539255Y-16340289D01*
X-11539257Y-16340289D01*
X-11561511Y-16338097D01*
X-11583765Y-16340289D01*
X-12545261Y-16340289D01*
X-12567517Y-16338097D01*
X-12589773Y-16340289D01*
X-12656360Y-16346847D01*
X-12741788Y-16372762D01*
X-12820519Y-16414844D01*
X-12884100Y-16467023D01*
X-12884100Y-15082981D01*
X-12854019Y-15052900D01*
X-10240885Y-15052900D01*
X-10240885Y-15181332D01*
X-10215829Y-15307297D01*
X-10166680Y-15425954D01*
X-10095327Y-15532742D01*
X-10004511Y-15623558D01*
X-9897723Y-15694911D01*
X-9779066Y-15744060D01*
X-9653101Y-15769116D01*
X-9524669Y-15769116D01*
X-9398704Y-15744060D01*
X-9280047Y-15694911D01*
X-9173259Y-15623558D01*
X-9082443Y-15532742D01*
X-9011090Y-15425954D01*
X-8961941Y-15307297D01*
X-8936885Y-15181332D01*
X-8936885Y-15052900D01*
X-8961941Y-14926935D01*
X-9011090Y-14808278D01*
X-9082443Y-14701490D01*
X-9173259Y-14610674D01*
X-9280047Y-14539321D01*
X-9398704Y-14490172D01*
X-9524669Y-14465116D01*
X-9653101Y-14465116D01*
X-9779066Y-14490172D01*
X-9897723Y-14539321D01*
X-10004511Y-14610674D01*
X-10095327Y-14701490D01*
X-10166680Y-14808278D01*
X-10215829Y-14926935D01*
X-10240885Y-15052900D01*
X-12854019Y-15052900D01*
X-12553118Y-14752000D01*
X-12495784Y-14752000D01*
X-12369819Y-14726944D01*
X-12251162Y-14677795D01*
X-12144374Y-14606442D01*
X-12053558Y-14515626D01*
X-11982205Y-14408838D01*
X-11933056Y-14290181D01*
X-11908000Y-14164216D01*
X-11908000Y-14035784D01*
X-11933056Y-13909819D01*
X-11982205Y-13791162D01*
X-12053558Y-13684374D01*
X-12144374Y-13593558D01*
X-12189752Y-13563238D01*
X-8352000Y-13563238D01*
X-8352000Y-13691670D01*
X-8326944Y-13817635D01*
X-8277795Y-13936292D01*
X-8206442Y-14043080D01*
X-8115626Y-14133896D01*
X-8008838Y-14205249D01*
X-7890181Y-14254398D01*
X-7764216Y-14279454D01*
X-7635784Y-14279454D01*
X-7509819Y-14254398D01*
X-7391162Y-14205249D01*
X-7284374Y-14133896D01*
X-7193558Y-14043080D01*
X-7122205Y-13936292D01*
X-7073056Y-13817635D01*
X-7053605Y-13719850D01*
X-7003737Y-13740506D01*
X-6877772Y-13765562D01*
X-6749340Y-13765562D01*
X-6623375Y-13740506D01*
X-6504718Y-13691357D01*
X-6397930Y-13620004D01*
X-6307114Y-13529188D01*
X-6235761Y-13422400D01*
X-6186612Y-13303743D01*
X-6161556Y-13177778D01*
X-6161556Y-13049346D01*
X-6186612Y-12923381D01*
X-6235761Y-12804724D01*
X-6307114Y-12697936D01*
X-6397930Y-12607120D01*
X-6504718Y-12535767D01*
X-6623375Y-12486618D01*
X-6749340Y-12461562D01*
X-6877772Y-12461562D01*
X-7003737Y-12486618D01*
X-7122394Y-12535767D01*
X-7229182Y-12607120D01*
X-7319998Y-12697936D01*
X-7391351Y-12804724D01*
X-7440500Y-12923381D01*
X-7459951Y-13021166D01*
X-7509819Y-13000510D01*
X-7635784Y-12975454D01*
X-7764216Y-12975454D01*
X-7890181Y-13000510D01*
X-8008838Y-13049659D01*
X-8115626Y-13121012D01*
X-8206442Y-13211828D01*
X-8277795Y-13318616D01*
X-8326944Y-13437273D01*
X-8352000Y-13563238D01*
X-12189752Y-13563238D01*
X-12202595Y-13554657D01*
X-12153561Y-13505623D01*
X-12082208Y-13398835D01*
X-12033059Y-13280178D01*
X-12008003Y-13154213D01*
X-12008003Y-13025781D01*
X-12033059Y-12899816D01*
X-12082208Y-12781159D01*
X-12153561Y-12674371D01*
X-12244377Y-12583555D01*
X-12351165Y-12512202D01*
X-12469822Y-12463053D01*
X-12595787Y-12437997D01*
X-12724219Y-12437997D01*
X-12850184Y-12463053D01*
X-12968841Y-12512202D01*
X-13075629Y-12583555D01*
X-13166445Y-12674371D01*
X-13237798Y-12781159D01*
X-13286947Y-12899816D01*
X-13312003Y-13025781D01*
X-13312003Y-13083115D01*
X-14063252Y-13834365D01*
X-14081035Y-13848959D01*
X-14139256Y-13919903D01*
X-14182518Y-14000840D01*
X-14209159Y-14088663D01*
X-14214584Y-14143747D01*
X-14218154Y-14179994D01*
X-14215900Y-14202878D01*
X-14215900Y-14979018D01*
X-14339054Y-14954521D01*
X-14467486Y-14954521D01*
X-14593451Y-14979577D01*
X-14712108Y-15028726D01*
X-14818896Y-15100079D01*
X-14909712Y-15190895D01*
X-14981065Y-15297683D01*
X-15030214Y-15416340D01*
X-15055270Y-15542305D01*
X-15055270Y-15670737D01*
X-15030214Y-15796702D01*
X-14981065Y-15915359D01*
X-14909712Y-16022147D01*
X-14818896Y-16112963D01*
X-14712108Y-16184316D01*
X-14593451Y-16233465D01*
X-14467486Y-16258521D01*
X-14339054Y-16258521D01*
X-14215899Y-16234024D01*
X-14215899Y-16813727D01*
X-14327500Y-16859953D01*
X-14434288Y-16931306D01*
X-14525104Y-17022122D01*
X-14596457Y-17128910D01*
X-14645606Y-17247567D01*
X-14670662Y-17373532D01*
X-14670662Y-17501964D01*
X-14645606Y-17627929D01*
X-14596457Y-17746586D01*
X-14573660Y-17780705D01*
X-14607423Y-17831236D01*
X-14656572Y-17949893D01*
X-14681628Y-18075858D01*
X-14681628Y-18204290D01*
X-14656572Y-18330255D01*
X-14607423Y-18448912D01*
X-14559373Y-18520824D01*
X-14567171Y-18532494D01*
X-14616320Y-18651151D01*
X-14641376Y-18777116D01*
X-14641376Y-18905548D01*
X-14616320Y-19031513D01*
X-14567171Y-19150170D01*
X-14495818Y-19256958D01*
X-14405002Y-19347774D01*
X-14396854Y-19353218D01*
X-14866104Y-19822469D01*
X-14886053Y-19809140D01*
X-15004710Y-19759991D01*
X-15130675Y-19734935D01*
X-15259107Y-19734935D01*
X-15385072Y-19759991D01*
X-15503729Y-19809140D01*
X-15552297Y-19841592D01*
X-15647162Y-19778205D01*
X-15765819Y-19729056D01*
X-15891784Y-19704000D01*
X-16020216Y-19704000D01*
X-16146181Y-19729056D01*
X-16264838Y-19778205D01*
X-16371626Y-19849558D01*
X-16462442Y-19940374D01*
X-16533795Y-20047162D01*
X-16582944Y-20165819D01*
X-16608000Y-20291784D01*
X-16608000Y-20420216D01*
X-16582944Y-20546181D01*
X-16533795Y-20664838D01*
X-16462442Y-20771626D01*
X-16371626Y-20862442D01*
X-16264838Y-20933795D01*
X-16146181Y-20982944D01*
X-16020216Y-21008000D01*
X-15944922Y-21008000D01*
X-15720198Y-21232724D01*
X-15706011Y-21250011D01*
X-15637002Y-21306645D01*
X-15558271Y-21348727D01*
X-15472843Y-21374642D01*
X-15406256Y-21381200D01*
X-15406255Y-21381200D01*
X-15384001Y-21383392D01*
X-15361747Y-21381200D01*
X-14914138Y-21381200D01*
X-14891884Y-21383392D01*
X-14869630Y-21381200D01*
X-14869628Y-21381200D01*
X-14803041Y-21374642D01*
X-14717613Y-21348727D01*
X-14638882Y-21306645D01*
X-14569873Y-21250011D01*
X-14555681Y-21232718D01*
X-14225711Y-20902748D01*
X-14218442Y-20913626D01*
X-14127626Y-21004442D01*
X-14020838Y-21075795D01*
X-13902181Y-21124944D01*
X-13776216Y-21150000D01*
X-13647784Y-21150000D01*
X-13521819Y-21124944D01*
X-13403162Y-21075795D01*
X-13296374Y-21004442D01*
X-13205558Y-20913626D01*
X-13150455Y-20831158D01*
X-13119062Y-20837403D01*
X-12990630Y-20837403D01*
X-12901999Y-20819773D01*
X-12902000Y-22598000D01*
X-17598000Y-22598000D01*
X-17598000Y-11100000D01*
X-16278824Y-11100000D01*
X-16278824Y-12100000D01*
X-16271545Y-12173905D01*
X-16249988Y-12244970D01*
X-16214981Y-12310463D01*
X-16167869Y-12367869D01*
X-16110463Y-12414981D01*
X-16044970Y-12449988D01*
X-15973905Y-12471545D01*
X-15900000Y-12478824D01*
X-14900000Y-12478824D01*
X-14826095Y-12471545D01*
X-14755030Y-12449988D01*
X-14689537Y-12414981D01*
X-14632131Y-12367869D01*
X-14585019Y-12310463D01*
X-14550012Y-12244970D01*
X-14528455Y-12173905D01*
X-14521176Y-12100000D01*
X-14521176Y-11683321D01*
X-6127000Y-11683321D01*
X-6127000Y-11816679D01*
X-6100984Y-11947474D01*
X-6049950Y-12070680D01*
X-5975860Y-12181563D01*
X-5881563Y-12275860D01*
X-5770680Y-12349950D01*
X-5647474Y-12400984D01*
X-5516679Y-12427000D01*
X-5383321Y-12427000D01*
X-5252526Y-12400984D01*
X-5129320Y-12349950D01*
X-5018437Y-12275860D01*
X-4924140Y-12181563D01*
X-4850050Y-12070680D01*
X-4799016Y-11947474D01*
X-4773000Y-11816679D01*
X-4773000Y-11683321D01*
X-4799016Y-11552526D01*
X-4850050Y-11429320D01*
X-4924140Y-11318437D01*
X-5018437Y-11224140D01*
X-5129320Y-11150050D01*
X-5252526Y-11099016D01*
X-5383321Y-11073000D01*
X-5516679Y-11073000D01*
X-5647474Y-11099016D01*
X-5770680Y-11150050D01*
X-5881563Y-11224140D01*
X-5975860Y-11318437D01*
X-6049950Y-11429320D01*
X-6100984Y-11552526D01*
X-6127000Y-11683321D01*
X-14521176Y-11683321D01*
X-14521176Y-11100000D01*
X-14528455Y-11026095D01*
X-14550012Y-10955030D01*
X-14585019Y-10889537D01*
X-14632131Y-10832131D01*
X-14663534Y-10806359D01*
X-14622813Y-10745415D01*
X-14556703Y-10585811D01*
X-14523000Y-10416377D01*
X-14523000Y-10243623D01*
X-14556703Y-10074189D01*
X-14622813Y-9914585D01*
X-14718790Y-9770945D01*
X-14840945Y-9648790D01*
X-14864004Y-9633382D01*
X-12127000Y-9633382D01*
X-12127000Y-9761814D01*
X-12101944Y-9887779D01*
X-12052795Y-10006436D01*
X-11981442Y-10113224D01*
X-11890626Y-10204040D01*
X-11783838Y-10275393D01*
X-11665181Y-10324542D01*
X-11539216Y-10349598D01*
X-11410784Y-10349598D01*
X-11284819Y-10324542D01*
X-11166162Y-10275393D01*
X-11059374Y-10204040D01*
X-10968558Y-10113224D01*
X-10897205Y-10006436D01*
X-10848056Y-9887779D01*
X-10823000Y-9761814D01*
X-10823000Y-9633382D01*
X-10848056Y-9507417D01*
X-10897205Y-9388760D01*
X-10968558Y-9281972D01*
X-11059374Y-9191156D01*
X-11166162Y-9119803D01*
X-11284819Y-9070654D01*
X-11410784Y-9045598D01*
X-11539216Y-9045598D01*
X-11665181Y-9070654D01*
X-11783838Y-9119803D01*
X-11890626Y-9191156D01*
X-11981442Y-9281972D01*
X-12052795Y-9388760D01*
X-12101944Y-9507417D01*
X-12127000Y-9633382D01*
X-14864004Y-9633382D01*
X-14984585Y-9552813D01*
X-15144189Y-9486703D01*
X-15313623Y-9453000D01*
X-15486377Y-9453000D01*
X-15655811Y-9486703D01*
X-15815415Y-9552813D01*
X-15959055Y-9648790D01*
X-16081210Y-9770945D01*
X-16177187Y-9914585D01*
X-16243297Y-10074189D01*
X-16277000Y-10243623D01*
X-16277000Y-10416377D01*
X-16243297Y-10585811D01*
X-16177187Y-10745415D01*
X-16136466Y-10806359D01*
X-16167869Y-10832131D01*
X-16214981Y-10889537D01*
X-16249988Y-10955030D01*
X-16271545Y-11026095D01*
X-16278824Y-11100000D01*
X-17598000Y-11100000D01*
X-17598000Y-5316890D01*
X-16941476Y-5316890D01*
X-16896825Y-5464099D01*
X-16771641Y-5726920D01*
X-16597588Y-5960269D01*
X-16381355Y-6155178D01*
X-16186620Y-6271176D01*
X-16350000Y-6271176D01*
X-16423905Y-6278455D01*
X-16494970Y-6300012D01*
X-16560463Y-6335019D01*
X-16617869Y-6382131D01*
X-16664981Y-6439537D01*
X-16699988Y-6505030D01*
X-16721545Y-6576095D01*
X-16728824Y-6650000D01*
X-16728824Y-8350000D01*
X-16721545Y-8423905D01*
X-16699988Y-8494970D01*
X-16664981Y-8560463D01*
X-16617869Y-8617869D01*
X-16560463Y-8664981D01*
X-16494970Y-8699988D01*
X-16423905Y-8721545D01*
X-16350000Y-8728824D01*
X-14650000Y-8728824D01*
X-14576095Y-8721545D01*
X-14505030Y-8699988D01*
X-14439537Y-8664981D01*
X-14415695Y-8645414D01*
X-14459820Y-8751943D01*
X-14484876Y-8877908D01*
X-14484876Y-9006340D01*
X-14459820Y-9132305D01*
X-14410671Y-9250962D01*
X-14339318Y-9357750D01*
X-14248502Y-9448566D01*
X-14141714Y-9519919D01*
X-14023057Y-9569068D01*
X-13897092Y-9594124D01*
X-13768660Y-9594124D01*
X-13642695Y-9569068D01*
X-13524038Y-9519919D01*
X-13417250Y-9448566D01*
X-13326434Y-9357750D01*
X-13255081Y-9250962D01*
X-13205932Y-9132305D01*
X-13180876Y-9006340D01*
X-13180876Y-8877908D01*
X-13205932Y-8751943D01*
X-13255081Y-8633286D01*
X-13326434Y-8526498D01*
X-13417250Y-8435682D01*
X-13524038Y-8364329D01*
X-13642695Y-8315180D01*
X-13768660Y-8290124D01*
X-13897092Y-8290124D01*
X-14023057Y-8315180D01*
X-14141714Y-8364329D01*
X-14248502Y-8435682D01*
X-14296625Y-8483805D01*
X-14278455Y-8423905D01*
X-14271176Y-8350000D01*
X-14271176Y-7720529D01*
X-12429410Y-7720529D01*
X-12429410Y-7848961D01*
X-12404354Y-7974926D01*
X-12355205Y-8093583D01*
X-12283852Y-8200371D01*
X-12193036Y-8291187D01*
X-12086248Y-8362540D01*
X-11967591Y-8411689D01*
X-11841626Y-8436745D01*
X-11713194Y-8436745D01*
X-11587229Y-8411689D01*
X-11468572Y-8362540D01*
X-11361784Y-8291187D01*
X-11270968Y-8200371D01*
X-11199615Y-8093583D01*
X-11150466Y-7974926D01*
X-11125410Y-7848961D01*
X-11125410Y-7720529D01*
X-11150466Y-7594564D01*
X-11199615Y-7475907D01*
X-11270968Y-7369119D01*
X-11361784Y-7278303D01*
X-11468572Y-7206950D01*
X-11587229Y-7157801D01*
X-11713194Y-7132745D01*
X-11841626Y-7132745D01*
X-11967591Y-7157801D01*
X-12086248Y-7206950D01*
X-12193036Y-7278303D01*
X-12283852Y-7369119D01*
X-12355205Y-7475907D01*
X-12404354Y-7594564D01*
X-12429410Y-7720529D01*
X-14271176Y-7720529D01*
X-14271176Y-6650000D01*
X-14278455Y-6576095D01*
X-14300012Y-6505030D01*
X-14335019Y-6439537D01*
X-14382131Y-6382131D01*
X-14439537Y-6335019D01*
X-14505030Y-6300012D01*
X-14576095Y-6278455D01*
X-14650000Y-6271176D01*
X-14813380Y-6271176D01*
X-14618645Y-6155178D01*
X-14402412Y-5960269D01*
X-14228359Y-5726920D01*
X-14103175Y-5464099D01*
X-14058524Y-5316890D01*
X-14179845Y-5087000D01*
X-15373000Y-5087000D01*
X-15373000Y-5107000D01*
X-15627000Y-5107000D01*
X-15627000Y-5087000D01*
X-16820155Y-5087000D01*
X-16941476Y-5316890D01*
X-17598000Y-5316890D01*
X-17598000Y-4925784D01*
X-13992000Y-4925784D01*
X-13992000Y-5054216D01*
X-13966944Y-5180181D01*
X-13917795Y-5298838D01*
X-13846442Y-5405626D01*
X-13755626Y-5496442D01*
X-13648838Y-5567795D01*
X-13530181Y-5616944D01*
X-13404216Y-5642000D01*
X-13275784Y-5642000D01*
X-13149819Y-5616944D01*
X-13031162Y-5567795D01*
X-12924374Y-5496442D01*
X-12833558Y-5405626D01*
X-12762205Y-5298838D01*
X-12733906Y-5230516D01*
X-7684404Y-5230516D01*
X-7684404Y-5358948D01*
X-7659348Y-5484913D01*
X-7610199Y-5603570D01*
X-7538846Y-5710358D01*
X-7448030Y-5801174D01*
X-7341242Y-5872527D01*
X-7222585Y-5921676D01*
X-7096620Y-5946732D01*
X-6968188Y-5946732D01*
X-6842223Y-5921676D01*
X-6723566Y-5872527D01*
X-6616778Y-5801174D01*
X-6525962Y-5710358D01*
X-6454609Y-5603570D01*
X-6405460Y-5484913D01*
X-6380404Y-5358948D01*
X-6380404Y-5230516D01*
X-6405460Y-5104551D01*
X-6454609Y-4985894D01*
X-6525962Y-4879106D01*
X-6616778Y-4788290D01*
X-6723566Y-4716937D01*
X-6842223Y-4667788D01*
X-6968188Y-4642732D01*
X-7096620Y-4642732D01*
X-7222585Y-4667788D01*
X-7341242Y-4716937D01*
X-7448030Y-4788290D01*
X-7538846Y-4879106D01*
X-7610199Y-4985894D01*
X-7659348Y-5104551D01*
X-7684404Y-5230516D01*
X-12733906Y-5230516D01*
X-12713056Y-5180181D01*
X-12688000Y-5054216D01*
X-12688000Y-4925784D01*
X-12713056Y-4799819D01*
X-12762205Y-4681162D01*
X-12833558Y-4574374D01*
X-12924374Y-4483558D01*
X-13031162Y-4412205D01*
X-13149819Y-4363056D01*
X-13275784Y-4338000D01*
X-13404216Y-4338000D01*
X-13530181Y-4363056D01*
X-13648838Y-4412205D01*
X-13755626Y-4483558D01*
X-13846442Y-4574374D01*
X-13917795Y-4681162D01*
X-13966944Y-4799819D01*
X-13992000Y-4925784D01*
X-17598000Y-4925784D01*
X-17598000Y-4603110D01*
X-16941476Y-4603110D01*
X-16820155Y-4833000D01*
X-15627000Y-4833000D01*
X-15627000Y-4813000D01*
X-15373000Y-4813000D01*
X-15373000Y-4833000D01*
X-14179845Y-4833000D01*
X-14058524Y-4603110D01*
X-14103175Y-4455901D01*
X-14228359Y-4193080D01*
X-14402412Y-3959731D01*
X-14618645Y-3764822D01*
X-14868748Y-3615843D01*
X-15036798Y-3556231D01*
X-14918798Y-3507353D01*
X-14717833Y-3373073D01*
X-14546927Y-3202167D01*
X-14412647Y-3001202D01*
X-14320153Y-2777903D01*
X-14273000Y-2540849D01*
X-14273000Y-2299151D01*
X-14320153Y-2062097D01*
X-14412647Y-1838798D01*
X-14546927Y-1637833D01*
X-14717833Y-1466927D01*
X-14918798Y-1332647D01*
X-14959508Y-1315784D01*
X-13802000Y-1315784D01*
X-13802000Y-1444216D01*
X-13776944Y-1570181D01*
X-13727795Y-1688838D01*
X-13656442Y-1795626D01*
X-13565626Y-1886442D01*
X-13458838Y-1957795D01*
X-13340181Y-2006944D01*
X-13214216Y-2032000D01*
X-13085784Y-2032000D01*
X-12959819Y-2006944D01*
X-12841162Y-1957795D01*
X-12734374Y-1886442D01*
X-12643558Y-1795626D01*
X-12588341Y-1712987D01*
X-12526442Y-1805626D01*
X-12435626Y-1896442D01*
X-12328838Y-1967795D01*
X-12210181Y-2016944D01*
X-12084216Y-2042000D01*
X-11955784Y-2042000D01*
X-11829819Y-2016944D01*
X-11711162Y-1967795D01*
X-11604374Y-1896442D01*
X-11530000Y-1822068D01*
X-11525626Y-1826442D01*
X-11418838Y-1897795D01*
X-11300181Y-1946944D01*
X-11174216Y-1972000D01*
X-11122302Y-1972000D01*
X-11573378Y-2423077D01*
X-11591155Y-2437666D01*
X-11605744Y-2455443D01*
X-11649376Y-2508609D01*
X-11692639Y-2589547D01*
X-11719279Y-2677369D01*
X-11728275Y-2768701D01*
X-11726020Y-2791595D01*
X-11726021Y-3531529D01*
X-11766563Y-3572071D01*
X-11837916Y-3678859D01*
X-11887065Y-3797516D01*
X-11912121Y-3923481D01*
X-11912121Y-4051913D01*
X-11887065Y-4177878D01*
X-11837916Y-4296535D01*
X-11766563Y-4403323D01*
X-11675747Y-4494139D01*
X-11568959Y-4565492D01*
X-11450302Y-4614641D01*
X-11324337Y-4639697D01*
X-11195905Y-4639697D01*
X-11069940Y-4614641D01*
X-10951283Y-4565492D01*
X-10844495Y-4494139D01*
X-10753679Y-4403323D01*
X-10722116Y-4356085D01*
X-10661764Y-4368090D01*
X-10533332Y-4368090D01*
X-10407367Y-4343034D01*
X-10288710Y-4293885D01*
X-10181922Y-4222532D01*
X-10091106Y-4131716D01*
X-10019753Y-4024928D01*
X-9970604Y-3906271D01*
X-9945548Y-3780306D01*
X-9945548Y-3651874D01*
X-9970604Y-3525909D01*
X-10019753Y-3407252D01*
X-10091106Y-3300464D01*
X-10181922Y-3209648D01*
X-10288710Y-3138295D01*
X-10407367Y-3089146D01*
X-10533332Y-3064090D01*
X-10661764Y-3064090D01*
X-10787729Y-3089146D01*
X-10794221Y-3091835D01*
X-10794221Y-2961682D01*
X-10435439Y-2602901D01*
X-9279885Y-2602901D01*
X-9257001Y-2605155D01*
X-9234117Y-2602901D01*
X-9234115Y-2602901D01*
X-9165669Y-2596160D01*
X-9077846Y-2569519D01*
X-8996909Y-2526257D01*
X-8925966Y-2468036D01*
X-8911372Y-2450253D01*
X-7836736Y-1375619D01*
X-7818965Y-1361035D01*
X-7804380Y-1343263D01*
X-7804376Y-1343259D01*
X-7791033Y-1327000D01*
X-6330000Y-1327000D01*
X-6305224Y-1324560D01*
X-6281399Y-1317333D01*
X-6259443Y-1305597D01*
X-6240197Y-1289803D01*
X-6140197Y-1189803D01*
X-6124403Y-1170557D01*
X-6112667Y-1148601D01*
X-6105440Y-1124776D01*
X-6103000Y-1100000D01*
X-6103000Y1839628D01*
X-906751Y1839628D01*
X-906750Y-187440D01*
X-895077Y-305962D01*
X-848946Y-458035D01*
X-774033Y-598186D01*
X-673218Y-721030D01*
X-550374Y-821845D01*
X-410223Y-896758D01*
X-258150Y-942889D01*
X-100000Y-958465D01*
X58151Y-942889D01*
X210224Y-896758D01*
X350375Y-821845D01*
X473219Y-721030D01*
X574034Y-598186D01*
X648947Y-458035D01*
X695078Y-305962D01*
X706751Y-187440D01*
X706751Y1839629D01*
X695078Y1958151D01*
X648947Y2110224D01*
X574034Y2250375D01*
X473219Y2373219D01*
X350374Y2474034D01*
X210223Y2548947D01*
X58150Y2595078D01*
X-100000Y2610654D01*
X-258151Y2595078D01*
X-410224Y2548947D01*
X-550375Y2474034D01*
X-673219Y2373219D01*
X-774034Y2250374D01*
X-848947Y2110223D01*
X-895078Y1958150D01*
X-906751Y1839628D01*
X-6103000Y1839628D01*
X-6103000Y2230000D01*
X-6105360Y2254371D01*
X-6112510Y2278219D01*
X-6124174Y2300213D01*
X-6139906Y2319510D01*
X-6239904Y2420161D01*
X-6258754Y2435786D01*
X-6280634Y2447665D01*
X-6304411Y2455047D01*
X-6329171Y2457648D01*
X-7684100Y2466475D01*
X-7684100Y3177019D01*
X-5246741Y5614377D01*
X-5228965Y5628965D01*
X-5172710Y5697512D01*
X-5170745Y5699906D01*
X-5127482Y5780845D01*
X-5122358Y5797738D01*
X-5100841Y5868668D01*
X-5094100Y5937114D01*
X-5094100Y5937115D01*
X-5091846Y5959999D01*
X-5094100Y5982883D01*
X-5094100Y6024216D01*
X-112000Y6024216D01*
X-112000Y5895784D01*
X-86944Y5769819D01*
X-37795Y5651162D01*
X33558Y5544374D01*
X124374Y5453558D01*
X231162Y5382205D01*
X349819Y5333056D01*
X475784Y5308000D01*
X604216Y5308000D01*
X730181Y5333056D01*
X848838Y5382205D01*
X955626Y5453558D01*
X983284Y5481216D01*
X7580000Y5481216D01*
X7580000Y5352784D01*
X7605056Y5226819D01*
X7654205Y5108162D01*
X7725558Y5001374D01*
X7816374Y4910558D01*
X7923162Y4839205D01*
X8041819Y4790056D01*
X8167784Y4765000D01*
X8296216Y4765000D01*
X8422181Y4790056D01*
X8540838Y4839205D01*
X8647626Y4910558D01*
X8738442Y5001374D01*
X8809795Y5108162D01*
X8858944Y5226819D01*
X8869691Y5280849D01*
X14273000Y5280849D01*
X14273000Y5039151D01*
X14320153Y4802097D01*
X14412647Y4578798D01*
X14546927Y4377833D01*
X14717833Y4206927D01*
X14918798Y4072647D01*
X15142097Y3980153D01*
X15379151Y3933000D01*
X15620849Y3933000D01*
X15857903Y3980153D01*
X16081202Y4072647D01*
X16282167Y4206927D01*
X16453073Y4377833D01*
X16587353Y4578798D01*
X16679847Y4802097D01*
X16727000Y5039151D01*
X16727000Y5280849D01*
X16679847Y5517903D01*
X16587353Y5741202D01*
X16453073Y5942167D01*
X16282167Y6113073D01*
X16081202Y6247353D01*
X15857903Y6339847D01*
X15620849Y6387000D01*
X15379151Y6387000D01*
X15142097Y6339847D01*
X14918798Y6247353D01*
X14717833Y6113073D01*
X14546927Y5942167D01*
X14412647Y5741202D01*
X14320153Y5517903D01*
X14273000Y5280849D01*
X8869691Y5280849D01*
X8884000Y5352784D01*
X8884000Y5481216D01*
X8858944Y5607181D01*
X8809795Y5725838D01*
X8738442Y5832626D01*
X8647626Y5923442D01*
X8540838Y5994795D01*
X8422181Y6043944D01*
X8296216Y6069000D01*
X8167784Y6069000D01*
X8041819Y6043944D01*
X7923162Y5994795D01*
X7816374Y5923442D01*
X7725558Y5832626D01*
X7654205Y5725838D01*
X7605056Y5607181D01*
X7580000Y5481216D01*
X983284Y5481216D01*
X1046442Y5544374D01*
X1117795Y5651162D01*
X1166944Y5769819D01*
X1192000Y5895784D01*
X1192000Y6024216D01*
X1166944Y6150181D01*
X1117795Y6268838D01*
X1046442Y6375626D01*
X955626Y6466442D01*
X848838Y6537795D01*
X730181Y6586944D01*
X604216Y6612000D01*
X475784Y6612000D01*
X349819Y6586944D01*
X231162Y6537795D01*
X124374Y6466442D01*
X33558Y6375626D01*
X-37795Y6268838D01*
X-86944Y6150181D01*
X-112000Y6024216D01*
X-5094100Y6024216D01*
X-5094100Y6687117D01*
X-5091846Y6710001D01*
X-5095483Y6746927D01*
X-5100841Y6801332D01*
X-5127482Y6889155D01*
X-5170744Y6970092D01*
X-5170745Y6970094D01*
X-5214377Y7023259D01*
X-5228965Y7041035D01*
X-5246743Y7055625D01*
X-6231334Y8040216D01*
X6718000Y8040216D01*
X6718000Y7911784D01*
X6743056Y7785819D01*
X6792205Y7667162D01*
X6863558Y7560374D01*
X6954374Y7469558D01*
X7061162Y7398205D01*
X7179819Y7349056D01*
X7305784Y7324000D01*
X7434216Y7324000D01*
X7560181Y7349056D01*
X7678838Y7398205D01*
X7785626Y7469558D01*
X7876442Y7560374D01*
X7947795Y7667162D01*
X7996944Y7785819D01*
X8003911Y7820849D01*
X14273000Y7820849D01*
X14273000Y7579151D01*
X14320153Y7342097D01*
X14412647Y7118798D01*
X14546927Y6917833D01*
X14717833Y6746927D01*
X14918798Y6612647D01*
X15142097Y6520153D01*
X15379151Y6473000D01*
X15620849Y6473000D01*
X15857903Y6520153D01*
X16081202Y6612647D01*
X16282167Y6746927D01*
X16453073Y6917833D01*
X16587353Y7118798D01*
X16679847Y7342097D01*
X16727000Y7579151D01*
X16727000Y7820849D01*
X16679847Y8057903D01*
X16587353Y8281202D01*
X16453073Y8482167D01*
X16282167Y8653073D01*
X16081202Y8787353D01*
X15857903Y8879847D01*
X15620849Y8927000D01*
X15379151Y8927000D01*
X15142097Y8879847D01*
X14918798Y8787353D01*
X14717833Y8653073D01*
X14546927Y8482167D01*
X14412647Y8281202D01*
X14320153Y8057903D01*
X14273000Y7820849D01*
X8003911Y7820849D01*
X8022000Y7911784D01*
X8022000Y8040216D01*
X7996944Y8166181D01*
X7947795Y8284838D01*
X7876442Y8391626D01*
X7785626Y8482442D01*
X7678838Y8553795D01*
X7560181Y8602944D01*
X7434216Y8628000D01*
X7305784Y8628000D01*
X7179819Y8602944D01*
X7061162Y8553795D01*
X6954374Y8482442D01*
X6863558Y8391626D01*
X6792205Y8284838D01*
X6743056Y8166181D01*
X6718000Y8040216D01*
X-6231334Y8040216D01*
X-6647137Y8456018D01*
X-6661731Y8473801D01*
X-6732674Y8532022D01*
X-6813611Y8575284D01*
X-6901434Y8601925D01*
X-6969880Y8608666D01*
X-6969882Y8608666D01*
X-6992766Y8610920D01*
X-7015650Y8608666D01*
X-8469832Y8608666D01*
X-8510374Y8649208D01*
X-8617162Y8720561D01*
X-8735819Y8769710D01*
X-8861784Y8794766D01*
X-8990216Y8794766D01*
X-9116181Y8769710D01*
X-9234838Y8720561D01*
X-9341626Y8649208D01*
X-9408172Y8582662D01*
X-9413470Y8584856D01*
X-9539435Y8609912D01*
X-9667867Y8609912D01*
X-9793832Y8584856D01*
X-9912489Y8535707D01*
X-10019277Y8464354D01*
X-10110093Y8373538D01*
X-10181446Y8266750D01*
X-10230595Y8148093D01*
X-10255651Y8022128D01*
X-10255651Y7893696D01*
X-10249999Y7865279D01*
X-10310218Y7825042D01*
X-10401034Y7734226D01*
X-10472387Y7627438D01*
X-10521536Y7508781D01*
X-10546592Y7382816D01*
X-10546592Y7254384D01*
X-10521536Y7128419D01*
X-10472387Y7009762D01*
X-10401034Y6902974D01*
X-10310218Y6812158D01*
X-10203430Y6740805D01*
X-10084773Y6691656D01*
X-9958808Y6666600D01*
X-9830376Y6666600D01*
X-9704411Y6691656D01*
X-9585754Y6740805D01*
X-9478966Y6812158D01*
X-9388150Y6902974D01*
X-9316797Y7009762D01*
X-9267648Y7128419D01*
X-9242592Y7254384D01*
X-9242592Y7382816D01*
X-9248244Y7411233D01*
X-9188025Y7451470D01*
X-9121479Y7518016D01*
X-9116181Y7515822D01*
X-8990216Y7490766D01*
X-8861784Y7490766D01*
X-8735819Y7515822D01*
X-8617162Y7564971D01*
X-8510374Y7636324D01*
X-8469832Y7676866D01*
X-7185747Y7676866D01*
X-6569996Y7061115D01*
X-6573419Y7059697D01*
X-6620762Y7028063D01*
X-6663161Y7056393D01*
X-6781818Y7105542D01*
X-6907783Y7130598D01*
X-7036215Y7130598D01*
X-7162180Y7105542D01*
X-7280837Y7056393D01*
X-7387625Y6985040D01*
X-7397390Y6975275D01*
X-7401162Y6977795D01*
X-7519819Y7026944D01*
X-7645784Y7052000D01*
X-7774216Y7052000D01*
X-7900181Y7026944D01*
X-8018838Y6977795D01*
X-8125626Y6906442D01*
X-8216442Y6815626D01*
X-8287795Y6708838D01*
X-8336944Y6590181D01*
X-8346002Y6544644D01*
X-9010000Y5880645D01*
X-9359647Y6230291D01*
X-9386514Y6295154D01*
X-9452396Y6393753D01*
X-9536247Y6477604D01*
X-9634846Y6543486D01*
X-9744403Y6588866D01*
X-9860708Y6612000D01*
X-9979292Y6612000D01*
X-10095597Y6588866D01*
X-10205154Y6543486D01*
X-10303753Y6477604D01*
X-10387604Y6393753D01*
X-10453486Y6295154D01*
X-10498866Y6185597D01*
X-10522000Y6069292D01*
X-10522000Y5950708D01*
X-10498866Y5834403D01*
X-10453486Y5724846D01*
X-10387604Y5626247D01*
X-10303753Y5542396D01*
X-10205154Y5476514D01*
X-10140291Y5449647D01*
X-9365988Y4675342D01*
X-9348710Y4654289D01*
X-9327659Y4637013D01*
X-9327654Y4637008D01*
X-9327643Y4636999D01*
X-9211000Y4520355D01*
X-9211000Y2475240D01*
X-9224373Y2473989D01*
X-9248221Y2466839D01*
X-9270215Y2455175D01*
X-9289512Y2439443D01*
X-9389510Y2340094D01*
X-9405597Y2320557D01*
X-9417333Y2298601D01*
X-9424560Y2274776D01*
X-9427000Y2250000D01*
X-9427000Y-146350D01*
X-9501464Y-96595D01*
X-9620121Y-47446D01*
X-9746086Y-22390D01*
X-9874518Y-22390D01*
X-10000483Y-47446D01*
X-10119140Y-96595D01*
X-10225928Y-167948D01*
X-10316744Y-258764D01*
X-10388097Y-365552D01*
X-10437246Y-484209D01*
X-10462302Y-610174D01*
X-10462302Y-738606D01*
X-10437246Y-864571D01*
X-10388097Y-983228D01*
X-10316744Y-1090016D01*
X-10263404Y-1143356D01*
X-10273288Y-1167217D01*
X-10298344Y-1293182D01*
X-10298344Y-1421614D01*
X-10273288Y-1547579D01*
X-10224139Y-1666236D01*
X-10220888Y-1671101D01*
X-10560444Y-1671101D01*
X-10532205Y-1628838D01*
X-10483056Y-1510181D01*
X-10458000Y-1384216D01*
X-10458000Y-1255784D01*
X-10483056Y-1129819D01*
X-10532205Y-1011162D01*
X-10603558Y-904374D01*
X-10694374Y-813558D01*
X-10801162Y-742205D01*
X-10919819Y-693056D01*
X-11045784Y-668000D01*
X-11174216Y-668000D01*
X-11300181Y-693056D01*
X-11418838Y-742205D01*
X-11525626Y-813558D01*
X-11600000Y-887932D01*
X-11604374Y-883558D01*
X-11711162Y-812205D01*
X-11829819Y-763056D01*
X-11955784Y-738000D01*
X-12084216Y-738000D01*
X-12210181Y-763056D01*
X-12328838Y-812205D01*
X-12435626Y-883558D01*
X-12526442Y-974374D01*
X-12581659Y-1057013D01*
X-12643558Y-964374D01*
X-12734374Y-873558D01*
X-12841162Y-802205D01*
X-12959819Y-753056D01*
X-13085784Y-728000D01*
X-13214216Y-728000D01*
X-13340181Y-753056D01*
X-13458838Y-802205D01*
X-13565626Y-873558D01*
X-13656442Y-964374D01*
X-13727795Y-1071162D01*
X-13776944Y-1189819D01*
X-13802000Y-1315784D01*
X-14959508Y-1315784D01*
X-15142097Y-1240153D01*
X-15379151Y-1193000D01*
X-15620849Y-1193000D01*
X-15857903Y-1240153D01*
X-16081202Y-1332647D01*
X-16282167Y-1466927D01*
X-16453073Y-1637833D01*
X-16587353Y-1838798D01*
X-16679847Y-2062097D01*
X-16727000Y-2299151D01*
X-16727000Y-2540849D01*
X-16679847Y-2777903D01*
X-16587353Y-3001202D01*
X-16453073Y-3202167D01*
X-16282167Y-3373073D01*
X-16081202Y-3507353D01*
X-15963202Y-3556231D01*
X-16131252Y-3615843D01*
X-16381355Y-3764822D01*
X-16597588Y-3959731D01*
X-16771641Y-4193080D01*
X-16896825Y-4455901D01*
X-16941476Y-4603110D01*
X-17598000Y-4603110D01*
X-17598000Y240849D01*
X-16727000Y240849D01*
X-16727000Y-849D01*
X-16679847Y-237903D01*
X-16587353Y-461202D01*
X-16453073Y-662167D01*
X-16282167Y-833073D01*
X-16081202Y-967353D01*
X-15857903Y-1059847D01*
X-15620849Y-1107000D01*
X-15379151Y-1107000D01*
X-15142097Y-1059847D01*
X-14918798Y-967353D01*
X-14717833Y-833073D01*
X-14546927Y-662167D01*
X-14412647Y-461202D01*
X-14320153Y-237903D01*
X-14273000Y-849D01*
X-14273000Y240849D01*
X-14320153Y477903D01*
X-14412647Y701202D01*
X-14546927Y902167D01*
X-14673068Y1028308D01*
X-14248089Y1028308D01*
X-14248089Y899876D01*
X-14223033Y773911D01*
X-14173884Y655254D01*
X-14102531Y548466D01*
X-14011715Y457650D01*
X-13904927Y386297D01*
X-13786270Y337148D01*
X-13660305Y312092D01*
X-13531873Y312092D01*
X-13405908Y337148D01*
X-13287251Y386297D01*
X-13180463Y457650D01*
X-13100089Y538023D01*
X-13015626Y453560D01*
X-12908838Y382207D01*
X-12790181Y333058D01*
X-12664216Y308002D01*
X-12535784Y308002D01*
X-12409819Y333058D01*
X-12291162Y382207D01*
X-12184374Y453560D01*
X-12093558Y544376D01*
X-12086115Y555516D01*
X-12058631Y514383D01*
X-11967815Y423567D01*
X-11861027Y352214D01*
X-11742370Y303065D01*
X-11616405Y278009D01*
X-11487973Y278009D01*
X-11362008Y303065D01*
X-11243351Y352214D01*
X-11136563Y423567D01*
X-11045747Y514383D01*
X-11030007Y537939D01*
X-11015626Y523558D01*
X-10908838Y452205D01*
X-10790181Y403056D01*
X-10664216Y378000D01*
X-10535784Y378000D01*
X-10409819Y403056D01*
X-10291162Y452205D01*
X-10184374Y523558D01*
X-10093558Y614374D01*
X-10022205Y721162D01*
X-9973056Y839819D01*
X-9948000Y965784D01*
X-9948000Y1094216D01*
X-9973056Y1220181D01*
X-10022205Y1338838D01*
X-10093558Y1445626D01*
X-10184374Y1536442D01*
X-10291162Y1607795D01*
X-10409819Y1656944D01*
X-10535784Y1682000D01*
X-10664216Y1682000D01*
X-10790181Y1656944D01*
X-10908838Y1607795D01*
X-11015626Y1536442D01*
X-11106442Y1445626D01*
X-11122182Y1422070D01*
X-11136563Y1436451D01*
X-11243351Y1507804D01*
X-11362008Y1556953D01*
X-11487973Y1582009D01*
X-11616405Y1582009D01*
X-11742370Y1556953D01*
X-11861027Y1507804D01*
X-11967815Y1436451D01*
X-12058631Y1345635D01*
X-12066074Y1334495D01*
X-12093558Y1375628D01*
X-12184374Y1466444D01*
X-12291162Y1537797D01*
X-12409819Y1586946D01*
X-12535784Y1612002D01*
X-12664216Y1612002D01*
X-12790181Y1586946D01*
X-12908838Y1537797D01*
X-13015626Y1466444D01*
X-13095999Y1386070D01*
X-13180463Y1470534D01*
X-13287251Y1541887D01*
X-13405908Y1591036D01*
X-13531873Y1616092D01*
X-13660305Y1616092D01*
X-13786270Y1591036D01*
X-13904927Y1541887D01*
X-14011715Y1470534D01*
X-14102531Y1379718D01*
X-14173884Y1272930D01*
X-14223033Y1154273D01*
X-14248089Y1028308D01*
X-14673068Y1028308D01*
X-14717833Y1073073D01*
X-14918798Y1207353D01*
X-15142097Y1299847D01*
X-15379151Y1347000D01*
X-15620849Y1347000D01*
X-15857903Y1299847D01*
X-16081202Y1207353D01*
X-16282167Y1073073D01*
X-16453073Y902167D01*
X-16587353Y701202D01*
X-16679847Y477903D01*
X-16727000Y240849D01*
X-17598000Y240849D01*
X-17598000Y2780849D01*
X-16727000Y2780849D01*
X-16727000Y2539151D01*
X-16679847Y2302097D01*
X-16587353Y2078798D01*
X-16453073Y1877833D01*
X-16282167Y1706927D01*
X-16081202Y1572647D01*
X-15857903Y1480153D01*
X-15620849Y1433000D01*
X-15379151Y1433000D01*
X-15142097Y1480153D01*
X-14918798Y1572647D01*
X-14717833Y1706927D01*
X-14546927Y1877833D01*
X-14412647Y2078798D01*
X-14320153Y2302097D01*
X-14273000Y2539151D01*
X-14273000Y2780849D01*
X-14320153Y3017903D01*
X-14412647Y3241202D01*
X-14546927Y3442167D01*
X-14717833Y3613073D01*
X-14918798Y3747353D01*
X-15142097Y3839847D01*
X-15379151Y3887000D01*
X-15620849Y3887000D01*
X-15857903Y3839847D01*
X-16081202Y3747353D01*
X-16282167Y3613073D01*
X-16453073Y3442167D01*
X-16587353Y3241202D01*
X-16679847Y3017903D01*
X-16727000Y2780849D01*
X-17598000Y2780849D01*
X-17598000Y5320849D01*
X-16727000Y5320849D01*
X-16727000Y5079151D01*
X-16679847Y4842097D01*
X-16587353Y4618798D01*
X-16453073Y4417833D01*
X-16282167Y4246927D01*
X-16081202Y4112647D01*
X-15857903Y4020153D01*
X-15620849Y3973000D01*
X-15379151Y3973000D01*
X-15142097Y4020153D01*
X-14918798Y4112647D01*
X-14717833Y4246927D01*
X-14546927Y4417833D01*
X-14412647Y4618798D01*
X-14320153Y4842097D01*
X-14273000Y5079151D01*
X-14273000Y5320849D01*
X-14320153Y5557903D01*
X-14412647Y5781202D01*
X-14546927Y5982167D01*
X-14717833Y6153073D01*
X-14918798Y6287353D01*
X-15142097Y6379847D01*
X-15379151Y6427000D01*
X-15620849Y6427000D01*
X-15857903Y6379847D01*
X-16081202Y6287353D01*
X-16282167Y6153073D01*
X-16453073Y5982167D01*
X-16587353Y5781202D01*
X-16679847Y5557903D01*
X-16727000Y5320849D01*
X-17598000Y5320849D01*
X-17598000Y7860849D01*
X-16727000Y7860849D01*
X-16727000Y7619151D01*
X-16679847Y7382097D01*
X-16587353Y7158798D01*
X-16453073Y6957833D01*
X-16282167Y6786927D01*
X-16081202Y6652647D01*
X-15857903Y6560153D01*
X-15620849Y6513000D01*
X-15379151Y6513000D01*
X-15142097Y6560153D01*
X-14918798Y6652647D01*
X-14717833Y6786927D01*
X-14546927Y6957833D01*
X-14412647Y7158798D01*
X-14320153Y7382097D01*
X-14273000Y7619151D01*
X-14273000Y7860849D01*
X-14320153Y8097903D01*
X-14412647Y8321202D01*
X-14546927Y8522167D01*
X-14717833Y8693073D01*
X-14918798Y8827353D01*
X-15142097Y8919847D01*
X-15379151Y8967000D01*
X-15620849Y8967000D01*
X-15857903Y8919847D01*
X-16081202Y8827353D01*
X-16282167Y8693073D01*
X-16453073Y8522167D01*
X-16587353Y8321202D01*
X-16679847Y8097903D01*
X-16727000Y7860849D01*
X-17598000Y7860849D01*
X-17598000Y10473000D01*
X17598001Y10473000D01*
X17598000Y-22598000D01*
G04 #@! TA.AperFunction,Conductor*
D37*
G36*
X17598000Y-22598000D02*
G01*
X10017143Y-22598000D01*
X10020439Y-22590043D01*
X10045495Y-22464078D01*
X10045495Y-22335646D01*
X10020439Y-22209681D01*
X9971290Y-22091024D01*
X9899937Y-21984236D01*
X9869282Y-21953581D01*
X9869282Y-19336866D01*
X9871584Y-19313495D01*
X9868749Y-19284711D01*
X9862398Y-19220224D01*
X9835192Y-19130538D01*
X9830139Y-19121084D01*
X9791012Y-19047883D01*
X9746455Y-18993590D01*
X9746451Y-18993586D01*
X9731555Y-18975435D01*
X9713404Y-18960539D01*
X7791865Y-17039000D01*
X10323000Y-17039000D01*
X10323000Y-17261000D01*
X10366310Y-17478734D01*
X10451266Y-17683835D01*
X10574602Y-17868421D01*
X10731579Y-18025398D01*
X10916165Y-18148734D01*
X11121266Y-18233690D01*
X11339000Y-18277000D01*
X11561000Y-18277000D01*
X11778734Y-18233690D01*
X11983835Y-18148734D01*
X12168421Y-18025398D01*
X12325398Y-17868421D01*
X12386483Y-17777000D01*
X12880101Y-17777000D01*
X13005784Y-17802000D01*
X13134216Y-17802000D01*
X13260181Y-17776944D01*
X13378838Y-17727795D01*
X13485626Y-17656442D01*
X13576442Y-17565626D01*
X13647795Y-17458838D01*
X13696944Y-17340181D01*
X13722000Y-17214216D01*
X13722000Y-17085784D01*
X13696944Y-16959819D01*
X13647795Y-16841162D01*
X13576442Y-16734374D01*
X13485626Y-16643558D01*
X13378838Y-16572205D01*
X13260181Y-16523056D01*
X13134216Y-16498000D01*
X13005784Y-16498000D01*
X12880101Y-16523000D01*
X12386483Y-16523000D01*
X12325398Y-16431579D01*
X12168421Y-16274602D01*
X11983835Y-16151266D01*
X11778734Y-16066310D01*
X11561000Y-16023000D01*
X11339000Y-16023000D01*
X11121266Y-16066310D01*
X10916165Y-16151266D01*
X10731579Y-16274602D01*
X10574602Y-16431579D01*
X10451266Y-16616165D01*
X10366310Y-16821266D01*
X10323000Y-17039000D01*
X7791865Y-17039000D01*
X6583077Y-15830213D01*
X6583690Y-15828734D01*
X6627000Y-15611000D01*
X6627000Y-15400507D01*
X6639948Y-15397931D01*
X6758605Y-15348782D01*
X6865393Y-15277429D01*
X6956209Y-15186613D01*
X7027562Y-15079825D01*
X7076711Y-14961168D01*
X7101767Y-14835203D01*
X7101767Y-14706771D01*
X7076711Y-14580806D01*
X7027562Y-14462149D01*
X6956209Y-14355361D01*
X6865393Y-14264545D01*
X6836815Y-14245450D01*
X8597677Y-12484588D01*
X8600213Y-12497338D01*
X8649362Y-12615995D01*
X8720715Y-12722783D01*
X8811531Y-12813599D01*
X8918319Y-12884952D01*
X9036976Y-12934101D01*
X9144509Y-12955491D01*
X9165899Y-13063024D01*
X9215048Y-13181681D01*
X9286401Y-13288469D01*
X9377217Y-13379285D01*
X9484005Y-13450638D01*
X9602662Y-13499787D01*
X9728627Y-13524843D01*
X9857059Y-13524843D01*
X9983024Y-13499787D01*
X10101681Y-13450638D01*
X10208469Y-13379285D01*
X10299285Y-13288469D01*
X10370638Y-13181681D01*
X10419787Y-13063024D01*
X10444843Y-12937059D01*
X10444843Y-12808627D01*
X10419787Y-12682662D01*
X10370638Y-12564005D01*
X10299285Y-12457217D01*
X10208469Y-12366401D01*
X10101681Y-12295048D01*
X9983024Y-12245899D01*
X9875491Y-12224509D01*
X9854101Y-12116976D01*
X9804952Y-11998319D01*
X9733599Y-11891531D01*
X9642783Y-11800715D01*
X9535995Y-11729362D01*
X9417338Y-11680213D01*
X9404589Y-11677677D01*
X11135099Y-9947167D01*
X11151013Y-9963081D01*
X11112205Y-10021162D01*
X11063056Y-10139819D01*
X11038000Y-10265784D01*
X11038000Y-10394216D01*
X11063056Y-10520181D01*
X11112205Y-10638838D01*
X11183558Y-10745626D01*
X11274374Y-10836442D01*
X11381162Y-10907795D01*
X11499819Y-10956944D01*
X11625784Y-10982000D01*
X11754216Y-10982000D01*
X11880181Y-10956944D01*
X11998838Y-10907795D01*
X12105626Y-10836442D01*
X12196442Y-10745626D01*
X12267795Y-10638838D01*
X12316944Y-10520181D01*
X12342000Y-10394216D01*
X12342000Y-10265784D01*
X12316944Y-10139819D01*
X12267795Y-10021162D01*
X12196442Y-9914374D01*
X12178987Y-9896919D01*
X12217795Y-9838838D01*
X12266944Y-9720181D01*
X12292000Y-9594216D01*
X12292000Y-9465784D01*
X12266944Y-9339819D01*
X12217795Y-9221162D01*
X12146442Y-9114374D01*
X12055626Y-9023558D01*
X11948838Y-8952205D01*
X11892181Y-8928737D01*
X11892181Y-8353726D01*
X11921623Y-8324284D01*
X11992976Y-8217496D01*
X12042125Y-8098839D01*
X12067181Y-7972874D01*
X12067181Y-7844442D01*
X12042125Y-7718477D01*
X12036351Y-7704536D01*
X12123845Y-7617042D01*
X12195198Y-7510254D01*
X12244347Y-7391597D01*
X12269403Y-7265632D01*
X12269403Y-7137200D01*
X12244347Y-7011235D01*
X12195198Y-6892578D01*
X12148520Y-6822719D01*
X12157795Y-6808838D01*
X12206944Y-6690181D01*
X12229026Y-6579167D01*
X12240181Y-6576948D01*
X12358838Y-6527799D01*
X12465626Y-6456446D01*
X12556442Y-6365630D01*
X12627795Y-6258842D01*
X12676944Y-6140185D01*
X12702000Y-6014220D01*
X12702000Y-5885788D01*
X12676944Y-5759823D01*
X12627795Y-5641166D01*
X12556442Y-5534378D01*
X12465626Y-5443562D01*
X12358838Y-5372209D01*
X12321855Y-5356890D01*
X14058524Y-5356890D01*
X14103175Y-5504099D01*
X14228359Y-5766920D01*
X14402412Y-6000269D01*
X14618645Y-6195178D01*
X14813380Y-6311176D01*
X14650000Y-6311176D01*
X14576095Y-6318455D01*
X14505030Y-6340012D01*
X14439537Y-6375019D01*
X14382131Y-6422131D01*
X14335019Y-6479537D01*
X14300012Y-6545030D01*
X14278455Y-6616095D01*
X14271176Y-6690000D01*
X14271176Y-8390000D01*
X14278455Y-8463905D01*
X14300012Y-8534970D01*
X14335019Y-8600463D01*
X14382131Y-8657869D01*
X14439537Y-8704981D01*
X14505030Y-8739988D01*
X14576095Y-8761545D01*
X14650000Y-8768824D01*
X14803000Y-8768824D01*
X14803000Y-9264292D01*
X14799483Y-9300000D01*
X14813520Y-9442517D01*
X14837433Y-9521347D01*
X14855090Y-9579556D01*
X14922597Y-9705852D01*
X15005386Y-9806732D01*
X14993000Y-9869000D01*
X14993000Y-10091000D01*
X15036310Y-10308734D01*
X15121266Y-10513835D01*
X15244602Y-10698421D01*
X15401579Y-10855398D01*
X15586165Y-10978734D01*
X15791266Y-11063690D01*
X16009000Y-11107000D01*
X16231000Y-11107000D01*
X16448734Y-11063690D01*
X16653835Y-10978734D01*
X16838421Y-10855398D01*
X16995398Y-10698421D01*
X17118734Y-10513835D01*
X17203690Y-10308734D01*
X17247000Y-10091000D01*
X17247000Y-9869000D01*
X17203690Y-9651266D01*
X17118734Y-9446165D01*
X16995398Y-9261579D01*
X16838421Y-9104602D01*
X16653835Y-8981266D01*
X16448734Y-8896310D01*
X16257000Y-8858172D01*
X16257000Y-8768824D01*
X16350000Y-8768824D01*
X16423905Y-8761545D01*
X16494970Y-8739988D01*
X16560463Y-8704981D01*
X16617869Y-8657869D01*
X16664981Y-8600463D01*
X16699988Y-8534970D01*
X16721545Y-8463905D01*
X16728824Y-8390000D01*
X16728824Y-6690000D01*
X16721545Y-6616095D01*
X16699988Y-6545030D01*
X16664981Y-6479537D01*
X16617869Y-6422131D01*
X16560463Y-6375019D01*
X16494970Y-6340012D01*
X16423905Y-6318455D01*
X16350000Y-6311176D01*
X16186620Y-6311176D01*
X16381355Y-6195178D01*
X16597588Y-6000269D01*
X16771641Y-5766920D01*
X16896825Y-5504099D01*
X16941476Y-5356890D01*
X16820155Y-5127000D01*
X15627000Y-5127000D01*
X15627000Y-5147000D01*
X15373000Y-5147000D01*
X15373000Y-5127000D01*
X14179845Y-5127000D01*
X14058524Y-5356890D01*
X12321855Y-5356890D01*
X12240181Y-5323060D01*
X12114216Y-5298004D01*
X11985784Y-5298004D01*
X11859819Y-5323060D01*
X11741162Y-5372209D01*
X11634374Y-5443562D01*
X11543558Y-5534378D01*
X11472205Y-5641166D01*
X11423056Y-5759823D01*
X11400974Y-5870837D01*
X11389819Y-5873056D01*
X11271162Y-5922205D01*
X11164374Y-5993558D01*
X11073558Y-6084374D01*
X11002205Y-6191162D01*
X10953056Y-6309819D01*
X10928000Y-6435784D01*
X10928000Y-6564216D01*
X10953056Y-6690181D01*
X10997204Y-6796765D01*
X10979490Y-6806234D01*
X10968401Y-6812161D01*
X10941491Y-6834246D01*
X10897460Y-6870381D01*
X10882870Y-6888159D01*
X10486743Y-7284287D01*
X10468966Y-7298876D01*
X10446928Y-7325730D01*
X10410745Y-7369819D01*
X10367482Y-7450757D01*
X10340842Y-7538579D01*
X10331846Y-7629911D01*
X10334101Y-7652805D01*
X10334100Y-8832017D01*
X10115900Y-9050217D01*
X10115900Y-8022884D01*
X10118154Y-8000000D01*
X10115744Y-7975534D01*
X10109159Y-7908668D01*
X10082518Y-7820845D01*
X10079728Y-7815626D01*
X10039256Y-7739907D01*
X10000275Y-7692409D01*
X9981035Y-7668965D01*
X9963258Y-7654376D01*
X9045629Y-6736748D01*
X9031035Y-6718965D01*
X8960092Y-6660744D01*
X8879155Y-6617482D01*
X8791332Y-6590841D01*
X8722886Y-6584100D01*
X8722884Y-6584100D01*
X8700000Y-6581846D01*
X8677116Y-6584100D01*
X7606168Y-6584100D01*
X7565626Y-6543558D01*
X7458838Y-6472205D01*
X7434201Y-6462000D01*
X7474216Y-6462000D01*
X7600181Y-6436944D01*
X7718838Y-6387795D01*
X7825626Y-6316442D01*
X7916442Y-6225626D01*
X7987795Y-6118838D01*
X8036944Y-6000181D01*
X8062000Y-5874216D01*
X8062000Y-5745784D01*
X8036944Y-5619819D01*
X7987795Y-5501162D01*
X7916442Y-5394374D01*
X7825626Y-5303558D01*
X7718838Y-5232205D01*
X7706272Y-5227000D01*
X8166585Y-5227000D01*
X8190000Y-5229306D01*
X8213415Y-5227000D01*
X8213423Y-5227000D01*
X8283508Y-5220097D01*
X8373423Y-5192822D01*
X8456289Y-5148529D01*
X8528921Y-5088921D01*
X8543855Y-5070724D01*
X11173000Y-2441579D01*
X11173000Y-2661000D01*
X11216310Y-2878734D01*
X11301266Y-3083835D01*
X11424602Y-3268421D01*
X11581579Y-3425398D01*
X11766165Y-3548734D01*
X11971266Y-3633690D01*
X12189000Y-3677000D01*
X12411000Y-3677000D01*
X12628734Y-3633690D01*
X12833835Y-3548734D01*
X13018421Y-3425398D01*
X13166819Y-3277000D01*
X14581760Y-3277000D01*
X14717833Y-3413073D01*
X14918798Y-3547353D01*
X15036798Y-3596231D01*
X14868748Y-3655843D01*
X14618645Y-3804822D01*
X14402412Y-3999731D01*
X14228359Y-4233080D01*
X14103175Y-4495901D01*
X14058524Y-4643110D01*
X14179845Y-4873000D01*
X15373000Y-4873000D01*
X15373000Y-4853000D01*
X15627000Y-4853000D01*
X15627000Y-4873000D01*
X16820155Y-4873000D01*
X16941476Y-4643110D01*
X16896825Y-4495901D01*
X16771641Y-4233080D01*
X16597588Y-3999731D01*
X16381355Y-3804822D01*
X16131252Y-3655843D01*
X15963202Y-3596231D01*
X16081202Y-3547353D01*
X16282167Y-3413073D01*
X16453073Y-3242167D01*
X16587353Y-3041202D01*
X16679847Y-2817903D01*
X16727000Y-2580849D01*
X16727000Y-2339151D01*
X16679847Y-2102097D01*
X16587353Y-1878798D01*
X16453073Y-1677833D01*
X16282167Y-1506927D01*
X16081202Y-1372647D01*
X15857903Y-1280153D01*
X15620849Y-1233000D01*
X15379151Y-1233000D01*
X15142097Y-1280153D01*
X14918798Y-1372647D01*
X14717833Y-1506927D01*
X14546927Y-1677833D01*
X14449930Y-1823000D01*
X13166819Y-1823000D01*
X13018421Y-1674602D01*
X12833835Y-1551266D01*
X12628734Y-1466310D01*
X12411000Y-1423000D01*
X12191580Y-1423000D01*
X13815429Y200849D01*
X14273000Y200849D01*
X14273000Y-40849D01*
X14320153Y-277903D01*
X14412647Y-501202D01*
X14546927Y-702167D01*
X14717833Y-873073D01*
X14918798Y-1007353D01*
X15142097Y-1099847D01*
X15379151Y-1147000D01*
X15620849Y-1147000D01*
X15857903Y-1099847D01*
X16081202Y-1007353D01*
X16282167Y-873073D01*
X16453073Y-702167D01*
X16587353Y-501202D01*
X16679847Y-277903D01*
X16727000Y-40849D01*
X16727000Y200849D01*
X16679847Y437903D01*
X16587353Y661202D01*
X16453073Y862167D01*
X16282167Y1033073D01*
X16081202Y1167353D01*
X15857903Y1259847D01*
X15620849Y1307000D01*
X15379151Y1307000D01*
X15142097Y1259847D01*
X14918798Y1167353D01*
X14717833Y1033073D01*
X14546927Y862167D01*
X14412647Y661202D01*
X14320153Y437903D01*
X14273000Y200849D01*
X13815429Y200849D01*
X15080321Y1465741D01*
X15142097Y1440153D01*
X15379151Y1393000D01*
X15620849Y1393000D01*
X15857903Y1440153D01*
X16081202Y1532647D01*
X16282167Y1666927D01*
X16453073Y1837833D01*
X16587353Y2038798D01*
X16679847Y2262097D01*
X16727000Y2499151D01*
X16727000Y2740849D01*
X16679847Y2977903D01*
X16587353Y3201202D01*
X16453073Y3402167D01*
X16282167Y3573073D01*
X16081202Y3707353D01*
X15857903Y3799847D01*
X15620849Y3847000D01*
X15379151Y3847000D01*
X15142097Y3799847D01*
X14918798Y3707353D01*
X14717833Y3573073D01*
X14546927Y3402167D01*
X14412647Y3201202D01*
X14320153Y2977903D01*
X14273000Y2740849D01*
X14273000Y2499151D01*
X14320153Y2262097D01*
X14380889Y2115469D01*
X7992421Y-4273000D01*
X6632671Y-4273000D01*
X9628672Y-1277000D01*
X10026585Y-1277000D01*
X10050000Y-1279306D01*
X10073415Y-1277000D01*
X10073423Y-1277000D01*
X10143508Y-1270097D01*
X10233423Y-1242822D01*
X10316289Y-1198529D01*
X10388921Y-1138921D01*
X10403855Y-1120724D01*
X10822580Y-702000D01*
X10864216Y-702000D01*
X10990181Y-676944D01*
X11108838Y-627795D01*
X11215626Y-556442D01*
X11306442Y-465626D01*
X11377795Y-358838D01*
X11426944Y-240181D01*
X11452000Y-114216D01*
X11452000Y14216D01*
X11426944Y140181D01*
X11377795Y258838D01*
X11306442Y365626D01*
X11215626Y456442D01*
X11108838Y527795D01*
X10990181Y576944D01*
X10864216Y602000D01*
X10735784Y602000D01*
X10609819Y576944D01*
X10491162Y527795D01*
X10384374Y456442D01*
X10293558Y365626D01*
X10222205Y258838D01*
X10173056Y140181D01*
X10148000Y14216D01*
X10148000Y-27420D01*
X9852421Y-323000D01*
X9454506Y-323000D01*
X9431091Y-320694D01*
X9407676Y-323000D01*
X9407669Y-323000D01*
X9346430Y-329032D01*
X9337583Y-329903D01*
X9316656Y-336251D01*
X9247669Y-357178D01*
X9164803Y-401471D01*
X9092171Y-461079D01*
X9077242Y-479271D01*
X5176865Y-4379648D01*
X5158668Y-4394582D01*
X5099060Y-4467214D01*
X5054767Y-4550081D01*
X5027492Y-4639996D01*
X5020589Y-4710081D01*
X5020589Y-4710088D01*
X5018283Y-4733503D01*
X5020589Y-4756918D01*
X5020589Y-4771665D01*
X4974415Y-4740813D01*
X4814811Y-4674703D01*
X4645377Y-4641000D01*
X4472623Y-4641000D01*
X4342120Y-4666959D01*
X4298262Y-4601321D01*
X4207446Y-4510505D01*
X4100658Y-4439152D01*
X3982001Y-4390003D01*
X3856036Y-4364947D01*
X3727604Y-4364947D01*
X3601639Y-4390003D01*
X3482982Y-4439152D01*
X3376194Y-4510505D01*
X3285378Y-4601321D01*
X3214025Y-4708109D01*
X3164876Y-4826766D01*
X3139820Y-4952731D01*
X3139820Y-5081163D01*
X3164876Y-5207128D01*
X3214025Y-5325785D01*
X3285378Y-5432573D01*
X3376194Y-5523389D01*
X3482982Y-5594742D01*
X3601639Y-5643891D01*
X3693494Y-5662162D01*
X3715703Y-5773811D01*
X3781813Y-5933415D01*
X3837966Y-6017454D01*
X3628178Y-6227243D01*
X3610351Y-6137623D01*
X3561202Y-6018966D01*
X3489849Y-5912178D01*
X3399033Y-5821362D01*
X3292245Y-5750009D01*
X3173588Y-5700860D01*
X3101807Y-5686582D01*
X3101807Y-5669721D01*
X3076751Y-5543756D01*
X3027602Y-5425099D01*
X2956249Y-5318311D01*
X2865433Y-5227495D01*
X2758645Y-5156142D01*
X2639988Y-5106993D01*
X2514023Y-5081937D01*
X2385591Y-5081937D01*
X2259626Y-5106993D01*
X2140969Y-5156142D01*
X2034181Y-5227495D01*
X2003526Y-5258150D01*
X1547434Y-5258150D01*
X1524063Y-5255848D01*
X1500692Y-5258150D01*
X1500689Y-5258150D01*
X1430792Y-5265034D01*
X1341106Y-5292240D01*
X1258451Y-5336420D01*
X1204158Y-5380977D01*
X1204154Y-5380981D01*
X1186003Y-5395877D01*
X1185082Y-5396999D01*
X1054377Y-5371000D01*
X881623Y-5371000D01*
X712189Y-5404703D01*
X552585Y-5470813D01*
X408945Y-5566790D01*
X286790Y-5688945D01*
X190813Y-5832585D01*
X124703Y-5992189D01*
X91000Y-6161623D01*
X91000Y-6334377D01*
X124703Y-6503811D01*
X190813Y-6663415D01*
X243610Y-6742431D01*
X196925Y-6751717D01*
X78268Y-6800866D01*
X28Y-6853144D01*
X-24393Y-6840091D01*
X-51162Y-6822205D01*
X-80906Y-6809885D01*
X-109283Y-6794717D01*
X-140074Y-6785377D01*
X-169819Y-6773056D01*
X-201396Y-6766775D01*
X-232186Y-6757435D01*
X-237465Y-6756915D01*
X-256162Y-6738218D01*
X-276583Y-6713335D01*
X-375863Y-6631858D01*
X-489130Y-6571316D01*
X-612033Y-6534034D01*
X-707825Y-6524599D01*
X-739847Y-6521445D01*
X-771869Y-6524599D01*
X-843334Y-6524599D01*
X-893556Y-6474378D01*
X-893558Y-6474374D01*
X-984374Y-6383558D01*
X-984378Y-6383556D01*
X-1948000Y-5419934D01*
X-1948000Y-1206288D01*
X-1944846Y-1174266D01*
X-1957435Y-1046451D01*
X-1976614Y-983228D01*
X-1994717Y-923549D01*
X-2055259Y-810282D01*
X-2136736Y-711002D01*
X-2161612Y-690587D01*
X-2925687Y73487D01*
X-2925691Y73493D01*
X-3016507Y164309D01*
X-3043288Y182203D01*
X-3068150Y202607D01*
X-3096517Y217770D01*
X-3123295Y235662D01*
X-3153045Y247985D01*
X-3181417Y263150D01*
X-3212205Y272489D01*
X-3241952Y284811D01*
X-3273530Y291092D01*
X-3304319Y300432D01*
X-3336340Y303586D01*
X-3367917Y309867D01*
X-3400111Y309867D01*
X-3432133Y313021D01*
X-3464155Y309867D01*
X-3496349Y309867D01*
X-3527926Y303586D01*
X-3559947Y300432D01*
X-3590736Y291092D01*
X-3622314Y284811D01*
X-3652061Y272489D01*
X-3682849Y263150D01*
X-3711221Y247985D01*
X-3740971Y235662D01*
X-3767749Y217770D01*
X-3796116Y202607D01*
X-3820977Y182204D01*
X-3847759Y164309D01*
X-3870536Y141532D01*
X-3895396Y121130D01*
X-3915798Y96270D01*
X-3938575Y73493D01*
X-3956470Y46711D01*
X-3976873Y21850D01*
X-3992036Y-6517D01*
X-4009928Y-33295D01*
X-4022251Y-63045D01*
X-4037416Y-91417D01*
X-4046755Y-122205D01*
X-4059077Y-151952D01*
X-4065358Y-183530D01*
X-4074698Y-214319D01*
X-4077852Y-246340D01*
X-4084133Y-277917D01*
X-4084133Y-310111D01*
X-4087287Y-342133D01*
X-4084133Y-374155D01*
X-4084133Y-406349D01*
X-4077852Y-437926D01*
X-4074698Y-469947D01*
X-4065358Y-500736D01*
X-4059077Y-532314D01*
X-4046755Y-562061D01*
X-4037416Y-592849D01*
X-4022251Y-621221D01*
X-4009928Y-650971D01*
X-3992036Y-677749D01*
X-3976873Y-706116D01*
X-3956469Y-730978D01*
X-3938575Y-757759D01*
X-3847759Y-848575D01*
X-3847753Y-848579D01*
X-3348333Y-1348000D01*
X-3464216Y-1348000D01*
X-3590181Y-1373056D01*
X-3708838Y-1422205D01*
X-3815626Y-1493558D01*
X-3868568Y-1546500D01*
X-3961624Y-1546500D01*
X-4018790Y-1460945D01*
X-4140945Y-1338790D01*
X-4284585Y-1242813D01*
X-4444189Y-1176703D01*
X-4613623Y-1143000D01*
X-4786377Y-1143000D01*
X-4955811Y-1176703D01*
X-5115415Y-1242813D01*
X-5259055Y-1338790D01*
X-5381210Y-1460945D01*
X-5477187Y-1604585D01*
X-5543297Y-1764189D01*
X-5577000Y-1933623D01*
X-5577000Y-2106377D01*
X-5543297Y-2275811D01*
X-5477187Y-2435415D01*
X-5381210Y-2579055D01*
X-5259055Y-2701210D01*
X-5115415Y-2797187D01*
X-4955811Y-2863297D01*
X-4786377Y-2897000D01*
X-4613623Y-2897000D01*
X-4444189Y-2863297D01*
X-4284585Y-2797187D01*
X-4140945Y-2701210D01*
X-4018790Y-2579055D01*
X-3961624Y-2493500D01*
X-3828568Y-2493500D01*
X-3815626Y-2506442D01*
X-3708838Y-2577795D01*
X-3590181Y-2626944D01*
X-3464216Y-2652000D01*
X-3335784Y-2652000D01*
X-3252000Y-2635334D01*
X-3251999Y-3745933D01*
X-3334374Y-3663558D01*
X-3441162Y-3592205D01*
X-3559819Y-3543056D01*
X-3685784Y-3518000D01*
X-3814216Y-3518000D01*
X-3940181Y-3543056D01*
X-4058838Y-3592205D01*
X-4165626Y-3663558D01*
X-4256442Y-3754374D01*
X-4327795Y-3861162D01*
X-4376944Y-3979819D01*
X-4402000Y-4105784D01*
X-4402000Y-4234216D01*
X-4376944Y-4360181D01*
X-4327795Y-4478838D01*
X-4256442Y-4585626D01*
X-4165626Y-4676442D01*
X-4153592Y-4684483D01*
X-4186332Y-4763525D01*
X-4211388Y-4889490D01*
X-4211388Y-5017922D01*
X-4186332Y-5143887D01*
X-4137183Y-5262544D01*
X-4136185Y-5264038D01*
X-4190453Y-5345257D01*
X-4239602Y-5463914D01*
X-4264658Y-5589879D01*
X-4264658Y-5718311D01*
X-4239602Y-5844276D01*
X-4190453Y-5962933D01*
X-4119100Y-6069721D01*
X-4028284Y-6160537D01*
X-3921496Y-6231890D01*
X-3802839Y-6281039D01*
X-3676874Y-6306095D01*
X-3548442Y-6306095D01*
X-3422477Y-6281039D01*
X-3303820Y-6231890D01*
X-3197032Y-6160537D01*
X-3120282Y-6083787D01*
X-3063263Y-6153264D01*
X-3038386Y-6173680D01*
X-1906444Y-7305622D01*
X-1906442Y-7305626D01*
X-1815626Y-7396442D01*
X-1815622Y-7396444D01*
X-1766666Y-7445401D01*
X-1776672Y-7455407D01*
X-2736797Y-6495282D01*
X-2750989Y-6477989D01*
X-2819998Y-6421355D01*
X-2898729Y-6379273D01*
X-2984157Y-6353358D01*
X-3050744Y-6346800D01*
X-3050746Y-6346800D01*
X-3073000Y-6344608D01*
X-3095254Y-6346800D01*
X-3777755Y-6346800D01*
X-3800001Y-6344609D01*
X-3822247Y-6346800D01*
X-3822256Y-6346800D01*
X-3888843Y-6353358D01*
X-3974271Y-6379273D01*
X-4053002Y-6421355D01*
X-4122011Y-6477989D01*
X-4136203Y-6495282D01*
X-4804723Y-7163802D01*
X-4822010Y-7177989D01*
X-4836197Y-7195276D01*
X-4836198Y-7195277D01*
X-4878645Y-7246998D01*
X-4920727Y-7325730D01*
X-4946641Y-7411157D01*
X-4955392Y-7500000D01*
X-4953199Y-7522264D01*
X-4953200Y-9527746D01*
X-4955392Y-9550000D01*
X-4953200Y-9572254D01*
X-4953200Y-9572255D01*
X-4946642Y-9638842D01*
X-4929324Y-9695929D01*
X-4920727Y-9724270D01*
X-4878645Y-9803002D01*
X-4854984Y-9831833D01*
X-4822011Y-9872011D01*
X-4804719Y-9886202D01*
X-4223721Y-10467201D01*
X-4223722Y-13565145D01*
X-4309916Y-13548000D01*
X-4438348Y-13548000D01*
X-4564313Y-13573056D01*
X-4682970Y-13622205D01*
X-4789758Y-13693558D01*
X-4880574Y-13784374D01*
X-4951927Y-13891162D01*
X-5001076Y-14009819D01*
X-5023741Y-14123761D01*
X-5050000Y-14121175D01*
X-6550000Y-14121175D01*
X-6623905Y-14128454D01*
X-6694970Y-14150011D01*
X-6760463Y-14185018D01*
X-6817869Y-14232130D01*
X-6864981Y-14289536D01*
X-6899988Y-14355029D01*
X-6921545Y-14426094D01*
X-6928824Y-14499999D01*
X-6928824Y-14691303D01*
X-6960152Y-14697535D01*
X-7078809Y-14746684D01*
X-7185597Y-14818037D01*
X-7276413Y-14908853D01*
X-7347766Y-15015641D01*
X-7387095Y-15110590D01*
X-7452367Y-15110590D01*
X-7578332Y-15135646D01*
X-7696989Y-15184795D01*
X-7803777Y-15256148D01*
X-7894593Y-15346964D01*
X-7965946Y-15453752D01*
X-8015095Y-15572409D01*
X-8040151Y-15698374D01*
X-8040151Y-15826806D01*
X-8015095Y-15952771D01*
X-7965946Y-16071428D01*
X-7894593Y-16178216D01*
X-7803777Y-16269032D01*
X-7696989Y-16340385D01*
X-7578332Y-16389534D01*
X-7452367Y-16414590D01*
X-7323935Y-16414590D01*
X-7197970Y-16389534D01*
X-7079313Y-16340385D01*
X-7041228Y-16314938D01*
X-6986206Y-16298247D01*
X-6885967Y-16244669D01*
X-6798108Y-16172564D01*
X-6780043Y-16150552D01*
X-6722484Y-16092993D01*
X-6715460Y-16106430D01*
X-6714632Y-16107459D01*
X-6714011Y-16108628D01*
X-6691572Y-16136141D01*
X-6669356Y-16163772D01*
X-6668343Y-16164622D01*
X-6667508Y-16165646D01*
X-6640194Y-16188242D01*
X-6612993Y-16211067D01*
X-6611833Y-16211705D01*
X-6610816Y-16212546D01*
X-6579660Y-16229392D01*
X-6548516Y-16246513D01*
X-6547254Y-16246913D01*
X-6546093Y-16247541D01*
X-6512262Y-16258014D01*
X-6478383Y-16268761D01*
X-6477067Y-16268909D01*
X-6475806Y-16269299D01*
X-6440512Y-16273009D01*
X-6405264Y-16276962D01*
X-6402729Y-16276980D01*
X-6402632Y-16276990D01*
X-6402535Y-16276981D01*
X-6400000Y-16276999D01*
X-6000000Y-16276999D01*
X-5964692Y-16273537D01*
X-5929357Y-16270321D01*
X-5928090Y-16269948D01*
X-5926774Y-16269819D01*
X-5892775Y-16259554D01*
X-5858773Y-16249547D01*
X-5857604Y-16248936D01*
X-5856336Y-16248553D01*
X-5824966Y-16231873D01*
X-5799599Y-16218611D01*
X-5779660Y-16229392D01*
X-5748516Y-16246513D01*
X-5747254Y-16246913D01*
X-5746093Y-16247541D01*
X-5712262Y-16258014D01*
X-5678383Y-16268761D01*
X-5677067Y-16268909D01*
X-5675806Y-16269299D01*
X-5640512Y-16273009D01*
X-5605264Y-16276962D01*
X-5602729Y-16276980D01*
X-5602632Y-16276990D01*
X-5602535Y-16276981D01*
X-5600000Y-16276999D01*
X-5200000Y-16276999D01*
X-5164692Y-16273537D01*
X-5129357Y-16270321D01*
X-5128090Y-16269948D01*
X-5126774Y-16269819D01*
X-5092775Y-16259554D01*
X-5058773Y-16249547D01*
X-5057604Y-16248936D01*
X-5056336Y-16248553D01*
X-5024966Y-16231873D01*
X-4993569Y-16215459D01*
X-4992540Y-16214631D01*
X-4991371Y-16214010D01*
X-4963858Y-16191571D01*
X-4936227Y-16169355D01*
X-4935377Y-16168342D01*
X-4934353Y-16167507D01*
X-4911757Y-16140193D01*
X-4888932Y-16112992D01*
X-4888294Y-16111832D01*
X-4887453Y-16110815D01*
X-4870607Y-16079659D01*
X-4853486Y-16048515D01*
X-4853086Y-16047253D01*
X-4852458Y-16046092D01*
X-4841985Y-16012261D01*
X-4831238Y-15978382D01*
X-4831090Y-15977066D01*
X-4830700Y-15975805D01*
X-4826990Y-15940511D01*
X-4823037Y-15905263D01*
X-4823019Y-15902728D01*
X-4823009Y-15902631D01*
X-4823018Y-15902534D01*
X-4823000Y-15899999D01*
X-4823000Y-15801408D01*
X-4813084Y-15793270D01*
X-4781442Y-15840626D01*
X-4690626Y-15931442D01*
X-4583838Y-16002795D01*
X-4465181Y-16051944D01*
X-4339216Y-16077000D01*
X-4223722Y-16077000D01*
X-4223722Y-16081798D01*
X-5095136Y-16953213D01*
X-5099186Y-16947152D01*
X-5190002Y-16856336D01*
X-5296790Y-16784983D01*
X-5415447Y-16735834D01*
X-5541412Y-16710778D01*
X-5669844Y-16710778D01*
X-5795809Y-16735834D01*
X-5914466Y-16784983D01*
X-6021254Y-16856336D01*
X-6074496Y-16909578D01*
X-6245259Y-16909578D01*
X-6250163Y-16884922D01*
X-6299312Y-16766265D01*
X-6370665Y-16659477D01*
X-6461481Y-16568661D01*
X-6568269Y-16497308D01*
X-6686926Y-16448159D01*
X-6812891Y-16423103D01*
X-6941323Y-16423103D01*
X-7067288Y-16448159D01*
X-7185945Y-16497308D01*
X-7292733Y-16568661D01*
X-7345975Y-16621903D01*
X-8230835Y-16621903D01*
X-8253091Y-16619711D01*
X-8319627Y-16626264D01*
X-8341934Y-16628461D01*
X-8427362Y-16654376D01*
X-8506093Y-16696458D01*
X-8522969Y-16710308D01*
X-8549358Y-16670814D01*
X-8640174Y-16579998D01*
X-8746962Y-16508645D01*
X-8865619Y-16459496D01*
X-8991584Y-16434440D01*
X-9120016Y-16434440D01*
X-9238374Y-16457983D01*
X-9287558Y-16384374D01*
X-9378374Y-16293558D01*
X-9485162Y-16222205D01*
X-9603819Y-16173056D01*
X-9729784Y-16148000D01*
X-9858216Y-16148000D01*
X-9984181Y-16173056D01*
X-10102838Y-16222205D01*
X-10209626Y-16293558D01*
X-10300442Y-16384374D01*
X-10371795Y-16491162D01*
X-10420944Y-16609819D01*
X-10446000Y-16735784D01*
X-10446000Y-16864216D01*
X-10420944Y-16990181D01*
X-10371795Y-17108838D01*
X-10358989Y-17128003D01*
X-10373795Y-17150162D01*
X-10422944Y-17268819D01*
X-10426646Y-17287432D01*
X-11225308Y-16488771D01*
X-11239500Y-16471478D01*
X-11308509Y-16414844D01*
X-11387240Y-16372762D01*
X-11472668Y-16346847D01*
X-11539255Y-16340289D01*
X-11539257Y-16340289D01*
X-11561511Y-16338097D01*
X-11583765Y-16340289D01*
X-12545261Y-16340289D01*
X-12567517Y-16338097D01*
X-12589773Y-16340289D01*
X-12656360Y-16346847D01*
X-12741788Y-16372762D01*
X-12820519Y-16414844D01*
X-12884100Y-16467023D01*
X-12884100Y-15082981D01*
X-12854019Y-15052900D01*
X-10240885Y-15052900D01*
X-10240885Y-15181332D01*
X-10215829Y-15307297D01*
X-10166680Y-15425954D01*
X-10095327Y-15532742D01*
X-10004511Y-15623558D01*
X-9897723Y-15694911D01*
X-9779066Y-15744060D01*
X-9653101Y-15769116D01*
X-9524669Y-15769116D01*
X-9398704Y-15744060D01*
X-9280047Y-15694911D01*
X-9173259Y-15623558D01*
X-9082443Y-15532742D01*
X-9011090Y-15425954D01*
X-8961941Y-15307297D01*
X-8936885Y-15181332D01*
X-8936885Y-15052900D01*
X-8961941Y-14926935D01*
X-9011090Y-14808278D01*
X-9082443Y-14701490D01*
X-9173259Y-14610674D01*
X-9280047Y-14539321D01*
X-9398704Y-14490172D01*
X-9524669Y-14465116D01*
X-9653101Y-14465116D01*
X-9779066Y-14490172D01*
X-9897723Y-14539321D01*
X-10004511Y-14610674D01*
X-10095327Y-14701490D01*
X-10166680Y-14808278D01*
X-10215829Y-14926935D01*
X-10240885Y-15052900D01*
X-12854019Y-15052900D01*
X-12553118Y-14752000D01*
X-12495784Y-14752000D01*
X-12369819Y-14726944D01*
X-12251162Y-14677795D01*
X-12144374Y-14606442D01*
X-12053558Y-14515626D01*
X-11982205Y-14408838D01*
X-11933056Y-14290181D01*
X-11908000Y-14164216D01*
X-11908000Y-14035784D01*
X-11933056Y-13909819D01*
X-11982205Y-13791162D01*
X-12053558Y-13684374D01*
X-12144374Y-13593558D01*
X-12189752Y-13563238D01*
X-8352000Y-13563238D01*
X-8352000Y-13691670D01*
X-8326944Y-13817635D01*
X-8277795Y-13936292D01*
X-8206442Y-14043080D01*
X-8115626Y-14133896D01*
X-8008838Y-14205249D01*
X-7890181Y-14254398D01*
X-7764216Y-14279454D01*
X-7635784Y-14279454D01*
X-7509819Y-14254398D01*
X-7391162Y-14205249D01*
X-7284374Y-14133896D01*
X-7193558Y-14043080D01*
X-7122205Y-13936292D01*
X-7073056Y-13817635D01*
X-7053605Y-13719850D01*
X-7003737Y-13740506D01*
X-6877772Y-13765562D01*
X-6749340Y-13765562D01*
X-6623375Y-13740506D01*
X-6504718Y-13691357D01*
X-6397930Y-13620004D01*
X-6307114Y-13529188D01*
X-6235761Y-13422400D01*
X-6186612Y-13303743D01*
X-6161556Y-13177778D01*
X-6161556Y-13049346D01*
X-6186612Y-12923381D01*
X-6235761Y-12804724D01*
X-6307114Y-12697936D01*
X-6397930Y-12607120D01*
X-6504718Y-12535767D01*
X-6623375Y-12486618D01*
X-6749340Y-12461562D01*
X-6877772Y-12461562D01*
X-7003737Y-12486618D01*
X-7122394Y-12535767D01*
X-7229182Y-12607120D01*
X-7319998Y-12697936D01*
X-7391351Y-12804724D01*
X-7440500Y-12923381D01*
X-7459951Y-13021166D01*
X-7509819Y-13000510D01*
X-7635784Y-12975454D01*
X-7764216Y-12975454D01*
X-7890181Y-13000510D01*
X-8008838Y-13049659D01*
X-8115626Y-13121012D01*
X-8206442Y-13211828D01*
X-8277795Y-13318616D01*
X-8326944Y-13437273D01*
X-8352000Y-13563238D01*
X-12189752Y-13563238D01*
X-12202595Y-13554657D01*
X-12153561Y-13505623D01*
X-12082208Y-13398835D01*
X-12033059Y-13280178D01*
X-12008003Y-13154213D01*
X-12008003Y-13025781D01*
X-12033059Y-12899816D01*
X-12082208Y-12781159D01*
X-12153561Y-12674371D01*
X-12244377Y-12583555D01*
X-12351165Y-12512202D01*
X-12469822Y-12463053D01*
X-12595787Y-12437997D01*
X-12724219Y-12437997D01*
X-12850184Y-12463053D01*
X-12968841Y-12512202D01*
X-13075629Y-12583555D01*
X-13166445Y-12674371D01*
X-13237798Y-12781159D01*
X-13286947Y-12899816D01*
X-13312003Y-13025781D01*
X-13312003Y-13083115D01*
X-14063252Y-13834365D01*
X-14081035Y-13848959D01*
X-14139256Y-13919903D01*
X-14182518Y-14000840D01*
X-14209159Y-14088663D01*
X-14214584Y-14143747D01*
X-14218154Y-14179994D01*
X-14215900Y-14202878D01*
X-14215900Y-14979018D01*
X-14339054Y-14954521D01*
X-14467486Y-14954521D01*
X-14593451Y-14979577D01*
X-14712108Y-15028726D01*
X-14818896Y-15100079D01*
X-14909712Y-15190895D01*
X-14981065Y-15297683D01*
X-15030214Y-15416340D01*
X-15055270Y-15542305D01*
X-15055270Y-15670737D01*
X-15030214Y-15796702D01*
X-14981065Y-15915359D01*
X-14909712Y-16022147D01*
X-14818896Y-16112963D01*
X-14712108Y-16184316D01*
X-14593451Y-16233465D01*
X-14467486Y-16258521D01*
X-14339054Y-16258521D01*
X-14215899Y-16234024D01*
X-14215899Y-16813727D01*
X-14327500Y-16859953D01*
X-14434288Y-16931306D01*
X-14525104Y-17022122D01*
X-14596457Y-17128910D01*
X-14645606Y-17247567D01*
X-14670662Y-17373532D01*
X-14670662Y-17501964D01*
X-14645606Y-17627929D01*
X-14596457Y-17746586D01*
X-14573660Y-17780705D01*
X-14607423Y-17831236D01*
X-14656572Y-17949893D01*
X-14681628Y-18075858D01*
X-14681628Y-18204290D01*
X-14656572Y-18330255D01*
X-14607423Y-18448912D01*
X-14559373Y-18520824D01*
X-14567171Y-18532494D01*
X-14616320Y-18651151D01*
X-14641376Y-18777116D01*
X-14641376Y-18905548D01*
X-14616320Y-19031513D01*
X-14567171Y-19150170D01*
X-14495818Y-19256958D01*
X-14405002Y-19347774D01*
X-14396854Y-19353218D01*
X-14866104Y-19822469D01*
X-14886053Y-19809140D01*
X-15004710Y-19759991D01*
X-15130675Y-19734935D01*
X-15259107Y-19734935D01*
X-15385072Y-19759991D01*
X-15503729Y-19809140D01*
X-15552297Y-19841592D01*
X-15647162Y-19778205D01*
X-15765819Y-19729056D01*
X-15891784Y-19704000D01*
X-16020216Y-19704000D01*
X-16146181Y-19729056D01*
X-16264838Y-19778205D01*
X-16371626Y-19849558D01*
X-16462442Y-19940374D01*
X-16533795Y-20047162D01*
X-16582944Y-20165819D01*
X-16608000Y-20291784D01*
X-16608000Y-20420216D01*
X-16582944Y-20546181D01*
X-16533795Y-20664838D01*
X-16462442Y-20771626D01*
X-16371626Y-20862442D01*
X-16264838Y-20933795D01*
X-16146181Y-20982944D01*
X-16020216Y-21008000D01*
X-15944922Y-21008000D01*
X-15720198Y-21232724D01*
X-15706011Y-21250011D01*
X-15637002Y-21306645D01*
X-15558271Y-21348727D01*
X-15472843Y-21374642D01*
X-15406256Y-21381200D01*
X-15406255Y-21381200D01*
X-15384001Y-21383392D01*
X-15361747Y-21381200D01*
X-14914138Y-21381200D01*
X-14891884Y-21383392D01*
X-14869630Y-21381200D01*
X-14869628Y-21381200D01*
X-14803041Y-21374642D01*
X-14717613Y-21348727D01*
X-14638882Y-21306645D01*
X-14569873Y-21250011D01*
X-14555681Y-21232718D01*
X-14225711Y-20902748D01*
X-14218442Y-20913626D01*
X-14127626Y-21004442D01*
X-14020838Y-21075795D01*
X-13902181Y-21124944D01*
X-13776216Y-21150000D01*
X-13647784Y-21150000D01*
X-13521819Y-21124944D01*
X-13403162Y-21075795D01*
X-13296374Y-21004442D01*
X-13205558Y-20913626D01*
X-13150455Y-20831158D01*
X-13119062Y-20837403D01*
X-12990630Y-20837403D01*
X-12901999Y-20819773D01*
X-12902000Y-22598000D01*
X-17598000Y-22598000D01*
X-17598000Y-11100000D01*
X-16278824Y-11100000D01*
X-16278824Y-12100000D01*
X-16271545Y-12173905D01*
X-16249988Y-12244970D01*
X-16214981Y-12310463D01*
X-16167869Y-12367869D01*
X-16110463Y-12414981D01*
X-16044970Y-12449988D01*
X-15973905Y-12471545D01*
X-15900000Y-12478824D01*
X-14900000Y-12478824D01*
X-14826095Y-12471545D01*
X-14755030Y-12449988D01*
X-14689537Y-12414981D01*
X-14632131Y-12367869D01*
X-14585019Y-12310463D01*
X-14550012Y-12244970D01*
X-14528455Y-12173905D01*
X-14521176Y-12100000D01*
X-14521176Y-11683321D01*
X-6127000Y-11683321D01*
X-6127000Y-11816679D01*
X-6100984Y-11947474D01*
X-6049950Y-12070680D01*
X-5975860Y-12181563D01*
X-5881563Y-12275860D01*
X-5770680Y-12349950D01*
X-5647474Y-12400984D01*
X-5516679Y-12427000D01*
X-5383321Y-12427000D01*
X-5252526Y-12400984D01*
X-5129320Y-12349950D01*
X-5018437Y-12275860D01*
X-4924140Y-12181563D01*
X-4850050Y-12070680D01*
X-4799016Y-11947474D01*
X-4773000Y-11816679D01*
X-4773000Y-11683321D01*
X-4799016Y-11552526D01*
X-4850050Y-11429320D01*
X-4924140Y-11318437D01*
X-5018437Y-11224140D01*
X-5129320Y-11150050D01*
X-5252526Y-11099016D01*
X-5383321Y-11073000D01*
X-5516679Y-11073000D01*
X-5647474Y-11099016D01*
X-5770680Y-11150050D01*
X-5881563Y-11224140D01*
X-5975860Y-11318437D01*
X-6049950Y-11429320D01*
X-6100984Y-11552526D01*
X-6127000Y-11683321D01*
X-14521176Y-11683321D01*
X-14521176Y-11100000D01*
X-14528455Y-11026095D01*
X-14550012Y-10955030D01*
X-14585019Y-10889537D01*
X-14632131Y-10832131D01*
X-14663534Y-10806359D01*
X-14622813Y-10745415D01*
X-14556703Y-10585811D01*
X-14523000Y-10416377D01*
X-14523000Y-10243623D01*
X-14556703Y-10074189D01*
X-14622813Y-9914585D01*
X-14718790Y-9770945D01*
X-14840945Y-9648790D01*
X-14864004Y-9633382D01*
X-12127000Y-9633382D01*
X-12127000Y-9761814D01*
X-12101944Y-9887779D01*
X-12052795Y-10006436D01*
X-11981442Y-10113224D01*
X-11890626Y-10204040D01*
X-11783838Y-10275393D01*
X-11665181Y-10324542D01*
X-11539216Y-10349598D01*
X-11410784Y-10349598D01*
X-11284819Y-10324542D01*
X-11166162Y-10275393D01*
X-11059374Y-10204040D01*
X-10968558Y-10113224D01*
X-10897205Y-10006436D01*
X-10848056Y-9887779D01*
X-10823000Y-9761814D01*
X-10823000Y-9633382D01*
X-10848056Y-9507417D01*
X-10897205Y-9388760D01*
X-10968558Y-9281972D01*
X-11059374Y-9191156D01*
X-11166162Y-9119803D01*
X-11284819Y-9070654D01*
X-11410784Y-9045598D01*
X-11539216Y-9045598D01*
X-11665181Y-9070654D01*
X-11783838Y-9119803D01*
X-11890626Y-9191156D01*
X-11981442Y-9281972D01*
X-12052795Y-9388760D01*
X-12101944Y-9507417D01*
X-12127000Y-9633382D01*
X-14864004Y-9633382D01*
X-14984585Y-9552813D01*
X-15144189Y-9486703D01*
X-15313623Y-9453000D01*
X-15486377Y-9453000D01*
X-15655811Y-9486703D01*
X-15815415Y-9552813D01*
X-15959055Y-9648790D01*
X-16081210Y-9770945D01*
X-16177187Y-9914585D01*
X-16243297Y-10074189D01*
X-16277000Y-10243623D01*
X-16277000Y-10416377D01*
X-16243297Y-10585811D01*
X-16177187Y-10745415D01*
X-16136466Y-10806359D01*
X-16167869Y-10832131D01*
X-16214981Y-10889537D01*
X-16249988Y-10955030D01*
X-16271545Y-11026095D01*
X-16278824Y-11100000D01*
X-17598000Y-11100000D01*
X-17598000Y-5316890D01*
X-16941476Y-5316890D01*
X-16896825Y-5464099D01*
X-16771641Y-5726920D01*
X-16597588Y-5960269D01*
X-16381355Y-6155178D01*
X-16186620Y-6271176D01*
X-16350000Y-6271176D01*
X-16423905Y-6278455D01*
X-16494970Y-6300012D01*
X-16560463Y-6335019D01*
X-16617869Y-6382131D01*
X-16664981Y-6439537D01*
X-16699988Y-6505030D01*
X-16721545Y-6576095D01*
X-16728824Y-6650000D01*
X-16728824Y-8350000D01*
X-16721545Y-8423905D01*
X-16699988Y-8494970D01*
X-16664981Y-8560463D01*
X-16617869Y-8617869D01*
X-16560463Y-8664981D01*
X-16494970Y-8699988D01*
X-16423905Y-8721545D01*
X-16350000Y-8728824D01*
X-14650000Y-8728824D01*
X-14576095Y-8721545D01*
X-14505030Y-8699988D01*
X-14439537Y-8664981D01*
X-14415695Y-8645414D01*
X-14459820Y-8751943D01*
X-14484876Y-8877908D01*
X-14484876Y-9006340D01*
X-14459820Y-9132305D01*
X-14410671Y-9250962D01*
X-14339318Y-9357750D01*
X-14248502Y-9448566D01*
X-14141714Y-9519919D01*
X-14023057Y-9569068D01*
X-13897092Y-9594124D01*
X-13768660Y-9594124D01*
X-13642695Y-9569068D01*
X-13524038Y-9519919D01*
X-13417250Y-9448566D01*
X-13326434Y-9357750D01*
X-13255081Y-9250962D01*
X-13205932Y-9132305D01*
X-13180876Y-9006340D01*
X-13180876Y-8877908D01*
X-13205932Y-8751943D01*
X-13255081Y-8633286D01*
X-13326434Y-8526498D01*
X-13417250Y-8435682D01*
X-13524038Y-8364329D01*
X-13642695Y-8315180D01*
X-13768660Y-8290124D01*
X-13897092Y-8290124D01*
X-14023057Y-8315180D01*
X-14141714Y-8364329D01*
X-14248502Y-8435682D01*
X-14296625Y-8483805D01*
X-14278455Y-8423905D01*
X-14271176Y-8350000D01*
X-14271176Y-7720529D01*
X-12429410Y-7720529D01*
X-12429410Y-7848961D01*
X-12404354Y-7974926D01*
X-12355205Y-8093583D01*
X-12283852Y-8200371D01*
X-12193036Y-8291187D01*
X-12086248Y-8362540D01*
X-11967591Y-8411689D01*
X-11841626Y-8436745D01*
X-11713194Y-8436745D01*
X-11587229Y-8411689D01*
X-11468572Y-8362540D01*
X-11361784Y-8291187D01*
X-11270968Y-8200371D01*
X-11199615Y-8093583D01*
X-11150466Y-7974926D01*
X-11125410Y-7848961D01*
X-11125410Y-7720529D01*
X-11150466Y-7594564D01*
X-11199615Y-7475907D01*
X-11270968Y-7369119D01*
X-11361784Y-7278303D01*
X-11468572Y-7206950D01*
X-11587229Y-7157801D01*
X-11713194Y-7132745D01*
X-11841626Y-7132745D01*
X-11967591Y-7157801D01*
X-12086248Y-7206950D01*
X-12193036Y-7278303D01*
X-12283852Y-7369119D01*
X-12355205Y-7475907D01*
X-12404354Y-7594564D01*
X-12429410Y-7720529D01*
X-14271176Y-7720529D01*
X-14271176Y-6650000D01*
X-14278455Y-6576095D01*
X-14300012Y-6505030D01*
X-14335019Y-6439537D01*
X-14382131Y-6382131D01*
X-14439537Y-6335019D01*
X-14505030Y-6300012D01*
X-14576095Y-6278455D01*
X-14650000Y-6271176D01*
X-14813380Y-6271176D01*
X-14618645Y-6155178D01*
X-14402412Y-5960269D01*
X-14228359Y-5726920D01*
X-14103175Y-5464099D01*
X-14058524Y-5316890D01*
X-14179845Y-5087000D01*
X-15373000Y-5087000D01*
X-15373000Y-5107000D01*
X-15627000Y-5107000D01*
X-15627000Y-5087000D01*
X-16820155Y-5087000D01*
X-16941476Y-5316890D01*
X-17598000Y-5316890D01*
X-17598000Y-4925784D01*
X-13992000Y-4925784D01*
X-13992000Y-5054216D01*
X-13966944Y-5180181D01*
X-13917795Y-5298838D01*
X-13846442Y-5405626D01*
X-13755626Y-5496442D01*
X-13648838Y-5567795D01*
X-13530181Y-5616944D01*
X-13404216Y-5642000D01*
X-13275784Y-5642000D01*
X-13149819Y-5616944D01*
X-13031162Y-5567795D01*
X-12924374Y-5496442D01*
X-12833558Y-5405626D01*
X-12762205Y-5298838D01*
X-12733906Y-5230516D01*
X-7684404Y-5230516D01*
X-7684404Y-5358948D01*
X-7659348Y-5484913D01*
X-7610199Y-5603570D01*
X-7538846Y-5710358D01*
X-7448030Y-5801174D01*
X-7341242Y-5872527D01*
X-7222585Y-5921676D01*
X-7096620Y-5946732D01*
X-6968188Y-5946732D01*
X-6842223Y-5921676D01*
X-6723566Y-5872527D01*
X-6616778Y-5801174D01*
X-6525962Y-5710358D01*
X-6454609Y-5603570D01*
X-6405460Y-5484913D01*
X-6380404Y-5358948D01*
X-6380404Y-5230516D01*
X-6405460Y-5104551D01*
X-6454609Y-4985894D01*
X-6525962Y-4879106D01*
X-6616778Y-4788290D01*
X-6723566Y-4716937D01*
X-6842223Y-4667788D01*
X-6968188Y-4642732D01*
X-7096620Y-4642732D01*
X-7222585Y-4667788D01*
X-7341242Y-4716937D01*
X-7448030Y-4788290D01*
X-7538846Y-4879106D01*
X-7610199Y-4985894D01*
X-7659348Y-5104551D01*
X-7684404Y-5230516D01*
X-12733906Y-5230516D01*
X-12713056Y-5180181D01*
X-12688000Y-5054216D01*
X-12688000Y-4925784D01*
X-12713056Y-4799819D01*
X-12762205Y-4681162D01*
X-12833558Y-4574374D01*
X-12924374Y-4483558D01*
X-13031162Y-4412205D01*
X-13149819Y-4363056D01*
X-13275784Y-4338000D01*
X-13404216Y-4338000D01*
X-13530181Y-4363056D01*
X-13648838Y-4412205D01*
X-13755626Y-4483558D01*
X-13846442Y-4574374D01*
X-13917795Y-4681162D01*
X-13966944Y-4799819D01*
X-13992000Y-4925784D01*
X-17598000Y-4925784D01*
X-17598000Y-4603110D01*
X-16941476Y-4603110D01*
X-16820155Y-4833000D01*
X-15627000Y-4833000D01*
X-15627000Y-4813000D01*
X-15373000Y-4813000D01*
X-15373000Y-4833000D01*
X-14179845Y-4833000D01*
X-14058524Y-4603110D01*
X-14103175Y-4455901D01*
X-14228359Y-4193080D01*
X-14402412Y-3959731D01*
X-14618645Y-3764822D01*
X-14868748Y-3615843D01*
X-15036798Y-3556231D01*
X-14918798Y-3507353D01*
X-14717833Y-3373073D01*
X-14546927Y-3202167D01*
X-14412647Y-3001202D01*
X-14320153Y-2777903D01*
X-14273000Y-2540849D01*
X-14273000Y-2299151D01*
X-14320153Y-2062097D01*
X-14412647Y-1838798D01*
X-14546927Y-1637833D01*
X-14717833Y-1466927D01*
X-14918798Y-1332647D01*
X-14959508Y-1315784D01*
X-13802000Y-1315784D01*
X-13802000Y-1444216D01*
X-13776944Y-1570181D01*
X-13727795Y-1688838D01*
X-13656442Y-1795626D01*
X-13565626Y-1886442D01*
X-13458838Y-1957795D01*
X-13340181Y-2006944D01*
X-13214216Y-2032000D01*
X-13085784Y-2032000D01*
X-12959819Y-2006944D01*
X-12841162Y-1957795D01*
X-12734374Y-1886442D01*
X-12643558Y-1795626D01*
X-12588341Y-1712987D01*
X-12526442Y-1805626D01*
X-12435626Y-1896442D01*
X-12328838Y-1967795D01*
X-12210181Y-2016944D01*
X-12084216Y-2042000D01*
X-11955784Y-2042000D01*
X-11829819Y-2016944D01*
X-11711162Y-1967795D01*
X-11604374Y-1896442D01*
X-11530000Y-1822068D01*
X-11525626Y-1826442D01*
X-11418838Y-1897795D01*
X-11300181Y-1946944D01*
X-11174216Y-1972000D01*
X-11122302Y-1972000D01*
X-11573378Y-2423077D01*
X-11591155Y-2437666D01*
X-11605744Y-2455443D01*
X-11649376Y-2508609D01*
X-11692639Y-2589547D01*
X-11719279Y-2677369D01*
X-11728275Y-2768701D01*
X-11726020Y-2791595D01*
X-11726021Y-3531529D01*
X-11766563Y-3572071D01*
X-11837916Y-3678859D01*
X-11887065Y-3797516D01*
X-11912121Y-3923481D01*
X-11912121Y-4051913D01*
X-11887065Y-4177878D01*
X-11837916Y-4296535D01*
X-11766563Y-4403323D01*
X-11675747Y-4494139D01*
X-11568959Y-4565492D01*
X-11450302Y-4614641D01*
X-11324337Y-4639697D01*
X-11195905Y-4639697D01*
X-11069940Y-4614641D01*
X-10951283Y-4565492D01*
X-10844495Y-4494139D01*
X-10753679Y-4403323D01*
X-10722116Y-4356085D01*
X-10661764Y-4368090D01*
X-10533332Y-4368090D01*
X-10407367Y-4343034D01*
X-10288710Y-4293885D01*
X-10181922Y-4222532D01*
X-10091106Y-4131716D01*
X-10019753Y-4024928D01*
X-9970604Y-3906271D01*
X-9945548Y-3780306D01*
X-9945548Y-3651874D01*
X-9970604Y-3525909D01*
X-10019753Y-3407252D01*
X-10091106Y-3300464D01*
X-10181922Y-3209648D01*
X-10288710Y-3138295D01*
X-10407367Y-3089146D01*
X-10533332Y-3064090D01*
X-10661764Y-3064090D01*
X-10787729Y-3089146D01*
X-10794221Y-3091835D01*
X-10794221Y-2961682D01*
X-10435439Y-2602901D01*
X-9279885Y-2602901D01*
X-9257001Y-2605155D01*
X-9234117Y-2602901D01*
X-9234115Y-2602901D01*
X-9165669Y-2596160D01*
X-9077846Y-2569519D01*
X-8996909Y-2526257D01*
X-8925966Y-2468036D01*
X-8911372Y-2450253D01*
X-7836736Y-1375619D01*
X-7818965Y-1361035D01*
X-7804380Y-1343263D01*
X-7804376Y-1343259D01*
X-7791033Y-1327000D01*
X-6330000Y-1327000D01*
X-6305224Y-1324560D01*
X-6281399Y-1317333D01*
X-6259443Y-1305597D01*
X-6240197Y-1289803D01*
X-6140197Y-1189803D01*
X-6124403Y-1170557D01*
X-6112667Y-1148601D01*
X-6105440Y-1124776D01*
X-6103000Y-1100000D01*
X-6103000Y1839628D01*
X-906751Y1839628D01*
X-906750Y-187440D01*
X-895077Y-305962D01*
X-848946Y-458035D01*
X-774033Y-598186D01*
X-673218Y-721030D01*
X-550374Y-821845D01*
X-410223Y-896758D01*
X-258150Y-942889D01*
X-100000Y-958465D01*
X58151Y-942889D01*
X210224Y-896758D01*
X350375Y-821845D01*
X473219Y-721030D01*
X574034Y-598186D01*
X648947Y-458035D01*
X695078Y-305962D01*
X706751Y-187440D01*
X706751Y1839629D01*
X695078Y1958151D01*
X648947Y2110224D01*
X574034Y2250375D01*
X473219Y2373219D01*
X350374Y2474034D01*
X210223Y2548947D01*
X58150Y2595078D01*
X-100000Y2610654D01*
X-258151Y2595078D01*
X-410224Y2548947D01*
X-550375Y2474034D01*
X-673219Y2373219D01*
X-774034Y2250374D01*
X-848947Y2110223D01*
X-895078Y1958150D01*
X-906751Y1839628D01*
X-6103000Y1839628D01*
X-6103000Y2230000D01*
X-6105360Y2254371D01*
X-6112510Y2278219D01*
X-6124174Y2300213D01*
X-6139906Y2319510D01*
X-6239904Y2420161D01*
X-6258754Y2435786D01*
X-6280634Y2447665D01*
X-6304411Y2455047D01*
X-6329171Y2457648D01*
X-7684100Y2466475D01*
X-7684100Y3177019D01*
X-5246741Y5614377D01*
X-5228965Y5628965D01*
X-5172710Y5697512D01*
X-5170745Y5699906D01*
X-5127482Y5780845D01*
X-5122358Y5797738D01*
X-5100841Y5868668D01*
X-5094100Y5937114D01*
X-5094100Y5937115D01*
X-5091846Y5959999D01*
X-5094100Y5982883D01*
X-5094100Y6024216D01*
X-112000Y6024216D01*
X-112000Y5895784D01*
X-86944Y5769819D01*
X-37795Y5651162D01*
X33558Y5544374D01*
X124374Y5453558D01*
X231162Y5382205D01*
X349819Y5333056D01*
X475784Y5308000D01*
X604216Y5308000D01*
X730181Y5333056D01*
X848838Y5382205D01*
X955626Y5453558D01*
X983284Y5481216D01*
X7580000Y5481216D01*
X7580000Y5352784D01*
X7605056Y5226819D01*
X7654205Y5108162D01*
X7725558Y5001374D01*
X7816374Y4910558D01*
X7923162Y4839205D01*
X8041819Y4790056D01*
X8167784Y4765000D01*
X8296216Y4765000D01*
X8422181Y4790056D01*
X8540838Y4839205D01*
X8647626Y4910558D01*
X8738442Y5001374D01*
X8809795Y5108162D01*
X8858944Y5226819D01*
X8869691Y5280849D01*
X14273000Y5280849D01*
X14273000Y5039151D01*
X14320153Y4802097D01*
X14412647Y4578798D01*
X14546927Y4377833D01*
X14717833Y4206927D01*
X14918798Y4072647D01*
X15142097Y3980153D01*
X15379151Y3933000D01*
X15620849Y3933000D01*
X15857903Y3980153D01*
X16081202Y4072647D01*
X16282167Y4206927D01*
X16453073Y4377833D01*
X16587353Y4578798D01*
X16679847Y4802097D01*
X16727000Y5039151D01*
X16727000Y5280849D01*
X16679847Y5517903D01*
X16587353Y5741202D01*
X16453073Y5942167D01*
X16282167Y6113073D01*
X16081202Y6247353D01*
X15857903Y6339847D01*
X15620849Y6387000D01*
X15379151Y6387000D01*
X15142097Y6339847D01*
X14918798Y6247353D01*
X14717833Y6113073D01*
X14546927Y5942167D01*
X14412647Y5741202D01*
X14320153Y5517903D01*
X14273000Y5280849D01*
X8869691Y5280849D01*
X8884000Y5352784D01*
X8884000Y5481216D01*
X8858944Y5607181D01*
X8809795Y5725838D01*
X8738442Y5832626D01*
X8647626Y5923442D01*
X8540838Y5994795D01*
X8422181Y6043944D01*
X8296216Y6069000D01*
X8167784Y6069000D01*
X8041819Y6043944D01*
X7923162Y5994795D01*
X7816374Y5923442D01*
X7725558Y5832626D01*
X7654205Y5725838D01*
X7605056Y5607181D01*
X7580000Y5481216D01*
X983284Y5481216D01*
X1046442Y5544374D01*
X1117795Y5651162D01*
X1166944Y5769819D01*
X1192000Y5895784D01*
X1192000Y6024216D01*
X1166944Y6150181D01*
X1117795Y6268838D01*
X1046442Y6375626D01*
X955626Y6466442D01*
X848838Y6537795D01*
X730181Y6586944D01*
X604216Y6612000D01*
X475784Y6612000D01*
X349819Y6586944D01*
X231162Y6537795D01*
X124374Y6466442D01*
X33558Y6375626D01*
X-37795Y6268838D01*
X-86944Y6150181D01*
X-112000Y6024216D01*
X-5094100Y6024216D01*
X-5094100Y6687117D01*
X-5091846Y6710001D01*
X-5095483Y6746927D01*
X-5100841Y6801332D01*
X-5127482Y6889155D01*
X-5170744Y6970092D01*
X-5170745Y6970094D01*
X-5214377Y7023259D01*
X-5228965Y7041035D01*
X-5246743Y7055625D01*
X-6231334Y8040216D01*
X6718000Y8040216D01*
X6718000Y7911784D01*
X6743056Y7785819D01*
X6792205Y7667162D01*
X6863558Y7560374D01*
X6954374Y7469558D01*
X7061162Y7398205D01*
X7179819Y7349056D01*
X7305784Y7324000D01*
X7434216Y7324000D01*
X7560181Y7349056D01*
X7678838Y7398205D01*
X7785626Y7469558D01*
X7876442Y7560374D01*
X7947795Y7667162D01*
X7996944Y7785819D01*
X8003911Y7820849D01*
X14273000Y7820849D01*
X14273000Y7579151D01*
X14320153Y7342097D01*
X14412647Y7118798D01*
X14546927Y6917833D01*
X14717833Y6746927D01*
X14918798Y6612647D01*
X15142097Y6520153D01*
X15379151Y6473000D01*
X15620849Y6473000D01*
X15857903Y6520153D01*
X16081202Y6612647D01*
X16282167Y6746927D01*
X16453073Y6917833D01*
X16587353Y7118798D01*
X16679847Y7342097D01*
X16727000Y7579151D01*
X16727000Y7820849D01*
X16679847Y8057903D01*
X16587353Y8281202D01*
X16453073Y8482167D01*
X16282167Y8653073D01*
X16081202Y8787353D01*
X15857903Y8879847D01*
X15620849Y8927000D01*
X15379151Y8927000D01*
X15142097Y8879847D01*
X14918798Y8787353D01*
X14717833Y8653073D01*
X14546927Y8482167D01*
X14412647Y8281202D01*
X14320153Y8057903D01*
X14273000Y7820849D01*
X8003911Y7820849D01*
X8022000Y7911784D01*
X8022000Y8040216D01*
X7996944Y8166181D01*
X7947795Y8284838D01*
X7876442Y8391626D01*
X7785626Y8482442D01*
X7678838Y8553795D01*
X7560181Y8602944D01*
X7434216Y8628000D01*
X7305784Y8628000D01*
X7179819Y8602944D01*
X7061162Y8553795D01*
X6954374Y8482442D01*
X6863558Y8391626D01*
X6792205Y8284838D01*
X6743056Y8166181D01*
X6718000Y8040216D01*
X-6231334Y8040216D01*
X-6647137Y8456018D01*
X-6661731Y8473801D01*
X-6732674Y8532022D01*
X-6813611Y8575284D01*
X-6901434Y8601925D01*
X-6969880Y8608666D01*
X-6969882Y8608666D01*
X-6992766Y8610920D01*
X-7015650Y8608666D01*
X-8469832Y8608666D01*
X-8510374Y8649208D01*
X-8617162Y8720561D01*
X-8735819Y8769710D01*
X-8861784Y8794766D01*
X-8990216Y8794766D01*
X-9116181Y8769710D01*
X-9234838Y8720561D01*
X-9341626Y8649208D01*
X-9408172Y8582662D01*
X-9413470Y8584856D01*
X-9539435Y8609912D01*
X-9667867Y8609912D01*
X-9793832Y8584856D01*
X-9912489Y8535707D01*
X-10019277Y8464354D01*
X-10110093Y8373538D01*
X-10181446Y8266750D01*
X-10230595Y8148093D01*
X-10255651Y8022128D01*
X-10255651Y7893696D01*
X-10249999Y7865279D01*
X-10310218Y7825042D01*
X-10401034Y7734226D01*
X-10472387Y7627438D01*
X-10521536Y7508781D01*
X-10546592Y7382816D01*
X-10546592Y7254384D01*
X-10521536Y7128419D01*
X-10472387Y7009762D01*
X-10401034Y6902974D01*
X-10310218Y6812158D01*
X-10203430Y6740805D01*
X-10084773Y6691656D01*
X-9958808Y6666600D01*
X-9830376Y6666600D01*
X-9704411Y6691656D01*
X-9585754Y6740805D01*
X-9478966Y6812158D01*
X-9388150Y6902974D01*
X-9316797Y7009762D01*
X-9267648Y7128419D01*
X-9242592Y7254384D01*
X-9242592Y7382816D01*
X-9248244Y7411233D01*
X-9188025Y7451470D01*
X-9121479Y7518016D01*
X-9116181Y7515822D01*
X-8990216Y7490766D01*
X-8861784Y7490766D01*
X-8735819Y7515822D01*
X-8617162Y7564971D01*
X-8510374Y7636324D01*
X-8469832Y7676866D01*
X-7185747Y7676866D01*
X-6569996Y7061115D01*
X-6573419Y7059697D01*
X-6620762Y7028063D01*
X-6663161Y7056393D01*
X-6781818Y7105542D01*
X-6907783Y7130598D01*
X-7036215Y7130598D01*
X-7162180Y7105542D01*
X-7280837Y7056393D01*
X-7387625Y6985040D01*
X-7397390Y6975275D01*
X-7401162Y6977795D01*
X-7519819Y7026944D01*
X-7645784Y7052000D01*
X-7774216Y7052000D01*
X-7900181Y7026944D01*
X-8018838Y6977795D01*
X-8125626Y6906442D01*
X-8216442Y6815626D01*
X-8287795Y6708838D01*
X-8336944Y6590181D01*
X-8346002Y6544644D01*
X-9010000Y5880645D01*
X-9359647Y6230291D01*
X-9386514Y6295154D01*
X-9452396Y6393753D01*
X-9536247Y6477604D01*
X-9634846Y6543486D01*
X-9744403Y6588866D01*
X-9860708Y6612000D01*
X-9979292Y6612000D01*
X-10095597Y6588866D01*
X-10205154Y6543486D01*
X-10303753Y6477604D01*
X-10387604Y6393753D01*
X-10453486Y6295154D01*
X-10498866Y6185597D01*
X-10522000Y6069292D01*
X-10522000Y5950708D01*
X-10498866Y5834403D01*
X-10453486Y5724846D01*
X-10387604Y5626247D01*
X-10303753Y5542396D01*
X-10205154Y5476514D01*
X-10140291Y5449647D01*
X-9365988Y4675342D01*
X-9348710Y4654289D01*
X-9327659Y4637013D01*
X-9327654Y4637008D01*
X-9327643Y4636999D01*
X-9211000Y4520355D01*
X-9211000Y2475240D01*
X-9224373Y2473989D01*
X-9248221Y2466839D01*
X-9270215Y2455175D01*
X-9289512Y2439443D01*
X-9389510Y2340094D01*
X-9405597Y2320557D01*
X-9417333Y2298601D01*
X-9424560Y2274776D01*
X-9427000Y2250000D01*
X-9427000Y-146350D01*
X-9501464Y-96595D01*
X-9620121Y-47446D01*
X-9746086Y-22390D01*
X-9874518Y-22390D01*
X-10000483Y-47446D01*
X-10119140Y-96595D01*
X-10225928Y-167948D01*
X-10316744Y-258764D01*
X-10388097Y-365552D01*
X-10437246Y-484209D01*
X-10462302Y-610174D01*
X-10462302Y-738606D01*
X-10437246Y-864571D01*
X-10388097Y-983228D01*
X-10316744Y-1090016D01*
X-10263404Y-1143356D01*
X-10273288Y-1167217D01*
X-10298344Y-1293182D01*
X-10298344Y-1421614D01*
X-10273288Y-1547579D01*
X-10224139Y-1666236D01*
X-10220888Y-1671101D01*
X-10560444Y-1671101D01*
X-10532205Y-1628838D01*
X-10483056Y-1510181D01*
X-10458000Y-1384216D01*
X-10458000Y-1255784D01*
X-10483056Y-1129819D01*
X-10532205Y-1011162D01*
X-10603558Y-904374D01*
X-10694374Y-813558D01*
X-10801162Y-742205D01*
X-10919819Y-693056D01*
X-11045784Y-668000D01*
X-11174216Y-668000D01*
X-11300181Y-693056D01*
X-11418838Y-742205D01*
X-11525626Y-813558D01*
X-11600000Y-887932D01*
X-11604374Y-883558D01*
X-11711162Y-812205D01*
X-11829819Y-763056D01*
X-11955784Y-738000D01*
X-12084216Y-738000D01*
X-12210181Y-763056D01*
X-12328838Y-812205D01*
X-12435626Y-883558D01*
X-12526442Y-974374D01*
X-12581659Y-1057013D01*
X-12643558Y-964374D01*
X-12734374Y-873558D01*
X-12841162Y-802205D01*
X-12959819Y-753056D01*
X-13085784Y-728000D01*
X-13214216Y-728000D01*
X-13340181Y-753056D01*
X-13458838Y-802205D01*
X-13565626Y-873558D01*
X-13656442Y-964374D01*
X-13727795Y-1071162D01*
X-13776944Y-1189819D01*
X-13802000Y-1315784D01*
X-14959508Y-1315784D01*
X-15142097Y-1240153D01*
X-15379151Y-1193000D01*
X-15620849Y-1193000D01*
X-15857903Y-1240153D01*
X-16081202Y-1332647D01*
X-16282167Y-1466927D01*
X-16453073Y-1637833D01*
X-16587353Y-1838798D01*
X-16679847Y-2062097D01*
X-16727000Y-2299151D01*
X-16727000Y-2540849D01*
X-16679847Y-2777903D01*
X-16587353Y-3001202D01*
X-16453073Y-3202167D01*
X-16282167Y-3373073D01*
X-16081202Y-3507353D01*
X-15963202Y-3556231D01*
X-16131252Y-3615843D01*
X-16381355Y-3764822D01*
X-16597588Y-3959731D01*
X-16771641Y-4193080D01*
X-16896825Y-4455901D01*
X-16941476Y-4603110D01*
X-17598000Y-4603110D01*
X-17598000Y240849D01*
X-16727000Y240849D01*
X-16727000Y-849D01*
X-16679847Y-237903D01*
X-16587353Y-461202D01*
X-16453073Y-662167D01*
X-16282167Y-833073D01*
X-16081202Y-967353D01*
X-15857903Y-1059847D01*
X-15620849Y-1107000D01*
X-15379151Y-1107000D01*
X-15142097Y-1059847D01*
X-14918798Y-967353D01*
X-14717833Y-833073D01*
X-14546927Y-662167D01*
X-14412647Y-461202D01*
X-14320153Y-237903D01*
X-14273000Y-849D01*
X-14273000Y240849D01*
X-14320153Y477903D01*
X-14412647Y701202D01*
X-14546927Y902167D01*
X-14673068Y1028308D01*
X-14248089Y1028308D01*
X-14248089Y899876D01*
X-14223033Y773911D01*
X-14173884Y655254D01*
X-14102531Y548466D01*
X-14011715Y457650D01*
X-13904927Y386297D01*
X-13786270Y337148D01*
X-13660305Y312092D01*
X-13531873Y312092D01*
X-13405908Y337148D01*
X-13287251Y386297D01*
X-13180463Y457650D01*
X-13100089Y538023D01*
X-13015626Y453560D01*
X-12908838Y382207D01*
X-12790181Y333058D01*
X-12664216Y308002D01*
X-12535784Y308002D01*
X-12409819Y333058D01*
X-12291162Y382207D01*
X-12184374Y453560D01*
X-12093558Y544376D01*
X-12086115Y555516D01*
X-12058631Y514383D01*
X-11967815Y423567D01*
X-11861027Y352214D01*
X-11742370Y303065D01*
X-11616405Y278009D01*
X-11487973Y278009D01*
X-11362008Y303065D01*
X-11243351Y352214D01*
X-11136563Y423567D01*
X-11045747Y514383D01*
X-11030007Y537939D01*
X-11015626Y523558D01*
X-10908838Y452205D01*
X-10790181Y403056D01*
X-10664216Y378000D01*
X-10535784Y378000D01*
X-10409819Y403056D01*
X-10291162Y452205D01*
X-10184374Y523558D01*
X-10093558Y614374D01*
X-10022205Y721162D01*
X-9973056Y839819D01*
X-9948000Y965784D01*
X-9948000Y1094216D01*
X-9973056Y1220181D01*
X-10022205Y1338838D01*
X-10093558Y1445626D01*
X-10184374Y1536442D01*
X-10291162Y1607795D01*
X-10409819Y1656944D01*
X-10535784Y1682000D01*
X-10664216Y1682000D01*
X-10790181Y1656944D01*
X-10908838Y1607795D01*
X-11015626Y1536442D01*
X-11106442Y1445626D01*
X-11122182Y1422070D01*
X-11136563Y1436451D01*
X-11243351Y1507804D01*
X-11362008Y1556953D01*
X-11487973Y1582009D01*
X-11616405Y1582009D01*
X-11742370Y1556953D01*
X-11861027Y1507804D01*
X-11967815Y1436451D01*
X-12058631Y1345635D01*
X-12066074Y1334495D01*
X-12093558Y1375628D01*
X-12184374Y1466444D01*
X-12291162Y1537797D01*
X-12409819Y1586946D01*
X-12535784Y1612002D01*
X-12664216Y1612002D01*
X-12790181Y1586946D01*
X-12908838Y1537797D01*
X-13015626Y1466444D01*
X-13095999Y1386070D01*
X-13180463Y1470534D01*
X-13287251Y1541887D01*
X-13405908Y1591036D01*
X-13531873Y1616092D01*
X-13660305Y1616092D01*
X-13786270Y1591036D01*
X-13904927Y1541887D01*
X-14011715Y1470534D01*
X-14102531Y1379718D01*
X-14173884Y1272930D01*
X-14223033Y1154273D01*
X-14248089Y1028308D01*
X-14673068Y1028308D01*
X-14717833Y1073073D01*
X-14918798Y1207353D01*
X-15142097Y1299847D01*
X-15379151Y1347000D01*
X-15620849Y1347000D01*
X-15857903Y1299847D01*
X-16081202Y1207353D01*
X-16282167Y1073073D01*
X-16453073Y902167D01*
X-16587353Y701202D01*
X-16679847Y477903D01*
X-16727000Y240849D01*
X-17598000Y240849D01*
X-17598000Y2780849D01*
X-16727000Y2780849D01*
X-16727000Y2539151D01*
X-16679847Y2302097D01*
X-16587353Y2078798D01*
X-16453073Y1877833D01*
X-16282167Y1706927D01*
X-16081202Y1572647D01*
X-15857903Y1480153D01*
X-15620849Y1433000D01*
X-15379151Y1433000D01*
X-15142097Y1480153D01*
X-14918798Y1572647D01*
X-14717833Y1706927D01*
X-14546927Y1877833D01*
X-14412647Y2078798D01*
X-14320153Y2302097D01*
X-14273000Y2539151D01*
X-14273000Y2780849D01*
X-14320153Y3017903D01*
X-14412647Y3241202D01*
X-14546927Y3442167D01*
X-14717833Y3613073D01*
X-14918798Y3747353D01*
X-15142097Y3839847D01*
X-15379151Y3887000D01*
X-15620849Y3887000D01*
X-15857903Y3839847D01*
X-16081202Y3747353D01*
X-16282167Y3613073D01*
X-16453073Y3442167D01*
X-16587353Y3241202D01*
X-16679847Y3017903D01*
X-16727000Y2780849D01*
X-17598000Y2780849D01*
X-17598000Y5320849D01*
X-16727000Y5320849D01*
X-16727000Y5079151D01*
X-16679847Y4842097D01*
X-16587353Y4618798D01*
X-16453073Y4417833D01*
X-16282167Y4246927D01*
X-16081202Y4112647D01*
X-15857903Y4020153D01*
X-15620849Y3973000D01*
X-15379151Y3973000D01*
X-15142097Y4020153D01*
X-14918798Y4112647D01*
X-14717833Y4246927D01*
X-14546927Y4417833D01*
X-14412647Y4618798D01*
X-14320153Y4842097D01*
X-14273000Y5079151D01*
X-14273000Y5320849D01*
X-14320153Y5557903D01*
X-14412647Y5781202D01*
X-14546927Y5982167D01*
X-14717833Y6153073D01*
X-14918798Y6287353D01*
X-15142097Y6379847D01*
X-15379151Y6427000D01*
X-15620849Y6427000D01*
X-15857903Y6379847D01*
X-16081202Y6287353D01*
X-16282167Y6153073D01*
X-16453073Y5982167D01*
X-16587353Y5781202D01*
X-16679847Y5557903D01*
X-16727000Y5320849D01*
X-17598000Y5320849D01*
X-17598000Y7860849D01*
X-16727000Y7860849D01*
X-16727000Y7619151D01*
X-16679847Y7382097D01*
X-16587353Y7158798D01*
X-16453073Y6957833D01*
X-16282167Y6786927D01*
X-16081202Y6652647D01*
X-15857903Y6560153D01*
X-15620849Y6513000D01*
X-15379151Y6513000D01*
X-15142097Y6560153D01*
X-14918798Y6652647D01*
X-14717833Y6786927D01*
X-14546927Y6957833D01*
X-14412647Y7158798D01*
X-14320153Y7382097D01*
X-14273000Y7619151D01*
X-14273000Y7860849D01*
X-14320153Y8097903D01*
X-14412647Y8321202D01*
X-14546927Y8522167D01*
X-14717833Y8693073D01*
X-14918798Y8827353D01*
X-15142097Y8919847D01*
X-15379151Y8967000D01*
X-15620849Y8967000D01*
X-15857903Y8919847D01*
X-16081202Y8827353D01*
X-16282167Y8693073D01*
X-16453073Y8522167D01*
X-16587353Y8321202D01*
X-16679847Y8097903D01*
X-16727000Y7860849D01*
X-17598000Y7860849D01*
X-17598000Y10473000D01*
X17598001Y10473000D01*
X17598000Y-22598000D01*
G37*
G04 #@! TD.AperFunction*
D36*
X-6573419Y5904107D02*
X-6454762Y5854958D01*
X-6345631Y5833251D01*
X-8107000Y4071881D01*
X-8107000Y4721891D01*
X-8104330Y4749000D01*
X-8114988Y4857211D01*
X-8146552Y4961263D01*
X-8188184Y5039151D01*
X-8197809Y5057158D01*
X-8231340Y5098016D01*
X-7565356Y5763998D01*
X-7519819Y5773056D01*
X-7401162Y5822205D01*
X-7294374Y5893558D01*
X-7284609Y5903323D01*
X-7280837Y5900803D01*
X-7162180Y5851654D01*
X-7036215Y5826598D01*
X-6907783Y5826598D01*
X-6781818Y5851654D01*
X-6663161Y5900803D01*
X-6615818Y5932437D01*
X-6573419Y5904107D01*
G04 #@! TA.AperFunction,Conductor*
D37*
G36*
X-6573419Y5904107D02*
G01*
X-6454762Y5854958D01*
X-6345631Y5833251D01*
X-8107000Y4071881D01*
X-8107000Y4721891D01*
X-8104330Y4749000D01*
X-8114988Y4857211D01*
X-8146552Y4961263D01*
X-8188184Y5039151D01*
X-8197809Y5057158D01*
X-8231340Y5098016D01*
X-7565356Y5763998D01*
X-7519819Y5773056D01*
X-7401162Y5822205D01*
X-7294374Y5893558D01*
X-7284609Y5903323D01*
X-7280837Y5900803D01*
X-7162180Y5851654D01*
X-7036215Y5826598D01*
X-6907783Y5826598D01*
X-6781818Y5851654D01*
X-6663161Y5900803D01*
X-6615818Y5932437D01*
X-6573419Y5904107D01*
G37*
G04 #@! TD.AperFunction*
D36*
X-2606500Y-13665579D02*
X-2606500Y-13096130D01*
X-1983870Y-12473500D01*
X-1414421Y-12473500D01*
X-2606500Y-13665579D01*
G04 #@! TA.AperFunction,Conductor*
D37*
G36*
X-2606500Y-13665579D02*
G01*
X-2606500Y-13096130D01*
X-1983870Y-12473500D01*
X-1414421Y-12473500D01*
X-2606500Y-13665579D01*
G37*
G04 #@! TD.AperFunction*
D36*
X-4006442Y-7815626D02*
X-3915626Y-7906442D01*
X-3808838Y-7977795D01*
X-3690181Y-8026944D01*
X-3564216Y-8052000D01*
X-3435784Y-8052000D01*
X-3309819Y-8026944D01*
X-3191162Y-7977795D01*
X-3147373Y-7948536D01*
X-2783012Y-8312898D01*
X-2783011Y-8677353D01*
X-2783655Y-8683893D01*
X-2809819Y-8673056D01*
X-2935784Y-8648000D01*
X-3064216Y-8648000D01*
X-3190181Y-8673056D01*
X-3308838Y-8722205D01*
X-3415626Y-8793558D01*
X-3506442Y-8884374D01*
X-3577795Y-8991162D01*
X-3626944Y-9109819D01*
X-3652000Y-9235784D01*
X-3652000Y-9364216D01*
X-3626944Y-9490181D01*
X-3577795Y-9608838D01*
X-3506442Y-9715626D01*
X-3415626Y-9806442D01*
X-3308838Y-9877795D01*
X-3190181Y-9926944D01*
X-3064216Y-9952000D01*
X-2935784Y-9952000D01*
X-2809819Y-9926944D01*
X-2761189Y-9906801D01*
X-2659254Y-9974911D01*
X-2540597Y-10024060D01*
X-2414632Y-10049116D01*
X-2286200Y-10049116D01*
X-2160235Y-10024060D01*
X-2041578Y-9974911D01*
X-1934790Y-9903558D01*
X-1853736Y-9822504D01*
X-1611479Y-10064761D01*
X-1635046Y-10183243D01*
X-1635046Y-10311675D01*
X-1609990Y-10437640D01*
X-1560841Y-10556297D01*
X-1489488Y-10663085D01*
X-1398672Y-10753901D01*
X-1291884Y-10825254D01*
X-1180589Y-10871353D01*
X-1490325Y-11181089D01*
X-2299812Y-11181089D01*
X-2323073Y-11178798D01*
X-2415896Y-11187940D01*
X-2432764Y-11193057D01*
X-2505150Y-11215015D01*
X-2522953Y-11224531D01*
X-2587409Y-11258983D01*
X-2638975Y-11301303D01*
X-2659508Y-11318154D01*
X-2674336Y-11336222D01*
X-3317322Y-11979208D01*
X-3317322Y-10301734D01*
X-3315130Y-10279478D01*
X-3323880Y-10190635D01*
X-3349795Y-10105207D01*
X-3391877Y-10026476D01*
X-3434324Y-9974754D01*
X-3448511Y-9957467D01*
X-3465798Y-9943280D01*
X-4046800Y-9362279D01*
X-4046800Y-7755226D01*
X-4006442Y-7815626D01*
G04 #@! TA.AperFunction,Conductor*
D37*
G36*
X-4006442Y-7815626D02*
G01*
X-3915626Y-7906442D01*
X-3808838Y-7977795D01*
X-3690181Y-8026944D01*
X-3564216Y-8052000D01*
X-3435784Y-8052000D01*
X-3309819Y-8026944D01*
X-3191162Y-7977795D01*
X-3147373Y-7948536D01*
X-2783012Y-8312898D01*
X-2783011Y-8677353D01*
X-2783655Y-8683893D01*
X-2809819Y-8673056D01*
X-2935784Y-8648000D01*
X-3064216Y-8648000D01*
X-3190181Y-8673056D01*
X-3308838Y-8722205D01*
X-3415626Y-8793558D01*
X-3506442Y-8884374D01*
X-3577795Y-8991162D01*
X-3626944Y-9109819D01*
X-3652000Y-9235784D01*
X-3652000Y-9364216D01*
X-3626944Y-9490181D01*
X-3577795Y-9608838D01*
X-3506442Y-9715626D01*
X-3415626Y-9806442D01*
X-3308838Y-9877795D01*
X-3190181Y-9926944D01*
X-3064216Y-9952000D01*
X-2935784Y-9952000D01*
X-2809819Y-9926944D01*
X-2761189Y-9906801D01*
X-2659254Y-9974911D01*
X-2540597Y-10024060D01*
X-2414632Y-10049116D01*
X-2286200Y-10049116D01*
X-2160235Y-10024060D01*
X-2041578Y-9974911D01*
X-1934790Y-9903558D01*
X-1853736Y-9822504D01*
X-1611479Y-10064761D01*
X-1635046Y-10183243D01*
X-1635046Y-10311675D01*
X-1609990Y-10437640D01*
X-1560841Y-10556297D01*
X-1489488Y-10663085D01*
X-1398672Y-10753901D01*
X-1291884Y-10825254D01*
X-1180589Y-10871353D01*
X-1490325Y-11181089D01*
X-2299812Y-11181089D01*
X-2323073Y-11178798D01*
X-2415896Y-11187940D01*
X-2432764Y-11193057D01*
X-2505150Y-11215015D01*
X-2522953Y-11224531D01*
X-2587409Y-11258983D01*
X-2638975Y-11301303D01*
X-2659508Y-11318154D01*
X-2674336Y-11336222D01*
X-3317322Y-11979208D01*
X-3317322Y-10301734D01*
X-3315130Y-10279478D01*
X-3323880Y-10190635D01*
X-3349795Y-10105207D01*
X-3391877Y-10026476D01*
X-3434324Y-9974754D01*
X-3448511Y-9957467D01*
X-3465798Y-9943280D01*
X-4046800Y-9362279D01*
X-4046800Y-7755226D01*
X-4006442Y-7815626D01*
G37*
G04 #@! TD.AperFunction*
D36*
X9184100Y-8192982D02*
X9184101Y-9449004D01*
X9015632Y-9617474D01*
X8999111Y-9597343D01*
X8999104Y-9597336D01*
X8984522Y-9579568D01*
X8966754Y-9564986D01*
X7103767Y-7702000D01*
X7214216Y-7702000D01*
X7340181Y-7676944D01*
X7458838Y-7627795D01*
X7565626Y-7556442D01*
X7606168Y-7515900D01*
X8507019Y-7515900D01*
X9184100Y-8192982D01*
G04 #@! TA.AperFunction,Conductor*
D37*
G36*
X9184100Y-8192982D02*
G01*
X9184101Y-9449004D01*
X9015632Y-9617474D01*
X8999111Y-9597343D01*
X8999104Y-9597336D01*
X8984522Y-9579568D01*
X8966754Y-9564986D01*
X7103767Y-7702000D01*
X7214216Y-7702000D01*
X7340181Y-7676944D01*
X7458838Y-7627795D01*
X7565626Y-7556442D01*
X7606168Y-7515900D01*
X8507019Y-7515900D01*
X9184100Y-8192982D01*
G37*
G04 #@! TD.AperFunction*
M02*
