G04 #@! TF.GenerationSoftware,KiCad,Pcbnew,(5.1.8)-1*
G04 #@! TF.CreationDate,2021-01-12T15:50:27+01:00*
G04 #@! TF.ProjectId,pcb-LR1110,7063622d-4c52-4313-9131-302e6b696361,1.1*
G04 #@! TF.SameCoordinates,PX8f0d180PY5f5e100*
G04 #@! TF.FileFunction,Other,Fab,Top*
%FSLAX46Y46*%
G04 Gerber Fmt 4.6, Leading zero omitted, Abs format (unit mm)*
G04 Created by KiCad (PCBNEW (5.1.8)-1) date 2021-01-12 15:50:27*
%MOMM*%
%LPD*%
G01*
G04 APERTURE LIST*
%ADD10C,0.100000*%
%ADD11C,0.127000*%
%ADD12C,0.200000*%
%ADD13C,0.152400*%
%ADD14C,0.120000*%
%ADD15C,0.150000*%
%ADD16C,0.180000*%
G04 APERTURE END LIST*
D10*
X-3500000Y-12250000D02*
X-2500000Y-11250000D01*
X-3500000Y-18250000D02*
X-3500000Y-12250000D01*
X3500000Y-18250000D02*
X-3500000Y-18250000D01*
X3500000Y-11250000D02*
X3500000Y-18250000D01*
X-2500000Y-11250000D02*
X3500000Y-11250000D01*
D11*
X-17600000Y22650000D02*
X-17600000Y19650000D01*
X-17600000Y19650000D02*
X12400000Y19650000D01*
X12400000Y19650000D02*
X12400000Y22650000D01*
X12400000Y22650000D02*
X-17600000Y22650000D01*
D12*
X-17000000Y19050000D02*
G75*
G03*
X-17000000Y19050000I-100000J0D01*
G01*
D10*
X12135355Y-22026066D02*
X12135355Y-21026066D01*
X12635355Y-22026066D02*
X12135355Y-22026066D01*
X12635355Y-21026066D02*
X12635355Y-22026066D01*
X12135355Y-21026066D02*
X12635355Y-21026066D01*
X13085355Y-21026066D02*
X13585355Y-21026066D01*
X13585355Y-21026066D02*
X13585355Y-22026066D01*
X13585355Y-22026066D02*
X13085355Y-22026066D01*
X13085355Y-22026066D02*
X13085355Y-21026066D01*
X13900000Y-15650000D02*
X17100000Y-15650000D01*
X13900000Y-17250000D02*
X13900000Y-15650000D01*
X17100000Y-17250000D02*
X13900000Y-17250000D01*
X17100000Y-15650000D02*
X17100000Y-17250000D01*
X17100000Y-17900000D02*
X17100000Y-19500000D01*
X17100000Y-19500000D02*
X13900000Y-19500000D01*
X13900000Y-19500000D02*
X13900000Y-17900000D01*
X13900000Y-17900000D02*
X17100000Y-17900000D01*
X13450000Y-8450000D02*
X13450000Y-11650000D01*
X11850000Y-8450000D02*
X13450000Y-8450000D01*
X11850000Y-11650000D02*
X11850000Y-8450000D01*
X13450000Y-11650000D02*
X11850000Y-11650000D01*
X-4580000Y-380000D02*
X-5080000Y-380000D01*
X-5080000Y-380000D02*
X-5080000Y620000D01*
X-5080000Y620000D02*
X-4580000Y620000D01*
X-4580000Y620000D02*
X-4580000Y-380000D01*
X6200000Y-21580000D02*
X6200000Y-22580000D01*
X5700000Y-21580000D02*
X6200000Y-21580000D01*
X5700000Y-22580000D02*
X5700000Y-21580000D01*
X6200000Y-22580000D02*
X5700000Y-22580000D01*
X6200000Y-20750000D02*
X5700000Y-20750000D01*
X5700000Y-20750000D02*
X5700000Y-19750000D01*
X5700000Y-19750000D02*
X6200000Y-19750000D01*
X6200000Y-19750000D02*
X6200000Y-20750000D01*
X7600000Y-20700000D02*
X7600000Y-22300000D01*
X6800000Y-20700000D02*
X7600000Y-20700000D01*
X6800000Y-22300000D02*
X6800000Y-20700000D01*
X7600000Y-22300000D02*
X6800000Y-22300000D01*
X-2050000Y-19250000D02*
X-2050000Y-19750000D01*
X-2050000Y-19750000D02*
X-3050000Y-19750000D01*
X-3050000Y-19750000D02*
X-3050000Y-19250000D01*
X-3050000Y-19250000D02*
X-2050000Y-19250000D01*
X6750000Y-8720000D02*
X7250000Y-8720000D01*
X7250000Y-8720000D02*
X7250000Y-9720000D01*
X7250000Y-9720000D02*
X6750000Y-9720000D01*
X6750000Y-9720000D02*
X6750000Y-8720000D01*
X-8180000Y-16500000D02*
X-9180000Y-16500000D01*
X-8180000Y-16000000D02*
X-8180000Y-16500000D01*
X-9180000Y-16000000D02*
X-8180000Y-16000000D01*
X-9180000Y-16500000D02*
X-9180000Y-16000000D01*
X-4820000Y1310000D02*
X-5820000Y1310000D01*
X-4820000Y1810000D02*
X-4820000Y1310000D01*
X-5820000Y1810000D02*
X-4820000Y1810000D01*
X-5820000Y1310000D02*
X-5820000Y1810000D01*
X-1905000Y3950000D02*
X-905000Y3950000D01*
X-1905000Y3450000D02*
X-1905000Y3950000D01*
X-905000Y3450000D02*
X-1905000Y3450000D01*
X-905000Y3950000D02*
X-905000Y3450000D01*
X-9900000Y5700000D02*
X-9900000Y5200000D01*
X-9900000Y5200000D02*
X-10900000Y5200000D01*
X-10900000Y5200000D02*
X-10900000Y5700000D01*
X-10900000Y5700000D02*
X-9900000Y5700000D01*
X-4595000Y3950000D02*
X-4595000Y3450000D01*
X-4595000Y3450000D02*
X-5595000Y3450000D01*
X-5595000Y3450000D02*
X-5595000Y3950000D01*
X-5595000Y3950000D02*
X-4595000Y3950000D01*
X-8390000Y8550000D02*
X-9390000Y8550000D01*
X-8390000Y9050000D02*
X-8390000Y8550000D01*
X-9390000Y9050000D02*
X-8390000Y9050000D01*
X-9390000Y8550000D02*
X-9390000Y9050000D01*
X-2775000Y2975001D02*
X-2775000Y2475001D01*
X-2775000Y2475001D02*
X-3775000Y2475001D01*
X-3775000Y2475001D02*
X-3775000Y2975001D01*
X-3775000Y2975001D02*
X-2775000Y2975001D01*
X-6200000Y-1900000D02*
X-7200000Y-1900000D01*
X-6200000Y-1400000D02*
X-6200000Y-1900000D01*
X-7200000Y-1400000D02*
X-6200000Y-1400000D01*
X-7200000Y-1900000D02*
X-7200000Y-1400000D01*
X-5605000Y2500000D02*
X-5605000Y3000000D01*
X-5605000Y3000000D02*
X-4605000Y3000000D01*
X-4605000Y3000000D02*
X-4605000Y2500000D01*
X-4605000Y2500000D02*
X-5605000Y2500000D01*
X-6180000Y-2830000D02*
X-7180000Y-2830000D01*
X-6180000Y-2330000D02*
X-6180000Y-2830000D01*
X-7180000Y-2330000D02*
X-6180000Y-2330000D01*
X-7180000Y-2830000D02*
X-7180000Y-2330000D01*
X-5450000Y-5720000D02*
X-5450000Y-5220000D01*
X-5450000Y-5220000D02*
X-4450000Y-5220000D01*
X-4450000Y-5220000D02*
X-4450000Y-5720000D01*
X-4450000Y-5720000D02*
X-5450000Y-5720000D01*
X-10895000Y4750000D02*
X-9895000Y4750000D01*
X-10895000Y4250000D02*
X-10895000Y4750000D01*
X-9895000Y4250000D02*
X-10895000Y4250000D01*
X-9895000Y4750000D02*
X-9895000Y4250000D01*
X-11550000Y3550000D02*
X-12050000Y3550000D01*
X-12050000Y3550000D02*
X-12050000Y4550000D01*
X-12050000Y4550000D02*
X-11550000Y4550000D01*
X-11550000Y4550000D02*
X-11550000Y3550000D01*
X-945000Y1130000D02*
X-945000Y630000D01*
X-945000Y630000D02*
X-1945000Y630000D01*
X-1945000Y630000D02*
X-1945000Y1130000D01*
X-1945000Y1130000D02*
X-945000Y1130000D01*
X-1950000Y225000D02*
X-950000Y225000D01*
X-1950000Y-275000D02*
X-1950000Y225000D01*
X-950000Y-275000D02*
X-1950000Y-275000D01*
X-950000Y225000D02*
X-950000Y-275000D01*
X-945000Y2050000D02*
X-945000Y1550000D01*
X-945000Y1550000D02*
X-1945000Y1550000D01*
X-1945000Y1550000D02*
X-1945000Y2050000D01*
X-1945000Y2050000D02*
X-945000Y2050000D01*
X-975000Y5275000D02*
X-975000Y4775000D01*
X-975000Y4775000D02*
X-1975000Y4775000D01*
X-1975000Y4775000D02*
X-1975000Y5275000D01*
X-1975000Y5275000D02*
X-975000Y5275000D01*
X-2855000Y5750000D02*
X-3855000Y5750000D01*
X-2855000Y6250000D02*
X-2855000Y5750000D01*
X-3855000Y6250000D02*
X-2855000Y6250000D01*
X-3855000Y5750000D02*
X-3855000Y6250000D01*
X-9230000Y-14000000D02*
X-8230000Y-14000000D01*
X-9230000Y-14500000D02*
X-9230000Y-14000000D01*
X-8230000Y-14500000D02*
X-9230000Y-14500000D01*
X-8230000Y-14000000D02*
X-8230000Y-14500000D01*
X11050000Y-4350000D02*
X11550000Y-4350000D01*
X11550000Y-4350000D02*
X11550000Y-5350000D01*
X11550000Y-5350000D02*
X11050000Y-5350000D01*
X11050000Y-5350000D02*
X11050000Y-4350000D01*
X-16161000Y-22096000D02*
X-16661000Y-22096000D01*
X-16661000Y-22096000D02*
X-16661000Y-21096000D01*
X-16661000Y-21096000D02*
X-16161000Y-21096000D01*
X-16161000Y-21096000D02*
X-16161000Y-22096000D01*
X-14240000Y-22077000D02*
X-14740000Y-22077000D01*
X-14740000Y-22077000D02*
X-14740000Y-21077000D01*
X-14740000Y-21077000D02*
X-14240000Y-21077000D01*
X-14240000Y-21077000D02*
X-14240000Y-22077000D01*
X-15211000Y-21076000D02*
X-15211000Y-22076000D01*
X-15711000Y-21076000D02*
X-15211000Y-21076000D01*
X-15711000Y-22076000D02*
X-15711000Y-21076000D01*
X-15211000Y-22076000D02*
X-15711000Y-22076000D01*
X-8820000Y-19650000D02*
X-8820000Y-20150000D01*
X-8820000Y-20150000D02*
X-9820000Y-20150000D01*
X-9820000Y-20150000D02*
X-9820000Y-19650000D01*
X-9820000Y-19650000D02*
X-8820000Y-19650000D01*
X-5670000Y6250000D02*
X-4670000Y6250000D01*
X-5670000Y5750000D02*
X-5670000Y6250000D01*
X-4670000Y5750000D02*
X-5670000Y5750000D01*
X-4670000Y6250000D02*
X-4670000Y5750000D01*
X-4675000Y5275000D02*
X-4675000Y4775000D01*
X-4675000Y4775000D02*
X-5675000Y4775000D01*
X-5675000Y4775000D02*
X-5675000Y5275000D01*
X-5675000Y5275000D02*
X-4675000Y5275000D01*
X-1537634Y-7284081D02*
X-1184081Y-7637634D01*
X-1184081Y-7637634D02*
X-1891188Y-8344741D01*
X-1891188Y-8344741D02*
X-2244741Y-7991188D01*
X-2244741Y-7991188D02*
X-1537634Y-7284081D01*
X-2654289Y632868D02*
X-2654289Y-367132D01*
X-3154289Y632868D02*
X-2654289Y632868D01*
X-3154289Y-367132D02*
X-3154289Y632868D01*
X-2654289Y-367132D02*
X-3154289Y-367132D01*
X-3604289Y637867D02*
X-3604289Y-362133D01*
X-4104289Y637867D02*
X-3604289Y637867D01*
X-4104289Y-362133D02*
X-4104289Y637867D01*
X-3604289Y-362133D02*
X-4104289Y-362133D01*
X2998959Y2415406D02*
X2498959Y2415406D01*
X2498959Y2415406D02*
X2498959Y3415406D01*
X2498959Y3415406D02*
X2998959Y3415406D01*
X2998959Y3415406D02*
X2998959Y2415406D01*
X2990000Y6310000D02*
X2990000Y5310000D01*
X2490000Y6310000D02*
X2990000Y6310000D01*
X2490000Y5310000D02*
X2490000Y6310000D01*
X2990000Y5310000D02*
X2490000Y5310000D01*
X8381827Y6907917D02*
X7381827Y6907917D01*
X8381827Y7407917D02*
X8381827Y6907917D01*
X7381827Y7407917D02*
X8381827Y7407917D01*
X7381827Y6907917D02*
X7381827Y7407917D01*
X4710330Y1636777D02*
X4003223Y929670D01*
X4356777Y1990330D02*
X4710330Y1636777D01*
X3649670Y1283223D02*
X4356777Y1990330D01*
X4003223Y929670D02*
X3649670Y1283223D01*
X2743934Y4135355D02*
X2743934Y4635355D01*
X2743934Y4635355D02*
X3743934Y4635355D01*
X3743934Y4635355D02*
X3743934Y4135355D01*
X3743934Y4135355D02*
X2743934Y4135355D01*
X4582340Y118736D02*
X4228787Y472289D01*
X4228787Y472289D02*
X4935894Y1179396D01*
X4935894Y1179396D02*
X5289447Y825843D01*
X5289447Y825843D02*
X4582340Y118736D01*
X6597594Y2133991D02*
X5890487Y1426884D01*
X6244041Y2487544D02*
X6597594Y2133991D01*
X5536934Y1780437D02*
X6244041Y2487544D01*
X5890487Y1426884D02*
X5536934Y1780437D01*
X-7590000Y8040000D02*
X-6590000Y8040000D01*
X-7590000Y7540000D02*
X-7590000Y8040000D01*
X-6590000Y7540000D02*
X-7590000Y7540000D01*
X-6590000Y8040000D02*
X-6590000Y7540000D01*
X7230000Y3590000D02*
X7230000Y4590000D01*
X7730000Y3590000D02*
X7230000Y3590000D01*
X7730000Y4590000D02*
X7730000Y3590000D01*
X7230000Y4590000D02*
X7730000Y4590000D01*
X-5240919Y-7262366D02*
X-4533812Y-6555259D01*
X-4887366Y-7615919D02*
X-5240919Y-7262366D01*
X-4180259Y-6908812D02*
X-4887366Y-7615919D01*
X-4533812Y-6555259D02*
X-4180259Y-6908812D01*
X6636485Y-564124D02*
X5929378Y-1271231D01*
X6282932Y-210571D02*
X6636485Y-564124D01*
X5575825Y-917678D02*
X6282932Y-210571D01*
X5929378Y-1271231D02*
X5575825Y-917678D01*
X7272881Y1465775D02*
X6565774Y758668D01*
X6919328Y1819328D02*
X7272881Y1465775D01*
X6212221Y1112221D02*
X6919328Y1819328D01*
X6565774Y758668D02*
X6212221Y1112221D01*
X-11350000Y1600000D02*
X-11850000Y1600000D01*
X-11850000Y1600000D02*
X-11850000Y2600000D01*
X-11850000Y2600000D02*
X-11350000Y2600000D01*
X-11350000Y2600000D02*
X-11350000Y1600000D01*
X-10350000Y2600000D02*
X-10350000Y1600000D01*
X-10850000Y2600000D02*
X-10350000Y2600000D01*
X-10850000Y1600000D02*
X-10850000Y2600000D01*
X-10350000Y1600000D02*
X-10850000Y1600000D01*
X1300000Y9770000D02*
X1300000Y9270000D01*
X1300000Y9270000D02*
X300000Y9270000D01*
X300000Y9270000D02*
X300000Y9770000D01*
X300000Y9770000D02*
X1300000Y9770000D01*
X8923223Y-1780330D02*
X8569670Y-1426777D01*
X8569670Y-1426777D02*
X9276777Y-719670D01*
X9276777Y-719670D02*
X9630330Y-1073223D01*
X9630330Y-1073223D02*
X8923223Y-1780330D01*
X9650000Y2700000D02*
X9650000Y1700000D01*
X9150000Y2700000D02*
X9650000Y2700000D01*
X9150000Y1700000D02*
X9150000Y2700000D01*
X9650000Y1700000D02*
X9150000Y1700000D01*
X6576777Y-3726777D02*
X5869670Y-3019670D01*
X6930330Y-3373224D02*
X6576777Y-3726777D01*
X6223223Y-2666117D02*
X6930330Y-3373224D01*
X5869670Y-3019670D02*
X6223223Y-2666117D01*
X7876777Y-2019670D02*
X8230330Y-2373223D01*
X8230330Y-2373223D02*
X7523223Y-3080330D01*
X7523223Y-3080330D02*
X7169670Y-2726777D01*
X7169670Y-2726777D02*
X7876777Y-2019670D01*
X10350000Y550000D02*
X9350000Y550000D01*
X10350000Y1050000D02*
X10350000Y550000D01*
X9350000Y1050000D02*
X10350000Y1050000D01*
X9350000Y550000D02*
X9350000Y1050000D01*
X-12350000Y1600000D02*
X-12850000Y1600000D01*
X-12850000Y1600000D02*
X-12850000Y2600000D01*
X-12850000Y2600000D02*
X-12350000Y2600000D01*
X-12350000Y2600000D02*
X-12350000Y1600000D01*
X-13350000Y2600000D02*
X-13350000Y1600000D01*
X-13850000Y2600000D02*
X-13350000Y2600000D01*
X-13850000Y1600000D02*
X-13850000Y2600000D01*
X-13350000Y1600000D02*
X-13850000Y1600000D01*
X4000000Y-19650000D02*
X3000000Y-19650000D01*
X4000000Y-19150000D02*
X4000000Y-19650000D01*
X3000000Y-19150000D02*
X4000000Y-19150000D01*
X3000000Y-19650000D02*
X3000000Y-19150000D01*
X-3000000Y-9800000D02*
X-3000000Y-10300000D01*
X-3000000Y-10300000D02*
X-4000000Y-10300000D01*
X-4000000Y-10300000D02*
X-4000000Y-9800000D01*
X-4000000Y-9800000D02*
X-3000000Y-9800000D01*
X-4450000Y-11900000D02*
X-4950000Y-11900000D01*
X-4950000Y-11900000D02*
X-4950000Y-10900000D01*
X-4950000Y-10900000D02*
X-4450000Y-10900000D01*
X-4450000Y-10900000D02*
X-4450000Y-11900000D01*
X-5969998Y-16050000D02*
X-4969998Y-16050000D01*
X-5969998Y-16550000D02*
X-5969998Y-16050000D01*
X-4969998Y-16550000D02*
X-5969998Y-16550000D01*
X-4969998Y-16050000D02*
X-4969998Y-16550000D01*
X-5969998Y-15150000D02*
X-4969998Y-15150000D01*
X-5969998Y-15650000D02*
X-5969998Y-15150000D01*
X-4969998Y-15650000D02*
X-5969998Y-15650000D01*
X-4969998Y-15150000D02*
X-4969998Y-15650000D01*
X-13050000Y-13580000D02*
X-13550000Y-13580000D01*
X-13550000Y-13580000D02*
X-13550000Y-12580000D01*
X-13550000Y-12580000D02*
X-13050000Y-12580000D01*
X-13050000Y-12580000D02*
X-13050000Y-13580000D01*
X-9450000Y-10400000D02*
X-8950000Y-10400000D01*
X-8950000Y-10400000D02*
X-8950000Y-11400000D01*
X-8950000Y-11400000D02*
X-9450000Y-11400000D01*
X-9450000Y-11400000D02*
X-9450000Y-10400000D01*
X-8950000Y-13300000D02*
X-9450000Y-13300000D01*
X-9450000Y-13300000D02*
X-9450000Y-12300000D01*
X-9450000Y-12300000D02*
X-8950000Y-12300000D01*
X-8950000Y-12300000D02*
X-8950000Y-13300000D01*
X12050000Y-7000000D02*
X12050000Y-5200000D01*
X12050000Y-5200000D02*
X13450000Y-5200000D01*
X13450000Y-5200000D02*
X13450000Y-7000000D01*
X13450000Y-7000000D02*
X12050000Y-7000000D01*
X12400000Y-6400000D02*
X13100000Y-6400000D01*
X12750000Y-6400000D02*
X12750000Y-6600000D01*
X12750000Y-6400000D02*
X12400000Y-5900000D01*
X12400000Y-5900000D02*
X13100000Y-5900000D01*
X13100000Y-5900000D02*
X12750000Y-6400000D01*
X12750000Y-5900000D02*
X12750000Y-5650000D01*
X1000000Y-20550000D02*
X-1000000Y-20550000D01*
X1000000Y-22550000D02*
X1000000Y-20550000D01*
X-1000000Y-22550000D02*
X1000000Y-22550000D01*
X-1000000Y-20550000D02*
X-1000000Y-22550000D01*
X0Y-20550000D02*
X-1000000Y-21550000D01*
X800000Y-21550000D02*
G75*
G03*
X800000Y-21550000I-800000J0D01*
G01*
X16900000Y-15050000D02*
X13700000Y-15050000D01*
X16900000Y-12550000D02*
X16900000Y-15050000D01*
X13700000Y-12550000D02*
X16900000Y-12550000D01*
X13700000Y-15050000D02*
X13700000Y-12550000D01*
X-6837500Y-13800000D02*
X-5237500Y-13800000D01*
X-6837500Y-14600000D02*
X-6837500Y-13800000D01*
X-5237500Y-14600000D02*
X-6837500Y-14600000D01*
X-5237500Y-13800000D02*
X-5237500Y-14600000D01*
X-14350000Y-11710000D02*
X-14875000Y-12235000D01*
X-14350000Y-9695000D02*
X-14350000Y-11710000D01*
X-16450000Y-9695000D02*
X-14350000Y-9695000D01*
X-16450000Y-12235000D02*
X-16450000Y-9695000D01*
X-14875000Y-12235000D02*
X-16450000Y-12235000D01*
X8050000Y-15050000D02*
X12050000Y-15050000D01*
X12050000Y-15050000D02*
X12050000Y-19050000D01*
X12050000Y-19050000D02*
X8050000Y-19050000D01*
X8050000Y-19050000D02*
X8050000Y-15050000D01*
X-5530000Y620000D02*
X-5530000Y-380000D01*
X-6030000Y620000D02*
X-5530000Y620000D01*
X-6030000Y-380000D02*
X-6030000Y620000D01*
X-5530000Y-380000D02*
X-6030000Y-380000D01*
X-925000Y2975000D02*
X-925000Y2475000D01*
X-925000Y2475000D02*
X-1925000Y2475000D01*
X-1925000Y2475000D02*
X-1925000Y2975000D01*
X-1925000Y2975000D02*
X-925000Y2975000D01*
X-3765000Y3950001D02*
X-2765000Y3950001D01*
X-3765000Y3450001D02*
X-3765000Y3950001D01*
X-2765000Y3450001D02*
X-3765000Y3450001D01*
X-2765000Y3950001D02*
X-2765000Y3450001D01*
X-300000Y3714999D02*
X200000Y3714999D01*
X200000Y3714999D02*
X200000Y2714999D01*
X200000Y2714999D02*
X-300000Y2714999D01*
X-300000Y2714999D02*
X-300000Y3714999D01*
X-11550000Y6400000D02*
X-11550000Y5400000D01*
X-12050000Y6400000D02*
X-11550000Y6400000D01*
X-12050000Y5400000D02*
X-12050000Y6400000D01*
X-11550000Y5400000D02*
X-12050000Y5400000D01*
X-325000Y4975000D02*
X-325000Y5975000D01*
X175000Y4975000D02*
X-325000Y4975000D01*
X175000Y5975000D02*
X175000Y4975000D01*
X-325000Y5975000D02*
X175000Y5975000D01*
X-10900000Y3300000D02*
X-10900000Y3800000D01*
X-10900000Y3800000D02*
X-9900000Y3800000D01*
X-9900000Y3800000D02*
X-9900000Y3300000D01*
X-9900000Y3300000D02*
X-10900000Y3300000D01*
X-990000Y6250000D02*
X-990000Y5750000D01*
X-990000Y5750000D02*
X-1990000Y5750000D01*
X-1990000Y5750000D02*
X-1990000Y6250000D01*
X-1990000Y6250000D02*
X-990000Y6250000D01*
X-2840000Y5275000D02*
X-2840000Y4775000D01*
X-2840000Y4775000D02*
X-3840000Y4775000D01*
X-3840000Y4775000D02*
X-3840000Y5275000D01*
X-3840000Y5275000D02*
X-2840000Y5275000D01*
X2169670Y876777D02*
X2523223Y1230330D01*
X2523223Y1230330D02*
X3230330Y523223D01*
X3230330Y523223D02*
X2876777Y169670D01*
X2876777Y169670D02*
X2169670Y876777D01*
X3953553Y3435786D02*
X3953553Y2435786D01*
X3453553Y3435786D02*
X3953553Y3435786D01*
X3453553Y2435786D02*
X3453553Y3435786D01*
X3953553Y2435786D02*
X3453553Y2435786D01*
X6740000Y4580000D02*
X6740000Y3580000D01*
X6240000Y4580000D02*
X6740000Y4580000D01*
X6240000Y3580000D02*
X6240000Y4580000D01*
X6740000Y3580000D02*
X6240000Y3580000D01*
X4260607Y-1214160D02*
X3553500Y-507053D01*
X4614160Y-860607D02*
X4260607Y-1214160D01*
X3907053Y-153500D02*
X4614160Y-860607D01*
X3553500Y-507053D02*
X3907053Y-153500D01*
X-5390000Y8790000D02*
X-5390000Y7790000D01*
X-5890000Y8790000D02*
X-5390000Y8790000D01*
X-5890000Y7790000D02*
X-5890000Y8790000D01*
X-5390000Y7790000D02*
X-5890000Y7790000D01*
X5957663Y150556D02*
X5250556Y-556551D01*
X5604110Y504109D02*
X5957663Y150556D01*
X4897003Y-202998D02*
X5604110Y504109D01*
X5250556Y-556551D02*
X4897003Y-202998D01*
X-830000Y8550000D02*
X-830000Y9550000D01*
X-330000Y8550000D02*
X-830000Y8550000D01*
X-330000Y9550000D02*
X-330000Y8550000D01*
X-830000Y9550000D02*
X-330000Y9550000D01*
X6873223Y-2430330D02*
X6519670Y-2076777D01*
X6519670Y-2076777D02*
X7226777Y-1369670D01*
X7226777Y-1369670D02*
X7580330Y-1723223D01*
X7580330Y-1723223D02*
X6873223Y-2430330D01*
X8223223Y-1080330D02*
X7869670Y-726777D01*
X7869670Y-726777D02*
X8576777Y-19670D01*
X8576777Y-19670D02*
X8930330Y-373223D01*
X8930330Y-373223D02*
X8223223Y-1080330D01*
X-13000000Y4550000D02*
X-12500000Y4550000D01*
X-12500000Y4550000D02*
X-12500000Y3550000D01*
X-12500000Y3550000D02*
X-13000000Y3550000D01*
X-13000000Y3550000D02*
X-13000000Y4550000D01*
X-2349695Y-7236091D02*
X-3763909Y-8650305D01*
X-2986091Y-6599695D02*
X-2349695Y-7236091D01*
X-4400305Y-8013909D02*
X-2986091Y-6599695D01*
X-3763909Y-8650305D02*
X-4400305Y-8013909D01*
X17120000Y-11300000D02*
X17120000Y-9900000D01*
X14080000Y-9900000D02*
X17120000Y-9900000D01*
X14650000Y-11300000D02*
X14080000Y-10750000D01*
X14080000Y-10750000D02*
X14080000Y-9900000D01*
X14650000Y-11300000D02*
X17100000Y-11300000D01*
X-5365000Y-1360000D02*
X-4315000Y-1360000D01*
X-5365000Y-1900000D02*
X-5365000Y-1360000D01*
X-4315000Y-1900000D02*
X-5365000Y-1900000D01*
X-4315000Y-1360000D02*
X-4315000Y-1900000D01*
X5220000Y-16575000D02*
X4680000Y-16575000D01*
X4680000Y-16575000D02*
X4680000Y-15525000D01*
X4680000Y-15525000D02*
X5220000Y-15525000D01*
X5220000Y-15525000D02*
X5220000Y-16575000D01*
X6730000Y-11625000D02*
X6730000Y-10575000D01*
X7270000Y-11625000D02*
X6730000Y-11625000D01*
X7270000Y-10575000D02*
X7270000Y-11625000D01*
X6730000Y-10575000D02*
X7270000Y-10575000D01*
X-9225000Y-14980000D02*
X-8175000Y-14980000D01*
X-9225000Y-15520000D02*
X-9225000Y-14980000D01*
X-8175000Y-15520000D02*
X-9225000Y-15520000D01*
X-8175000Y-14980000D02*
X-8175000Y-15520000D01*
X-844688Y-7912850D02*
X-462850Y-8294688D01*
X-462850Y-8294688D02*
X-1205312Y-9037150D01*
X-1205312Y-9037150D02*
X-1587150Y-8655312D01*
X-1587150Y-8655312D02*
X-844688Y-7912850D01*
X-3445000Y-21810000D02*
X-3445000Y-20760000D01*
X-2905000Y-21810000D02*
X-3445000Y-21810000D01*
X-2905000Y-20760000D02*
X-2905000Y-21810000D01*
X-3445000Y-20760000D02*
X-2905000Y-20760000D01*
X-2470000Y-20760000D02*
X-1930000Y-20760000D01*
X-1930000Y-20760000D02*
X-1930000Y-21810000D01*
X-1930000Y-21810000D02*
X-2470000Y-21810000D01*
X-2470000Y-21810000D02*
X-2470000Y-20760000D01*
X1979999Y-20565001D02*
X2519999Y-20565001D01*
X2519999Y-20565001D02*
X2519999Y-21615001D01*
X2519999Y-21615001D02*
X1979999Y-21615001D01*
X1979999Y-21615001D02*
X1979999Y-20565001D01*
X9860000Y-4305000D02*
X10400000Y-4305000D01*
X10400000Y-4305000D02*
X10400000Y-5355000D01*
X10400000Y-5355000D02*
X9860000Y-5355000D01*
X9860000Y-5355000D02*
X9860000Y-4305000D01*
X8850000Y-4305000D02*
X9390000Y-4305000D01*
X9390000Y-4305000D02*
X9390000Y-5355000D01*
X9390000Y-5355000D02*
X8850000Y-5355000D01*
X8850000Y-5355000D02*
X8850000Y-4305000D01*
X7920000Y-4295000D02*
X8460000Y-4295000D01*
X8460000Y-4295000D02*
X8460000Y-5345000D01*
X8460000Y-5345000D02*
X7920000Y-5345000D01*
X7920000Y-5345000D02*
X7920000Y-4295000D01*
X-12125000Y-19070000D02*
X-13175000Y-19070000D01*
X-12125000Y-18530000D02*
X-12125000Y-19070000D01*
X-13175000Y-18530000D02*
X-12125000Y-18530000D01*
X-13175000Y-19070000D02*
X-13175000Y-18530000D01*
X-13125000Y-17580000D02*
X-12075000Y-17580000D01*
X-13125000Y-18120000D02*
X-13125000Y-17580000D01*
X-12075000Y-18120000D02*
X-13125000Y-18120000D01*
X-12075000Y-17580000D02*
X-12075000Y-18120000D01*
X-10925000Y-8830000D02*
X-9875000Y-8830000D01*
X-10925000Y-9370000D02*
X-10925000Y-8830000D01*
X-9875000Y-9370000D02*
X-10925000Y-9370000D01*
X-9875000Y-8830000D02*
X-9875000Y-9370000D01*
X-13125000Y-8830000D02*
X-12075000Y-8830000D01*
X-13125000Y-9370000D02*
X-13125000Y-8830000D01*
X-12075000Y-9370000D02*
X-13125000Y-9370000D01*
X-12075000Y-8830000D02*
X-12075000Y-9370000D01*
X-14875000Y19295000D02*
X-13825000Y19295000D01*
X-14875000Y18755000D02*
X-14875000Y19295000D01*
X-13825000Y18755000D02*
X-14875000Y18755000D01*
X-13825000Y19295000D02*
X-13825000Y18755000D01*
X8626000Y19241000D02*
X9676000Y19241000D01*
X8626000Y18701000D02*
X8626000Y19241000D01*
X9676000Y18701000D02*
X8626000Y18701000D01*
X9676000Y19241000D02*
X9676000Y18701000D01*
X-4745000Y7540000D02*
X-4745000Y8080000D01*
X-4745000Y8080000D02*
X-3695000Y8080000D01*
X-3695000Y8080000D02*
X-3695000Y7540000D01*
X-3695000Y7540000D02*
X-4745000Y7540000D01*
X-13825001Y18020000D02*
X-13825001Y17480000D01*
X-13825001Y17480000D02*
X-14875001Y17480000D01*
X-14875001Y17480000D02*
X-14875001Y18020000D01*
X-14875001Y18020000D02*
X-13825001Y18020000D01*
X9675000Y18010000D02*
X9675000Y17470000D01*
X9675000Y17470000D02*
X8625000Y17470000D01*
X8625000Y17470000D02*
X8625000Y18010000D01*
X8625000Y18010000D02*
X9675000Y18010000D01*
X-10870000Y415000D02*
X-10330000Y415000D01*
X-10330000Y415000D02*
X-10330000Y-635000D01*
X-10330000Y-635000D02*
X-10870000Y-635000D01*
X-10870000Y-635000D02*
X-10870000Y415000D01*
X-11870000Y-635000D02*
X-11870000Y415000D01*
X-11330000Y-635000D02*
X-11870000Y-635000D01*
X-11330000Y415000D02*
X-11330000Y-635000D01*
X-11870000Y415000D02*
X-11330000Y415000D01*
X-1465000Y9240000D02*
X-2515000Y9240000D01*
X-1465000Y9780000D02*
X-1465000Y9240000D01*
X-2515000Y9780000D02*
X-1465000Y9780000D01*
X-2515000Y9240000D02*
X-2515000Y9780000D01*
X-13870000Y425000D02*
X-13330000Y425000D01*
X-13330000Y425000D02*
X-13330000Y-625000D01*
X-13330000Y-625000D02*
X-13870000Y-625000D01*
X-13870000Y-625000D02*
X-13870000Y425000D01*
X-12870000Y-635000D02*
X-12870000Y415000D01*
X-12330000Y-635000D02*
X-12870000Y-635000D01*
X-12330000Y415000D02*
X-12330000Y-635000D01*
X-12870000Y415000D02*
X-12330000Y415000D01*
X-13570000Y-10665001D02*
X-13030000Y-10665001D01*
X-13030000Y-10665001D02*
X-13030000Y-11715001D01*
X-13030000Y-11715001D02*
X-13570000Y-11715001D01*
X-13570000Y-11715001D02*
X-13570000Y-10665001D01*
X-14600000Y-15100000D02*
G75*
G03*
X-14600000Y-15100000I-900000J0D01*
G01*
X-14000000Y-16800000D02*
X-17000000Y-16800000D01*
X-14000000Y-13400000D02*
X-14000000Y-16800000D01*
X-17000000Y-13400000D02*
X-14000000Y-13400000D01*
X-17000000Y-16800000D02*
X-17000000Y-13400000D01*
X11207500Y-21905500D02*
X8892500Y-21905500D01*
X11207500Y-20194500D02*
X8892500Y-20194500D01*
X11207500Y-20194500D02*
X11207500Y-21905500D01*
X8892500Y-20194500D02*
X8892500Y-21905500D01*
X16200000Y-22300000D02*
X16200000Y-19850000D01*
X15650000Y-22870000D02*
X14800000Y-22870000D01*
X16200000Y-22300000D02*
X15650000Y-22870000D01*
X14800000Y-22870000D02*
X14800000Y-19830000D01*
X16200000Y-19830000D02*
X14800000Y-19830000D01*
X10345001Y-8595001D02*
X10345001Y-11695001D01*
X10345001Y-11695001D02*
X8545001Y-11695001D01*
X8545001Y-9245001D02*
X8545001Y-11695001D01*
X10345001Y-8595001D02*
X9195001Y-8595001D01*
X8545001Y-9245001D02*
X9195001Y-8595001D01*
X-10750000Y-16750000D02*
X-11400000Y-17400000D01*
X-12550000Y-17400000D02*
X-11400000Y-17400000D01*
X-10750000Y-16750000D02*
X-10750000Y-14300000D01*
X-12550000Y-14300000D02*
X-10750000Y-14300000D01*
X-12550000Y-17400000D02*
X-12550000Y-14300000D01*
X-8700000Y3550000D02*
X-8950000Y3800000D01*
X-6950000Y3550000D02*
X-8700000Y3550000D01*
X-6950000Y5550000D02*
X-6950000Y3550000D01*
X-8950000Y5550000D02*
X-6950000Y5550000D01*
X-8950000Y3800000D02*
X-8950000Y5550000D01*
X-12200000Y7600000D02*
X-12200000Y9350000D01*
X-12200000Y9350000D02*
X-10200000Y9350000D01*
X-10200000Y9350000D02*
X-10200000Y7350000D01*
X-10200000Y7350000D02*
X-11950000Y7350000D01*
X-11950000Y7350000D02*
X-12200000Y7600000D01*
D13*
X6465328Y6313916D02*
X6465328Y5551916D01*
X6465328Y5551916D02*
X7608328Y5551916D01*
X7608328Y5551916D02*
X7608328Y6313916D01*
X7608328Y6313916D02*
X6465328Y6313916D01*
X7608328Y6237716D02*
G75*
G03*
X7608328Y5628116I0J-304800D01*
G01*
D10*
X-707107Y-871573D02*
X707107Y-871573D01*
X-3535534Y-3700000D02*
X-707107Y-871573D01*
X0Y-7235534D02*
X-3535534Y-3700000D01*
X3535534Y-3700000D02*
X0Y-7235534D01*
X707107Y-871573D02*
X3535534Y-3700000D01*
D14*
X7900000Y-6350000D02*
X8100000Y-6050000D01*
X10900000Y-6050000D02*
X8100000Y-6050000D01*
X10900000Y-8050000D02*
X10900000Y-6050000D01*
X7900000Y-8050000D02*
X10900000Y-8050000D01*
X7900000Y-6350000D02*
X7900000Y-8050000D01*
D15*
X-11300000Y-10450000D02*
X-10300000Y-11450000D01*
X-12300000Y-10450000D02*
X-11300000Y-10450000D01*
X-12300000Y-13450000D02*
X-12300000Y-10450000D01*
X-10300000Y-13450000D02*
X-12300000Y-13450000D01*
X-10300000Y-11450000D02*
X-10300000Y-13450000D01*
D10*
X-15100000Y-19950000D02*
X-16600000Y-19950000D01*
X-14600000Y-19450000D02*
X-15100000Y-19950000D01*
X-14600000Y-17950000D02*
X-14600000Y-19450000D01*
X-16600000Y-17950000D02*
X-14600000Y-17950000D01*
X-16600000Y-19950000D02*
X-16600000Y-17950000D01*
X-9800000Y-20650000D02*
X-8300000Y-20650000D01*
X-8300000Y-20650000D02*
X-8300000Y-22650000D01*
X-8300000Y-22650000D02*
X-10300000Y-22650000D01*
X-10300000Y-22650000D02*
X-10300000Y-21150000D01*
X-10300000Y-21150000D02*
X-9800000Y-20650000D01*
X-8770000Y1310000D02*
X-8770000Y-690000D01*
X-6770000Y1810000D02*
X-6770000Y-690000D01*
X-8270000Y1810000D02*
X-6770000Y1810000D01*
X-8770000Y-690000D02*
X-6770000Y-690000D01*
X-8270000Y1810000D02*
X-8770000Y1310000D01*
X-5430000Y-4565000D02*
X-4230000Y-4565000D01*
X-4230000Y-4565000D02*
X-4230000Y-2515000D01*
X-4230000Y-2515000D02*
X-5430000Y-2515000D01*
X-5430000Y-2515000D02*
X-5430000Y-4565000D01*
X-4730000Y-4540000D02*
X-4230000Y-4040000D01*
X-7800000Y-12950000D02*
X-7300000Y-12450000D01*
X-8500000Y-10925000D02*
X-8500000Y-12975000D01*
X-7300000Y-10925000D02*
X-8500000Y-10925000D01*
X-7300000Y-12975000D02*
X-7300000Y-10925000D01*
X-8500000Y-12975000D02*
X-7300000Y-12975000D01*
X4950000Y-10850000D02*
X4950000Y-11850000D01*
X4450000Y-10850000D02*
X4950000Y-10850000D01*
X4450000Y-11850000D02*
X4450000Y-10850000D01*
X4950000Y-11850000D02*
X4450000Y-11850000D01*
X-11170000Y-1980000D02*
X-10170000Y-1980000D01*
X-11170000Y-2480000D02*
X-11170000Y-1980000D01*
X-10170000Y-2480000D02*
X-11170000Y-2480000D01*
X-10170000Y-1980000D02*
X-10170000Y-2480000D01*
X-12730000Y-2210000D02*
X-12830000Y-2210000D01*
X-12730000Y-2410000D02*
X-12430000Y-2210000D01*
X-12730000Y-2010000D02*
X-12730000Y-2410000D01*
X-12430000Y-2210000D02*
X-12730000Y-2010000D01*
X-12430000Y-2210000D02*
X-12330000Y-2210000D01*
X-12430000Y-2010000D02*
X-12430000Y-2410000D01*
X-12980000Y-2510000D02*
X-12980000Y-1910000D01*
X-12180000Y-2510000D02*
X-12980000Y-2510000D01*
X-12180000Y-1910000D02*
X-12180000Y-2510000D01*
X-12980000Y-1910000D02*
X-12180000Y-1910000D01*
X-9175000Y-1940000D02*
X-8125000Y-1940000D01*
X-9175000Y-2480000D02*
X-9175000Y-1940000D01*
X-8125000Y-2480000D02*
X-9175000Y-2480000D01*
X-8125000Y-1940000D02*
X-8125000Y-2480000D01*
X-6970000Y-7870000D02*
X-6970000Y-7370000D01*
X-6970000Y-3670000D02*
X-6970000Y-4170000D01*
X-13370000Y-7870000D02*
X-13370000Y-7370000D01*
X-13370000Y-3670000D02*
X-13370000Y-4170000D01*
X-7470000Y-3670000D02*
X-7470000Y-4170000D01*
X-8470000Y-3670000D02*
X-6970000Y-3670000D01*
X-6970000Y-4170000D02*
X-7970000Y-4170000D01*
X-12870000Y-3670000D02*
X-12870000Y-4170000D01*
X-11870000Y-3670000D02*
X-13370000Y-3670000D01*
X-13370000Y-4170000D02*
X-12370000Y-4170000D01*
X-12870000Y-7870000D02*
X-12870000Y-7370000D01*
X-13370000Y-7370000D02*
X-12370000Y-7370000D01*
X-11870000Y-7870000D02*
X-13370000Y-7870000D01*
X-8470000Y-7870000D02*
X-6970000Y-7870000D01*
X-7470000Y-7870000D02*
X-7470000Y-7370000D01*
X-6970000Y-7370000D02*
X-7970000Y-7370000D01*
X-12170000Y-4770000D02*
X-11170000Y-3770000D01*
X-11170000Y-3770000D02*
X-9170000Y-3770000D01*
X-9170000Y-3770000D02*
X-8170000Y-4770000D01*
X-8170000Y-4770000D02*
X-8170000Y-6770000D01*
X-8170000Y-6770000D02*
X-9170000Y-7770000D01*
X-9170000Y-7770000D02*
X-11170000Y-7770000D01*
X-11170000Y-7770000D02*
X-12170000Y-6770000D01*
X-12170000Y-6770000D02*
X-12170000Y-4770000D01*
X-12770000Y-4570000D02*
X-12770000Y-6970000D01*
X-12770000Y-6970000D02*
X-11370000Y-8370000D01*
X-11370000Y-8370000D02*
X-8970000Y-8370000D01*
X-8970000Y-8370000D02*
X-7570000Y-6970000D01*
X-7570000Y-6970000D02*
X-7570000Y-4570000D01*
X-7570000Y-4570000D02*
X-8970000Y-3170000D01*
X-8970000Y-3170000D02*
X-11370000Y-3170000D01*
X-11370000Y-3170000D02*
X-12770000Y-4570000D01*
X-9170000Y-5770000D02*
G75*
G03*
X-9170000Y-5770000I-1000000J0D01*
G01*
D15*
X4422857Y-3571428D02*
X4765714Y-3571428D01*
X4594285Y-4171428D02*
X4594285Y-3571428D01*
X4965714Y-4171428D02*
X4965714Y-3571428D01*
X5194285Y-3571428D01*
X5251428Y-3600000D01*
X5280000Y-3628571D01*
X5308571Y-3685714D01*
X5308571Y-3771428D01*
X5280000Y-3828571D01*
X5251428Y-3857142D01*
X5194285Y-3885714D01*
X4965714Y-3885714D01*
X5508571Y-3571428D02*
X5908571Y-3571428D01*
X5651428Y-4171428D01*
D16*
D15*
X1372857Y-7571428D02*
X1715714Y-7571428D01*
X1544285Y-8171428D02*
X1544285Y-7571428D01*
X1915714Y-8171428D02*
X1915714Y-7571428D01*
X2144285Y-7571428D01*
X2201428Y-7600000D01*
X2230000Y-7628571D01*
X2258571Y-7685714D01*
X2258571Y-7771428D01*
X2230000Y-7828571D01*
X2201428Y-7857142D01*
X2144285Y-7885714D01*
X1915714Y-7885714D01*
X2544285Y-8171428D02*
X2658571Y-8171428D01*
X2715714Y-8142857D01*
X2744285Y-8114285D01*
X2801428Y-8028571D01*
X2830000Y-7914285D01*
X2830000Y-7685714D01*
X2801428Y-7628571D01*
X2772857Y-7600000D01*
X2715714Y-7571428D01*
X2601428Y-7571428D01*
X2544285Y-7600000D01*
X2515714Y-7628571D01*
X2487142Y-7685714D01*
X2487142Y-7828571D01*
X2515714Y-7885714D01*
X2544285Y-7914285D01*
X2601428Y-7942857D01*
X2715714Y-7942857D01*
X2772857Y-7914285D01*
X2801428Y-7885714D01*
X2830000Y-7828571D01*
D16*
M02*
