G04 #@! TF.GenerationSoftware,KiCad,Pcbnew,(5.1.8)-1*
G04 #@! TF.CreationDate,2021-01-12T15:50:27+01:00*
G04 #@! TF.ProjectId,pcb-LR1110,7063622d-4c52-4313-9131-302e6b696361,1.1*
G04 #@! TF.SameCoordinates,PX8f0d180PY5f5e100*
G04 #@! TF.FileFunction,Profile,NP*
%FSLAX46Y46*%
G04 Gerber Fmt 4.6, Leading zero omitted, Abs format (unit mm)*
G04 Created by KiCad (PCBNEW (5.1.8)-1) date 2021-01-12 15:50:27*
%MOMM*%
%LPD*%
G01*
G04 APERTURE LIST*
G04 #@! TA.AperFunction,Profile*
%ADD10C,0.050000*%
G04 #@! TD*
G04 APERTURE END LIST*
D10*
X-17750000Y-23000000D02*
G75*
G02*
X-18000000Y-22750000I0J250000D01*
G01*
X18000000Y-22750000D02*
G75*
G02*
X17750000Y-23000000I-250000J0D01*
G01*
X17750000Y23000000D02*
G75*
G02*
X18000000Y22750000I0J-250000D01*
G01*
X-18000000Y22750000D02*
G75*
G02*
X-17750000Y23000000I250000J0D01*
G01*
X-5750000Y-23000000D02*
G75*
G02*
X-6000000Y-22750000I0J250000D01*
G01*
X-12500000Y-22750000D02*
G75*
G02*
X-12750000Y-23000000I-250000J0D01*
G01*
X-12500000Y-19750000D02*
G75*
G02*
X-12250000Y-19500000I250000J0D01*
G01*
X-11250000Y-19500000D02*
G75*
G02*
X-11000000Y-19750000I0J-250000D01*
G01*
X-11000000Y-20000000D02*
G75*
G02*
X-11250000Y-20250000I-250000J0D01*
G01*
X-11500000Y-20500000D02*
G75*
G02*
X-11250000Y-20250000I250000J0D01*
G01*
X-6250000Y-19500000D02*
G75*
G02*
X-6000000Y-19750000I0J-250000D01*
G01*
X-7500000Y-19750000D02*
G75*
G02*
X-7250000Y-19500000I250000J0D01*
G01*
X-5750000Y-23000000D02*
X17750000Y-23000000D01*
X-6000000Y-19750000D02*
X-6000000Y-22750000D01*
X-7250000Y-19500000D02*
X-6250000Y-19500000D01*
X-12250000Y-19500000D02*
X-11250000Y-19500000D01*
X-12500000Y-20500000D02*
X-12500000Y-19750000D01*
X-12500000Y-22750000D02*
X-12500000Y-20500000D01*
X-11000000Y-20000000D02*
X-11000000Y-19750000D01*
X-7250000Y-20250000D02*
G75*
G02*
X-7500000Y-20000000I0J250000D01*
G01*
X-7250000Y-20250000D02*
G75*
G02*
X-7000000Y-20500000I0J-250000D01*
G01*
X-7000000Y-20500000D02*
X-7000000Y-22750000D01*
X-7500000Y-19750000D02*
X-7500000Y-20000000D01*
X-11500000Y-22750000D02*
X-11500000Y-20500000D01*
X-7000000Y-22750000D02*
G75*
G02*
X-7250000Y-23000000I-250000J0D01*
G01*
X-11250000Y-23000000D02*
G75*
G02*
X-11500000Y-22750000I0J250000D01*
G01*
X-11250000Y-23000000D02*
X-7250000Y-23000000D01*
X-17750000Y-23000000D02*
X-12750000Y-23000000D01*
X18000000Y-22750000D02*
X18000000Y22750000D01*
X-18000000Y22750000D02*
X-18000000Y-22750000D01*
X-17750000Y23000000D02*
X17750000Y23000000D01*
M02*
