G04 #@! TF.GenerationSoftware,KiCad,Pcbnew,(5.1.8)-1*
G04 #@! TF.CreationDate,2021-01-12T15:50:27+01:00*
G04 #@! TF.ProjectId,pcb-LR1110,7063622d-4c52-4313-9131-302e6b696361,1.1*
G04 #@! TF.SameCoordinates,PX8f0d180PY5f5e100*
G04 #@! TF.FileFunction,Other,Fab,Bot*
%FSLAX46Y46*%
G04 Gerber Fmt 4.6, Leading zero omitted, Abs format (unit mm)*
G04 Created by KiCad (PCBNEW (5.1.8)-1) date 2021-01-12 15:50:27*
%MOMM*%
%LPD*%
G01*
G04 APERTURE LIST*
%ADD10C,0.100000*%
%ADD11C,0.150000*%
%ADD12C,0.180000*%
G04 APERTURE END LIST*
D10*
X-16770000Y-8770000D02*
X-14865000Y-8770000D01*
X-14865000Y-8770000D02*
X-14230000Y-8135000D01*
X-14230000Y-8135000D02*
X-14230000Y9010000D01*
X-14230000Y9010000D02*
X-16770000Y9010000D01*
X-16770000Y9010000D02*
X-16770000Y-8770000D01*
X14230000Y8970000D02*
X14230000Y-8810000D01*
X16770000Y8970000D02*
X14230000Y8970000D01*
X16770000Y-8175000D02*
X16770000Y8970000D01*
X16135000Y-8810000D02*
X16770000Y-8175000D01*
X14230000Y-8810000D02*
X16135000Y-8810000D01*
D11*
X-3942858Y-3141428D02*
X-4285715Y-3141428D01*
X-4114286Y-3741428D02*
X-4114286Y-3141428D01*
X-4485715Y-3741428D02*
X-4485715Y-3141428D01*
X-4714286Y-3141428D01*
X-4771429Y-3170000D01*
X-4800000Y-3198571D01*
X-4828572Y-3255714D01*
X-4828572Y-3341428D01*
X-4800000Y-3398571D01*
X-4771429Y-3427142D01*
X-4714286Y-3455714D01*
X-4485715Y-3455714D01*
X-5342858Y-3141428D02*
X-5228572Y-3141428D01*
X-5171429Y-3170000D01*
X-5142858Y-3198571D01*
X-5085715Y-3284285D01*
X-5057143Y-3398571D01*
X-5057143Y-3627142D01*
X-5085715Y-3684285D01*
X-5114286Y-3712857D01*
X-5171429Y-3741428D01*
X-5285715Y-3741428D01*
X-5342858Y-3712857D01*
X-5371429Y-3684285D01*
X-5400000Y-3627142D01*
X-5400000Y-3484285D01*
X-5371429Y-3427142D01*
X-5342858Y-3398571D01*
X-5285715Y-3370000D01*
X-5171429Y-3370000D01*
X-5114286Y-3398571D01*
X-5085715Y-3427142D01*
X-5057143Y-3484285D01*
D12*
D11*
X5316142Y-6639428D02*
X4973285Y-6639428D01*
X5144714Y-7239428D02*
X5144714Y-6639428D01*
X4773285Y-7239428D02*
X4773285Y-6639428D01*
X4544714Y-6639428D01*
X4487571Y-6668000D01*
X4459000Y-6696571D01*
X4430428Y-6753714D01*
X4430428Y-6839428D01*
X4459000Y-6896571D01*
X4487571Y-6925142D01*
X4544714Y-6953714D01*
X4773285Y-6953714D01*
X4087571Y-6896571D02*
X4144714Y-6868000D01*
X4173285Y-6839428D01*
X4201857Y-6782285D01*
X4201857Y-6753714D01*
X4173285Y-6696571D01*
X4144714Y-6668000D01*
X4087571Y-6639428D01*
X3973285Y-6639428D01*
X3916142Y-6668000D01*
X3887571Y-6696571D01*
X3859000Y-6753714D01*
X3859000Y-6782285D01*
X3887571Y-6839428D01*
X3916142Y-6868000D01*
X3973285Y-6896571D01*
X4087571Y-6896571D01*
X4144714Y-6925142D01*
X4173285Y-6953714D01*
X4201857Y-7010857D01*
X4201857Y-7125142D01*
X4173285Y-7182285D01*
X4144714Y-7210857D01*
X4087571Y-7239428D01*
X3973285Y-7239428D01*
X3916142Y-7210857D01*
X3887571Y-7182285D01*
X3859000Y-7125142D01*
X3859000Y-7010857D01*
X3887571Y-6953714D01*
X3916142Y-6925142D01*
X3973285Y-6896571D01*
D12*
D11*
X842857Y-10446428D02*
X500000Y-10446428D01*
X671428Y-11046428D02*
X671428Y-10446428D01*
X300000Y-11046428D02*
X300000Y-10446428D01*
X71428Y-10446428D01*
X14285Y-10475000D01*
X-14286Y-10503571D01*
X-42858Y-10560714D01*
X-42858Y-10646428D01*
X-14286Y-10703571D01*
X14285Y-10732142D01*
X71428Y-10760714D01*
X300000Y-10760714D01*
X-614286Y-11046428D02*
X-271429Y-11046428D01*
X-442858Y-11046428D02*
X-442858Y-10446428D01*
X-385715Y-10532142D01*
X-328572Y-10589285D01*
X-271429Y-10617857D01*
X-985715Y-10446428D02*
X-1042858Y-10446428D01*
X-1100000Y-10475000D01*
X-1128572Y-10503571D01*
X-1157143Y-10560714D01*
X-1185715Y-10675000D01*
X-1185715Y-10817857D01*
X-1157143Y-10932142D01*
X-1128572Y-10989285D01*
X-1100000Y-11017857D01*
X-1042858Y-11046428D01*
X-985715Y-11046428D01*
X-928572Y-11017857D01*
X-900000Y-10989285D01*
X-871429Y-10932142D01*
X-842858Y-10817857D01*
X-842858Y-10675000D01*
X-871429Y-10560714D01*
X-900000Y-10503571D01*
X-928572Y-10475000D01*
X-985715Y-10446428D01*
D12*
D11*
X2010857Y-7369428D02*
X1668000Y-7369428D01*
X1839428Y-7969428D02*
X1839428Y-7369428D01*
X1468000Y-7969428D02*
X1468000Y-7369428D01*
X1239428Y-7369428D01*
X1182285Y-7398000D01*
X1153714Y-7426571D01*
X1125142Y-7483714D01*
X1125142Y-7569428D01*
X1153714Y-7626571D01*
X1182285Y-7655142D01*
X1239428Y-7683714D01*
X1468000Y-7683714D01*
X553714Y-7969428D02*
X896571Y-7969428D01*
X725142Y-7969428D02*
X725142Y-7369428D01*
X782285Y-7455142D01*
X839428Y-7512285D01*
X896571Y-7540857D01*
X-17715Y-7969428D02*
X325142Y-7969428D01*
X153714Y-7969428D02*
X153714Y-7369428D01*
X210857Y-7455142D01*
X268000Y-7512285D01*
X325142Y-7540857D01*
D12*
D11*
X-142143Y-9225428D02*
X-485000Y-9225428D01*
X-313572Y-9825428D02*
X-313572Y-9225428D01*
X-685000Y-9825428D02*
X-685000Y-9225428D01*
X-913572Y-9225428D01*
X-970715Y-9254000D01*
X-999286Y-9282571D01*
X-1027858Y-9339714D01*
X-1027858Y-9425428D01*
X-999286Y-9482571D01*
X-970715Y-9511142D01*
X-913572Y-9539714D01*
X-685000Y-9539714D01*
X-1599286Y-9825428D02*
X-1256429Y-9825428D01*
X-1427858Y-9825428D02*
X-1427858Y-9225428D01*
X-1370715Y-9311142D01*
X-1313572Y-9368285D01*
X-1256429Y-9396857D01*
X-1827858Y-9282571D02*
X-1856429Y-9254000D01*
X-1913572Y-9225428D01*
X-2056429Y-9225428D01*
X-2113572Y-9254000D01*
X-2142143Y-9282571D01*
X-2170715Y-9339714D01*
X-2170715Y-9396857D01*
X-2142143Y-9482571D01*
X-1799286Y-9825428D01*
X-2170715Y-9825428D01*
D12*
M02*
